<?xml version="1.0" encoding="utf-8"?>
<!-- Generator: Adobe Illustrator 28.0.0, SVG Export Plug-In . SVG Version: 6.00 Build 0)  -->
<svg version="1.1" id="圖層_1" xmlns="http://www.w3.org/2000/svg" xmlns:xlink="http://www.w3.org/1999/xlink" x="0px" y="0px"
	 viewBox="0 0 13.5 11.6" style="enable-background:new 0 0 13.5 11.6;" xml:space="preserve">
<style type="text/css">
	.st0{fill:#FFFFFF;}
</style>
<path class="st0" d="M13.5,5.8c0-0.4-0.2-0.7-0.5-0.9L7.8,0.3c-0.4-0.4-1-0.3-1.4,0.1C6,0.7,6,1.4,6.4,1.7l3.4,3.1H1
	c-0.6,0-1,0.4-1,1c0,0.6,0.4,1,1,1h8.8L6.4,9.8c-0.4,0.4-0.4,1-0.1,1.4c0.2,0.2,0.5,0.3,0.7,0.3c0.2,0,0.5-0.1,0.7-0.3l5.2-4.7
	C13.2,6.5,13.5,6.2,13.5,5.8z"/>
</svg>
