<?xml version="1.0" encoding="utf-8"?>
<!-- Generator: Adobe Illustrator 28.0.0, SVG Export Plug-In . SVG Version: 6.00 Build 0)  -->
<svg version="1.1" id="圖層_1" xmlns="http://www.w3.org/2000/svg" xmlns:xlink="http://www.w3.org/1999/xlink" x="0px" y="0px"
	 viewBox="0 0 9.9 9.9" style="enable-background:new 0 0 9.9 9.9;" xml:space="preserve">
<style type="text/css">
	.st0{fill:#666666;}
</style>
<path class="st0" d="M7.3,4.6h-2V2.1c0-0.2-0.2-0.4-0.4-0.4c-0.2,0-0.4,0.2-0.4,0.4v2.9c0,0.2,0.2,0.4,0.4,0.4h2.4
	c0.2,0,0.4-0.2,0.4-0.4C7.7,4.7,7.5,4.6,7.3,4.6z M5,0C2.2,0,0,2.2,0,5s2.2,5,5,5c2.7,0,5-2.2,5-5S7.7,0,5,0z M5,9.2
	C2.6,9.2,0.7,7.3,0.7,5S2.6,0.7,5,0.7S9.2,2.6,9.2,5S7.3,9.2,5,9.2z"/>
</svg>
