<?xml version="1.0" encoding="utf-8"?>
<!-- Generator: Adobe Illustrator 25.4.1, SVG Export Plug-In . SVG Version: 6.00 Build 0)  -->
<svg version="1.1" id="圖層_1" xmlns="http://www.w3.org/2000/svg" xmlns:xlink="http://www.w3.org/1999/xlink" x="0px" y="0px"
	 viewBox="0 0 88 31" style="enable-background:new 0 0 88 31;" xml:space="preserve">
<style type="text/css">
	.st0{fill-rule:evenodd;clip-rule:evenodd;fill:#4A8504;}
	.st1{fill-rule:evenodd;clip-rule:evenodd;fill:#274602;}
	.st2{fill-rule:evenodd;clip-rule:evenodd;fill:#FFCC00;}
	.st3{fill:#FFFFFF;}
</style>
<path class="st0" d="M0,1c0-0.7,0.2-1,0.7-1h86.5C87.8,0,88,0.3,88,1V30c0,0.6-0.2,1-0.7,1H0.7C0.2,31,0,30.7,0,30V1z"/>
<g>
	<path class="st1" d="M65.9,9.4L65,9.1c0-0.6,0.2-1,0.5-1.2c0.2-0.2,0.5-0.3,0.8-0.3l16.9-2.1c1.4-0.2,2.1,0.4,2.2,1.7l0.3,15
		c0,1.3-0.7,2-2.1,1.9l-16.2-1.3c0-0.3,0-0.5,0-0.7l15,1.2c1.3,0.1,1.9-0.5,1.9-1.7L83.9,8.1c0-1.2-0.7-1.7-1.9-1.5L67,8.4
		C66.4,8.5,66,8.8,65.9,9.4z"/>
	<g>
		<path class="st2" d="M82.5,5.8c1,0,1.6,0.3,1.8,1.1c0.1,0.2,0.2,0.5,0.2,0.9l0.3,14.6c0,0.1,0,0.1,0,0.2v0.1c0,0,0,0.1,0,0.1
			c0,1.3-0.6,1.9-2,1.8c0,0-0.1,0-0.1,0l-16-1.2V22l14.7,1.1c0,0,0.1,0,0.1,0c0.5,0,0.9-0.1,1.2-0.3c0.2-0.3,0.3-0.6,0.3-1.1
			L82.7,8.6c0-0.3-0.1-0.6-0.2-0.8c0,0-0.1,0-0.1-0.1c-0.3-0.2-0.6-0.2-1.1-0.2c-0.1,0-0.2,0-0.3,0L66.3,9.4
			c-0.5,0.1-0.9,0.3-1.1,0.8L64,9.3c0.1-0.4,0.2-0.7,0.5-0.9c0.2-0.3,0.6-0.5,1-0.5l16.7-2.1C82.3,5.8,82.4,5.8,82.5,5.8z"/>
	</g>
	<g>
		<g>
			<path class="st2" d="M77.1,10.5c0.2,0.2,0.3,0.5,0.3,0.7c0,0.3-0.1,0.5-0.3,0.7c-0.2,0.2-0.4,0.3-0.7,0.3c-0.3,0-0.6-0.1-0.8-0.3
				c-0.2-0.2-0.3-0.5-0.3-0.7c0-0.3,0.1-0.5,0.3-0.7c0.2-0.2,0.5-0.3,0.8-0.3C76.7,10.2,76.9,10.3,77.1,10.5z M72.6,10.2
				c0.3,0,0.5,0.1,0.7,0.3c0.2,0.2,0.3,0.5,0.3,0.7c0,0.3-0.1,0.5-0.3,0.7c-0.2,0.2-0.4,0.3-0.7,0.3c-0.3,0-0.5-0.1-0.7-0.3
				c-0.2-0.2-0.3-0.5-0.3-0.7c0-0.3,0.1-0.5,0.3-0.7C72.1,10.3,72.3,10.2,72.6,10.2z M72.6,14.1c0.3,0,0.5,0.1,0.7,0.3
				c0.2,0.2,0.3,0.4,0.3,0.7c0,0.3-0.1,0.5-0.3,0.7c-0.2,0.2-0.4,0.3-0.7,0.3c-0.3,0-0.5-0.1-0.7-0.3c-0.2-0.2-0.3-0.5-0.3-0.7
				c0-0.3,0.1-0.5,0.3-0.7C72.1,14.2,72.3,14.1,72.6,14.1z M76.4,14.1c0.3,0,0.5,0.1,0.7,0.3c0.2,0.2,0.3,0.4,0.3,0.7
				c0,0.3-0.1,0.5-0.3,0.7c-0.2,0.2-0.4,0.3-0.7,0.3c-0.3,0-0.6-0.1-0.8-0.3c-0.2-0.2-0.3-0.5-0.3-0.7c0-0.3,0.1-0.5,0.3-0.7
				C75.8,14.2,76.1,14.1,76.4,14.1z M68.9,10.2c0.3,0,0.5,0.1,0.7,0.3c0.2,0.2,0.3,0.5,0.3,0.7c0,0.3-0.1,0.5-0.3,0.7
				c-0.2,0.2-0.5,0.3-0.7,0.3c-0.3,0-0.6-0.1-0.8-0.3c-0.2-0.2-0.3-0.5-0.3-0.7c0-0.3,0.1-0.5,0.3-0.7
				C68.3,10.3,68.6,10.2,68.9,10.2z M68.1,14.4c0.2-0.2,0.5-0.3,0.8-0.3c0.3,0,0.5,0.1,0.7,0.3c0.2,0.2,0.3,0.4,0.3,0.7
				c0,0.3-0.1,0.5-0.3,0.7c-0.2,0.2-0.5,0.3-0.7,0.3c-0.3,0-0.6-0.1-0.8-0.3c-0.2-0.2-0.3-0.5-0.3-0.7
				C67.8,14.9,67.9,14.6,68.1,14.4z M68.7,18.4c0.3,0,0.5,0.1,0.7,0.3c0.2,0.2,0.3,0.4,0.3,0.7c0,0.3-0.1,0.5-0.3,0.7
				c-0.2,0.2-0.4,0.3-0.7,0.3c-0.3,0-0.5-0.1-0.7-0.3c-0.2-0.2-0.3-0.5-0.3-0.7c0-0.3,0.1-0.5,0.3-0.7
				C68.2,18.5,68.4,18.4,68.7,18.4z M77,18.7c0.2,0.2,0.3,0.4,0.3,0.7c0,0.3-0.1,0.5-0.3,0.7c-0.2,0.2-0.5,0.3-0.7,0.3
				c-0.3,0-0.6-0.1-0.8-0.3c-0.2-0.2-0.3-0.5-0.3-0.7c0-0.3,0.1-0.5,0.3-0.7c0.2-0.2,0.5-0.3,0.8-0.3C76.5,18.4,76.8,18.5,77,18.7z
				 M73.5,19.4c0,0.3-0.1,0.5-0.3,0.7c-0.2,0.2-0.4,0.3-0.7,0.3c-0.3,0-0.6-0.1-0.8-0.3c-0.2-0.2-0.3-0.5-0.3-0.7
				c0-0.3,0.1-0.5,0.3-0.7c0.2-0.2,0.5-0.3,0.8-0.3c0.3,0,0.5,0.1,0.7,0.3C73.4,18.9,73.5,19.2,73.5,19.4z M81.2,10.5
				c0.2,0.2,0.3,0.5,0.3,0.7c0,0.3-0.1,0.5-0.3,0.7c-0.2,0.2-0.5,0.3-0.7,0.3c-0.3,0-0.6-0.1-0.8-0.3c-0.2-0.2-0.3-0.5-0.3-0.7
				c0-0.3,0.1-0.5,0.3-0.7c0.2-0.2,0.5-0.3,0.8-0.3C80.8,10.2,81,10.3,81.2,10.5z M80.5,14.1c0.3,0,0.5,0.1,0.7,0.3
				c0.2,0.2,0.3,0.4,0.3,0.7c0,0.3-0.1,0.5-0.3,0.7c-0.2,0.2-0.5,0.3-0.7,0.3c-0.3,0-0.6-0.1-0.8-0.3c-0.2-0.2-0.3-0.5-0.3-0.7
				c0-0.3,0.1-0.5,0.3-0.7C80,14.2,80.2,14.1,80.5,14.1z M80.4,18.4c0.3,0,0.5,0.1,0.7,0.3c0.2,0.2,0.3,0.4,0.3,0.7
				c0,0.3-0.1,0.5-0.3,0.7c-0.2,0.2-0.4,0.3-0.7,0.3c-0.3,0-0.5-0.1-0.7-0.3c-0.2-0.2-0.3-0.5-0.3-0.7c0-0.3,0.1-0.5,0.3-0.7
				C79.8,18.5,80.1,18.4,80.4,18.4z"/>
			<g>
				<path class="st1" d="M75.1,9.6C75.5,9.2,76,9,76.5,9c0.5,0,0.9,0.2,1.3,0.6c0.4,0.4,0.6,0.8,0.6,1.3c0,0.5-0.2,1-0.6,1.4
					c-0.4,0.4-0.8,0.6-1.3,0.6c-0.5,0-1-0.2-1.4-0.6c-0.4-0.4-0.6-0.8-0.6-1.4C74.6,10.4,74.8,10,75.1,9.6z"/>
			</g>
			<g>
				<path class="st1" d="M70.5,15.5c0,0.5-0.2,1-0.6,1.4c-0.4,0.4-0.8,0.6-1.3,0.6c-0.6,0-1-0.2-1.4-0.6c-0.4-0.4-0.6-0.8-0.6-1.4
					c0-0.5,0.2-0.9,0.6-1.3c0.4-0.4,0.8-0.6,1.4-0.6c0.5,0,0.9,0.2,1.3,0.6C70.3,14.6,70.5,15,70.5,15.5z"/>
			</g>
			<g>
				<path class="st1" d="M75,18.4c0.4-0.4,0.8-0.6,1.4-0.6c0.5,0,0.9,0.2,1.3,0.6c0.4,0.4,0.6,0.8,0.6,1.3c0,0.5-0.2,1-0.6,1.4
					c-0.4,0.4-0.8,0.6-1.3,0.6c-0.6,0-1-0.2-1.4-0.6c-0.4-0.4-0.6-0.9-0.6-1.4C74.5,19.2,74.7,18.8,75,18.4z"/>
			</g>
		</g>
	</g>
</g>
<g>
	<path class="st3" d="M5.2,12.8l0.5,0.4c0,0,0.1,0.1,0.1,0.1c0,0,0,0-0.1,0c-0.1,0-0.1,0-0.1,0.1c-0.1,0.2-0.3,0.4-0.5,0.6
		c-0.2,0.2-0.5,0.4-0.8,0.6c-0.1,0-0.1,0-0.1-0.1c-0.1-0.1-0.2-0.2-0.3-0.3c0,0-0.1,0-0.1-0.1c0,0,0,0,0,0C4,14.1,4.1,14.1,4.2,14
		c0.2-0.2,0.4-0.3,0.5-0.5C4.9,13.3,5,13.1,5.2,12.8C5.2,12.9,5.2,12.8,5.2,12.8z M11.7,9.7c0.1,0,0.1,0,0.1,0.1v0.3
		c0,0.1,0,0.1-0.1,0.1H4c-0.1,0-0.1,0-0.1-0.1V9.8c0-0.1,0-0.1,0.1-0.1H11.7z M5.7,6.5c0.5,0.2,0.7,0.4,0.7,0.4C6.4,7,6.4,7,6.4,7
		C6.3,7,6.2,7,6.2,7.1c-0.3,0.6-0.6,1-0.9,1.3C5.1,8.6,4.8,8.8,4.4,9.1c-0.1,0-0.1,0-0.2-0.1C4.2,9,4.1,8.9,4,8.8
		c0,0-0.1-0.1-0.1-0.1c0.2-0.2,0.4-0.4,0.6-0.5c0.3-0.2,0.5-0.5,0.7-0.8C5.4,7.1,5.6,6.8,5.7,6.5C5.7,6.5,5.7,6.5,5.7,6.5z M11.5,12
		c0.1,0,0.1,0,0.1,0.1v0.3c0,0.1,0,0.1-0.1,0.1H4.3c-0.1,0-0.1,0-0.1-0.1v-0.3c0-0.1,0-0.1,0.1-0.1H11.5z M5.2,7.8h0.6v4.3
		c0,0.1,0,0.1-0.1,0.1H5.3c-0.1,0-0.1,0-0.1-0.1V7.8z M11.3,7.5c0.1,0,0.1,0,0.1,0.1v0.3c0,0.1,0,0.1-0.1,0.1H5.6
		c-0.1,0-0.1,0-0.1-0.1V7.6c0-0.1,0-0.1,0.1-0.1H11.3z M7.2,12.9c0.3,0.4,0.5,0.8,0.7,1.3c0,0.1,0,0.1-0.1,0.1
		c-0.2,0.1-0.4,0.2-0.5,0.2C7,14,6.8,13.5,6.6,13.2C6.6,13.1,6.8,13,7.2,12.9C7.1,12.9,7.1,12.9,7.2,12.9z M6.8,7.8h0.6v4.3
		c0,0.1,0,0.1-0.1,0.1H6.9c-0.1,0-0.1,0-0.1-0.1V7.8z M8.4,7.8H9v4.3c0,0.1,0,0.1-0.1,0.1H8.5c-0.1,0-0.1,0-0.1-0.1V7.8z M8.9,12.9
		c0.3,0.4,0.6,0.9,0.9,1.4c0,0.1,0,0.1-0.1,0.1c-0.2,0.1-0.4,0.2-0.5,0.2c-0.3-0.6-0.5-1.1-0.8-1.5C8.4,13.1,8.5,13,8.9,12.9
		C8.8,12.9,8.9,12.9,8.9,12.9z M10,7.8h0.6v4.3c0,0.1,0,0.1-0.1,0.1h-0.4c-0.1,0-0.1,0-0.1-0.1V7.8z M11.3,13.5
		c0.2,0.3,0.4,0.5,0.6,0.7c0,0,0,0,0,0.1c-0.2,0.3-0.3,0.4-0.3,0.4c-0.3-0.3-0.5-0.6-0.8-0.9c-0.2-0.2-0.5-0.4-0.6-0.5
		c0,0,0.1-0.2,0.3-0.4c0,0,0.1-0.1,0.1-0.1C10.8,13.1,11.1,13.3,11.3,13.5z"/>
	<path class="st3" d="M13.4,6.9h0.4c0.1,0,0.1,0,0.1,0.1v7.6c0,0.1,0,0.1-0.1,0.1h-0.4c-0.1,0-0.1,0-0.1-0.1V7
		C13.3,6.9,13.3,6.9,13.4,6.9z M15.4,6.9v0.5h-1.7c-0.1,0-0.1,0-0.1-0.1V7c0-0.1,0-0.1,0.1-0.1H15.4z M15.4,6.9c0.2,0,0.3,0,0.3,0.1
		c0.1,0.1,0.2,0.3,0.2,0.3L15,9.5c0,0,0,0.1,0,0.1c0,0,0,0,0,0.1c0.3,0.3,0.6,0.7,0.7,1c0.1,0.3,0.2,0.6,0.2,0.9
		c0,0.5-0.1,0.9-0.2,1.2c-0.2,0.3-0.5,0.5-0.9,0.5c-0.3,0-0.4-0.1-0.4-0.2c0-0.1-0.1-0.3-0.1-0.5c0-0.1,0-0.1,0.1-0.1l0.5,0.1
		c0.2,0,0.3-0.1,0.4-0.3c0-0.2,0.1-0.4,0.1-0.7c0-0.2-0.1-0.5-0.2-0.8c-0.2-0.3-0.4-0.6-0.7-0.9c0,0-0.1-0.1-0.1-0.1
		c0,0,0-0.1,0-0.1L15.4,6.9z M21,8.8c0.1,0,0.1,0,0.1,0.1v0.3c0,0.1,0,0.1-0.1,0.1h-5.2c-0.1,0-0.1,0-0.1-0.1V9c0-0.1,0-0.1,0.1-0.1
		H21z M21,13.2c0.1,0,0.1,0,0.1,0.1v0.3c0,0.1,0,0.1-0.1,0.1h-5.3c-0.1,0-0.1,0-0.1-0.1v-0.3c0-0.1,0-0.1,0.1-0.1H21z M20.7,7.3
		c0.1,0,0.1,0,0.1,0.1v0.3c0,0.1,0,0.1-0.1,0.1h-4.6c-0.1,0-0.1,0-0.1-0.1V7.4c0-0.1,0-0.1,0.1-0.1H20.7z M16.4,10h4l-0.5,0.5H17
		v1.6l-0.5,0.5c-0.1,0-0.1,0-0.1-0.1v-2.4C16.4,10,16.4,10,16.4,10z M19.9,10.5l0.5-0.5c0.1,0,0.1,0,0.1,0.1v2.4
		c0,0.1,0,0.1-0.1,0.1h-4l0.5-0.5h2.9V10.5z M20.1,11c0.1,0,0.1,0,0.1,0.1v0.3c0,0.1,0,0.1-0.1,0.1h-3.4c-0.1,0-0.1,0-0.1-0.1v-0.3
		c0-0.1,0-0.1,0.1-0.1H20.1z M17.6,8.5c0.1,0.2,0.2,0.3,0.2,0.5c0,0-0.2,0.1-0.5,0.2c0-0.1-0.1-0.2-0.2-0.4
		c-0.1-0.2-0.2-0.4-0.3-0.5c0,0,0.2-0.1,0.5-0.3C17.4,8.2,17.5,8.3,17.6,8.5z M18.9,6.7c0,0.1,0,0.1-0.1,0.1c-0.1,0-0.1,0.1-0.1,0.2
		v0.5c0,0.1,0,0.1-0.1,0.1h-0.4c-0.1,0-0.1,0-0.1-0.1V6.7c0-0.1,0-0.1,0.1-0.1C18.7,6.6,18.9,6.6,18.9,6.7z M18.1,12.3h0.6v2.2
		c0,0.1,0,0.1-0.1,0.1h-0.4c-0.1,0-0.1,0-0.1-0.1V12.3z M19.5,8L20,8.2c0.1,0,0.1,0.1,0.1,0.1c0,0,0,0.1-0.1,0.1
		c-0.1,0-0.1,0-0.1,0.1c-0.1,0.3-0.3,0.6-0.4,0.8c0,0-0.1,0.1-0.1,0.1c0,0-0.1,0-0.1-0.1C19.2,9.1,19.1,9.1,19,9c0,0-0.1,0-0.1,0
		c0,0,0,0,0,0c0.1-0.2,0.2-0.3,0.3-0.4C19.3,8.4,19.4,8.2,19.5,8C19.4,8,19.4,8,19.5,8z"/>
	<path class="st3" d="M23.5,7.5L24,7.7c-0.1,0.6-0.2,1.1-0.3,1.6c-0.1,0.5-0.3,0.9-0.4,1.3c-0.1,0.4-0.3,0.8-0.5,1.1
		c-0.1,0-0.1,0-0.1,0c-0.1-0.1-0.2-0.1-0.4-0.2c-0.1,0-0.1,0-0.1,0c0.3-0.4,0.5-0.8,0.6-1.3c0.2-0.4,0.3-0.8,0.4-1.1
		C23.2,8.6,23.3,8.2,23.5,7.5C23.4,7.5,23.5,7.5,23.5,7.5z M24.8,7.2c0.1,0,0.1,0,0.1,0.1v0.3c0,0.1,0,0.1-0.1,0.1h-2.2
		c-0.1,0-0.1,0-0.1-0.1V7.4c0-0.1,0-0.1,0.1-0.1H24.8z M23.2,9.9h0.3c0.1,0,0.1,0,0.1,0.1v4.5c0,0.1,0,0.1-0.1,0.1h-0.3
		c-0.1,0-0.1,0-0.1-0.1V10C23.1,10,23.1,9.9,23.2,9.9z M24.7,9.9c0.1,0,0.1,0,0.1,0.1v3.7c0,0.1,0,0.1-0.1,0.1h-0.3
		c-0.1,0-0.1,0-0.1-0.1v-3.3h-0.8c-0.1,0-0.1,0-0.1-0.1V10c0-0.1,0-0.1,0.1-0.1H24.7z M24.5,12.9c0.1,0,0.1,0,0.1,0.1v0.3
		c0,0.1,0,0.1-0.1,0.1h-1.1c-0.1,0-0.1,0-0.1-0.1V13c0-0.1,0-0.1,0.1-0.1H24.5z M26.8,10.3c0.1,0,0.1,0,0.1,0.1c0,0.1,0,0.1-0.1,0.1
		c-0.1,0-0.1,0.1-0.1,0.2c0,0.9,0,1.6-0.1,2c-0.1,0.5-0.3,0.9-0.5,1.2c-0.2,0.2-0.4,0.5-0.7,0.7h-0.1c-0.2,0-0.3-0.1-0.5-0.2
		c0,0,0,0,0-0.1c0.3-0.2,0.6-0.4,0.8-0.7c0.2-0.2,0.3-0.5,0.4-0.9c0.1-0.4,0.2-1,0.2-1.9c0-0.1,0-0.3,0-0.6c0-0.1,0-0.1,0.1-0.1
		L26.8,10.3z M25.7,9.4l0.5,0.2c0.1,0,0.1,0.1,0.1,0.1c0,0.1,0,0.1-0.1,0.1c-0.1,0-0.1,0-0.1,0.1c-0.2,0.7-0.4,1.2-0.6,1.5
		c0,0.1-0.1,0.1-0.1,0.1c0,0-0.1,0-0.1,0c-0.1-0.1-0.2-0.1-0.3-0.1c0,0-0.1,0-0.1,0c0,0,0,0,0-0.1c0.2-0.3,0.3-0.6,0.4-0.8
		c0.1-0.3,0.2-0.6,0.3-0.9C25.7,9.4,25.7,9.4,25.7,9.4z M27.4,11.8c0.1,0,0.1,0,0.1,0.1v0.3c0,0.1,0,0.1-0.1,0.1h-2.1
		c-0.1,0-0.1,0-0.1-0.1v-0.3c0-0.1,0-0.1,0.1-0.1H27.4z M25.9,6.7c0,0,0,0.1-0.1,0.1v1.7c0,0.1,0,0.1,0.1,0.1h1
		c0.1,0,0.2-0.2,0.3-0.6l0.5,0.3c-0.2,0.5-0.4,0.8-0.7,0.8h-1.3c-0.3,0-0.4-0.1-0.4-0.4V6.7c0-0.1,0-0.1,0.1-0.1
		C25.7,6.6,25.9,6.7,25.9,6.7z M27.2,7C27.2,7,27.2,7,27.2,7c0.3,0.4,0.4,0.5,0.4,0.5c0,0.1,0,0.1-0.1,0.1l-0.2,0c0,0,0,0,0,0
		c-0.1,0.1-0.3,0.2-0.4,0.2C26.7,7.9,26.5,8,26.3,8c-0.2,0.1-0.4,0.1-0.7,0.2l-0.2-0.5c0.3-0.1,0.5-0.1,0.7-0.2
		c0.2-0.1,0.4-0.2,0.6-0.3C26.9,7.2,27,7.1,27.2,7C27.1,7,27.1,7,27.2,7z M27.4,10.2c0.1,0,0.1,0,0.1,0.1v0.3c0,0.1,0,0.1-0.1,0.1
		h-1.6c-0.1,0-0.1,0-0.1-0.1v-0.3c0-0.1,0-0.1,0.1-0.1H27.4z M26.9,12.7c0.1,0.2,0.2,0.4,0.4,0.7c0,0,0,0,0,0.1c0,0,0,0-0.1,0.1
		c-0.1,0.1-0.1,0.2-0.2,0.3c0,0-0.1,0.1-0.1,0.1c0,0,0,0-0.1,0c-0.1-0.2-0.3-0.4-0.4-0.7c-0.1-0.3-0.2-0.6-0.3-0.9l0.4-0.2
		C26.8,12.3,26.8,12.6,26.9,12.7z M27.8,10.8l0.7,0.1c0,0,0,0.1-0.1,0.1c-0.1,0-0.1,0.1-0.1,0.1c0,0.5,0,0.8,0,1.1
		c0,0.2,0,0.5-0.1,0.7c0,0.2-0.1,0.4-0.2,0.7c-0.1,0.2-0.1,0.4-0.2,0.5c-0.1,0.2-0.3,0.4-0.5,0.6c0,0-0.1,0-0.1-0.1
		c-0.1-0.1-0.2-0.2-0.3-0.3c0,0-0.1-0.1-0.1-0.1c0,0,0.1-0.1,0.2-0.2c0.1-0.1,0.2-0.2,0.2-0.3c0.1-0.1,0.1-0.2,0.2-0.4
		c0.1-0.1,0.1-0.3,0.2-0.5c0-0.2,0.1-0.4,0.1-0.6c0-0.2,0-0.4,0.1-0.7C27.9,11.5,27.9,11.2,27.8,10.8z M30.4,9.6l-0.1,0.5h-2.5
		c-0.1,0-0.1,0-0.1-0.1V9.7c0-0.1,0-0.1,0.1-0.1H30.4z M28.2,12.1c0.1,0,0.1,0,0.1,0.1c0,0.3,0,0.6,0.1,0.8c0,0.2,0.1,0.4,0.1,0.5
		c0,0.1,0.1,0.2,0.1,0.3c0,0.1,0.1,0.1,0.2,0.2c0.1,0,0.1,0.1,0.2,0.1c0.2,0,0.4,0,0.7,0c0.2,0,0.5,0,0.9-0.1c0,0,0,0.1,0,0.1
		c-0.1,0.1-0.1,0.3-0.1,0.4c0,0.1-0.1,0.1-0.1,0.1c-0.1,0-0.3,0-0.6,0c-0.5,0-0.8,0-1-0.1c-0.1,0-0.2-0.1-0.3-0.2
		c-0.1-0.1-0.2-0.2-0.3-0.4c-0.1-0.2-0.1-0.3-0.2-0.6c-0.1-0.3-0.1-0.7-0.1-1.2c0-0.1,0-0.1,0.1-0.1H28H28.2z M29,8.4
		c0.3,0.1,0.5,0.3,0.8,0.5c0.2,0.1,0.3,0.2,0.4,0.4c0,0,0,0,0,0c0,0-0.1,0.1-0.4,0.3c0,0,0,0-0.1,0c-0.2-0.2-0.4-0.3-0.7-0.5
		C29,9,28.8,8.9,28.7,8.8c-0.2-0.1-0.4-0.2-0.7-0.3c0,0,0,0,0,0c0,0,0.1-0.1,0.3-0.3c0,0,0.1,0,0.1,0C28.5,8.2,28.7,8.3,29,8.4z
		 M30,6.9c0.1,0,0.1,0,0.2,0.1l-0.1,0.4h-1.9c-0.1,0-0.1,0-0.1-0.1V7c0-0.1,0-0.1,0.1-0.1H30z M28.8,9.8h0.6v4.4
		c0,0.1,0,0.1-0.1,0.1h-0.3c-0.1,0-0.1,0-0.1-0.1V9.8z M30.2,7c0.2,0.2,0.3,0.4,0.3,0.4c-0.5,0.8-0.9,1.3-1,1.5c0,0,0,0.1-0.1,0.1
		c0,0-0.1,0-0.1-0.1c-0.1-0.1-0.2-0.2-0.3-0.3c0,0-0.1,0-0.1-0.1L30.2,7z M30.2,11.8c0.1,0,0.1,0,0.1,0.1v0.3c0,0.1,0,0.1-0.1,0.1
		h-1c-0.1,0-0.1,0-0.1-0.1v-0.3c0-0.1,0-0.1,0.1-0.1H30.2z M30.3,9.6h0.1c0.1,0,0.1,0,0.1,0c0.1,0.1,0.1,0.2,0.1,0.2l-0.5,1.3
		c0,0,0,0,0,0c-0.3-0.1-0.4-0.1-0.4-0.2L30.3,9.6z"/>
	<path class="st3" d="M32.8,8.8L33.4,9c-0.1,0.6-0.2,1.1-0.3,1.6c-0.1,0.5-0.3,0.9-0.4,1.3c-0.1,0.4-0.3,0.8-0.5,1.1
		c-0.1,0-0.1,0-0.1,0c-0.1-0.1-0.2-0.1-0.4-0.2c-0.1,0-0.1,0-0.1,0c0.3-0.4,0.5-0.8,0.6-1.3c0.2-0.4,0.3-0.8,0.4-1.1
		C32.6,9.9,32.7,9.5,32.8,8.8C32.8,8.8,32.8,8.8,32.8,8.8z M34.3,8.5c0.1,0,0.1,0,0.1,0.1V9c0,0.1,0,0.1-0.1,0.1h-2.5
		c-0.1,0-0.1,0-0.1-0.1V8.6c0-0.1,0-0.1,0.1-0.1H34.3z M33.7,6.8c0,0.1,0,0.1-0.1,0.1c-0.1,0-0.1,0.1-0.1,0.2v7.5
		c0,0.1,0,0.1-0.1,0.1H33c-0.1,0-0.1,0-0.1-0.1V6.8c0-0.1,0-0.1,0.1-0.1C33.4,6.7,33.7,6.7,33.7,6.8z M33.9,10
		c0.1,0.3,0.3,0.7,0.6,1.1c0,0,0.1,0.1,0.1,0.1c0,0,0,0-0.1,0.1c-0.1,0.1-0.1,0.2-0.2,0.3c0,0-0.1,0.1-0.1,0.1c0,0-0.1,0-0.1-0.1
		c-0.2-0.3-0.4-0.7-0.5-1.1c-0.2-0.4-0.3-0.9-0.4-1.5l0.4-0.2C33.7,9.3,33.8,9.7,33.9,10z M35.5,12.8l0.5,0.4c0,0,0.1,0.1,0.1,0.1
		c0,0,0,0-0.1,0c-0.1,0-0.1,0-0.1,0.1c-0.2,0.2-0.3,0.4-0.5,0.5c-0.2,0.2-0.5,0.3-0.8,0.5c-0.1,0-0.1,0-0.1-0.1
		c-0.1-0.1-0.2-0.2-0.3-0.3c0,0-0.1,0-0.1-0.1c0,0,0,0,0,0c0.1-0.1,0.3-0.1,0.4-0.2c0.2-0.1,0.4-0.3,0.5-0.4
		C35.2,13.2,35.3,13,35.5,12.8C35.5,12.8,35.5,12.8,35.5,12.8z M39.5,11.8c0.1,0,0.1,0,0.1,0.1v0.3c0,0.1,0,0.1-0.1,0.1h-5
		c-0.1,0-0.1,0-0.1-0.1v-0.3c0-0.1,0-0.1,0.1-0.1H39.5z M39.5,7c0.1,0,0.1,0,0.1,0.1v0.3c0,0.1,0,0.1-0.1,0.1h-4.9
		c-0.1,0-0.1,0-0.1-0.1V7.1c0-0.1,0-0.1,0.1-0.1H39.5z M34.8,8.2h4.5l-0.5,0.5h-3.5v0.9l-0.5,0.5c-0.1,0-0.1,0-0.1-0.1V8.3
		C34.7,8.3,34.7,8.2,34.8,8.2z M38.8,8.7l0.5-0.5c0.1,0,0.1,0,0.1,0.1V10c0,0.1,0,0.1-0.1,0.1h-4.5l0.5-0.5h3.5V8.7z M39,10.7
		c0.1,0,0.1,0,0.1,0.1v0.3c0,0.1,0,0.1-0.1,0.1h-3.8c-0.1,0-0.1,0-0.1-0.1v-0.3c0-0.1,0-0.1,0.1-0.1H39z M36.8,12.1h0.6v2
		c0,0.5-0.4,0.7-1.1,0.7h-0.4c0,0-0.1-0.1-0.1-0.2c0-0.1-0.1-0.3-0.2-0.5c0,0,0-0.1,0-0.1c0.2,0,0.4,0.1,0.5,0.1
		c0.3,0,0.5-0.1,0.5-0.3V12.1z M36,7.3h0.6v2.5c0,0.1,0,0.1-0.1,0.1h-0.3c-0.1,0-0.1,0-0.1-0.1V7.3z M37.4,7.3H38v2.5
		c0,0.1,0,0.1-0.1,0.1h-0.3c-0.1,0-0.1,0-0.1-0.1V7.3z M39.1,13.4c0.2,0.2,0.4,0.4,0.6,0.6c0,0,0,0,0,0.1c-0.2,0.2-0.3,0.4-0.3,0.4
		c-0.2-0.3-0.5-0.6-0.8-0.8c-0.2-0.2-0.4-0.3-0.6-0.4c0,0,0.1-0.2,0.3-0.4c0,0,0.1-0.1,0.1-0.1C38.7,13,38.9,13.2,39.1,13.4z"/>
	<path class="st3" d="M48.7,13.2c0.1,0,0.1,0,0.1,0.1v0.3c0,0.1,0,0.1-0.1,0.1h-7.5c-0.1,0-0.1,0-0.1-0.1v-0.3c0-0.1,0-0.1,0.1-0.1
		H48.7z M48.7,8.7c0.1,0,0.1,0,0.1,0.1v0.3c0,0.1,0,0.1-0.1,0.1h-7.5c-0.1,0-0.1,0-0.1-0.1V8.9c0-0.1,0-0.1,0.1-0.1H48.7z M48.1,7.2
		c0.1,0,0.1,0,0.1,0.1v0.3c0,0.1,0,0.1-0.1,0.1h-6.3c-0.1,0-0.1,0-0.1-0.1V7.3c0-0.1,0-0.1,0.1-0.1H48.1z M42.2,9.8h5.5l-0.5,0.5
		h-4.5V12l-0.5,0.5c-0.1,0-0.1,0-0.1-0.1V9.9C42.1,9.9,42.1,9.8,42.2,9.8z M47.2,10.3l0.5-0.5c0.1,0,0.1,0,0.1,0.1v2.5
		c0,0.1,0,0.1-0.1,0.1h-5.5l0.5-0.5h4.5V10.3z M47.4,10.9c0.1,0,0.1,0,0.1,0.1v0.3c0,0.1,0,0.1-0.1,0.1h-5c-0.1,0-0.1,0-0.1-0.1V11
		c0-0.1,0-0.1,0.1-0.1H47.4z M43.5,8.2c0.1,0.1,0.2,0.2,0.3,0.4c0,0-0.2,0.1-0.6,0.2c0-0.1-0.1-0.2-0.2-0.3
		c-0.1-0.1-0.2-0.3-0.4-0.4c0,0,0.2-0.1,0.5-0.3C43.3,7.9,43.4,8,43.5,8.2z M44.6,12.3h0.6v2.3c0,0.1,0,0.1-0.1,0.1h-0.4
		c-0.1,0-0.1,0-0.1-0.1V12.3z M45.4,6.7c0,0.1,0,0.1-0.1,0.1c-0.1,0-0.1,0.1-0.1,0.2v0.4c0,0.1,0,0.1-0.1,0.1h-0.4
		c-0.1,0-0.1,0-0.1-0.1V6.7c0-0.1,0-0.1,0.1-0.1C45.2,6.6,45.4,6.6,45.4,6.7z M46.7,7.7l0.5,0.2c0.1,0,0.1,0.1,0.1,0.1
		c0,0,0,0-0.1,0.1c-0.1,0-0.1,0-0.1,0.1c-0.2,0.3-0.3,0.5-0.5,0.6c0,0-0.1,0-0.1,0c0,0-0.1,0-0.1-0.1c-0.1-0.1-0.2-0.1-0.3-0.2
		c0,0-0.1,0-0.1,0c0,0,0,0,0,0c0.1-0.1,0.3-0.3,0.3-0.4C46.5,8,46.5,7.9,46.7,7.7C46.6,7.7,46.6,7.7,46.7,7.7z"/>
	<path class="st3" d="M54.3,13.9h-4.2c0-0.4,0.2-0.9,0.6-1.4c0.2-0.3,0.6-0.7,1.2-1.1c0.4-0.3,0.8-0.7,1.1-1
		c0.3-0.4,0.5-0.8,0.5-1.1c0-0.3-0.1-0.6-0.3-0.8c-0.2-0.2-0.5-0.3-0.9-0.3c-0.2,0-0.5,0.1-0.7,0.2C51.2,8.5,51,8.9,51,9.4l-0.8-0.1
		c0-0.3,0.1-0.5,0.2-0.7c0.3-0.7,1-1.1,1.9-1.1c0.7,0,1.2,0.2,1.5,0.6c0.3,0.3,0.4,0.7,0.4,1.2c0,0.4-0.1,0.7-0.3,1
		c-0.2,0.4-0.7,0.9-1.3,1.4l-0.6,0.5c-0.4,0.3-0.7,0.7-0.9,1h3.1V13.9z"/>
	<path class="st3" d="M56.7,13.9h-0.9V13h0.9V13.9z"/>
	<path class="st3" d="M62.3,10.8c0,2.2-0.7,3.3-2.1,3.3c-1.4,0-2.1-1.1-2.1-3.3c0-2.2,0.7-3.3,2.1-3.3C61.6,7.5,62.3,8.6,62.3,10.8z
		 M61.5,10.8c0-0.7-0.1-1.3-0.2-1.7c-0.2-0.6-0.6-0.9-1.1-0.9C59.4,8.1,59,9,59,10.8c0,1.7,0.4,2.6,1.3,2.6
		C61.1,13.4,61.5,12.5,61.5,10.8z"/>
</g>
<g>
	<g>
		<path class="st2" d="M7.4,18.1c-0.1,0.1-0.2,0.1-0.3,0.3c-0.1,0.1-0.2,0.3-0.2,0.4c-0.1,0.1-0.1,0.3-0.1,0.4
			c0,0.3,0.1,0.6,0.3,0.9c0.2,0.2,0.5,0.4,0.7,0.4c0.1,0,0.2,0,0.3-0.1c0.1-0.1,0.2-0.2,0.4-0.4c0.2-0.2,0.3-0.4,0.3-0.7
			c0-0.3-0.1-0.6-0.3-0.9C8.2,18.2,8,18,7.7,18C7.6,18,7.5,18.1,7.4,18.1z M10.4,18c0.7,1.2,1.1,2.5,1.1,3.9c0,0.6-0.1,1.2-0.2,1.7
			c-0.2,0.5-0.4,1-0.8,1.3H9.8c0-0.1,0.1-0.3,0.1-0.4c0-0.2,0-0.3,0-0.5c0-0.7-0.2-1.3-0.6-1.9c-0.4-0.6-0.9-0.9-1.5-0.9
			c-0.6,0-1.1,0.3-1.5,0.9c-0.4,0.6-0.6,1.2-0.6,1.9c0,0.3,0.1,0.6,0.2,0.9H5.2c-0.4-0.3-0.6-0.8-0.8-1.3c-0.2-0.5-0.3-1.1-0.3-1.8
			c0-1.4,0.4-2.7,1.1-3.9c0.7-1.2,1.6-1.8,2.6-1.8C8.8,16.2,9.7,16.8,10.4,18z"/>
	</g>
</g>
<g>
	<path class="st3" d="M19.6,23.8c-0.6,0-1.1-0.2-1.4-0.6c-0.3-0.4-0.5-0.8-0.5-1.3c0-0.5,0.2-0.9,0.5-1.3c0.3-0.4,0.8-0.6,1.4-0.6
		h2.1v0.6h-2.1c-0.4,0-0.7,0.1-0.9,0.4c-0.2,0.2-0.3,0.5-0.3,0.8c0,0.3,0.1,0.6,0.3,0.9c0.2,0.3,0.5,0.4,0.9,0.4h2.1v0.6H19.6z"/>
	<path class="st3" d="M24.1,23.8c-0.6,0-1.1-0.2-1.4-0.6c-0.3-0.4-0.5-0.8-0.5-1.3c0-0.5,0.2-0.9,0.5-1.3c0.3-0.4,0.8-0.6,1.4-0.6
		h2.1v0.6h-2.1c-0.4,0-0.7,0.1-0.9,0.4c-0.2,0.2-0.3,0.5-0.3,0.8c0,0.3,0.1,0.6,0.3,0.9c0.2,0.3,0.5,0.4,0.9,0.4h2.1v0.6H24.1z"/>
	<path class="st3" d="M27.5,23.1h2.6v0.6h-3.2V20h3.2v0.6h-2.6V23.1z M29.9,21.5v0.6h-2.1v-0.6H29.9z"/>
	<path class="st3" d="M33.5,23.8h-2.8v-0.6h2.8c0.2,0,0.4-0.1,0.5-0.2c0.1-0.1,0.2-0.2,0.2-0.4c0-0.1-0.1-0.3-0.2-0.3
		c-0.1-0.1-0.3-0.2-0.5-0.2h-1.8c-0.4,0-0.7-0.1-0.9-0.3c-0.2-0.2-0.3-0.4-0.3-0.7c0-0.3,0.1-0.5,0.3-0.7c0.2-0.2,0.5-0.3,0.9-0.3
		h2.8v0.6h-2.8c-0.1,0-0.2,0-0.3,0.1c-0.1,0.1-0.1,0.2-0.1,0.3s0,0.2,0.1,0.3c0.1,0.1,0.2,0.1,0.3,0.1h1.8c0.4,0,0.7,0.1,1,0.4
		c0.2,0.2,0.3,0.5,0.3,0.8c0,0.3-0.1,0.6-0.3,0.8C34.2,23.6,33.9,23.8,33.5,23.8z"/>
	<path class="st3" d="M38.1,23.8h-2.8v-0.6h2.8c0.2,0,0.4-0.1,0.5-0.2c0.1-0.1,0.2-0.2,0.2-0.4c0-0.1-0.1-0.3-0.2-0.3
		c-0.1-0.1-0.3-0.2-0.5-0.2h-1.8c-0.4,0-0.7-0.1-0.9-0.3c-0.2-0.2-0.3-0.4-0.3-0.7c0-0.3,0.1-0.5,0.3-0.7c0.2-0.2,0.5-0.3,0.9-0.3
		h2.8v0.6h-2.8c-0.1,0-0.2,0-0.3,0.1c-0.1,0.1-0.1,0.2-0.1,0.3s0,0.2,0.1,0.3c0.1,0.1,0.2,0.1,0.3,0.1h1.8c0.4,0,0.7,0.1,1,0.4
		c0.2,0.2,0.3,0.5,0.3,0.8c0,0.3-0.1,0.6-0.3,0.8C38.8,23.6,38.5,23.8,38.1,23.8z"/>
	<path class="st3" d="M40,23.8V20h0.6v3.7H40z"/>
	<path class="st3" d="M45.3,21.9c0.3,0.2,0.4,0.5,0.4,0.8c0,0.3-0.1,0.5-0.4,0.7c-0.3,0.2-0.6,0.3-1.1,0.3h-2.7V20h2.7
		c0.5,0,0.8,0.1,1.1,0.3c0.2,0.2,0.4,0.5,0.4,0.8C45.7,21.4,45.6,21.7,45.3,21.9z M44.4,23.1c0.2,0,0.4,0,0.6-0.1
		c0.1-0.1,0.2-0.2,0.2-0.3c0-0.1-0.1-0.2-0.2-0.3c-0.1-0.1-0.3-0.1-0.6-0.1h-1.8v-0.6h1.8c0.2,0,0.4,0,0.6-0.1
		c0.1-0.1,0.2-0.2,0.2-0.3c0-0.1-0.1-0.2-0.2-0.3c-0.1-0.1-0.3-0.1-0.6-0.1h-2.1v2.4H44.4z"/>
	<path class="st3" d="M46.5,23.8V20h0.6v3.7H46.5z"/>
	<path class="st3" d="M47.9,23.8V20h0.6v3.1h2.6v0.6H47.9z"/>
	<path class="st3" d="M51.7,23.8V20h0.6v3.7H51.7z"/>
	<path class="st3" d="M55.1,20.7v3.1h-0.6v-3.1H53V20h3.6v0.6H55.1z"/>
	<path class="st3" d="M59.3,23.8h-0.6v-1.2L56.7,20h0.8l1.4,1.8l1.3-1.8h0.8l-1.9,2.5V23.8z"/>
</g>
<g>
	<g>
		<path class="st2" d="M10,21.9c0-1.4,0.4-2.7,1.1-3.9c0.7-1.2,1.6-1.8,2.6-1.8c1,0,1.9,0.6,2.6,1.8c0.7,1.2,1.1,2.5,1.1,3.9
			c0,0.6-0.1,1.2-0.2,1.7c-0.2,0.5-0.4,1-0.8,1.3h-0.7c0-0.1,0.1-0.3,0.1-0.4c0-0.2,0-0.3,0-0.5c0-0.7-0.2-1.3-0.6-1.9
			c-0.4-0.6-0.9-0.9-1.5-0.9c-0.6,0-1.1,0.3-1.5,0.9c-0.4,0.6-0.6,1.2-0.6,1.9c0,0.3,0.1,0.6,0.2,0.9h-0.7c-0.4-0.3-0.6-0.8-0.8-1.3
			C10.1,23.1,10,22.6,10,21.9z M13.7,18c-0.1,0-0.2,0-0.3,0.1c-0.1,0.1-0.2,0.1-0.3,0.3c-0.1,0.1-0.2,0.3-0.2,0.4
			c-0.1,0.1-0.1,0.3-0.1,0.4c0,0.3,0.1,0.6,0.3,0.9c0.2,0.2,0.5,0.4,0.7,0.4c0.1,0,0.2,0,0.3-0.1c0.1-0.1,0.2-0.2,0.4-0.4
			c0.2-0.2,0.3-0.4,0.3-0.7c0-0.3-0.1-0.6-0.3-0.9C14.2,18.2,14,18,13.7,18z"/>
	</g>
</g>
</svg>
