<?xml version="1.0" encoding="utf-8"?>
<!-- Generator: Adobe Illustrator 24.0.2, SVG Export Plug-In . SVG Version: 6.00 Build 0)  -->
<svg version="1.1" id="圖層_1" xmlns="http://www.w3.org/2000/svg" xmlns:xlink="http://www.w3.org/1999/xlink" x="0px" y="0px"
	 viewBox="0 0 15.4 36.1" style="enable-background:new 0 0 15.4 36.1;" xml:space="preserve">
<style type="text/css">
	.st0{fill:#ECC490;}
	.st1{fill:#242026;}
	.st2{fill:#3A363D;}
	.st3{fill:#F28F12;}
	.st4{fill:#F6AA07;}
</style>
<g>
	<path class="st0" d="M10.4,8c0,0-0.1,0.8,0,0.9c0.1,0.1-3.5,0-3.5,0S7,8,6.9,7.6C6.8,7.3,10.4,8,10.4,8z"/>
	<path class="st1" d="M8.9,30.1c0,0.6,0.5,1.2,1.1,1.2h0.9c0.6,0,1.1-0.5,1.1-1.2v-8c0-0.6-0.5-1.2-1.1-1.2H10
		c-0.6,0-1.1,0.5-1.1,1.2V30.1z"/>
	<path class="st0" d="M12.8,17.1c-0.5-0.1-0.8-0.5-0.7-1l1.6-6.4c0.1-0.4,0.6-0.7,1.1-0.5l0,0c0.5,0.1,0.8,0.5,0.7,1l-1.6,6.4
		C13.7,17,13.3,17.2,12.8,17.1L12.8,17.1z"/>
	<path class="st2" d="M8.9,25.9c0,0.5,0.5,0.9,1.2,0.9h0.7c0.6,0,1.2-0.4,1.2-0.9v-4.5c0-0.5-0.5-0.9-1.2-0.9h-0.7
		c-0.6,0-1.2,0.4-1.2,0.9V25.9z"/>
	<path class="st2" d="M5.4,27.5c0,0.6,0.5,1.2,1.2,1.2h0.7c0.6,0,1.2-0.5,1.2-1.2v-5.9c0-0.6-0.5-1.2-1.2-1.2H6.5
		c-0.6,0-1.2,0.5-1.2,1.2V27.5z"/>
	<path class="st2" d="M5.4,34.8c0,0.7,0.5,1.3,1.1,1.3h0.9c0.6,0,1.1-0.6,1.1-1.3v-6.7c0-0.7-0.5-1.3-1.1-1.3H6.4
		c-0.6,0-1.1,0.6-1.1,1.3V34.8z"/>
	<path class="st0" d="M1.9,5c0.5-0.1,0.8-0.5,0.7-1L1.8,0.6C1.7,0.2,1.2-0.1,0.7,0l0,0C0.2,0.1-0.1,0.6,0,1l0.9,3.5
		C1,4.9,1.4,5.1,1.9,5L1.9,5z"/>
	<path class="st3" d="M5.3,19.7c0,0.6,0.5,1.2,1.2,1.2h4.3c0.6,0,1.2-0.5,1.2-1.2V9.9c0-0.6-0.5-1.2-1.2-1.2H6.5
		c-0.6,0-1.2,0.5-1.2,1.2V19.7z"/>
	<path class="st3" d="M4.5,9.5c0,0.4,0.4,0.8,0.9,0.8h7.3c0.5,0,0.9-0.3,0.9-0.8l0,0c0-0.4-0.4-0.8-0.9-0.8H5.4
		C4.9,8.7,4.5,9,4.5,9.5L4.5,9.5z"/>
	<path class="st2" d="M5.1,5.2c0,2,1.6,3.5,3.5,3.5c2,0,3.6-1.6,3.6-3.5s-1.6-3.7-3.6-3.7C6.7,1.4,5.1,3.2,5.1,5.2z"/>
	<path class="st2" d="M5.3,21.7c0,0.6,0.5,1.2,1.2,1.2h4.3c0.6,0,1.2-0.5,1.2-1.2V20c0-0.6-0.5-1.2-1.2-1.2H6.5
		c-0.6,0-1.2,0.5-1.2,1.2V21.7z"/>
	<path class="st4" d="M12.8,16.8c-0.5,0-0.9-0.3-0.9-0.8l0-6.6c0-0.4,0.4-0.8,0.9-0.8l0,0c0.5,0,0.9,0.3,0.9,0.8l0,6.6
		C13.7,16.5,13.3,16.8,12.8,16.8L12.8,16.8z"/>
	<path class="st4" d="M6.1,10.2c0.4-0.3,0.5-0.8,0.3-1.2L2.5,3.7C2.2,3.4,1.7,3.3,1.3,3.6l0,0C0.9,3.9,0.8,4.4,1,4.8l3.9,5.3
		C5.1,10.5,5.7,10.5,6.1,10.2L6.1,10.2z"/>
</g>
</svg>
