<?xml version="1.0" encoding="utf-8"?>
<!-- Generator: Adobe Illustrator 24.0.2, SVG Export Plug-In . SVG Version: 6.00 Build 0)  -->
<svg version="1.1" id="圖層_1" xmlns="http://www.w3.org/2000/svg" xmlns:xlink="http://www.w3.org/1999/xlink" x="0px" y="0px"
	 viewBox="0 0 17.1 34.7" style="enable-background:new 0 0 17.1 34.7;" xml:space="preserve">
<style type="text/css">
	.st0{fill:#E5BF8D;}
	.st1{fill:#231F25;}
	.st2{fill:#3A363D;}
	.st3{fill:#E78A1D;}
	.st4{fill:#EBA419;}
</style>
<g>
	<path class="st0" d="M10.4,6.5c0,0-0.1,0.8,0,0.9s-3.5,0-3.5,0s0.1-0.9,0-1.2C6.7,5.9,10.4,6.5,10.4,6.5z"/>
	<path class="st1" d="M8.8,29.7c0,0.6,0.5,1.2,1.1,1.2h0.9c0.6,0,1.1-0.5,1.1-1.2v-9c0-0.6-0.5-1.2-1.1-1.2H9.9
		c-0.6,0-1.1,0.5-1.1,1.2V29.7z"/>
	<path class="st0" d="M16.2,14.9c-0.5,0-0.9-0.3-0.9-0.8L15,7.6c0-0.4,0.4-0.8,0.9-0.8l0,0c0.5,0,0.9,0.3,0.9,0.8l0.2,6.6
		C17.1,14.6,16.7,14.9,16.2,14.9L16.2,14.9z"/>
	<path class="st2" d="M8.8,24.5c0,0.5,0.5,0.9,1.2,0.9h0.7c0.6,0,1.2-0.4,1.2-0.9V20c0-0.5-0.5-0.9-1.2-0.9H10
		c-0.6,0-1.2,0.4-1.2,0.9C8.8,20,8.8,24.5,8.8,24.5z"/>
	<path class="st2" d="M5.3,26.1c0,0.6,0.5,1.2,1.2,1.2h0.7c0.6,0,1.2-0.5,1.2-1.2v-5.9c0-0.6-0.5-1.2-1.2-1.2H6.5
		c-0.6,0-1.2,0.5-1.2,1.2V26.1z"/>
	<path class="st2" d="M5.3,33.4c0,0.7,0.5,1.3,1.1,1.3h0.9c0.6,0,1.1-0.6,1.1-1.3v-6.7c0-0.7-0.5-1.3-1.1-1.3H6.4
		c-0.6,0-1.1,0.6-1.1,1.3V33.4z"/>
	<path class="st0" d="M2,7.4c0.5-0.1,0.8-0.5,0.7-1L1.8,0.9C1.7,0.5,1.2,0.2,0.7,0.4l0,0C0.2,0.5-0.1,0.9,0,1.4l0.9,5.5
		C1,7.3,1.5,7.5,2,7.4L2,7.4z"/>
	<path class="st3" d="M5.2,18.3c0,0.6,0.5,1.2,1.2,1.2h4.3c0.6,0,1.2-0.5,1.2-1.2V8.5c0-0.6-0.5-1.2-1.2-1.2H6.4
		c-0.6,0-1.2,0.5-1.2,1.2C5.2,8.5,5.2,18.3,5.2,18.3z"/>
	<path class="st3" d="M4.5,8.1c0,0.4,0.4,0.8,0.9,0.8h7.3c0.5,0,0.9-0.3,0.9-0.8l0,0c0-0.4-0.4-0.8-0.9-0.8H5.4
		C4.8,7.3,4.5,7.6,4.5,8.1L4.5,8.1z"/>
	<path class="st2" d="M5,3.7c0,2,1.6,3.5,3.5,3.5c2,0,3.6-1.6,3.6-3.5S10.5,0,8.5,0C6.6,0,5,1.8,5,3.7z"/>
	<path class="st2" d="M5.2,20.3c0,0.6,0.5,1.2,1.2,1.2h4.3c0.6,0,1.2-0.5,1.2-1.2v-1.7c0-0.6-0.5-1.2-1.2-1.2H6.4
		c-0.6,0-1.2,0.5-1.2,1.2C5.2,18.6,5.2,20.3,5.2,20.3z"/>
	<path class="st4" d="M16.3,14.9c-0.4,0.2-0.9,0.1-1.2-0.3l-3-5.9c-0.2-0.4,0-0.9,0.4-1.1l0,0c0.4-0.2,0.9-0.1,1.2,0.3l3,5.9
		C16.9,14.2,16.7,14.7,16.3,14.9L16.3,14.9z"/>
	<path class="st4" d="M6.3,8.7C6.5,8.2,6.3,7.7,6,7.5L2,5.7c-0.3-0.2-0.9,0-1.1,0.5l0,0C0.7,6.6,0.9,7.1,1.2,7.4l4,1.8
		C5.6,9.3,6.1,9.1,6.3,8.7L6.3,8.7z"/>
</g>
</svg>
