<?xml version="1.0" encoding="utf-8"?>
<!-- Generator: Adobe Illustrator 28.0.0, SVG Export Plug-In . SVG Version: 6.00 Build 0)  -->
<svg version="1.1" id="圖層_1" xmlns="http://www.w3.org/2000/svg" xmlns:xlink="http://www.w3.org/1999/xlink" x="0px" y="0px"
	 viewBox="0 0 16.3 21.8" style="enable-background:new 0 0 16.3 21.8;" xml:space="preserve">
<style type="text/css">
	.st0{fill:#FFFFFF;}
</style>
<g>
	<path class="st0" d="M8.3,0.7C8.7,0,9.5-0.2,10.2,0.2l3.9,2.4C14.7,3,15,3.8,14.6,4.5L14,5.4L7.7,1.5L8.3,0.7z"/>
	<polygon class="st0" points="6.9,2.8 6.1,4.3 12.3,8.1 13.2,6.7 	"/>
	<g>
		<path class="st0" d="M0,20.7l0.6-4.9l4.1,2.5l-4,2.8C0.2,21.4-0.1,21.2,0,20.7z"/>
		<rect x="0" y="8.6" transform="matrix(0.5192 -0.8546 0.8546 0.5192 -6.3666 8.2835)" class="st0" width="8.4" height="2.5"/>
		<polygon class="st0" points="5.1,15.3 9.5,8.1 11.6,9.4 7.2,16.6 		"/>
		<path class="st0" d="M4.9,20.6h10.8c0.3,0,0.6,0.3,0.6,0.6c0,0.3-0.3,0.6-0.6,0.6H4.9c-0.3,0-0.6-0.3-0.6-0.6
			C4.3,20.9,4.6,20.6,4.9,20.6z"/>
	</g>
</g>
</svg>
