<?xml version="1.0" encoding="utf-8"?>
<!-- Generator: Adobe Illustrator 28.0.0, SVG Export Plug-In . SVG Version: 6.00 Build 0)  -->
<svg version="1.1" id="圖層_1" xmlns="http://www.w3.org/2000/svg" xmlns:xlink="http://www.w3.org/1999/xlink" x="0px" y="0px"
	 viewBox="0 0 11.8 11.8" style="enable-background:new 0 0 11.8 11.8;" xml:space="preserve">
<style type="text/css">
	.st0{fill:#FFFFFF;}
</style>
<g>
	<path class="st0" d="M5.9,0C2.7,0,0,2.7,0,5.9s2.7,5.9,5.9,5.9s5.9-2.7,5.9-5.9S9.2,0,5.9,0z M8.4,3.5c0.4,0,0.8,0.3,0.8,0.8
		S8.8,5,8.4,5C7.9,5,7.6,4.7,7.6,4.3S7.9,3.5,8.4,3.5z M3.5,3.5c0.4,0,0.8,0.3,0.8,0.8S3.9,5,3.5,5S2.7,4.7,2.7,4.3S3.1,3.5,3.5,3.5
		z M10,6.9c-0.5,1.9-2.2,3.2-4.1,3.2S2.3,8.8,1.8,6.9c0-0.1,0-0.2,0.1-0.2C1.9,6.6,2,6.6,2.1,6.6h7.7c0.1,0,0.2,0,0.2,0.1
		C10,6.8,10,6.8,10,6.9z"/>
	<path class="st0" d="M5.9,9.6c1.6,0,2.9-1,3.4-2.4H2.5C3,8.6,4.4,9.6,5.9,9.6z"/>
</g>
</svg>
