<?xml version="1.0" encoding="utf-8"?>
<!-- Generator: Adobe Illustrator 28.0.0, SVG Export Plug-In . SVG Version: 6.00 Build 0)  -->
<svg version="1.1" id="圖層_1" xmlns="http://www.w3.org/2000/svg" xmlns:xlink="http://www.w3.org/1999/xlink" x="0px" y="0px"
	 viewBox="0 0 23.5 26.8" style="enable-background:new 0 0 23.5 26.8;" xml:space="preserve">
<style type="text/css">
	.st0{fill-rule:evenodd;clip-rule:evenodd;fill:url(#SVGID_1_);}
	.st1{fill-rule:evenodd;clip-rule:evenodd;fill:#FFFFFF;}
</style>
<linearGradient id="SVGID_1_" gradientUnits="userSpaceOnUse" x1="11.7284" y1="26.8088" x2="11.7284" y2="-9.094947e-13">
	<stop  offset="0" style="stop-color:#595757"/>
	<stop  offset="1" style="stop-color:#9FA0A0"/>
</linearGradient>
<path class="st0" d="M0.4,2.6C3,0.9,7.8,0,11.7,0c2,0,4.3,0.2,6.4,0.7c1.9,0.4,3.6,1.1,4.9,1.9c0.2,0.1,0.4,0.4,0.4,0.7v10.1
	c0,2.8-1.4,5.5-3.3,7.8c-2.4,2.8-5.6,4.8-8.1,5.6c-0.1,0-0.2,0.1-0.3,0.1c-0.1,0-0.2,0-0.3-0.1C9,26,5.7,23.9,3.3,21.2
	C1.4,18.9,0,16.2,0,13.4V3.4C0,3.1,0.2,2.8,0.4,2.6L0.4,2.6z M4.2,5.4v8c0,1.8,1.2,3.7,2.3,5c1.3,1.5,3.3,3.1,5.2,4
	c1.9-0.9,3.9-2.5,5.2-4c1.2-1.3,2.3-3.2,2.3-5v-8c-0.7-0.3-1.4-0.4-2-0.6c-1.8-0.4-3.7-0.6-5.5-0.6C9.6,4.2,6.4,4.6,4.2,5.4L4.2,5.4
	z M2.5,4.3v9.1c0,2.3,1.3,4.4,2.7,6.1c1.6,1.8,4.1,3.8,6.5,4.7c2.4-0.9,4.9-2.9,6.5-4.7c1.4-1.7,2.7-3.8,2.7-6.1V4.3
	c-1-0.5-2.3-0.9-3.4-1.1c-1.9-0.4-3.9-0.7-5.9-0.7C9.1,2.5,5.1,3,2.5,4.3z"/>
<path class="st1" d="M12,8.1v2.6h2.9c0,0,0.1,0,0.1,0c0.1,0.1,0.2,0.2,0.1,0.4L12,16c0,0.1-0.1,0.1-0.2,0.1c-0.1,0-0.3-0.1-0.3-0.3
	v-2.6H8.6c0,0-0.1,0-0.1,0c-0.1-0.1-0.2-0.2-0.1-0.4L11.5,8c0-0.1,0.1-0.1,0.2-0.1C11.9,7.8,12,7.9,12,8.1z"/>
</svg>
