<?xml version="1.0" encoding="utf-8"?>
<!-- Generator: Adobe Illustrator 28.0.0, SVG Export Plug-In . SVG Version: 6.00 Build 0)  -->
<svg version="1.1" id="圖層_1" xmlns="http://www.w3.org/2000/svg" xmlns:xlink="http://www.w3.org/1999/xlink" x="0px" y="0px"
	 viewBox="0 0 14.3 13.4" style="enable-background:new 0 0 14.3 13.4;" xml:space="preserve">
<style type="text/css">
	.st0{fill-rule:evenodd;clip-rule:evenodd;fill:#666666;}
</style>
<path class="st0" d="M1.3,1.3h0.4h0.9V0.7C2.7,0.3,3,0,3.4,0C3.7,0,4,0.3,4,0.7v0.7h0.9h2.2h2.2h0.9V0.7C10.3,0.3,10.6,0,11,0
	c0.4,0,0.7,0.3,0.7,0.7v0.7h0.9H13c0.7,0,1.3,0.6,1.3,1.3v9.4c0,0.7-0.6,1.3-1.3,1.3H7.2H1.3c-0.7,0-1.3-0.6-1.3-1.3V2.7
	C0,1.9,0.6,1.3,1.3,1.3L1.3,1.3z M10.3,9.9v1.3h1.8V9.9H10.3L10.3,9.9z M7.6,9.9v1.3h1.8V9.9H7.6L7.6,9.9z M4.9,9.9v1.3h1.8V9.9H4.9
	L4.9,9.9z M2.2,9.9v1.3H4V9.9H2.2L2.2,9.9z M10.3,7.6V9h1.8V7.6H10.3L10.3,7.6z M7.6,7.6V9h1.8V7.6H7.6L7.6,7.6z M4.9,7.6V9h1.8V7.6
	H4.9L4.9,7.6z M2.2,7.6V9H4V7.6H2.2L2.2,7.6z M10.3,5.4v1.3h1.8V5.4H10.3L10.3,5.4z M7.6,5.4v1.3h1.8V5.4H7.6L7.6,5.4z M4.9,5.4v1.3
	h1.8V5.4H4.9L4.9,5.4z M2.2,5.4v1.3H4V5.4H2.2L2.2,5.4z M7.2,4.5H1.3v7.6h5.8H13V4.5H7.2z"/>
</svg>
