<?xml version="1.0" encoding="utf-8"?>
<!-- Generator: Adobe Illustrator 28.0.0, SVG Export Plug-In . SVG Version: 6.00 Build 0)  -->
<svg version="1.1" id="圖層_1" xmlns="http://www.w3.org/2000/svg" xmlns:xlink="http://www.w3.org/1999/xlink" x="0px" y="0px"
	 viewBox="0 0 8.6 13" style="enable-background:new 0 0 8.6 13;" xml:space="preserve">
<style type="text/css">
	.st0{fill:#FFFFFF;}
</style>
<g>
	<path class="st0" d="M8.2,1.6L7.5,1.8L6.8,2.1L2.2,3.6H2.1L1.3,2.9c0,0,0,0,0-0.1l6.2-2.1V0.4C7.5,0.1,7.3-0.1,7,0L0.5,2.1
		C0.2,2.2,0,2.6,0,2.9v0.8V11v0.4c0,0.2,0,0.3,0.1,0.4l1.2,1.1C1.4,13,1.6,13,1.7,13L2,12.9l0,0l3.9-1.3L8,10.9l0,0l0.2-0.1
		c0.2-0.1,0.4-0.3,0.4-0.5V2C8.6,1.7,8.5,1.6,8.2,1.6z M6.8,3.6C6.9,3.6,6.9,3.6,6.8,3.6l0.1,0.3v1.6c0,0.1-0.1,0.2-0.1,0.2L3.1,7
		C3,7.1,3,7,3,6.9V5.1c0,0,0-0.1,0.1-0.2l3.1-1.1L6.8,3.6z"/>
</g>
</svg>
