<?xml version="1.0" encoding="utf-8"?>
<!-- Generator: Adobe Illustrator 28.0.0, SVG Export Plug-In . SVG Version: 6.00 Build 0)  -->
<svg version="1.1" id="圖層_1" xmlns="http://www.w3.org/2000/svg" xmlns:xlink="http://www.w3.org/1999/xlink" x="0px" y="0px"
	 viewBox="0 0 14.3 12.5" style="enable-background:new 0 0 14.3 12.5;" xml:space="preserve">
<style type="text/css">
	.st0{fill-rule:evenodd;clip-rule:evenodd;fill:#FFFFFF;}
</style>
<path class="st0" d="M0.9,0C0.4,0,0,0.4,0,0.9s0.4,0.9,0.9,0.9s0.9-0.4,0.9-0.9S1.4,0,0.9,0L0.9,0z M3.6,10.8h9.9
	c0.5,0,0.9,0.4,0.9,0.9s-0.4,0.9-0.9,0.9H3.6c-0.5,0-0.9-0.4-0.9-0.9C2.7,11.2,3.1,10.8,3.6,10.8L3.6,10.8z M0.9,10.8
	c-0.5,0-0.9,0.4-0.9,0.9s0.4,0.9,0.9,0.9s0.9-0.4,0.9-0.9S1.4,10.8,0.9,10.8L0.9,10.8z M3.6,7.2h9.9c0.5,0,0.9,0.4,0.9,0.9
	S14,9,13.5,9H3.6C3.1,9,2.7,8.6,2.7,8.1S3.1,7.2,3.6,7.2L3.6,7.2z M0.9,7.2C0.4,7.2,0,7.6,0,8.1S0.4,9,0.9,9s0.9-0.4,0.9-0.9
	S1.4,7.2,0.9,7.2L0.9,7.2z M3.6,3.6h9.9c0.5,0,0.9,0.4,0.9,0.9S14,5.4,13.5,5.4H3.6C3.1,5.4,2.7,5,2.7,4.5S3.1,3.6,3.6,3.6L3.6,3.6z
	 M0.9,3.6C0.4,3.6,0,4,0,4.5s0.4,0.9,0.9,0.9S1.8,5,1.8,4.5S1.4,3.6,0.9,3.6L0.9,3.6z M3.6,0h9.9c0.5,0,0.9,0.4,0.9,0.9
	S14,1.8,13.5,1.8H3.6c-0.5,0-0.9-0.4-0.9-0.9C2.7,0.4,3.1,0,3.6,0z"/>
</svg>
