<?xml version="1.0" encoding="utf-8"?>
<!-- Generator: Adobe Illustrator 25.4.1, SVG Export Plug-In . SVG Version: 6.00 Build 0)  -->
<svg version="1.1" id="圖層_1" xmlns="http://www.w3.org/2000/svg" xmlns:xlink="http://www.w3.org/1999/xlink" x="0px" y="0px"
	 viewBox="0 0 29.9 23.9" style="enable-background:new 0 0 29.9 23.9;" xml:space="preserve">
<style type="text/css">
	.st0{fill:#333333;}
</style>
<g>
	<g>
		<path class="st0" d="M17.7,0c-1.1,0-1.9,0.9-1.9,1.9V13c0,0.5-0.4,0.9-0.9,0.9s-0.9-0.4-0.9-0.9V1.9c0-1.1-0.9-1.9-1.9-1.9H3.7
			v18.4h7.6c1.4,0,2.7,0.4,3.7,1.3c1-0.8,2.3-1.3,3.7-1.3h7.6V0H17.7z M9,12.2H6.3c-0.5,0-0.9-0.4-0.9-0.9s0.4-0.9,0.9-0.9H9
			c0.5,0,0.9,0.4,0.9,0.9S9.5,12.2,9,12.2z M11.1,8.7H6.3c-0.5,0-0.9-0.4-0.9-0.9S5.8,7,6.3,7h4.9C11.6,7,12,7.3,12,7.8
			S11.6,8.7,11.1,8.7z M11.1,5.2H6.3c-0.5,0-0.9-0.4-0.9-0.9s0.4-0.9,0.9-0.9h4.9c0.5,0,0.9,0.4,0.9,0.9S11.6,5.2,11.1,5.2z"/>
		<path class="st0" d="M28.9,1.9c-0.6,0-1,0.5-1,1v17h-8.6c-1.6,0-3,0.5-4.2,1.5c-1.2-1-2.7-1.5-4.2-1.5H2.1V3c0-0.6-0.5-1-1-1
			S0,2.4,0,3v17.2c0,1.1,0.9,2,2,2h8.8c1.3,0,2.4,0.5,3.3,1.4l0.2,0.2c0.2,0.2,0.5,0.3,0.7,0.3c0.3,0,0.5-0.1,0.7-0.3l0.2-0.2
			c0.9-0.9,2.1-1.4,3.3-1.4h8.8c1.1,0,2-0.9,2-2V3C29.9,2.4,29.4,1.9,28.9,1.9z"/>
	</g>
</g>
</svg>
