<?xml version="1.0" encoding="utf-8"?>
<!-- Generator: Adobe Illustrator 25.4.1, SVG Export Plug-In . SVG Version: 6.00 Build 0)  -->
<svg version="1.1" id="圖層_1" xmlns="http://www.w3.org/2000/svg" xmlns:xlink="http://www.w3.org/1999/xlink" x="0px" y="0px"
	 viewBox="0 0 25.8 22.8" style="enable-background:new 0 0 25.8 22.8;" xml:space="preserve">
<style type="text/css">
	.st0{fill:#333333;}
</style>
<g>
	<g>
		<path class="st0" d="M11.4,10.4c-0.7,0-1.2,0.5-1.2,1.2s0.5,1.2,1.2,1.2c0.7,0,1.2-0.5,1.2-1.2S12.1,10.4,11.4,10.4z M11.4,0
			C5.1,0,0,5.1,0,11.4s5.1,11.4,11.4,11.4c1.2,0,2.4-0.2,3.5-0.6c-0.7-0.7-1.1-1.6-1.1-2.6c0-2,1.6-3.6,3.6-3.6h0.4v-5.2
			c0-1.4,1.2-2.6,2.6-2.6h1.9C21,3.5,16.6,0,11.4,0z M3.1,10.3c-0.1,0-0.1,0-0.2,0c-0.5-0.1-0.8-0.6-0.7-1.1C3,5.7,5.7,3.1,9.2,2.4
			c0.5-0.1,1,0.2,1.1,0.7c0.1,0.5-0.2,1-0.7,1.1C6.8,4.7,4.6,6.8,4,9.6C3.9,10,3.5,10.3,3.1,10.3z M7.1,10.3C7.1,10.8,6.7,11,6.3,11
			c-0.1,0-0.1,0-0.2,0c-0.5-0.1-0.8-0.6-0.7-1.1c0.5-2.2,2.2-3.9,4.3-4.4c0.5-0.1,1,0.2,1.1,0.7c0.1,0.5-0.2,1-0.7,1.1
			C8.6,7.7,7.5,8.9,7.1,10.3z M11.4,14.6c-1.7,0-3-1.3-3-3s1.3-3,3-3s3,1.3,3,3S13,14.6,11.4,14.6z"/>
		<path class="st0" d="M24.7,9.7h-4.3c-0.6,0-1.1,0.5-1.1,1.1v6.7h-1.9c-1.2,0-2.1,1-2.1,2.1c0,1.2,1,2.1,2.1,2.1h0.8
			c1.2,0,2.1-1,2.1-2.1v-4.5c0-0.6,0.5-1.1,1.1-1.1h3.2c0.6,0,1.1-0.5,1.1-1.1v-2.1C25.8,10.2,25.3,9.7,24.7,9.7z"/>
	</g>
</g>
</svg>
