<?xml version="1.0" encoding="utf-8"?>
<!-- Generator: Adobe Illustrator 25.4.1, SVG Export Plug-In . SVG Version: 6.00 Build 0)  -->
<svg version="1.1" id="圖層_1" xmlns="http://www.w3.org/2000/svg" xmlns:xlink="http://www.w3.org/1999/xlink" x="0px" y="0px"
	 viewBox="0 0 30.3 30.3" style="enable-background:new 0 0 30.3 30.3;" xml:space="preserve">
<style type="text/css">
	.st0{fill:#333333;}
</style>
<g>
	<g>
		<path class="st0" d="M15.1,0C6.8,0,0,6.8,0,15.1c0,0.9,0.1,1.9,0.3,2.8C0.4,18.6,1,19,1.6,18.9c0.6-0.1,1.1-0.7,0.9-1.4
			c-0.1-0.8-0.2-1.6-0.2-2.4c0-1.2,0.2-2.4,0.5-3.5h4.4C7.1,12.8,7,13.9,7,15.1c0,0.6,0.5,1.2,1.2,1.2s1.2-0.5,1.2-1.2
			c0-1.2,0.1-2.3,0.3-3.5H14v16.2c-0.9-0.1-1.8-0.2-2.6-0.5c-0.6-0.2-1.3,0.2-1.5,0.8c-0.2,0.6,0.2,1.3,0.8,1.5
			c1.5,0.5,3,0.7,4.5,0.7c8.3,0,15.1-6.8,15.1-15.1S23.5,0,15.1,0z M7.6,9.3H3.7c1.3-2.6,3.5-4.7,6.2-5.9C8.9,5,8.1,7,7.6,9.3z
			 M14,9.3h-4c0.8-3.2,2.2-5.9,4-6.7V9.3z M26.5,9.3h-3.9C22.2,7,21.4,5,20.4,3.5C23,4.7,25.2,6.7,26.5,9.3z M16.3,2.6
			c1.8,0.8,3.2,3.5,4,6.7h-4V2.6z M16.3,11.6h4.4c0.2,1.2,0.3,2.3,0.3,3.5s-0.1,2.3-0.3,3.5h-4.4V11.6z M16.3,27.7V21h4
			C19.5,24.2,18.1,26.8,16.3,27.7z M20.4,26.8c1-1.6,1.8-3.6,2.3-5.9h3.9C25.2,23.5,23,25.6,20.4,26.8z M23.1,18.6
			c0.1-1.1,0.2-2.3,0.2-3.5c0-1.2-0.1-2.4-0.2-3.5h4.4c0.3,1.1,0.5,2.3,0.5,3.5c0,1.2-0.2,2.4-0.5,3.5H23.1z"/>
		<path class="st0" d="M10.6,17.7l-7,2.3c-0.6,0.2-0.7,1.1-0.2,1.4l1.7,1l-4,4c-0.3,0.3-0.3,0.8,0,1.1l0.6,0.6
			c0.3,0.3,0.8,0.3,1.1,0l4-4l1,1.7c0.3,0.6,1.2,0.5,1.4-0.1l2.3-7C11.8,18.1,11.3,17.6,10.6,17.7z"/>
	</g>
</g>
</svg>
