<?xml version="1.0" encoding="utf-8"?>
<!-- Generator: Adobe Illustrator 25.4.1, SVG Export Plug-In . SVG Version: 6.00 Build 0)  -->
<svg version="1.1" id="圖層_1" xmlns="http://www.w3.org/2000/svg" xmlns:xlink="http://www.w3.org/1999/xlink" x="0px" y="0px"
	 viewBox="0 0 25.8 26.2" style="enable-background:new 0 0 25.8 26.2;" xml:space="preserve">
<style type="text/css">
	.st0{fill:#333333;}
</style>
<g>
	<g>
		<g>
			<g>
				<g>
					<path class="st0" d="M1.2,1.6C0.5,1.6,0,2.2,0,2.9v20.5c0,0.7,0.5,1.2,1.2,1.2c0.7,0,1.2-0.5,1.2-1.2V2.9
						C2.5,2.2,1.9,1.6,1.2,1.6z"/>
					<path class="st0" d="M24.1,0h-18C5.2,0,4.5,0.7,4.5,1.6v22.9c0,0.9,0.7,1.6,1.6,1.6h18c0.9,0,1.6-0.7,1.6-1.6V1.6
						C25.8,0.7,25.1,0,24.1,0z M8.6,4.9c0-0.5,0.4-0.8,0.8-0.8h3.3c0.5,0,0.8,0.4,0.8,0.8V9c0,0.5-0.4,0.8-0.8,0.8H9.4
						C9,9.8,8.6,9.5,8.6,9V4.9z M16.4,22.7H9c-0.6,0-1-0.5-1-1c0-0.6,0.5-1,1-1h7.4c0.6,0,1,0.5,1,1C17.4,22.3,16.9,22.7,16.4,22.7z
						 M21.3,18.6H9c-0.6,0-1-0.5-1-1c0-0.6,0.5-1,1-1h12.3c0.6,0,1,0.5,1,1C22.3,18.2,21.8,18.6,21.3,18.6z M21.3,14.5H9
						c-0.6,0-1-0.5-1-1c0-0.6,0.5-1,1-1h12.3c0.6,0,1,0.5,1,1C22.3,14.1,21.8,14.5,21.3,14.5z M21.3,10.4h-4.1c-0.6,0-1-0.5-1-1
						c0-0.6,0.5-1,1-1h4.1c0.6,0,1,0.5,1,1C22.3,10,21.8,10.4,21.3,10.4z M21.3,6.3h-4.1c-0.6,0-1-0.5-1-1c0-0.6,0.5-1,1-1h4.1
						c0.6,0,1,0.5,1,1C22.3,5.9,21.8,6.3,21.3,6.3z"/>
				</g>
			</g>
		</g>
	</g>
</g>
</svg>
