<?xml version="1.0" encoding="utf-8"?>
<!-- Generator: Adobe Illustrator 25.4.1, SVG Export Plug-In . SVG Version: 6.00 Build 0)  -->
<svg version="1.1" id="圖層_1" xmlns="http://www.w3.org/2000/svg" xmlns:xlink="http://www.w3.org/1999/xlink" x="0px" y="0px"
	 viewBox="0 0 25.8 22.7" style="enable-background:new 0 0 25.8 22.7;" xml:space="preserve">
<style type="text/css">
	.st0{fill:#333333;}
</style>
<g>
	<g>
		<g>
			<g>
				<g>
					<path class="st0" d="M18.8,11.9c0-0.4-0.3-0.8-0.8-0.8h-7.3c-0.4,0-0.8,0.3-0.8,0.8c0,0.4,0.3,0.8,0.8,0.8H18
						C18.5,12.7,18.8,12.3,18.8,11.9z M3.1,17.7c-0.3,0-0.6-0.3-0.6-0.6V6.7c0-0.3,0.3-0.6,0.6-0.6H19c0.3,0,0.6,0.3,0.6,0.6v5.8
						L22,10V2.4C22,1.1,20.9,0,19.6,0H2.4C1.1,0,0,1.1,0,2.4v15.3c0,1.4,1.1,2.4,2.4,2.4h10c0.1-0.4,0.2-0.8,0.5-1.1
						c0.2-0.2,0.8-0.8,0.8-0.8l0.6-0.6H3.1z M7.3,2.1h2.4c0.5,0,0.9,0.4,0.9,0.9c0,0.5-0.4,0.9-0.9,0.9H7.3C6.8,4,6.4,3.6,6.4,3.1
						C6.4,2.6,6.8,2.1,7.3,2.1z M3.7,1.8c0.7,0,1.2,0.5,1.2,1.2c0,0.7-0.5,1.2-1.2,1.2S2.4,3.7,2.4,3.1C2.4,2.4,3,1.8,3.7,1.8z
						 M23.3,14.9l-1.8-1.8c-0.1-0.1-0.3-0.1-0.4,0L16.2,18c-0.1,0.1-0.1,0.3,0,0.4l1.8,1.8c0.1,0.1,0.3,0.1,0.4,0l4.9-4.9
						C23.4,15.2,23.4,15,23.3,14.9z M15.1,19.6c-0.1-0.1-0.3-0.1-0.4,0c-0.2,0.2-0.5,0.5-0.6,0.6c-0.1,0.1-0.1,0.1-0.1,0.2l-0.2,2
						c0,0.2,0.1,0.3,0.3,0.3l1.9-0.2c0.1,0,0.1,0,0.2-0.1l0.6-0.6c0.1-0.1,0.1-0.3,0-0.4L15.1,19.6z M4.6,14.2
						c-0.4,0-0.8,0.3-0.8,0.8c0,0.4,0.3,0.8,0.8,0.8h11c0.4,0,0.8-0.3,0.8-0.8c0-0.4-0.3-0.8-0.8-0.8H4.6z M18,8.1h-7.3
						c-0.4,0-0.8,0.3-0.8,0.8c0,0.4,0.3,0.8,0.8,0.8H18c0.4,0,0.8-0.3,0.8-0.8C18.8,8.4,18.5,8.1,18,8.1z"/>
					<path class="st0" d="M7.3,7.9H4.9c-0.3,0-0.6,0.3-0.6,0.6v3.1c0,0.3,0.3,0.6,0.6,0.6h2.4c0.3,0,0.6-0.3,0.6-0.6V8.6
						C7.9,8.2,7.7,7.9,7.3,7.9z M25.7,12.5l-1.8-1.8c-0.1-0.1-0.3-0.1-0.4,0l-0.9,0.9c-0.1,0.1-0.1,0.3,0,0.4l1.8,1.8
						c0.1,0.1,0.3,0.1,0.4,0l0.9-0.9C25.8,12.8,25.8,12.6,25.7,12.5z"/>
				</g>
			</g>
		</g>
	</g>
</g>
</svg>
