<?xml version="1.0" encoding="utf-8"?>
<!-- Generator: Adobe Illustrator 28.0.0, SVG Export Plug-In . SVG Version: 6.00 Build 0)  -->
<svg version="1.1" id="圖層_1" xmlns="http://www.w3.org/2000/svg" xmlns:xlink="http://www.w3.org/1999/xlink" x="0px" y="0px"
	 viewBox="0 0 46.3 44" style="enable-background:new 0 0 46.3 44;" xml:space="preserve">
<style type="text/css">
	.st0{fill:#767777;}
</style>
<g>
	<path class="st0" d="M44.8,8.3C44.4,8,44,7.8,43.6,7.7L23.7,0L3.3,5.1C2.6,5.2,2.1,5.8,2.1,6.5C2,7.2,2.3,7.9,3,8.2l8,4.1l9.8,5
		c0.1,0.1,0.3,0.2,0.5,0.2l0.1,0l0,0c0.3,0.1,0.7,0.1,1,0l12.9-3.9l7.3-2.2c0.2,0.7,0.3,2.1-0.1,3.4c-0.2,0.6-0.5,1-0.8,1.3
		c-0.1,0.1-0.2,0.2-0.4,0.2c0,0,0,0-0.1,0l-11.5,3.8l-3.6,1.2L21.1,23L21,23l-5.8-3L4,14l-1.4-0.7c-0.9-0.5-1.9-0.1-2.4,0.7
		C-0.3,14.9,0.1,16,1,16.4l9.1,4.8l10.1,5.3c0.3,0.1,0.5,0.2,0.8,0.2c0.2,0,0.4,0,0.6-0.1l5.8-1.9l8-2.4l7.3-2.2
		c0.2,0.7,0.3,2.1-0.1,3.4c-0.2,0.6-0.5,1-0.8,1.3c-0.1,0.1-0.2,0.2-0.4,0.2c0,0,0,0-0.1,0l-11.4,3.8l-1.2,0.4l-7.5,2.5l-0.1-0.1
		l-5.8-3.1L4,22.7L2.6,22c-0.9-0.5-1.9-0.1-2.4,0.7c-0.5,0.9-0.1,1.9,0.7,2.4l9,4.7l10.1,5.3c0.3,0.1,0.5,0.2,0.8,0.2
		c0.2,0,0.4,0,0.6-0.1l8.2-2.7l5.6-1.7l7.3-2.2c0.2,0.7,0.3,2.1-0.1,3.4c-0.2,0.6-0.5,1-0.8,1.3c-0.1,0.1-0.2,0.2-0.4,0.2
		c0,0,0,0-0.1,0l-20.2,6.7l-17-9l-1.4-0.7c-0.9-0.5-1.9-0.1-2.4,0.7c-0.5,0.9-0.1,1.9,0.7,2.4l19.1,10.1c0.3,0.1,0.5,0.2,0.8,0.2
		c0.2,0,0.4,0,0.6-0.1l20.9-6.9c1.8-0.5,3.2-2.2,3.7-4.7c0.5-2.1,0.3-4.8-0.9-6.3c0.4-0.7,0.7-1.5,0.9-2.3c0.5-2.1,0.3-4.8-0.9-6.3
		c0.4-0.7,0.7-1.5,0.9-2.4C46.6,12.8,46.4,9.7,44.8,8.3z M18.5,10c-0.3-0.1-0.3-0.6,0.1-0.7l10-2.5c0.6-0.2,1.3-0.1,2,0.1l4.1,1.6
		c0.3,0.1,0.3,0.6,0,0.7l-6.3,1.7L24.4,12c-0.6,0.2-1.3,0.1-1.9-0.2l-3.4-1.5L18.5,10z"/>
</g>
</svg>
