<?xml version="1.0" encoding="utf-8"?>
<!-- Generator: Adobe Illustrator 28.0.0, SVG Export Plug-In . SVG Version: 6.00 Build 0)  -->
<svg version="1.1" id="圖層_1" xmlns="http://www.w3.org/2000/svg" xmlns:xlink="http://www.w3.org/1999/xlink" x="0px" y="0px"
	 viewBox="0 0 9 14.3" style="enable-background:new 0 0 9 14.3;" xml:space="preserve">
<style type="text/css">
	.st0{fill:#B94B00;}
</style>
<path class="st0" d="M4.5,0c1.2,0,2.2,1,2.2,2.2v4.9c0,1.2-1,2.2-2.2,2.2c-1.2,0-2.2-1-2.2-2.2V2.2C2.2,1,3.2,0,4.5,0L4.5,0z
	 M2.2,14.3h4.5c0.4,0,0.7-0.3,0.7-0.7c0-0.4-0.3-0.7-0.7-0.7H5.2v-1.4c1-0.1,1.8-0.6,2.5-1.3C8.5,9.5,9,8.4,9,7.2V5.4
	C9,5,8.7,4.7,8.3,4.7C7.9,4.7,7.6,5,7.6,5.4v1.8c0,0.9-0.4,1.6-0.9,2.2c-0.6,0.6-1.4,0.9-2.2,0.9c-0.9,0-1.6-0.4-2.2-0.9
	C1.7,8.8,1.3,8,1.3,7.2V5.4C1.3,5,1,4.7,0.7,4.7C0.3,4.7,0,5,0,5.4v1.8c0,1.2,0.5,2.4,1.3,3.2C2,11,2.8,11.4,3.8,11.6V13H2.2
	c-0.4,0-0.7,0.3-0.7,0.7C1.6,14,1.9,14.3,2.2,14.3z"/>
</svg>
