<?xml version="1.0" encoding="utf-8"?>
<!-- Generator: Adobe Illustrator 25.4.1, SVG Export Plug-In . SVG Version: 6.00 Build 0)  -->
<svg version="1.1" id="圖層_1" xmlns="http://www.w3.org/2000/svg" xmlns:xlink="http://www.w3.org/1999/xlink" x="0px" y="0px"
	 viewBox="0 0 16 15.8" style="enable-background:new 0 0 16 15.8;" xml:space="preserve">
<style type="text/css">
	.st0{fill:#444E4F;}
</style>
<g>
	<path class="st0" d="M7.6,0.1L2.4,4.5C2.2,4.7,2.2,4.8,2.5,4.8H6v5c0,0.5,0.4,1,1,1h2c0.5,0,1-0.5,1-1v-5h3.5
		c0.3,0,0.3-0.1,0.1-0.3L8.4,0.1C8.2,0,7.8,0,7.6,0.1z"/>
	<path class="st0" d="M16,8.8v4c0,1.7-1.3,3-3,3H3c-1.7,0-3-1.3-3-3v-4c0-0.6,0.4-1,1-1s1,0.4,1,1v4c0,0.6,0.4,1,1,1h10
		c0.6,0,1-0.4,1-1v-4c0-0.6,0.4-1,1-1S16,8.3,16,8.8z"/>
</g>
</svg>
