<?xml version="1.0" encoding="utf-8"?>
<!-- Generator: Adobe Illustrator 24.0.2, SVG Export Plug-In . SVG Version: 6.00 Build 0)  -->
<svg version="1.1" xmlns="http://www.w3.org/2000/svg" xmlns:xlink="http://www.w3.org/1999/xlink" x="0px" y="0px"
	 viewBox="0 0 31.1 37.9" style="enable-background:new 0 0 31.1 37.9;" xml:space="preserve">
<style type="text/css">
	.st0{fill:url(#SVGID_1_);}
	.st1{fill:url(#SVGID_2_);}
	.st2{opacity:0.6;fill:#AA1F1F;}
	.st3{opacity:0.3;fill:#5B0909;}
	.st4{opacity:0.6;fill:url(#SVGID_3_);}
	.st5{fill:#DD3636;}
	.st6{fill:#D33737;}
	.st7{fill:url(#SVGID_4_);}
	.st8{opacity:0.6;fill:url(#SVGID_5_);}
	.st9{opacity:0.4;fill:#AA1F1F;}
	.st10{fill:url(#SVGID_6_);}
	.st11{opacity:0.6;fill:url(#SVGID_7_);}
	.st12{opacity:0.3;fill:url(#SVGID_8_);}
	.st13{opacity:0.6;fill:url(#SVGID_9_);}
	.st14{opacity:0.3;fill:url(#SVGID_10_);}
	.st15{opacity:0.6;fill:url(#SVGID_11_);}
	.st16{opacity:0.6;fill:url(#SVGID_12_);}
	.st17{opacity:0.6;fill:url(#SVGID_13_);}
	.st18{opacity:0.4;fill:url(#SVGID_14_);}
	.st19{opacity:0.6;fill:url(#SVGID_15_);}
	.st20{opacity:0.6;fill:url(#SVGID_16_);}
	.st21{fill:#FF4A4A;}
	.st22{fill:url(#SVGID_17_);}
	.st23{opacity:0.6;fill:url(#SVGID_18_);}
	.st24{opacity:0.6;fill:url(#SVGID_19_);}
	.st25{fill:url(#SVGID_20_);}
	.st26{fill:url(#SVGID_21_);}
	.st27{opacity:0.6;fill:url(#SVGID_22_);}
	.st28{opacity:0.6;fill:url(#SVGID_23_);}
	.st29{opacity:0.6;fill:url(#SVGID_24_);}
	.st30{opacity:0.6;fill:url(#SVGID_25_);}
	.st31{opacity:0.3;fill:url(#SVGID_26_);}
	.st32{opacity:0.4;fill:url(#SVGID_27_);}
	.st33{opacity:0.6;fill:url(#SVGID_28_);}
	.st34{fill:url(#SVGID_29_);}
	.st35{opacity:0.4;fill:url(#SVGID_30_);}
	.st36{fill:url(#SVGID_31_);}
	.st37{opacity:0.4;fill:url(#SVGID_32_);}
	.st38{fill:url(#SVGID_33_);}
	.st39{opacity:0.3;fill:url(#SVGID_34_);}
	.st40{opacity:0.5;fill:#5B0909;}
	.st41{fill:url(#SVGID_35_);}
	.st42{fill:#FFC969;}
	.st43{fill:url(#SVGID_36_);}
	.st44{fill:#E55C00;}
	.st45{fill:url(#SVGID_37_);}
	.st46{fill:#FFE655;}
	.st47{fill:url(#SVGID_38_);}
	.st48{fill:url(#SVGID_39_);}
	.st49{fill:url(#SVGID_40_);}
	.st50{fill:url(#SVGID_41_);}
	.st51{fill:url(#SVGID_42_);}
	.st52{fill:url(#SVGID_43_);}
	.st53{fill:url(#SVGID_44_);}
	.st54{fill:url(#SVGID_45_);}
	.st55{fill:url(#SVGID_46_);}
	.st56{fill:url(#SVGID_47_);}
	.st57{fill:url(#SVGID_48_);}
	.st58{fill:url(#SVGID_49_);}
	.st59{fill:url(#SVGID_50_);}
	.st60{fill:url(#SVGID_51_);}
</style>
<g id="background">
</g>
<g id="object">
	<g>
		<g>
			<g>
				<linearGradient id="SVGID_1_" gradientUnits="userSpaceOnUse" x1="-6.543659e-02" y1="15.4514" x2="13.949" y2="33.2613">
					<stop  offset="0" style="stop-color:#CE2E2E"/>
					<stop  offset="0.9949" style="stop-color:#AA1F1F"/>
				</linearGradient>
				<path class="st0" d="M0.4,15c0,0-0.3-0.2-0.3,0.2c0,3.2,0,17.7,0,17.7c0,0.5,2.1,0.9,2.4,1c1.2,0.4,9.2,2.7,11.8,3.5
					c0.6,0.2,1.2,0.3,1.8,0.4l0-19.3L0.9,14.8L0.4,15z"/>
			</g>
			<linearGradient id="SVGID_2_" gradientUnits="userSpaceOnUse" x1="23.5265" y1="17.5156" x2="23.6723" y2="35.0683">
				<stop  offset="0" style="stop-color:#CE2E2E"/>
				<stop  offset="0.9949" style="stop-color:#AA1F1F"/>
			</linearGradient>
			<polygon class="st1" points="31.1,15.4 30.9,33.6 16.1,37.9 16.1,18.6 			"/>
			<polygon class="st2" points="17.2,19.4 23.1,21.3 30.2,16.1 23.4,22.4 			"/>
			<polygon class="st3" points="23.6,29.8 16.7,37.7 23.6,32.1 30.3,33.8 			"/>
			
				<linearGradient id="SVGID_3_" gradientUnits="userSpaceOnUse" x1="37.7874" y1="-112.6224" x2="42.1115" y2="-112.6224" gradientTransform="matrix(0.8427 -0.5384 0.5384 0.8427 52.5801 148.5881)">
				<stop  offset="0" style="stop-color:#CE2E2E"/>
				<stop  offset="0.9949" style="stop-color:#AA1F1F"/>
			</linearGradient>
			<polygon class="st4" points="27.7,32.7 26.3,33.1 25.8,34.7 25.1,33.3 23.7,33.1 24.6,31.9 24.4,30.3 25.6,31 26.9,30.1 
				26.7,31.7 			"/>
			<path class="st5" d="M29.9,14.8c-1.4-0.3-2.7-0.7-4.1-1c-2.3-0.6-4.6-1.2-6.9-1.8c-1.8-0.5-3.3-0.8-5.1-0.3
				c-1.2,0.3-2.4,0.5-3.6,0.8c-2.7,0.6-5.4,1.2-8.1,1.7c-0.6,0.1-1.2,0.3-1.9,0.4l15.9,4.2L27.5,16l3.2-0.7L29.9,14.8z"/>
			<polygon class="st6" points="31,15.6 21.4,23.7 21.4,30.6 30.9,33.7 			"/>
			<linearGradient id="SVGID_4_" gradientUnits="userSpaceOnUse" x1="20.6301" y1="25.1301" x2="32.7579" y2="20.503">
				<stop  offset="0" style="stop-color:#FFFFFF;stop-opacity:0.2"/>
				<stop  offset="1" style="stop-color:#FFFFFF;stop-opacity:0"/>
			</linearGradient>
			<path class="st7" d="M22.7,26.1c1.6-0.9,7.1-3.6,8.3-4.2l0-2.7c-1.1,0.4-7.2,3.2-7.9,3.4l-1.7,1.1v3
				C21.8,26.6,22.3,26.3,22.7,26.1z"/>
			
				<linearGradient id="SVGID_5_" gradientUnits="userSpaceOnUse" x1="44.1731" y1="73.1378" x2="49.1971" y2="73.1378" gradientTransform="matrix(0.983 0.1837 -0.1837 0.983 -6.5621 -51.8956)">
				<stop  offset="0" style="stop-color:#CE2E2E"/>
				<stop  offset="0.9949" style="stop-color:#AA1F1F"/>
			</linearGradient>
			<polygon class="st8" points="27.2,30.7 25.7,30 24,30.8 24.6,29.1 23.5,27.9 25.3,27.6 26.3,26 26.9,27.6 28.6,27.8 27.1,29 			
				"/>
			<path class="st9" d="M23.7,21.6c0,0,1.3,0.4,1.6,1.7s1.8,6.7-1.2,8.3L22.8,31l-0.4-8.1L23.7,21.6z"/>
			<linearGradient id="SVGID_6_" gradientUnits="userSpaceOnUse" x1="21.2208" y1="21.52" x2="20.7345" y2="33.0959">
				<stop  offset="5.102040e-03" style="stop-color:#FF4A4A"/>
				<stop  offset="1" style="stop-color:#E24747"/>
			</linearGradient>
			<polygon class="st10" points="16,18.8 26.2,22.4 26.3,28.5 16.6,37.6 16,37.6 			"/>
			<linearGradient id="SVGID_7_" gradientUnits="userSpaceOnUse" x1="17.014" y1="24.1012" x2="22.0382" y2="24.1012">
				<stop  offset="0" style="stop-color:#CE2E2E"/>
				<stop  offset="0.9949" style="stop-color:#AA1F1F"/>
			</linearGradient>
			<polygon class="st11" points="21.2,25.9 19.6,25.5 18.1,26.7 18.3,24.8 17,23.8 18.7,23.2 19.4,21.5 20.3,23 22,22.9 20.8,24.3 
							"/>
			
				<linearGradient id="SVGID_8_" gradientUnits="userSpaceOnUse" x1="100.2482" y1="19.6927" x2="105.2724" y2="19.6927" gradientTransform="matrix(-1 0 0 1 106.2091 0)">
				<stop  offset="0" style="stop-color:#CE2E2E"/>
				<stop  offset="0.9949" style="stop-color:#AA1F1F"/>
			</linearGradient>
			<polygon class="st12" points="1.8,21.7 3.4,21.2 4.9,22.5 4.6,20.5 6,19.4 4.2,18.8 3.5,16.9 2.7,18.5 0.9,18.4 2.1,19.9 			"/>
			
				<linearGradient id="SVGID_9_" gradientUnits="userSpaceOnUse" x1="20.2317" y1="-90.0747" x2="23.3691" y2="-90.0747" gradientTransform="matrix(0.8687 -0.4954 0.4954 0.8687 48.4917 117.1283)">
				<stop  offset="0" style="stop-color:#CE2E2E"/>
				<stop  offset="0.9949" style="stop-color:#AA1F1F"/>
			</linearGradient>
			<polygon class="st13" points="24.3,28.6 23.3,28.8 22.8,29.9 22.4,28.9 21.4,28.7 22.1,27.9 22,26.7 22.9,27.2 23.8,26.6 
				23.6,27.8 			"/>
			
				<linearGradient id="SVGID_10_" gradientUnits="userSpaceOnUse" x1="88.0235" y1="-48.0312" x2="91.7338" y2="-48.0312" gradientTransform="matrix(-0.8687 -0.4954 -0.4954 0.8687 57.718 117.1283)">
				<stop  offset="0" style="stop-color:#CE2E2E"/>
				<stop  offset="0.9949" style="stop-color:#AA1F1F"/>
			</linearGradient>
			<polygon class="st14" points="1.7,31.4 2.9,31.7 3.4,33 3.9,31.8 5.1,31.6 4.3,30.6 4.4,29.3 3.4,29.9 2.3,29.2 2.5,30.5 			"/>
			
				<linearGradient id="SVGID_11_" gradientUnits="userSpaceOnUse" x1="3.4522" y1="-19.8187" x2="7.159" y2="-19.8187" gradientTransform="matrix(-0.4983 -0.7001 -0.7105 0.4931 1.0854 39.7878)">
				<stop  offset="0" style="stop-color:#CE2E2E"/>
				<stop  offset="0.9949" style="stop-color:#AA1F1F"/>
			</linearGradient>
			<polygon class="st15" points="10.9,26.1 11.8,26.8 11.7,28 12.6,27.2 13.6,27.5 13.3,26.4 13.9,25.4 12.8,25.5 12.2,24.6 
				11.9,25.7 			"/>
			
				<linearGradient id="SVGID_12_" gradientUnits="userSpaceOnUse" x1="79.5837" y1="-51.7248" x2="83.294" y2="-51.7248" gradientTransform="matrix(-0.8687 -0.4954 -0.4954 0.8687 57.718 117.1283)">
				<stop  offset="0" style="stop-color:#CE2E2E"/>
				<stop  offset="0.9949" style="stop-color:#AA1F1F"/>
			</linearGradient>
			<polygon class="st16" points="10.8,32.4 12,32.7 12.6,34 13.1,32.8 14.3,32.6 13.4,31.6 13.6,30.2 12.5,30.8 11.4,30.2 
				11.7,31.5 			"/>
			
				<linearGradient id="SVGID_13_" gradientUnits="userSpaceOnUse" x1="85.5748" y1="-59.7636" x2="91.0781" y2="-59.7636" gradientTransform="matrix(-0.8687 -0.4954 -0.4954 0.8687 57.718 117.1283)">
				<stop  offset="0" style="stop-color:#CE2E2E"/>
				<stop  offset="0.9949" style="stop-color:#AA1F1F"/>
			</linearGradient>
			<polygon class="st17" points="8,22.3 9.7,22.7 10.5,24.7 11.3,22.8 13.1,22.6 11.8,21.1 12.1,19.1 10.5,20 8.9,18.9 9.2,21 			
				"/>
			
				<linearGradient id="SVGID_14_" gradientUnits="userSpaceOnUse" x1="123.2071" y1="-65.8901" x2="128.2926" y2="-65.8901" gradientTransform="matrix(-0.9793 -0.2027 -0.2027 0.9793 116.9497 116.959)">
				<stop  offset="0" style="stop-color:#CE2E2E"/>
				<stop  offset="0.9949" style="stop-color:#AA1F1F"/>
			</linearGradient>
			<polygon class="st18" points="5.1,28.4 6.8,28.3 8,29.8 8.2,27.9 9.7,27.2 8.1,26.3 7.8,24.4 6.6,25.7 4.9,25.2 5.8,26.9 			"/>
			
				<linearGradient id="SVGID_15_" gradientUnits="userSpaceOnUse" x1="25.0836" y1="-92.5732" x2="28.2211" y2="-92.5732" gradientTransform="matrix(0.8687 -0.4954 0.4954 0.8687 48.4917 117.1283)">
				<stop  offset="0" style="stop-color:#CE2E2E"/>
				<stop  offset="0.9949" style="stop-color:#AA1F1F"/>
			</linearGradient>
			<polygon class="st19" points="27.3,24 26.3,24.2 25.8,25.3 25.4,24.3 24.3,24.1 25.1,23.3 24.9,22.1 25.8,22.7 26.8,22.1 
				26.6,23.2 			"/>
			
				<linearGradient id="SVGID_16_" gradientUnits="userSpaceOnUse" x1="24.8717" y1="-98.3659" x2="28.0092" y2="-98.3659" gradientTransform="matrix(0.8687 -0.4954 0.4954 0.8687 48.4917 117.1283)">
				<stop  offset="0" style="stop-color:#CE2E2E"/>
				<stop  offset="0.9949" style="stop-color:#AA1F1F"/>
			</linearGradient>
			<polygon class="st20" points="24.2,19.1 23.2,19.3 22.8,20.4 22.3,19.4 21.3,19.2 22,18.4 21.9,17.2 22.8,17.7 23.7,17.1 
				23.5,18.3 			"/>
			<path class="st21" d="M14.3,19c0,0,1.2,0.7,1,3.4c-0.2,2.6,0.6,15.4-1.1,15.1l1.3,0.4l0.4-16.6C15.9,21.2,16.2,19.3,14.3,19z"/>
			<linearGradient id="SVGID_17_" gradientUnits="userSpaceOnUse" x1="20.2857" y1="22.7786" x2="20.3343" y2="28.3702">
				<stop  offset="0" style="stop-color:#FFFFFF;stop-opacity:0.2"/>
				<stop  offset="1" style="stop-color:#FFFFFF;stop-opacity:0"/>
			</linearGradient>
			<path class="st22" d="M22.9,22.5c-0.1,0-0.3-0.1-0.4-0.1c-2.2,0.9-4.5,1.8-6.8,2.6c0,1.6-0.1,3.3-0.1,5c2.6-1.3,5.2-2.7,7.8-3.9
				c0.5-0.2,1-0.5,1.5-0.7C24.9,24,24.4,22.5,22.9,22.5z"/>
			<path class="st21" d="M17.7,18.7c3.7-1.6,13.4-2.9,13.4-2.9c0.1-1-1.9-1.1-1.9-1.1S17.3,18.1,16,18.4C14.8,18.6,1,14.5,1,14.5
				c-1.4,0-0.9,0.7-0.9,0.7c1.5-0.4,14.2,3.7,15.3,4.4c1,0.7,0,18.2,0,18.2c0.6,0.4,1.4,0,1.4,0c0,0,0,0,0,0l7.9-7
				c0.6-0.4,1.3-1.1,1.6-1.6c0.7-1,0.3-6-0.1-6.7c-0.4-0.6-7.5-2.3-9-3.1C17.2,19.4,17.1,19.1,17.7,18.7z M17.6,20.3
				c1.5,0.9,8,1.8,8.1,2.8c0.1,1.2,0.2,3,0.3,4.2c0,1.3-1.6,2.9-2.5,3.8c-1.1,1.1-2.3,1.8-3.5,2.9c-0.8,0.7-1.5,1.4-2.3,2.1
				c-1.3,1-1.4-0.5-1.4-1.6c0-1.4-0.1-2.8-0.1-4.3c0-2.2,0-4.4,0-6.5c0-0.5,0-1,0-1.5c0-0.3,0.2-1,0-1.2c0,0,0,0.1,0,0.1
				S16.2,19.5,17.6,20.3z"/>
			<linearGradient id="SVGID_18_" gradientUnits="userSpaceOnUse" x1="15.6609" y1="29.7137" x2="18.3783" y2="29.7137">
				<stop  offset="0" style="stop-color:#CE2E2E"/>
				<stop  offset="0.9949" style="stop-color:#AA1F1F"/>
			</linearGradient>
			<path class="st23" d="M17.8,27.7l-1.2,0.7l-0.9-0.5c0,0.8,0,1.7-0.1,2.5l0.3,0l0.6,1.3l0.6-1.4l1.3-0.3l-0.9-1L17.8,27.7z"/>
			<linearGradient id="SVGID_19_" gradientUnits="userSpaceOnUse" x1="17.7288" y1="33.0956" x2="22.6685" y2="33.0956">
				<stop  offset="0" style="stop-color:#CE2E2E"/>
				<stop  offset="0.9949" style="stop-color:#AA1F1F"/>
			</linearGradient>
			<polygon class="st24" points="22.7,31.9 21,32 20.2,30.6 19.5,32.3 17.7,32.9 19,33.9 18.8,35.6 			"/>
			<path class="st21" d="M29.7,16c0,0,1.2-0.6,1.1,2.1c-0.1,2.8-0.2,13.9-0.2,13.9s0,1.5-0.3,1.8l0.5-0.1c0,0,0.4-17.8,0.2-18.2
				C30.8,15.2,29.7,16,29.7,16z"/>
			<linearGradient id="SVGID_20_" gradientUnits="userSpaceOnUse" x1="11.0323" y1="20.0086" x2="28.0882" y2="18.9365">
				<stop  offset="9.693880e-02" style="stop-color:#FFFFFF;stop-opacity:0.3964"/>
				<stop  offset="0.3367" style="stop-color:#FFFFFF;stop-opacity:0.6"/>
				<stop  offset="1" style="stop-color:#FFFFFF;stop-opacity:0.1"/>
			</linearGradient>
			<path class="st25" d="M30.9,16.3c0,0,0.3-0.9-1.8-0.6C27,16.1,18,18,17,18.6c-0.9,0.6,0.1,0.9,2.9,2.3c0,0-3.3-1.8-3.8-1.5
				c-0.4,0.2-0.2,3.7-0.2,3.7s-0.1-3.6-1.2-4.3l-5.8-2c0,0,5.1,1.7,7,1.7c0.9,0,9.4-2.5,13.1-3.1C29.5,15.4,31,14.9,30.9,16.3z"/>
			<linearGradient id="SVGID_21_" gradientUnits="userSpaceOnUse" x1="26.6772" y1="25.1377" x2="23.8563" y2="32.4333">
				<stop  offset="9.693880e-02" style="stop-color:#FFFFFF;stop-opacity:0.1"/>
				<stop  offset="0.5102" style="stop-color:#FFFFFF;stop-opacity:0.4"/>
				<stop  offset="0.9949" style="stop-color:#FFFFFF;stop-opacity:0.1"/>
			</linearGradient>
			<path class="st26" d="M23.6,31.3c0,0,2.3-1.8,2.5-2.6c0.6-1.9,0-4.2,0-4.2s0.2,3-0.3,4.3C25.4,29.7,23.6,31.3,23.6,31.3z"/>
			<linearGradient id="SVGID_22_" gradientUnits="userSpaceOnUse" x1="20.0053" y1="35.263" x2="23.1533" y2="35.263">
				<stop  offset="0" style="stop-color:#CE2E2E"/>
				<stop  offset="0.9949" style="stop-color:#AA1F1F"/>
			</linearGradient>
			<polygon class="st27" points="22.1,34.8 21.5,33.9 21.1,35 20,35.4 20.8,36 20.7,36.6 22.5,36.1 22.4,35.7 23.2,34.8 			"/>
			<linearGradient id="SVGID_23_" gradientUnits="userSpaceOnUse" x1="27.4019" y1="19.8222" x2="31.0054" y2="19.8222">
				<stop  offset="0" style="stop-color:#CE2E2E"/>
				<stop  offset="0.9949" style="stop-color:#AA1F1F"/>
			</linearGradient>
			<polygon class="st28" points="30.5,18.6 29,17.5 29,19.2 27.4,20.1 29.2,20.6 29.8,22.1 30.9,20.9 31,20.9 31,18.4 			"/>
			<linearGradient id="SVGID_24_" gradientUnits="userSpaceOnUse" x1="29.227" y1="25.7582" x2="30.9484" y2="25.7582">
				<stop  offset="0" style="stop-color:#CE2E2E"/>
				<stop  offset="0.9949" style="stop-color:#AA1F1F"/>
			</linearGradient>
			<polygon class="st29" points="30.9,24.5 30.7,24.7 29.8,24.2 30,25.3 29.2,26.2 30.3,26.3 30.7,27.4 30.9,26.8 			"/>
			<linearGradient id="SVGID_25_" gradientUnits="userSpaceOnUse" x1="28.6587" y1="32.334" x2="30.8695" y2="32.334">
				<stop  offset="0" style="stop-color:#CE2E2E"/>
				<stop  offset="0.9949" style="stop-color:#AA1F1F"/>
			</linearGradient>
			<polygon class="st30" points="30.9,33.7 30.9,31.9 29.4,30.9 29.4,32.6 28.7,33 			"/>
			<linearGradient id="SVGID_26_" gradientUnits="userSpaceOnUse" x1="9.312914e-02" y1="25.5923" x2="2.8421" y2="25.5923">
				<stop  offset="0" style="stop-color:#CE2E2E"/>
				<stop  offset="0.9949" style="stop-color:#AA1F1F"/>
			</linearGradient>
			<path class="st31" d="M1.1,24.7l-0.7-1.9l-0.3,0.6c0,1.3,0,2.5,0,3.7l0.1,0l1.5,1.3l-0.2-2l1.3-1.1L1.1,24.7z"/>
			<linearGradient id="SVGID_27_" gradientUnits="userSpaceOnUse" x1="6.3948" y1="34.8462" x2="9.6767" y2="34.8462">
				<stop  offset="0" style="stop-color:#CE2E2E"/>
				<stop  offset="0.9949" style="stop-color:#AA1F1F"/>
			</linearGradient>
			<path class="st32" d="M8,34.6l-1.6-1l0.3,1.6c1,0.3,2,0.6,3,0.9l-0.3-0.4l0.3-2L8,34.6z"/>
			<linearGradient id="SVGID_28_" gradientUnits="userSpaceOnUse" x1="14.6055" y1="29.1084" x2="15.7412" y2="29.1084">
				<stop  offset="0" style="stop-color:#CE2E2E"/>
				<stop  offset="0.9949" style="stop-color:#AA1F1F"/>
			</linearGradient>
			<polygon class="st33" points="15.7,28 14.9,27.8 15.4,29.1 14.6,30.2 15.7,30.4 			"/>
			<linearGradient id="SVGID_29_" gradientUnits="userSpaceOnUse" x1="16.2933" y1="31.2026" x2="15.8444" y2="40.564">
				<stop  offset="9.693880e-02" style="stop-color:#FFFFFF;stop-opacity:0.3964"/>
				<stop  offset="0.3367" style="stop-color:#FFFFFF;stop-opacity:0.6"/>
				<stop  offset="1" style="stop-color:#FFFFFF;stop-opacity:0.1"/>
			</linearGradient>
			<path class="st34" d="M15.4,37.4c-0.2-1-0.1-2.1,0.5-6c0,0-0.5,6.4,0.9,6C16.8,37.4,15.5,38,15.4,37.4z"/>
			
				<linearGradient id="SVGID_30_" gradientUnits="userSpaceOnUse" x1="-14.0847" y1="5.3246" x2="-5.3011" y2="5.3246" gradientTransform="matrix(0.9964 -8.490000e-02 8.490000e-02 0.9964 17.4245 8.5618)">
				<stop  offset="0" style="stop-color:#CE2E2E"/>
				<stop  offset="0.9949" style="stop-color:#AA1F1F"/>
			</linearGradient>
			<polygon class="st35" points="6.2,13.8 8.7,14.3 11.6,14.2 10.7,14.8 12.7,15.3 9.5,15.3 7.6,15.8 6.7,15.1 3.8,14.8 6.3,14.5 
							"/>
			
				<linearGradient id="SVGID_31_" gradientUnits="userSpaceOnUse" x1="-5.6656" y1="7.5384" x2="3.118" y2="7.5384" gradientTransform="matrix(0.9964 -8.490000e-02 8.490000e-02 0.9964 17.4245 8.5618)">
				<stop  offset="0" style="stop-color:#CE2E2E"/>
				<stop  offset="0.9949" style="stop-color:#AA1F1F"/>
			</linearGradient>
			<polygon class="st36" points="14.8,15.3 17.3,15.8 20.2,15.7 19.3,16.3 21.3,16.8 18.1,16.7 16.2,17.2 15.3,16.6 12.4,16.3 
				14.9,16 			"/>
			
				<linearGradient id="SVGID_32_" gradientUnits="userSpaceOnUse" x1="-6.7224" y1="4.1312" x2="-0.2077" y2="4.1312" gradientTransform="matrix(0.9964 -8.490000e-02 8.490000e-02 0.9964 17.4245 8.5618)">
				<stop  offset="0" style="stop-color:#CE2E2E"/>
				<stop  offset="0.9949" style="stop-color:#AA1F1F"/>
			</linearGradient>
			<polygon class="st37" points="12.8,12.3 14.7,12.7 16.8,12.6 16.2,13 17.6,13.4 15.3,13.4 13.9,13.8 13.2,13.3 11.1,13.1 
				12.9,12.8 			"/>
			
				<linearGradient id="SVGID_33_" gradientUnits="userSpaceOnUse" x1="2.333" y1="6.5294" x2="8.8476" y2="6.5294" gradientTransform="matrix(0.9964 -8.490000e-02 8.490000e-02 0.9964 17.4245 8.5618)">
				<stop  offset="0" style="stop-color:#CE2E2E"/>
				<stop  offset="0.9949" style="stop-color:#AA1F1F"/>
			</linearGradient>
			<polygon class="st38" points="22.1,14 23.9,14.3 26.1,14.2 25.4,14.6 26.9,15.1 24.5,15 23.1,15.4 22.5,14.9 20.3,14.7 
				22.1,14.5 			"/>
			
				<linearGradient id="SVGID_34_" gradientUnits="userSpaceOnUse" x1="1.2851" y1="4.5005" x2="5.6467" y2="4.5005" gradientTransform="matrix(0.9964 -8.490000e-02 8.490000e-02 0.9964 17.4245 8.5618)">
				<stop  offset="0" style="stop-color:#CE2E2E"/>
				<stop  offset="0.9949" style="stop-color:#AA1F1F"/>
			</linearGradient>
			<path class="st39" d="M21.7,12.7c-0.5-0.1-0.9-0.2-1.4-0.3l0,0.1l-1.2,0.2l1.4,0.1l0.4,0.3l0.9-0.3l0.6,0
				C22.2,12.9,21.9,12.8,21.7,12.7z"/>
		</g>
		<g>
			<path class="st40" d="M8.8,35.7l0.5,0.2V18.1c0,0-0.1-1.1,1.5-1.5L9.1,17c0,0-0.8,0-0.6,1.4C8.6,19.8,8.8,35.7,8.8,35.7z"/>
			<linearGradient id="SVGID_35_" gradientUnits="userSpaceOnUse" x1="15.4062" y1="12.3502" x2="9.5529" y2="36.2624">
				<stop  offset="5.612240e-02" style="stop-color:#B42F1B"/>
				<stop  offset="0.1582" style="stop-color:#F17600"/>
				<stop  offset="0.2653" style="stop-color:#FFC82A"/>
				<stop  offset="0.3078" style="stop-color:#FABD29"/>
				<stop  offset="0.5397" style="stop-color:#E18821"/>
				<stop  offset="0.7407" style="stop-color:#CE611C"/>
				<stop  offset="0.9008" style="stop-color:#C34A18"/>
				<stop  offset="1" style="stop-color:#BF4117"/>
			</linearGradient>
			<path class="st41" d="M8.7,35.9l0.1-18.2c0,0-0.1-0.7,0.6-0.8c0.6-0.1,15-3.7,15-3.7L20,12L5.8,15.7c0,0-0.5,0.1-0.5,1
				c0,0.8,0,18.1,0,18.1L8.7,35.9z"/>
			<g>
				<path class="st42" d="M18.2,14.5c-3.9,1-8.4,2.1-8.9,2.2C8.4,17,8.5,17.9,8.6,18v17.9h0.2V18l0,0c0,0-0.1-0.8,0.6-1.1
					c0.5-0.1,4.9-1.2,8.8-2.2C18.2,14.7,18.2,14.6,18.2,14.5z"/>
			</g>
		</g>
		<g>
			<path class="st40" d="M22.1,36l-0.5,0.2V18.4c0,0,0.1-1.1-1.5-1.5l1.7,0.4c0,0,0.8,0,0.6,1.4C22.3,20.2,22.1,36,22.1,36z"/>
			
				<linearGradient id="SVGID_36_" gradientUnits="userSpaceOnUse" x1="645.1002" y1="12.3762" x2="639.1517" y2="36.6769" gradientTransform="matrix(-1 0 0 1 660.4298 0)">
				<stop  offset="5.612240e-02" style="stop-color:#B42F1B"/>
				<stop  offset="0.1582" style="stop-color:#F17600"/>
				<stop  offset="0.2857" style="stop-color:#FFE655"/>
				<stop  offset="0.602" style="stop-color:#FFAA00"/>
				<stop  offset="1" style="stop-color:#CC5712"/>
			</linearGradient>
			<path class="st43" d="M22.3,36.3l-0.1-18.2c0,0,0.1-0.7-0.6-0.8c-0.6-0.1-15.3-4.1-15.3-4.1l4.4-0.9l14.5,3.9c0,0,0.5,0.1,0.5,1
				c0,0.8,0,18.1,0,18.1L22.3,36.3z"/>
			<g>
				<path class="st44" d="M22.2,36.3h0.2V18.4c0-0.1,0.1-1-0.8-1.3c-0.8-0.3-14.6-3.8-15.2-4l0,0.2c0.1,0,14.4,3.7,15.2,4
					c0.8,0.2,0.6,1,0.6,1.1l0,0V36.3z"/>
			</g>
		</g>
		<path class="st3" d="M9.1,16l4.2-1l-2.6-0.6C10.7,14.4,9.4,15,9.1,16z"/>
		<path class="st3" d="M6.4,15.5c0,0-0.4,1.9,2.4,2L6.4,15.5z"/>
		<path class="st3" d="M13.4,13.2c-1.3-0.3-5.1,0-5.1,0s1.6-0.9,2.8-1l2.7,0.6C13.8,12.8,13.6,13.3,13.4,13.2z"/>
		<path class="st3" d="M23.1,16.3l-0.4-0.9l-4.8-1.3c0,0-2-0.4-3-0.2l-1.3-0.5c0,0-1.5-0.1-2.5,1l2.4,0.6c0,0,2.8,0.4,4.2-0.1
			c0.2,0,0.3,0.1,0.5,0.2L23.1,16.3z"/>
		<g>
			<g>
				<g>
					<linearGradient id="SVGID_37_" gradientUnits="userSpaceOnUse" x1="15.9714" y1="10.7528" x2="27.7198" y2="1.4708">
						<stop  offset="5.612240e-02" style="stop-color:#B42F1B"/>
						<stop  offset="0.3265" style="stop-color:#F17600"/>
						<stop  offset="0.648" style="stop-color:#F1AB26"/>
						<stop  offset="0.7376" style="stop-color:#E08821"/>
						<stop  offset="0.8517" style="stop-color:#CE611C"/>
						<stop  offset="0.9433" style="stop-color:#C34A18"/>
						<stop  offset="1" style="stop-color:#BF4117"/>
					</linearGradient>
					<path class="st45" d="M25.9,1.8c-2.1-1.2-5.1,0.4-6.3,1.9c-1.9,2.4-3.6,6.2-3.7,9.3c0.6,0.2,1.2,0.4,1.8,0.5
						c0.7-1,0.7-2.4,1.3-3.4c0.7-1.3,1.5-2.4,2.6-3.4c0.8-0.7,1.5-1.4,2.7-1.1c0.8,0.2,1.8,1.2,1.1,2C25.4,7.7,27.4,2.7,25.9,1.8z"
						/>
					<g>
						<path class="st46" d="M24.6,1.4c0.1,0,0.2,0.1,0.4,0.1C24.8,1.4,24.7,1.4,24.6,1.4z"/>
						<linearGradient id="SVGID_38_" gradientUnits="userSpaceOnUse" x1="16.4798" y1="11.818" x2="29.1692" y2="4.4476">
							<stop  offset="0.199" style="stop-color:#E96640"/>
							<stop  offset="0.5102" style="stop-color:#FFC82A"/>
							<stop  offset="0.5182" style="stop-color:#FFC92C"/>
							<stop  offset="0.6545" style="stop-color:#FFDE4A"/>
							<stop  offset="0.7317" style="stop-color:#FFE655"/>
							<stop  offset="0.8517" style="stop-color:#F3BF3F"/>
							<stop  offset="0.9801" style="stop-color:#D36A1E"/>
						</linearGradient>
						<path class="st47" d="M27.9,9.2c0-1.2,0.2-2.4,0.1-3.5c-0.1-1.1-0.3-2.7-1.2-3.5c-0.5-0.4-1.2-0.6-1.8-0.7
							c2.2,0.7,1.1,4,0.1,5.3c-2.1,2.6-8.6,2.8-9.2,6.6l0.3,0.6c0.2,0,0.4,0.1,0.6,0.2c1-0.6,2.8-0.4,3.8-0.5c2.3-0.2,4.2-0.9,6-2.4
							C27.5,10.5,27.9,10.4,27.9,9.2z"/>
					</g>
				</g>
				<g>
					<linearGradient id="SVGID_39_" gradientUnits="userSpaceOnUse" x1="16.0057" y1="6.4416" x2="26.3572" y2="6.4416">
						<stop  offset="0" style="stop-color:#F17600"/>
						<stop  offset="0.3827" style="stop-color:#FFC82A"/>
						<stop  offset="0.3954" style="stop-color:#FFC92C"/>
						<stop  offset="0.612" style="stop-color:#FFDE4A"/>
						<stop  offset="0.7347" style="stop-color:#FFE655"/>
						<stop  offset="1" style="stop-color:#FFD394"/>
					</linearGradient>
					<path class="st48" d="M16.8,11.6l-0.1-0.1C16.7,11.4,18,10.2,21,9c3.1-1.2,4.8-2.4,5.1-5.2c0.1-0.9-0.1-1.5-0.6-1.9
						c-0.9-0.6-2.4-0.3-2.9-0.1c-0.1,0-0.1,0-0.2,0.1c-1.1,0.5-4.2,1.7-6.2,9.4L16,11.2c2.1-7.7,5.2-9,6.3-9.5
						c0.1,0,0.1-0.1,0.2-0.1c0.6-0.3,2.2-0.6,3.1,0.1c0.6,0.4,0.8,1.1,0.7,2.1c-0.3,3-2.1,4.2-5.3,5.4
						C18.1,10.3,16.8,11.5,16.8,11.6z"/>
				</g>
				<g>
					<linearGradient id="SVGID_40_" gradientUnits="userSpaceOnUse" x1="17.4084" y1="13.4243" x2="30.1053" y2="6.0496">
						<stop  offset="9.693880e-02" style="stop-color:#FFFFFF;stop-opacity:0.3964"/>
						<stop  offset="0.3367" style="stop-color:#FFFFFF;stop-opacity:0.6"/>
						<stop  offset="1" style="stop-color:#FFFFFF;stop-opacity:0.1"/>
					</linearGradient>
					<path class="st49" d="M25.6,5.9c-0.2,0.3-0.4,0.6-0.5,0.9c-0.4,0.4-0.8,0.8-1.4,1.1c0.6,0.4,1.1,0.7,1.7,1
						c0.8,0.4,1.6,0.9,2.3,1.4c0.2-0.3,0.2-0.6,0.3-1.1c0-0.7,0.1-1.4,0.1-2.1C27.3,6.7,25.7,5.9,25.6,5.9z"/>
				</g>
			</g>
			<g>
				<g>
					<linearGradient id="SVGID_41_" gradientUnits="userSpaceOnUse" x1="3.6696" y1="5.9626" x2="13.6686" y2="13.2346">
						<stop  offset="5.612240e-02" style="stop-color:#B42F1B"/>
						<stop  offset="0.3265" style="stop-color:#F17600"/>
						<stop  offset="0.648" style="stop-color:#F1AB26"/>
						<stop  offset="0.7376" style="stop-color:#E08821"/>
						<stop  offset="0.8517" style="stop-color:#CE611C"/>
						<stop  offset="0.9433" style="stop-color:#C34A18"/>
						<stop  offset="1" style="stop-color:#BF4117"/>
					</linearGradient>
					<path class="st50" d="M14.4,12.4c-1.1-0.5-2-1.6-3.1-2.2c-1.1-0.6-2.3-1.1-3.2-2c-1.3-1.1-3-2.5-1.7-4.3
						C5.6,3.9,2.2,5.8,2.7,6.1L2.5,8.3C3,9,3.2,9.6,3.9,10.2c1,0.7,2.3,1.2,3.5,1.5c2.3,0.5,4.9,1,7,1.7
						C14.4,13,14.3,12.7,14.4,12.4z"/>
					<linearGradient id="SVGID_42_" gradientUnits="userSpaceOnUse" x1="-0.4657" y1="0.8654" x2="15.6266" y2="11.4259">
						<stop  offset="0.1224" style="stop-color:#F8A116"/>
						<stop  offset="0.2755" style="stop-color:#D56F1F"/>
						<stop  offset="0.4206" style="stop-color:#EEA526"/>
						<stop  offset="0.5102" style="stop-color:#FFC82A"/>
						<stop  offset="0.5182" style="stop-color:#FFC92C"/>
						<stop  offset="0.6545" style="stop-color:#FFDE4A"/>
						<stop  offset="0.7317" style="stop-color:#FFE655"/>
						<stop  offset="0.8517" style="stop-color:#F3BF3F"/>
						<stop  offset="1" style="stop-color:#D36A1E"/>
					</linearGradient>
					<path class="st51" d="M13.7,7.4c-0.8-2.6-2.3-5.2-4.9-6.5C8,0.4,6.5-0.3,5.7,0.2C4.6,0.8,3.7,2.3,3,3.3
						C2.2,4.5,1.4,5.4,1.8,6.9C2,7.7,2.5,8.7,3,9.3c-0.2-1-0.4-2.1,0.3-2.9C4,5.5,5.8,5.3,6.9,5.5c1.8,0.3,3.4,2.2,4.5,3.6
						c0.5,0.7,2.5,4,2.9,4l0.6-0.3c0-0.1,0-0.1,0-0.2C14.4,11,14.3,9.1,13.7,7.4z"/>
					<linearGradient id="SVGID_43_" gradientUnits="userSpaceOnUse" x1="1.0298" y1="-1.3867" x2="17.1051" y2="9.1628">
						<stop  offset="9.693880e-02" style="stop-color:#FFFFFF;stop-opacity:0.3964"/>
						<stop  offset="0.3367" style="stop-color:#FFFFFF;stop-opacity:0.6"/>
						<stop  offset="1" style="stop-color:#FFFFFF;stop-opacity:0.1"/>
					</linearGradient>
					<path class="st52" d="M8.9,0.9C8.9,0.9,8.9,0.8,8.9,0.9c-0.3,1.1-1,4.3-1.1,4.9c0.9,0.4,1.7,1.1,2.4,1.8c0.5-1.3,1.2-2.5,2-3.7
						C11.2,2.6,10.2,1.5,8.9,0.9z"/>
				</g>
				<g>
					<linearGradient id="SVGID_44_" gradientUnits="userSpaceOnUse" x1="2.7162" y1="9.1509" x2="13.8258" y2="9.1509">
						<stop  offset="0" style="stop-color:#F17600"/>
						<stop  offset="0.3827" style="stop-color:#FFC82A"/>
						<stop  offset="0.3954" style="stop-color:#FFC92C"/>
						<stop  offset="0.612" style="stop-color:#FFDE4A"/>
						<stop  offset="0.7347" style="stop-color:#FFE655"/>
						<stop  offset="1" style="stop-color:#FFD394"/>
					</linearGradient>
					<path class="st53" d="M13.6,13.1c0,0-2.1-0.3-6.7-1.5C4.9,11.1,3.6,10.3,3,9.4C2.6,8.6,2.7,8,2.7,7.9c0-2.4,2.6-2.6,2.8-2.6
						C7.3,5,9.2,6.1,11.3,8.8c1.6,1.9,2.5,3.8,2.5,3.9l-0.1,0.2c0-0.1-4.2-8.1-8.1-7.3l0,0c-0.1,0-2.6,0.1-2.6,2.4l0,0
						c0,0-0.2,0.6,0.3,1.3c0.4,0.6,1.3,1.5,3.7,2.1c4.6,1.2,6.7,1.5,6.8,1.5L13.6,13.1z"/>
				</g>
			</g>
			<g>
				<linearGradient id="SVGID_45_" gradientUnits="userSpaceOnUse" x1="13.8702" y1="12.0063" x2="6.5641" y2="17.0231">
					<stop  offset="5.612240e-02" style="stop-color:#B42F1B"/>
					<stop  offset="0.3469" style="stop-color:#F17600"/>
					<stop  offset="0.7143" style="stop-color:#FFC82A"/>
					<stop  offset="0.7245" style="stop-color:#FFC92C"/>
					<stop  offset="0.8971" style="stop-color:#FFDE4A"/>
					<stop  offset="0.9949" style="stop-color:#FFE655"/>
				</linearGradient>
				<path class="st54" d="M7.2,14.3c-0.7,0.9-0.9,1.4-0.1,2.1c0.6,0.5,1.4,0.8,2,1.3c0.3-3.1,3.4-5.2,6-4l-0.3-1.2
					C12.3,11.8,8.9,12.2,7.2,14.3z"/>
				<g>
					<linearGradient id="SVGID_46_" gradientUnits="userSpaceOnUse" x1="13.6038" y1="13.4638" x2="8.5126" y2="16.9598">
						<stop  offset="0" style="stop-color:#F17600"/>
						<stop  offset="0.3827" style="stop-color:#FFC82A"/>
						<stop  offset="0.3954" style="stop-color:#FFC92C"/>
						<stop  offset="0.612" style="stop-color:#FFDE4A"/>
						<stop  offset="0.7347" style="stop-color:#FFE655"/>
						<stop  offset="1" style="stop-color:#FFD394"/>
					</linearGradient>
					<path class="st55" d="M9.1,17.7l-0.2-0.2c0,0,0.7-4.2,4.5-4.3l0,0.2C9.8,13.6,9.1,17.7,9.1,17.7z"/>
				</g>
			</g>
			<g>
				<linearGradient id="SVGID_47_" gradientUnits="userSpaceOnUse" x1="16.0349" y1="13.9878" x2="23.8223" y2="13.9878">
					<stop  offset="5.612240e-02" style="stop-color:#B42F1B"/>
					<stop  offset="0.3469" style="stop-color:#F17600"/>
					<stop  offset="0.7143" style="stop-color:#FFC82A"/>
					<stop  offset="0.7245" style="stop-color:#FFC92C"/>
					<stop  offset="0.8971" style="stop-color:#FFDE4A"/>
					<stop  offset="0.9949" style="stop-color:#FFE655"/>
				</linearGradient>
				<path class="st56" d="M16.5,12.6L16,14.1c0.4-0.6,2.6-0.1,3.3,0c1.4,0.2,3,0.8,3.6,2.1c0.3-0.8,0.1-2.2,0.9-2.9
					C22.5,11.1,18.5,11.6,16.5,12.6z"/>
				<g>
					<linearGradient id="SVGID_48_" gradientUnits="userSpaceOnUse" x1="17.9145" y1="15.0242" x2="23.0445" y2="15.0242">
						<stop  offset="0" style="stop-color:#F17600"/>
						<stop  offset="0.3827" style="stop-color:#FFC82A"/>
						<stop  offset="0.3954" style="stop-color:#FFC92C"/>
						<stop  offset="0.612" style="stop-color:#FFDE4A"/>
						<stop  offset="0.7347" style="stop-color:#FFE655"/>
						<stop  offset="1" style="stop-color:#FFD394"/>
					</linearGradient>
					<path class="st57" d="M22.9,16.3C22,14.2,18,14,17.9,14l0-0.2c0.2,0,4.2,0.2,5.1,2.4L22.9,16.3z"/>
				</g>
			</g>
			<g>
				<linearGradient id="SVGID_49_" gradientUnits="userSpaceOnUse" x1="15.0438" y1="15.8829" x2="16.5349" y2="10.113">
					<stop  offset="0" style="stop-color:#F89D14"/>
					<stop  offset="3.658370e-02" style="stop-color:#E78117"/>
					<stop  offset="8.531527e-02" style="stop-color:#D46219"/>
					<stop  offset="0.1329" style="stop-color:#C64C1B"/>
					<stop  offset="0.1784" style="stop-color:#BE3F1D"/>
					<stop  offset="0.2194" style="stop-color:#BB3A1D"/>
					<stop  offset="0.263" style="stop-color:#C0401B"/>
					<stop  offset="0.322" style="stop-color:#CD5116"/>
					<stop  offset="0.3894" style="stop-color:#E36D0E"/>
					<stop  offset="0.4337" style="stop-color:#F48408"/>
					<stop  offset="0.6531" style="stop-color:#FFC82A"/>
					<stop  offset="0.6654" style="stop-color:#FFC92C"/>
					<stop  offset="0.8758" style="stop-color:#FFDE4A"/>
					<stop  offset="0.9949" style="stop-color:#FFE655"/>
				</linearGradient>
				<path class="st58" d="M14.4,10.6c0.2,1-0.9,2.9-1.1,2.9c0.4,1.3,2.4,0.9,3.5,0.8c0.9-0.1,1.1-0.1,1.3-0.9
					c0.2-0.6,0.2-0.9,0.3-1.5C16.9,10.9,15.5,11.5,14.4,10.6z"/>
				<linearGradient id="SVGID_50_" gradientUnits="userSpaceOnUse" x1="16.2416" y1="11.5429" x2="15.6835" y2="14.8915">
					<stop  offset="9.693880e-02" style="stop-color:#FFFFFF;stop-opacity:0.3964"/>
					<stop  offset="0.3367" style="stop-color:#FFFFFF;stop-opacity:0.6"/>
					<stop  offset="1" style="stop-color:#FFFFFF;stop-opacity:0.1"/>
				</linearGradient>
				<path class="st59" d="M18.2,12.5c0-0.1,0-0.3,0.1-0.5c-0.3-0.1-3-0.6-4-0.6c-0.1,0.3-0.2,0.6-0.3,0.8
					C15.4,12.3,16.8,12.3,18.2,12.5z"/>
			</g>
		</g>
		
			<linearGradient id="SVGID_51_" gradientUnits="userSpaceOnUse" x1="638.691" y1="11.1657" x2="632.9907" y2="34.4531" gradientTransform="matrix(-1 0 0 1 660.4298 0)">
			<stop  offset="9.693880e-02" style="stop-color:#FFFFFF;stop-opacity:0.3964"/>
			<stop  offset="0.3367" style="stop-color:#FFFFFF;stop-opacity:0.6"/>
			<stop  offset="1" style="stop-color:#FFFFFF;stop-opacity:0.1"/>
		</linearGradient>
		<path class="st60" d="M25.7,20.1v-1.9c-1.1,0.6-2.1,1.1-3.2,1.6c-0.1,0-0.1,3.2,0,3.1C23.5,22.1,25.4,20.4,25.7,20.1z"/>
	</g>
</g>
</svg>
