<?xml version="1.0" encoding="utf-8"?>
<!-- Generator: Adobe Illustrator 28.0.0, SVG Export Plug-In . SVG Version: 6.00 Build 0)  -->
<svg version="1.1" id="圖層_1" xmlns="http://www.w3.org/2000/svg" xmlns:xlink="http://www.w3.org/1999/xlink" x="0px" y="0px"
	 viewBox="0 0 29.6 29.6" style="enable-background:new 0 0 29.6 29.6;" xml:space="preserve">
<style type="text/css">
	.st0{fill:#FFFFFF;}
</style>
<path class="st0" d="M18,4.3l4.2,0l-6,6c-0.8,0.8-0.8,2.2,0,3.1c0.8,0.8,2.2,0.8,3.1,0l6-6l0,4.2c0,0.6,0.2,1.1,0.6,1.5
	c0.4,0.4,0.9,0.6,1.5,0.6c1.2,0,2.2-1,2.2-2.2l0-9.4c0-1.2-1-2.2-2.2-2.2L18,0c-1.2,0-2.2,1-2.2,2.2C15.9,3.4,16.8,4.3,18,4.3z"/>
<path class="st0" d="M11.6,25.3l-4.2,0l6-6c0.8-0.8,0.8-2.2,0-3.1c-0.8-0.8-2.2-0.8-3.1,0l-6,6l0-4.2c0-1.2-1-2.2-2.2-2.2
	C1,15.9,0,16.9,0,18l0,9.4C0,28,0.2,28.6,0.6,29c0.4,0.4,0.9,0.6,1.5,0.6l9.4,0c1.2,0,2.2-1,2.2-2.2C13.7,26.3,12.8,25.3,11.6,25.3z
	"/>
</svg>
