<?xml version="1.0" encoding="utf-8"?>
<!-- Generator: Adobe Illustrator 25.4.1, SVG Export Plug-In . SVG Version: 6.00 Build 0)  -->
<svg version="1.1" id="圖層_1" xmlns="http://www.w3.org/2000/svg" xmlns:xlink="http://www.w3.org/1999/xlink" x="0px" y="0px"
	 viewBox="0 0 83.6 91.5" style="enable-background:new 0 0 83.6 91.5;" xml:space="preserve">
<style type="text/css">
	.st0{fill:#FFFFFF;}
</style>
<g id="XMLID_404_">
	<path id="XMLID_845_" class="st0" d="M27.2,25.2v23.9c0,4.1,3.4,7.5,7.5,7.5h21.7V18H34.5C30.5,18,27.2,21.2,27.2,25.2L27.2,25.2z
		 M51,51.2H34.7c-1.2,0-2.1-0.9-2.1-2.1c0-1.2,0.9-2.1,2.1-2.1H51V51.2z M51,41.6H34.7c-0.7,0-1.4,0.1-2.1,0.3V25.2
		c0-1,0.8-1.9,1.9-1.9H51L51,41.6z"/>
	<path id="XMLID_847_" class="st0" d="M39.1,30.3h5.4v5.2h-5.4L39.1,30.3z"/>
	<path id="XMLID_850_" class="st0" d="M83.6,40v-5.4H77L72.7,29l1.4-10.4l-9.7-4l-4-9.7L50.1,6.4L41.8,0l-8.3,6.4L23.1,5l-4,9.7
		l-9.7,4L10.9,29l-4.3,5.6H0V40h6.6l4.3,5.6L9.5,56l8.8,3.6L6.2,83l10.6-0.2l5.9,8.8l11.7-22.6l4.7,3.6v7.8h5.4v-7.8l4.7-3.6
		l11.7,22.6l5.9-8.8L77.4,83L65.3,59.6l8.8-3.6l-1.4-10.4L77,40L83.6,40L83.6,40z M22,81l-2.5-3.7l-4.4,0.1l6.3-12.1l1.8,4.3
		l5.2-0.7L22,81z M64,77.3L61.5,81l-6.2-12.1l5.2,0.7l1.8-4.3l6.2,12.1L64,77.3z M68.2,52.6l-7.9,3.2l-3.2,7.9l-8.5-1.1l-6.8,5.2
		L35,62.6l-8.5,1.1l-3.2-7.9l-7.9-3.2l1.1-8.5l-5.2-6.8l5.2-6.8l-1.1-8.5l7.9-3.2l3.2-7.9L35,12l6.8-5.2l6.8,5.2l8.5-1.1l3.2,7.9
		l7.9,3.2l-1.1,8.5l5.2,6.8l-5.2,6.8L68.2,52.6z"/>
</g>
</svg>
