<?xml version="1.0" encoding="utf-8"?>
<!-- Generator: Adobe Illustrator 25.4.1, SVG Export Plug-In . SVG Version: 6.00 Build 0)  -->
<svg version="1.1" id="圖層_1" xmlns="http://www.w3.org/2000/svg" xmlns:xlink="http://www.w3.org/1999/xlink" x="0px" y="0px"
	 viewBox="0 0 91.5 84.9" style="enable-background:new 0 0 91.5 84.9;" xml:space="preserve">
<style type="text/css">
	.st0{fill:#FFFFFF;}
</style>
<g id="XMLID_209_">
	<path id="XMLID_548_" class="st0" d="M18.8,43.8h4.8l15.6,6.3V21.2l-15.6,6.3h-4.8c-4.5,0-8.2,3.7-8.2,8.2S14.3,43.8,18.8,43.8z
		 M33.9,42.1l-7.1-2.8V32l7.1-2.8V42.1z M18.8,32.9h2.6v5.6h-2.6c-1.5,0-2.8-1.3-2.8-2.8C16,34.1,17.3,32.9,18.8,32.9z"/>
	<path id="XMLID_554_" class="st0" d="M47.3,45.4c5.4-5.4,5.4-14.1,0-19.4l-3.8,3.8c3.3,3.3,3.3,8.6,0,11.9L47.3,45.4z"/>
	<path id="XMLID_565_" class="st0" d="M84,6.7c-1.8,0-3.5,0.6-4.8,1.7c-1.3-1.1-3-1.7-4.8-1.7H67v30L76.6,55v10.8h-15V0H9.1
		C4.1,0,0,4.1,0,9.1v63.4c0,5.4,4.4,9.8,9.8,9.8h3v2.7h5.4v-2.7h43.4V71.2H82V55l9.6-18.3v-30L84,6.7z M56.2,76.9H18.2v-4.5h-5.4
		v4.5h-3c-2.4,0-4.4-2-4.4-4.4s2-4.4,4.4-4.4h46.5V76.9z M56.2,62.7H9.8c-1.6,0-3.1,0.4-4.4,1.1V9.1c0-2,1.7-3.7,3.7-3.7h47.2V62.7z
		 M84,12.1h2.1v4.2H84c-1.1,0-2.1-0.9-2.1-2.1S82.9,12.1,84,12.1L84,12.1z M76.6,14.2c0,1.1-0.9,2.1-2.1,2.1h-2.1v-4.2h2.1
		C75.7,12.1,76.6,13,76.6,14.2z M86.2,35.4l-6.9,13.2l-6.9-13.1v-3.7h4.1v-5.4h-4.1v-4.7h2.1c1.8,0,3.5-0.6,4.8-1.7
		c1.3,1.1,3,1.7,4.8,1.7h2.1V35.4z"/>
</g>
</svg>
