<?xml version="1.0" encoding="utf-8"?>
<!-- Generator: Adobe Illustrator 25.4.1, SVG Export Plug-In . SVG Version: 6.00 Build 0)  -->
<svg version="1.1" id="圖層_1" xmlns="http://www.w3.org/2000/svg" xmlns:xlink="http://www.w3.org/1999/xlink" x="0px" y="0px"
	 viewBox="0 0 91 81.7" style="enable-background:new 0 0 91 81.7;" xml:space="preserve">
<style type="text/css">
	.st0{fill:#FFFFFF;}
</style>
<g id="XMLID_801_">
	<path id="XMLID_816_" class="st0" d="M91,65.4V0H0v65.4h42.8v11H20.4v5.3h49.8v-5.3H48.1v-11H91z M5.3,5.3h80.3V60H5.3V5.3z"/>
	<path id="XMLID_827_" class="st0" d="M13.2,21v23.7c0,4.1,3.3,7.4,7.4,7.4h21.5V13.8H20.4C16.4,13.8,13.2,17,13.2,21z M36.8,46.8
		H20.6c-1.2,0-2.1-0.9-2.1-2.1c0-1.2,0.9-2.1,2.1-2.1h16.2V46.8z M36.8,37.3H20.6c-0.7,0-1.4,0.1-2.1,0.3V21c0-1,0.8-1.8,1.8-1.8
		h16.4L36.8,37.3z"/>
	<path id="XMLID_896_" class="st0" d="M25,26.1h5.3v5.1H25V26.1z"/>
	<path id="XMLID_898_" class="st0" d="M54,12.8h10.4v5.3H54V12.8z"/>
	<path id="XMLID_899_" class="st0" d="M54,24h21.5v5.3H54V24z"/>
	<path id="XMLID_900_" class="st0" d="M54,35.1h21.5v5.3H54V35.1z"/>
	<path id="XMLID_901_" class="st0" d="M54,46.3h21.5v5.3H54V46.3z"/>
</g>
</svg>
