<?xml version="1.0" encoding="utf-8"?>
<!-- Generator: Adobe Illustrator 25.4.1, SVG Export Plug-In . SVG Version: 6.00 Build 0)  -->
<svg version="1.1" id="圖層_1" xmlns="http://www.w3.org/2000/svg" xmlns:xlink="http://www.w3.org/1999/xlink" x="0px" y="0px"
	 viewBox="0 0 90 99.1" style="enable-background:new 0 0 90 99.1;" xml:space="preserve">
<style type="text/css">
	.st0{fill:#FFFFFF;}
</style>
<g>
	<path class="st0" d="M79.3,38.2h-2.4v-7.7c4.1-1.3,7-5.1,7-9.6v-2.5h-5.8v2.5c0,2.4-1.9,4.3-4.3,4.3H47.9v-4.2
		c4.5-1.3,7.7-5.4,7.7-10.2C55.6,4.8,50.9,0,45,0S34.4,4.8,34.4,10.6c0,4.9,3.3,9,7.7,10.2v4.2H25.7c-6.9,0-12.6,5.6-12.6,12.6v0.5
		h-2.4C4.8,38.2,0,43,0,48.9c0,5.9,4.8,10.7,10.7,10.7h2.4v0.5c0,6.9,5.6,12.6,12.6,12.6h5.8v7.5c-6.4,2.6-10.9,8.8-10.9,16v2.9
		h48.8v-2.9c0-7.3-4.5-13.5-10.9-16v-7.5h5.8c6.9,0,12.6-5.6,12.6-12.6v-0.5h2.4c5.9,0,10.7-4.8,10.7-10.7
		C90,43,85.2,38.2,79.3,38.2L79.3,38.2z M45,5.8c2.7,0,4.8,2.2,4.8,4.8s-2.2,4.8-4.8,4.8c-2.7,0-4.8-2.2-4.8-4.8
		C40.2,8,42.3,5.8,45,5.8L45,5.8z M64.3,66.8H25.7c-3.7,0-6.8-3-6.8-6.8V37.7c0-3.7,3-6.8,6.8-6.8h45.4v29.1
		C71.1,63.8,68,66.8,64.3,66.8z M26.8,93.3c1.3-4.9,5.8-8.6,11.1-8.6h14.2c5.3,0,9.8,3.6,11.1,8.6H26.8z M37.3,78.9v-6.3h15.4v6.3
		L37.3,78.9z M10.7,53.8c-2.7,0-4.9-2.2-4.9-4.9c0-2.7,2.2-4.9,4.9-4.9h2.4v9.8H10.7z M79.3,53.8h-2.4V44h2.4c2.7,0,4.9,2.2,4.9,4.9
		C84.2,51.6,82,53.8,79.3,53.8z"/>
	<path class="st0" d="M27.9,41.6h5.8v5.8h-5.8V41.6z"/>
	<path class="st0" d="M56.3,41.6h5.8v5.8h-5.8V41.6z"/>
	<path class="st0" d="M45,58.6c3.7,0,7.1-2.2,8.6-5.6l-5.3-2.4c-0.6,1.3-1.9,2.2-3.3,2.2c-1.4,0-2.7-0.8-3.3-2.2L36.4,53
		C37.9,56.4,41.3,58.6,45,58.6z"/>
</g>
</svg>
