<?xml version="1.0" encoding="utf-8"?>
<!-- Generator: Adobe Illustrator 25.4.1, SVG Export Plug-In . SVG Version: 6.00 Build 0)  -->
<svg version="1.1" id="圖層_1" xmlns="http://www.w3.org/2000/svg" xmlns:xlink="http://www.w3.org/1999/xlink" x="0px" y="0px"
	 viewBox="0 0 91.5 88.5" style="enable-background:new 0 0 91.5 88.5;" xml:space="preserve">
<style type="text/css">
	.st0{fill:#FFFFFF;}
</style>
<g id="XMLID_855_">
	<path id="XMLID_858_" class="st0" d="M91.5,65H79c-2.3,0-4.5-0.5-6.6-1.4l-4.6-2.1c-4-1.8-8.3-2.4-12.6-1.6
		c-3.5,0.6-6.7,2.1-9.4,4.2c-2.7-2.1-5.9-3.6-9.4-4.2c-4.3-0.8-8.7-0.2-12.6,1.6l-4.6,2.1c-2.1,1-4.3,1.4-6.6,1.4H0v16.3h36.9
		c1.1,4.1,4.8,7.2,9.3,7.2s8.2-3.1,9.3-7.2h36V65z M5.4,70.4h7.2c3.1,0,6-0.6,8.8-1.9l4.6-2.1c5.7-2.6,12.4-1.6,17.1,2.5v7.1H5.4
		V70.4z M46.2,83.1c-1.4,0-2.7-0.7-3.5-1.8h6.9C48.9,82.4,47.6,83.1,46.2,83.1z M86.2,75.9H48.5v-7.1c4.7-4.1,11.4-5.1,17.1-2.5
		l4.6,2.1c2.8,1.3,5.8,1.9,8.8,1.9h7.2L86.2,75.9z"/>
	<path id="XMLID_861_" class="st0" d="M24.7,37.6c6.4,0,11.6,5.2,11.6,11.6V53h5.4v-3.8c0-9.4-7.6-17-17-17V37.6z"/>
	<path id="XMLID_862_" class="st0" d="M55.2,49.2c0-6.4,5.2-11.6,11.6-11.6v-5.4c-9.4,0-17,7.6-17,17V53h5.4V49.2z"/>
	<path id="XMLID_863_" class="st0" d="M12.1,32.2h5.7v5.4h-5.7V32.2z"/>
	<path id="XMLID_864_" class="st0" d="M42.9,1.9h5.7v5.4h-5.7V1.9z"/>
	<path id="XMLID_865_" class="st0" d="M73.7,32.2h5.7v5.4h-5.7V32.2z"/>
	<path id="XMLID_866_" class="st0" d="M43.1,12.9h5.4v16.3h-5.4V12.9z"/>
	<path id="XMLID_867_" class="st0" d="M26,53v-1.4c0-5.1-4.2-9.3-9.3-9.3h-3.4v5.4h3.4c2.2,0,3.9,1.8,3.9,3.9V53H26z"/>
	<path id="XMLID_868_" class="st0" d="M65.5,51.6V53h5.4v-1.4c0-2.2,1.8-3.9,3.9-3.9h3.4v-5.4h-3.4C69.7,42.2,65.5,46.4,65.5,51.6z"
		/>
	<path id="XMLID_1610_" class="st0" d="M21.1,12.9h5.4v5.4h-5.4V12.9z"/>
	<path id="XMLID_1611_" class="st0" d="M65,12.9h5.4v5.4H65V12.9z"/>
	<path id="XMLID_1612_" class="st0" d="M77.9,0h5.4v5.4h-5.4V0z"/>
	<path id="XMLID_1613_" class="st0" d="M7.7,0h5.4v5.4H7.7L7.7,0z"/>
</g>
</svg>
