<?xml version="1.0" encoding="utf-8"?>
<!-- Generator: Adobe Illustrator 25.4.1, SVG Export Plug-In . SVG Version: 6.00 Build 0)  -->
<svg version="1.1" id="圖層_1" xmlns="http://www.w3.org/2000/svg" xmlns:xlink="http://www.w3.org/1999/xlink" x="0px" y="0px"
	 viewBox="0 0 91.5 89.4" style="enable-background:new 0 0 91.5 89.4;" xml:space="preserve">
<style type="text/css">
	.st0{fill:#FFFFFF;}
</style>
<g id="XMLID_2_">
	<path id="XMLID_40_" class="st0" d="M23.1,15.3h20.7v5.4H23.1V15.3z"/>
	<path id="XMLID_741_" class="st0" d="M89.1,70L71,50.1c0.7-2,1.1-4.2,1.1-6.4c0-5-1.9-9.6-5.2-13.2V0H9.8C4.4,0,0,4.4,0,9.8V79
		c0,5.8,4.7,10.5,10.5,10.5h56.4V70.3l10.4,11.4l0.1,0.1c1.6,1.6,3.8,2.4,5.9,2.4s4.3-0.8,5.9-2.4C92.3,78.5,92.4,73.3,89.1,70
		L89.1,70z M43.1,53.5c-5.4-5.4-5.4-14.2,0-19.6c2.6-2.6,6.1-4.1,9.8-4.1s7.2,1.4,9.8,4.1c2.6,2.6,4.1,6.1,4.1,9.8
		c0,3.7-1.4,7.2-4.1,9.8C57.3,58.8,48.5,58.8,43.1,53.5z M33.7,43.7c-0.1,0-0.2,0-0.2,0c-3.4,0-6.2-2.8-6.2-6.2s2.8-6.2,6.2-6.2
		c1.4,0,2.7,0.4,3.7,1.2C34.8,36,33.7,39.9,33.7,43.7z M61.5,84h-51c-2.8,0-5.1-2.3-5.1-5.1c0-2.8,2.3-5.1,5.1-5.1h51V84z
		 M61.5,68.5h-51c-1.8,0-3.6,0.5-5.1,1.3v-60c0-2.4,2-4.4,4.4-4.4h51.7v21.1c-2.6-1.3-5.6-2-8.6-2c-4.4,0-8.7,1.5-12.1,4.3
		c-2-1.7-4.6-2.6-7.4-2.6c-6.4,0-11.5,5.2-11.5,11.5s5.2,11.5,11.5,11.5c0.3,0,0.7,0,1-0.1c0.9,3,2.5,5.8,4.8,8.2
		c3.7,3.7,8.7,5.6,13.6,5.6c2.1,0,4.2-0.3,6.3-1l2.3,2.6L61.5,68.5L61.5,68.5z M85.3,77.9c-1.1,1.1-3,1.2-4.1,0l-17-18.7
		c0.8-0.6,1.6-1.3,2.4-2c0.7-0.7,1.3-1.4,1.8-2.1l16.9,18.5l0.1,0.1C86.5,74.9,86.5,76.8,85.3,77.9L85.3,77.9z"/>
</g>
</svg>
