<?xml version="1.0" encoding="utf-8"?>
<!-- Generator: Adobe Illustrator 25.4.1, SVG Export Plug-In . SVG Version: 6.00 Build 0)  -->
<svg version="1.1" id="圖層_1" xmlns="http://www.w3.org/2000/svg" xmlns:xlink="http://www.w3.org/1999/xlink" x="0px" y="0px"
	 viewBox="0 0 91 91" style="enable-background:new 0 0 91 91;" xml:space="preserve">
<style type="text/css">
	.st0{fill:#FFFFFF;}
</style>
<g>
	<path class="st0" d="M83,19.9c-4.4,0-8,3.6-8,8v10.2c-0.8-0.3-1.7-0.5-2.7-0.5c-2.1,0-4.1,0.8-5.7,2.3L45.5,61.2L24.3,40
		c-1.5-1.5-3.5-2.3-5.7-2.3c-0.9,0-1.8,0.2-2.7,0.5V27.9c0-4.4-3.6-8-8-8s-8,3.6-8,8v27.5l15,25.7V91H76v-9.9l15-25.7V27.9
		C91,23.5,87.4,19.9,83,19.9L83,19.9z M42.8,85.7H20.4v-6l-15-25.7v-26c0-1.5,1.2-2.7,2.7-2.7s2.7,1.2,2.7,2.7v17.7h0
		c0,2.1,0.8,4.1,2.3,5.7l10.8,10.8l3.8-3.8L16.8,47.6c-1-1-1-2.7,0-3.8c0.5-0.5,1.2-0.8,1.9-0.8c0.7,0,1.4,0.3,1.9,0.8L42.8,66
		L42.8,85.7z M85.7,53.9l-15,25.7v6H48.2V66l22.3-22.3c0.5-0.5,1.2-0.8,1.9-0.8s1.4,0.3,1.9,0.8c0.5,0.5,0.8,1.2,0.8,1.9
		c0,0.7-0.3,1.4-0.8,1.9L63.5,58.3l3.8,3.8L78,51.3c1.6-1.6,2.3-3.6,2.3-5.7h0V27.9c0-1.5,1.2-2.7,2.7-2.7s2.7,1.2,2.7,2.7V53.9z"/>
	<path class="st0" d="M27.4,28.4c5.1,5.8,11.4,8.9,18.1,8.9s12.9-3.1,18.1-8.9c3.7-4.3,5.6-8.5,5.7-8.7l0.4-1l-0.4-1
		c-0.1-0.2-1.9-4.4-5.7-8.7C58.4,3.1,52.2,0,45.5,0S32.6,3.1,27.4,8.9c-3.7,4.3-5.6,8.5-5.7,8.7l-0.4,1l0.4,1
		C21.9,19.9,23.7,24.1,27.4,28.4L27.4,28.4z M45.5,5.3c5.2,0,9.8,2.3,13.9,7c2.2,2.5,3.6,5,4.3,6.4C62.1,22,56,32,45.5,32
		c-5.2,0-9.8-2.3-13.9-7c-2.2-2.5-3.6-5-4.3-6.4C28.9,15.4,35,5.3,45.5,5.3z"/>
	<path class="st0" d="M45.5,26.7c4.4,0,8-3.6,8-8s-3.6-8-8-8s-8,3.6-8,8S41.1,26.7,45.5,26.7z M45.5,16c1.5,0,2.7,1.2,2.7,2.7
		c0,1.5-1.2,2.7-2.7,2.7c-1.5,0-2.7-1.2-2.7-2.7C42.8,17.2,44,16,45.5,16z"/>
</g>
</svg>
