<?xml version="1.0" encoding="utf-8"?>
<!-- Generator: Adobe Illustrator 25.4.1, SVG Export Plug-In . SVG Version: 6.00 Build 0)  -->
<svg version="1.1" id="圖層_1" xmlns="http://www.w3.org/2000/svg" xmlns:xlink="http://www.w3.org/1999/xlink" x="0px" y="0px"
	 viewBox="0 0 91.5 80.8" style="enable-background:new 0 0 91.5 80.8;" xml:space="preserve">
<style type="text/css">
	.st0{fill:#FFFFFF;}
</style>
<g id="XMLID_769_">
	<path id="XMLID_897_" class="st0" d="M59,15.2V0l-8,2.8L43,0v15.1H0v60.7h37.1c1.7,3,5,4.9,8.6,4.9s6.8-1.9,8.6-4.9h37.3V15.1
		L59,15.2L59,15.2z M48.4,20.5h27v38.8H56.8c-3,0-5.8,0.7-8.4,2L48.4,20.5z M48.4,7.5L51,8.5l2.6-0.9v7.6h-5.2L48.4,7.5L48.4,7.5z
		 M43,20.5v40.7c-2.5-1.3-5.3-1.9-8.2-1.9H16V20.5H43z M86.2,70.5H50.6L50,72.4c-0.6,1.9-2.3,3.1-4.3,3.1c-2,0-3.7-1.2-4.3-3.1
		l-0.6-1.8H5.4v-50h5.3v44.1h24.1c3.4,0,6.7,1.3,9.1,3.7l1.9,1.8l1.9-1.8c2.5-2.4,5.7-3.7,9.1-3.7h23.9V20.5h5.5L86.2,70.5
		L86.2,70.5z"/>
	<path id="XMLID_924_" class="st0" d="M21.7,26.5h5v5.4h-5V26.5z"/>
	<path id="XMLID_925_" class="st0" d="M32.8,26.5h5v5.4h-5V26.5z"/>
	<path id="XMLID_926_" class="st0" d="M27.4,37.3h5v5.4h-5V37.3z"/>
	<path id="XMLID_927_" class="st0" d="M54.1,37.3h5v5.4h-5V37.3z"/>
	<path id="XMLID_928_" class="st0" d="M64.7,26.5h5v5.4h-5V26.5z"/>
	<path id="XMLID_929_" class="st0" d="M64.7,48.1h5v5.4h-5V48.1z"/>
	<path id="XMLID_930_" class="st0" d="M54.1,48.1h5v5.4h-5V48.1z"/>
	<path id="XMLID_931_" class="st0" d="M64.7,36.8h5v5.4h-5V36.8z"/>
	<path id="XMLID_932_" class="st0" d="M32.8,48.1h5v5.4h-5V48.1z"/>
	<path id="XMLID_935_" class="st0" d="M21.7,48.1h5v5.4h-5V48.1z"/>
</g>
</svg>
