<?xml version="1.0" encoding="utf-8"?>
<!-- Generator: Adobe Illustrator 25.4.1, SVG Export Plug-In . SVG Version: 6.00 Build 0)  -->
<svg version="1.1" id="圖層_1" xmlns="http://www.w3.org/2000/svg" xmlns:xlink="http://www.w3.org/1999/xlink" x="0px" y="0px"
	 viewBox="0 0 91 91.7" style="enable-background:new 0 0 91 91.7;" xml:space="preserve">
<style type="text/css">
	.st0{fill:#FFFFFF;}
</style>
<g id="XMLID_532_">
	<path id="XMLID_914_" class="st0" d="M40.4,54.4V0h-31C6.7,0,4.3,1.1,2.6,3.1c-1.7,2-2.6,4.8-2.6,8v35.2h0c0.5,4.5,4.2,8,8.8,8h0.9
		v2.9h5.4v-2.9H40.4z M9.4,5.4H35v31.3H8.9c-1.2,0-2.4,0.3-3.5,0.7V11.2C5.4,7.6,6.9,5.4,9.4,5.4L9.4,5.4z M8.9,49
		c-1.9,0-3.5-1.6-3.5-3.5c0-1.9,1.6-3.5,3.5-3.5H35v7H15.1v-2.3H9.7V49L8.9,49L8.9,49z"/>
	<path id="XMLID_916_" class="st0" d="M17.5,17.6h5.4v5.5h-5.4V17.6z"/>
	<path id="XMLID_917_" class="st0" d="M29,71.1l4.1,4.1h-0.7c-3.9,0-7-3.2-7-7v-7.6H20v7.6c0,6.8,5.6,12.4,12.4,12.4h0.7L29,84.7
		l3.8,3.8l10.6-10.6L32.8,67.3L29,71.1z"/>
	<path id="XMLID_918_" class="st0" d="M61.8,17.5l-4.1-4.1h0.7c3.9,0,7,3.2,7,7v7.6h5.4v-7.6C70.8,13.6,65.2,8,58.4,8h-0.7l4.1-4.1
		L58,0.1L47.4,10.7L58,21.3L61.8,17.5z"/>
	<path id="XMLID_921_" class="st0" d="M60,34.4c-2.7,0-5.1,1.1-6.8,3.1c-1.7,2-2.6,4.8-2.6,8v35.2h0c0.5,4.5,4.2,8,8.8,8h0.9v2.9
		h5.4v-2.9H91V34.4L60,34.4z M85.6,83.4H65.7v-2.3h-5.4v2.3h-0.9c-1.9,0-3.5-1.6-3.5-3.5c0-1.9,1.6-3.5,3.5-3.5h26.2V83.4z
		 M59.5,71.1c-1.2,0-2.4,0.3-3.5,0.7V45.6c0-3.6,1.5-5.8,4-5.8h25.6v31.3H59.5z"/>
	<path id="XMLID_923_" class="st0" d="M68.1,52.1h5.4v5.5h-5.4V52.1z"/>
</g>
</svg>
