<?xml version="1.0" encoding="utf-8"?>
<!-- Generator: Adobe Illustrator 25.4.1, SVG Export Plug-In . SVG Version: 6.00 Build 0)  -->
<svg version="1.1" id="圖層_1" xmlns="http://www.w3.org/2000/svg" xmlns:xlink="http://www.w3.org/1999/xlink" x="0px" y="0px"
	 viewBox="0 0 91 91" style="enable-background:new 0 0 91 91;" xml:space="preserve">
<style type="text/css">
	.st0{fill:#FFFFFF;}
</style>
<g>
	<path class="st0" d="M86.7,75.5c2.8-4.8,4.3-10.2,4.3-15.8C91,43.4,78.4,30,62.3,28.7C61,12.6,47.6,0,31.2,0C14,0,0,14,0,31.2
		c0,5.6,1.5,11,4.3,15.8L0,62.4l15.5-4.3c4,2.4,8.5,3.8,13.2,4.2C30,78.3,43.4,91,59.8,91c5.6,0,11-1.5,15.8-4.3L91,91L86.7,75.5z
		 M16.3,52.4l-8.7,2.4l2.4-8.7l-0.6-1c-2.7-4.2-4.1-9-4.1-13.9C5.3,16.9,17,5.3,31.2,5.3c13.4,0,24.5,10.3,25.8,23.3
		C42,30,30,42,28.7,57c-4-0.4-7.9-1.7-11.4-3.9L16.3,52.4z M57,34c-1.3,12-10.9,21.6-22.9,22.9C35.4,44.9,44.9,35.3,57,34z
		 M83.4,83.3l-8.7-2.4l-1,0.6c-4.2,2.7-9,4.1-13.9,4.1c-13.4,0-24.5-10.3-25.8-23.3C49,61,61,49,62.3,34
		c13.1,1.3,23.3,12.3,23.3,25.8c0,5-1.4,9.8-4.1,13.9l-0.6,1L83.4,83.3z"/>
</g>
</svg>
