<?xml version="1.0" encoding="utf-8"?>
<!-- Generator: Adobe Illustrator 25.4.1, SVG Export Plug-In . SVG Version: 6.00 Build 0)  -->
<svg version="1.1" id="圖層_1" xmlns="http://www.w3.org/2000/svg" xmlns:xlink="http://www.w3.org/1999/xlink" x="0px" y="0px"
	 viewBox="0 0 91.5 91.3" style="enable-background:new 0 0 91.5 91.3;" xml:space="preserve">
<style type="text/css">
	.st0{fill:#FFFFFF;}
</style>
<g id="XMLID_330_">
	<path id="XMLID_358_" class="st0" d="M61.6,54.2H67v7.5h-5.4V54.2z"/>
	<path id="XMLID_838_" class="st0" d="M19.9,72.9h18.8v5.4H19.9L19.9,72.9z"/>
	<path id="XMLID_938_" class="st0" d="M91.5,0H0v5.4h2.7v86h85.9v-86h2.9L91.5,0L91.5,0z M50.6,23c0,1.8-1.5,3.3-3.3,3.3h0
		c-1.8,0-3.3-1.5-3.3-3.3v-3.3h6.6L50.6,23L50.6,23z M38.7,23c0,1.8-1.5,3.3-3.3,3.3h0c-1.8,0-3.3-1.5-3.3-3.3v-3.3h6.6V23z
		 M26.7,23c0,1.8-1.5,3.3-3.3,3.3h0c-1.8,0-3.3-1.5-3.3-3.3v-3.3h6.6L26.7,23z M14.7,23c0,1.8-1.5,3.3-3.3,3.3h0
		c-1.8,0-3.3-1.5-3.3-3.3v-3.3h6.6V23z M8.1,31c1,0.4,2.1,0.7,3.3,0.7h0c2.3,0,4.4-0.9,6-2.4c1.6,1.5,3.7,2.4,6,2.4h0
		c2.3,0,4.4-0.9,6-2.4c1.6,1.5,3.7,2.4,6,2.4h0c2.3,0,4.4-0.9,6-2.4c1.6,1.5,3.7,2.4,6,2.4h0c1.2,0,2.3-0.2,3.3-0.7v11.4H8.1L8.1,31
		z M50.6,59.4H44V47.7h6.6V59.4z M26.7,59.4h-6.6V47.7h6.6V59.4z M38.7,59.4H32V47.7h6.6V59.4z M8.1,47.7h6.6v11.6H8.1V47.7z
		 M50.6,86H8.1V64.7h42.6V86z M83.3,86H56V31.6h27.3L83.3,86L83.3,86z M83.3,26.3H56v-6.6h27.3L83.3,26.3L83.3,26.3z M83.3,14.3H8.1
		v-9h75.2V14.3z"/>
</g>
</svg>
