<?xml version="1.0" encoding="utf-8"?>
<!-- Generator: Adobe Illustrator 25.4.1, SVG Export Plug-In . SVG Version: 6.00 Build 0)  -->
<svg version="1.1" id="圖層_1" xmlns="http://www.w3.org/2000/svg" xmlns:xlink="http://www.w3.org/1999/xlink" x="0px" y="0px"
	 viewBox="0 0 35 35" style="enable-background:new 0 0 35 35;" xml:space="preserve">
<style type="text/css">
	.st0{fill:#333333;}
</style>
<g>
	<g>
		<path class="st0" d="M19.9,17.1l-3.4-1.7c-0.8-0.4-0.9-1.1-0.8-1.7c0-0.3,0.3-1.1,1.4-1.2c1.1-0.1,2.1,0.5,2.6,1.5
			c0.3,0.8,1.2,1.1,2,0.8c0.8-0.3,1.1-1.2,0.8-2c-0.6-1.4-1.7-2.4-3-2.9V8.8c0-0.8-0.7-1.5-1.5-1.5c-0.8,0-1.5,0.7-1.5,1.5v0.8
			c-1.9,0.3-3.3,1.7-3.6,3.6c-0.4,2,0.6,4,2.4,4.9l3.4,1.7c0.7,0.4,0.9,1.1,0.8,1.7c0,0.2-0.2,1.1-1.2,1.2c-0.1,0-0.1,0-0.2,0
			c-1.1,0.1-2.1-0.5-2.6-1.5c-0.3-0.8-1.2-1.1-2-0.8c-0.8,0.3-1.1,1.2-0.8,2c0.7,1.6,2.1,2.8,3.8,3.2v0.8c0,0.8,0.7,1.5,1.5,1.5
			c0.8,0,1.5-0.7,1.5-1.5v-0.8c1.5-0.5,2.7-1.8,2.9-3.5C22.6,20,21.7,18.1,19.9,17.1z"/>
		<path class="st0" d="M29.9,5.1C23.6-1.1,13.9-1.6,7,3.5L5.6,2.1C4.8,1.3,3.5,1.8,3.3,2.9L2.6,9.3c-0.1,0.9,0.6,1.6,1.5,1.5
			l6.4-0.8c1.1-0.1,1.6-1.5,0.8-2.3L9.9,6.3c5.7-3.9,13.6-3,18.2,2.8c3.9,4.9,3.8,11.9,0,16.7C23,32.3,13.6,32.6,7.9,27
			c-3.3-3.3-4.5-7.9-3.7-12.1c0.1-0.3-0.2-0.6-0.5-0.6l-3,0c-0.2,0-0.5,0.2-0.5,0.4c-1,6.1,1.3,12.7,6.9,16.8
			c6.3,4.7,15.1,4.5,21.3-0.4C36.6,24.6,37.1,12.4,29.9,5.1z"/>
	</g>
</g>
</svg>
