<?xml version="1.0" encoding="utf-8"?>
<!-- Generator: Adobe Illustrator 24.0.2, SVG Export Plug-In . SVG Version: 6.00 Build 0)  -->
<svg version="1.1" id="圖層_1" xmlns="http://www.w3.org/2000/svg" xmlns:xlink="http://www.w3.org/1999/xlink" x="0px" y="0px"
	 viewBox="0 0 30 39" style="enable-background:new 0 0 30 39;" xml:space="preserve">
<style type="text/css">
	.st0{fill:#FFFFFF;}
</style>
<g>
	<g>
		<path class="st0" d="M28,12c-1.1,0-2,0.9-2,2v4c0,6.1-4.9,11-11,11C8.9,29,4,24.1,4,18v-4c0-1.1-0.9-2-2-2c-1.1,0-2,0.9-2,2v4
			c0,7.6,5.7,13.9,13.1,14.9c-0.3,1-1,1.8-1.9,2.1H10c-1.1,0-2,0.9-2,2s0.9,2,2,2h10c1.1,0,2-0.9,2-2c0-1.1-0.9-2-2-2h-1.2
			c-0.9-0.4-1.6-1.2-1.9-2.1C24.3,31.9,30,25.6,30,18v-4C30,12.9,29.1,12,28,12z"/>
		<path class="st0" d="M19.5,14H23v-3.5h-3c-0.8,0-1.5-0.7-1.5-1.5s0.7-1.5,1.5-1.5h3C22.7,3.3,19.2,0,15,0c-4.2,0-7.7,3.3-8,7.5
			h3.7c1,0,1.8,0.7,1.8,1.5s-0.8,1.5-1.8,1.5H7V14h3.5c0.8,0,1.5,0.7,1.5,1.5S11.3,17,10.5,17H7v1c0,4.4,3.6,8,8,8c4.4,0,8-3.6,8-8
			v-1h-3.5c-0.8,0-1.5-0.7-1.5-1.5S18.7,14,19.5,14z"/>
	</g>
</g>
</svg>
