<?xml version="1.0" encoding="utf-8"?>
<!-- Generator: Adobe Illustrator 28.0.0, SVG Export Plug-In . SVG Version: 6.00 Build 0)  -->
<svg version="1.1" id="圖層_1" xmlns="http://www.w3.org/2000/svg" xmlns:xlink="http://www.w3.org/1999/xlink" x="0px" y="0px"
	 viewBox="0 0 17.9 14" style="enable-background:new 0 0 17.9 14;" xml:space="preserve">
<style type="text/css">
	.st0{fill:#FFFFFF;}
</style>
<g>
	<g>
		<path class="st0" d="M16.9,0H16c-0.5,0-0.9,0.4-0.9,0.9V13c0,0.5,0.4,0.9,0.9,0.9h0.9c0.5,0,0.9-0.4,0.9-0.9V0.9
			C17.9,0.4,17.5,0,16.9,0z"/>
		<path class="st0" d="M13.6,1.3L3.2,4.3C3.1,4.3,3,4.4,3,4.5V10h0v1.8c0,0.8,0.5,1.4,1.3,1.5L7.7,14c0.1,0,0.2,0,0.3,0
			c0.4,0,0.7-0.1,1-0.4c0.3-0.3,0.5-0.7,0.5-1.2v-0.7l4.1,1.1c0.1,0,0.3-0.1,0.3-0.2V1.6C13.9,1.4,13.8,1.3,13.6,1.3z M8.1,12.5
			c0,0.1,0,0.1-0.1,0.1c0,0-0.1,0-0.1,0c0,0,0,0,0,0L4.5,12c-0.1,0-0.1-0.1-0.1-0.2v-1.5l3.7,1V12.5z M1.6,4.6H0.9
			C0.4,4.6,0,5.1,0,5.6v3.2c0,0.5,0.4,0.9,0.9,0.9h0.7c0.1,0,0.2-0.1,0.2-0.2V4.9C1.9,4.7,1.8,4.6,1.6,4.6z"/>
	</g>
</g>
</svg>
