<?xml version="1.0" encoding="utf-8"?>
<!-- Generator: Adobe Illustrator 24.0.2, SVG Export Plug-In . SVG Version: 6.00 Build 0)  -->
<svg version="1.1" id="圖層_1" xmlns="http://www.w3.org/2000/svg" xmlns:xlink="http://www.w3.org/1999/xlink" x="0px" y="0px"
	 viewBox="0 0 14.3 12.5" style="enable-background:new 0 0 14.3 12.5;" xml:space="preserve">
<style type="text/css">
	.st0{fill:#FFFFFF;}
</style>
<path class="st0" d="M13,0.7C13,0.3,13.3,0,13.7,0c0.4,0,0.7,0.3,0.7,0.7v11.2c0,0.4-0.3,0.7-0.7,0.7c-0.4,0-0.7-0.3-0.7-0.7v-0.5
	L8.3,9.8c-0.2,0.4-0.4,0.7-0.6,0.9c-0.5,0.5-1.3,0.9-2.1,0.9c-0.8,0-1.6-0.3-2.1-0.9c-0.5-0.5-0.9-1.3-0.9-2.1V7.8L1.3,7.5v0.1
	C1.3,8,1,8.3,0.7,8.3S0,8,0,7.6V4.9c0-0.4,0.3-0.7,0.7-0.7s0.7,0.3,0.7,0.7v0.1L13,1.1V0.7L13,0.7z M7,9.4L3.8,8.3v0.3
	c0,0.5,0.2,0.9,0.5,1.2c0.3,0.3,0.7,0.5,1.2,0.5c0.5,0,0.9-0.2,1.2-0.5C6.8,9.7,6.9,9.5,7,9.4z"/>
</svg>
