<?xml version="1.0" encoding="utf-8"?>
<!-- Generator: Adobe Illustrator 28.0.0, SVG Export Plug-In . SVG Version: 6.00 Build 0)  -->
<svg version="1.1" id="圖層_1" xmlns="http://www.w3.org/2000/svg" xmlns:xlink="http://www.w3.org/1999/xlink" x="0px" y="0px"
	 viewBox="0 0 20.3 17.7" style="enable-background:new 0 0 20.3 17.7;" xml:space="preserve">
<style type="text/css">
	.st0{fill:#F3EFE8;}
</style>
<g>
	<path class="st0" d="M17.1,9.5V7.9H14V0h-1.6v2.2C11.5,3.8,9.9,4.8,8,4.8H4c-1.3,0-2.4,1.1-2.4,2.4v0.8H0v1.6h1.6v0.8
		c0,1.3,1.1,2.4,2.4,2.4h0.5l-1.3,4.5l1.5,0.4l1.4-5H8c1.8,0,3.5,1,4.3,2.6v2.2H14V9.5L17.1,9.5L17.1,9.5z M11.5,12.1
		c-1-0.6-2.2-1-3.4-1H4c-0.4,0-0.8-0.4-0.8-0.8V7.1c0-0.4,0.4-0.8,0.8-0.8H8c1.2,0,2.4-0.3,3.4-1c0.3-0.2,0.6-0.4,0.9-0.7v8.1
		C12.1,12.5,11.8,12.3,11.5,12.1L11.5,12.1z"/>
	<path class="st0" d="M16.3,4.8h-0.8v1.6h0.8c1.3,0,2.4,1.1,2.4,2.4s-1.1,2.4-2.4,2.4h-0.8v1.6h0.8c2.2,0,4-1.8,4-4
		S18.5,4.8,16.3,4.8L16.3,4.8z"/>
</g>
</svg>
