<?xml version="1.0" encoding="utf-8"?>
<!-- Generator: Adobe Illustrator 28.0.0, SVG Export Plug-In . SVG Version: 6.00 Build 0)  -->
<svg version="1.1" id="圖層_1" xmlns="http://www.w3.org/2000/svg" xmlns:xlink="http://www.w3.org/1999/xlink" x="0px" y="0px"
	 viewBox="0 0 124.5 124.5" style="enable-background:new 0 0 124.5 124.5;" xml:space="preserve">
<style type="text/css">
	.st0{fill:url(#SVGID_1_);}
	.st1{fill:url(#XMLID_00000077322427481854943600000008134804069872675518_);}
	
		.st2{opacity:0.2;clip-path:url(#SVGID_00000091696284138821238610000003291125510833975434_);fill:url(#SVGID_00000155846794055275140080000010704410720198799779_);enable-background:new    ;}
</style>
<g>
	
		<linearGradient id="SVGID_1_" gradientUnits="userSpaceOnUse" x1="18.1746" y1="105.7754" x2="106.1754" y2="17.7746" gradientTransform="matrix(1 0 0 -1 0 124)">
		<stop  offset="2.293221e-03" style="stop-color:#B94B00"/>
		<stop  offset="1" style="stop-color:#FF8A15"/>
	</linearGradient>
	<path class="st0" d="M62.2,124.5c-16.6,0-32.2-6.5-44-18.2S0,78.8,0,62.2s6.5-32.2,18.2-44S45.6,0,62.2,0s32.2,6.5,44,18.2
		s18.2,27.4,18.2,44s-6.5,32.2-18.2,44S78.8,124.5,62.2,124.5z M62.2,5.8C31.1,5.8,5.8,31.1,5.8,62.2s25.3,56.4,56.4,56.4
		s56.4-25.3,56.4-56.4S93.3,5.8,62.2,5.8z"/>
	<g>
		<g>
			
				<linearGradient id="XMLID_00000044146116319151756830000002500372533538149033_" gradientUnits="userSpaceOnUse" x1="86.4801" y1="19.0208" x2="-0.9874" y2="173.1303" gradientTransform="matrix(1 0 0 -1 0 124)">
				<stop  offset="2.293221e-03" style="stop-color:#B94B00"/>
				<stop  offset="0.7576" style="stop-color:#F7BB7E"/>
			</linearGradient>
			
				<circle id="XMLID_00000116948052831115507450000017591899812138635682_" style="fill:url(#XMLID_00000044146116319151756830000002500372533538149033_);" cx="62.2" cy="62.2" r="58.1"/>
		</g>
		<g>
			<defs>
				<circle id="SVGID_00000088820475392285771770000011835578503265530551_" cx="62.2" cy="62.2" r="58.1"/>
			</defs>
			<clipPath id="SVGID_00000080899208355288736740000000097848374223396256_">
				<use xlink:href="#SVGID_00000088820475392285771770000011835578503265530551_"  style="overflow:visible;"/>
			</clipPath>
			
				<linearGradient id="SVGID_00000140006487471477006860000003081885688617471373_" gradientUnits="userSpaceOnUse" x1="-41.8" y1="119.9" x2="140.336" y2="119.9" gradientTransform="matrix(1 0 0 -1 0 124)">
				<stop  offset="0.3291" style="stop-color:#B94B00"/>
				<stop  offset="1" style="stop-color:#FFFFFF"/>
			</linearGradient>
			
				<circle style="opacity:0.2;clip-path:url(#SVGID_00000080899208355288736740000000097848374223396256_);fill:url(#SVGID_00000140006487471477006860000003081885688617471373_);enable-background:new    ;" cx="35.8" cy="4.1" r="77.6"/>
		</g>
	</g>
</g>
</svg>
