<?xml version="1.0" encoding="utf-8"?>
<!-- Generator: Adobe Illustrator 28.0.0, SVG Export Plug-In . SVG Version: 6.00 Build 0)  -->
<svg version="1.1" id="圖層_1" xmlns="http://www.w3.org/2000/svg" xmlns:xlink="http://www.w3.org/1999/xlink" x="0px" y="0px"
	 viewBox="0 0 124.5 124.5" style="enable-background:new 0 0 124.5 124.5;" xml:space="preserve">
<style type="text/css">
	.st0{fill:url(#SVGID_1_);}
	
		.st1{opacity:0.2;clip-path:url(#XMLID_00000072282332921016492990000016656949589261545918_);fill:url(#SVGID_00000008149971321326428780000000036545024196551823_);}
</style>
<g>
	<linearGradient id="SVGID_1_" gradientUnits="userSpaceOnUse" x1="18.2257" y1="18.2257" x2="106.2274" y2="106.2274">
		<stop  offset="2.293221e-03" style="stop-color:#424242"/>
		<stop  offset="1" style="stop-color:#979696"/>
	</linearGradient>
	<path class="st0" d="M62.2,124.5c-16.6,0-32.2-6.5-44-18.2S0,78.8,0,62.2c0-16.6,6.5-32.2,18.2-44S45.6,0,62.2,0
		c16.6,0,32.2,6.5,44,18.2s18.2,27.4,18.2,44c0,16.6-6.5,32.2-18.2,44S78.8,124.5,62.2,124.5z M62.2,5.8C31.1,5.8,5.8,31.1,5.8,62.2
		s25.3,56.4,56.4,56.4s56.4-25.3,56.4-56.4S93.3,5.8,62.2,5.8z"/>
	<g>
		<defs>
			<circle id="XMLID_00000116948052831115507450000017591899812138635682_" cx="62.2" cy="62.2" r="58.1"/>
		</defs>
		
			<linearGradient id="XMLID_00000064320583013988263070000008325868394638084497_" gradientUnits="userSpaceOnUse" x1="86.4888" y1="104.9743" x2="-0.9787" y2="-49.1352">
			<stop  offset="2.293221e-03" style="stop-color:#202121"/>
			<stop  offset="0.7576" style="stop-color:#B5B5B5"/>
		</linearGradient>
		
			<use xlink:href="#XMLID_00000116948052831115507450000017591899812138635682_"  style="overflow:visible;fill:url(#XMLID_00000064320583013988263070000008325868394638084497_);"/>
		<clipPath id="XMLID_00000082325934624729257700000018380199486885139868_">
			<use xlink:href="#XMLID_00000116948052831115507450000017591899812138635682_"  style="overflow:visible;"/>
		</clipPath>
		
			<linearGradient id="SVGID_00000034054579159183093220000010311843361662827967_" gradientUnits="userSpaceOnUse" x1="-41.8249" y1="4.1139" x2="140.3111" y2="4.1139">
			<stop  offset="0.3291" style="stop-color:#231815"/>
			<stop  offset="1" style="stop-color:#FFFFFF"/>
		</linearGradient>
		
			<circle style="opacity:0.2;clip-path:url(#XMLID_00000082325934624729257700000018380199486885139868_);fill:url(#SVGID_00000034054579159183093220000010311843361662827967_);" cx="35.8" cy="4.1" r="77.6"/>
	</g>
</g>
</svg>
