<?xml version="1.0" encoding="utf-8"?>
<!-- Generator: Adobe Illustrator 25.4.1, SVG Export Plug-In . SVG Version: 6.00 Build 0)  -->
<svg version="1.1" id="圖層_1" xmlns="http://www.w3.org/2000/svg" xmlns:xlink="http://www.w3.org/1999/xlink" x="0px" y="0px"
	 viewBox="0 0 170 120" style="enable-background:new 0 0 170 120;" xml:space="preserve">
<style type="text/css">
	.st08{fill:#901937;}
	.st1{fill:#FFFFFF;}
</style>
<g>
	<rect class="st08" width="170" height="120"/>
</g>
<g>
	<path class="st1" d="M13.2,26.1v-0.2c-2.6-0.8-4.1-2.7-4-5.1c0.1-3.4,2.6-6.5,7.1-6.5c4.4,0,6.7,3.1,6.7,6c0,2.3-1.2,4.6-4,5.5v0.2
		c2.8,1.1,4.9,3.6,4.8,6.4C23.8,36.9,21,39.1,16,39c-4.8,0-7.6-2.8-7.6-6.4C8.4,29.6,10.4,27.3,13.2,26.1z M16.1,36.8
		c2.8,0.1,4.6-1.9,4.6-4.4c0-2.7-2-4.9-5-5.2c-2.7,0.6-4.2,3-4.2,5.2C11.6,34.6,13.2,36.7,16.1,36.8z M20,20.7
		c0-1.8-1.1-4.2-3.9-4.2c-2.5,0-3.9,2.2-3.9,4.1c0,2.6,2.3,3.9,4.5,4.4C18.9,24.5,20,22.7,20,20.7z"/>
</g>
<g>
	<path class="st1" d="M47.7,19.5l-1.1,2.2c-0.9-0.4-1.9-1-2.9-1.8v0.9h-7V20c-1.1,0.7-2.2,1.4-3.4,1.8l-0.4-0.8
		c3.2-2,5.1-4.5,6.3-7.4l2.3,0.8c-0.1,0.2-0.2,0.5-0.4,0.7C43.2,17.7,45.4,18.7,47.7,19.5z M35.3,22.6h9.8v6.1h-2.1v-1h-5.6v1h-2.1
		V22.6z M43.5,19.8c-1.2-1-2.2-2.2-3-3.6c-0.9,1.3-2.1,2.6-3.5,3.6H43.5z M37.4,26.7h5.6v-3.1h-5.6V26.7z"/>
	<path class="st1" d="M63.6,26.3l-0.6,2c-1.9,0.1-4.4,0.2-6.3,0.1c-2.5-0.1-4-0.7-4.7-2.3c-0.5,1-1.2,2-2,2.8l-1.2-1.3
		c0.8-0.6,1.6-1.3,2-1.9V22h-1.6v-1h3.6v4.4c0.5,1,1.8,1.2,3.8,1.2C58.9,26.7,61.5,26.6,63.6,26.3z M49.3,17.7l0.4-0.7
		c1,0.4,2.3,1.1,3.2,1.9l-1.3,1.4C51,19.5,50.1,18.5,49.3,17.7z M49.7,14.7l0.4-0.6c0.9,0.4,2.2,1,3.1,1.8L52,17.2
		C51.3,16.4,50.5,15.4,49.7,14.7z M55.4,16.5h-1.9v-1H58c-0.7-0.4-1.3-0.7-1.9-1l0.2-0.7c0.8,0.1,2,0.4,3.1,0.8l-0.5,0.9h4v1h-2.2
		l0.6,0.3c-0.3,0.5-0.8,1-1.2,1.4h2.5v6.5c0,2-1.7,2.1-3.5,1.1l0.2-0.7c1.5,0.2,1.6,0.1,1.6-0.6v-5.2h-5.3v7h-1.7v-7.9h2.4
		C56,17.5,55.7,16.9,55.4,16.5z M57.5,21.9v-0.8H56v-0.8h1.6v-0.9h1.6v0.9h1.5v0.8h-1.5v0.8h1.2v2.6h-4.1v-2.6H57.5z M59.7,16.5
		h-3.1c0.4,0.4,0.9,0.8,1.2,1.3l-0.6,0.4H59C59.3,17.6,59.5,17,59.7,16.5z M57.8,23.7h1.2v-1h-1.2V23.7z"/>
	<path class="st1" d="M79,16.9c0,4.5-0.1,7.4-0.3,9.7c-0.2,2.5-2.4,2.8-5.4,1l0.2-0.8c2.8,0.6,3.1,0.4,3.2-0.8
		C77,24,77,21.6,77,17.9h-2.7c-0.5,1.3-1.2,2.6-2.2,3.6l-0.5-0.4v7.1h-1.9v-1.4h-1.9v1.6h-1.9V16.9h1.8c0.2-1,0.3-2.2,0.4-3.1
		l2.3,0.4c-0.4,0.9-0.9,2-1.5,2.7h2.8v3.9c0.9-2,1.4-4.9,1.6-7l2.2,0.4c-0.1,0.7-0.4,1.7-0.8,2.7H79z M69.7,17.9h-1.9v3.2h1.9V17.9z
		 M69.7,25.9v-3.8h-1.9v3.8H69.7z M74.8,24.4c-0.4-1.4-1.1-2.9-1.7-4.1l0.7-0.5c1,0.9,2.2,2.4,2.8,3.6L74.8,24.4z"/>
	<path class="st1" d="M95.2,26.6v1.2H81.4v-1.2h5.9v-9.9h-5v-1.1h12.1v1.1h-4.9v9.9H95.2z"/>
	<path class="st1" d="M101.2,17.8v10.9h-2v-8c-0.6,0.7-1.2,1.3-1.8,1.7l-0.5-0.7c1.5-1.9,2.8-4.4,3.7-7.9l2,0.6
		C102.3,15.6,101.8,16.8,101.2,17.8z M107.1,17.7v2.5h3.8v1h-3.8v2.4h3.9v1h-3.9v4.1h-2v-11h-0.5c-0.8,1.4-1.7,2.6-2.8,3.5l-0.6-0.6
		c1.2-1.7,2.2-4.3,2.6-6.5l2.1,0.6c-0.2,0.7-0.5,1.4-0.8,2.1h6.3v1H107.1z"/>
	<path class="st1" d="M126.3,28.9c-1.6-0.5-3.2-1.3-4.6-2.5c-1.6,1.3-3.7,2.2-6.2,2.6l-0.3-0.8c2.3-0.8,4-1.8,5.3-3
		c-1.1-1.3-1.9-2.9-2.4-4.9c-0.7,3.6-2.1,6.6-4.6,8.5l-0.5-0.6c2.6-3.1,3.3-6.9,3.4-12.4h-2.5v-1.1h9.9c-0.3,1.7-0.8,3.3-1.1,4.4
		h0.8l0.5-0.5l2,0.9c-0.7,2.2-1.6,4-2.9,5.5c1.3,0.7,2.7,1.2,4.3,1.6L126.3,28.9z M118.6,15.8c0,1.1-0.1,2.2-0.3,3.3h2.3
		c0.3-1,0.6-2.2,0.8-3.3H118.6z M123.5,20.1H119c0.6,1.7,1.5,2.9,2.6,3.9C122.5,22.8,123.1,21.5,123.5,20.1z"/>
	<path class="st1" d="M131,24c0.1,1.6,0,3.5-0.3,4.7l-1.8-0.6c0.6-1,1.1-2.4,1.4-4.1L131,24z M130.2,21.8c0.6-0.8,1.2-1.7,1.8-2.7
		c-0.8,0.3-1.7,0.5-2.4,0.7l-0.4-1.8c0.3,0,0.6,0,0.9,0.1c0.5-1.3,0.9-2.8,1.2-4.3l2,0.6c-0.5,1.3-1.4,2.7-2.2,3.7
		c0.5,0,0.9,0,1.4,0c0.3-0.6,0.6-1.3,0.9-2l1.9,0.8c-0.8,1.6-2.4,3.6-3.9,4.9c0.7-0.1,1.5-0.1,2.2-0.2c-0.1-0.4-0.3-0.8-0.4-1.2
		l0.6-0.4c0.7,0.7,1.4,1.7,1.8,2.7l-1.5,0.7c-0.1-0.4-0.2-0.7-0.3-1.1c-1.5,0.7-3.1,1.2-4.2,1.4l-0.4-1.9
		C129.5,21.8,129.8,21.8,130.2,21.8z M132.3,23.8c0.5,1.1,1.1,3,1.2,4l-1.7,0.3c0-1.1-0.1-2.9-0.2-4.2L132.3,23.8z M135.7,26.4
		l-1.6,0.7c-0.3-1.1-0.7-2.5-1.1-3.5l0.6-0.3C134.4,24.2,135.3,25.4,135.7,26.4z M143.4,27.4v1h-8.9v-1h3.5v-3.3h-2.8v-1h7.6v1H140
		v3.3H143.4z M143.1,15.8h-8.3v-1h8.3V15.8z M136,19.3c0.6,0.7,1.4,1.7,1.9,2.7l-1.8,0.8c-0.4-1.4-0.6-2.5-1.1-3.4
		c0.3-0.7,0.8-2.4,1-3.3l1.9,0.6C137.4,17.7,136.7,18.6,136,19.3z M138.7,22.7c-0.3-1.2-0.8-2.5-1.2-3.4c0.3-0.7,0.8-2,1.1-3.3
		l1.8,0.7c-0.6,1.2-1.4,2-1.9,2.5c0.8,0.7,1.6,1.7,2.1,2.7L138.7,22.7z M141.4,22.7c-0.4-1.2-1-2.5-1.5-3.4c0.4-0.6,0.9-2.1,1.2-3.2
		l1.9,0.7c-0.6,1-1.3,1.8-2,2.4c0.8,0.7,1.7,1.6,2.3,2.6L141.4,22.7z"/>
	<path class="st1" d="M148.3,21.9c-0.3,2.1-1,5.3-1.4,6.7l-2-0.9c0.9-1.6,2-4.2,2.7-6.1L148.3,21.9z M147.5,20.8
		c-0.7-1-1.6-1.9-2.3-2.7l0.5-0.7c0.9,0.4,2.2,1.1,3.1,1.8L147.5,20.8z M147.4,16.9c-0.7-1-1.3-1.7-2-2.5l0.5-0.6
		c0.9,0.3,1.8,0.8,2.8,1.6L147.4,16.9z M156,22h1.9v6.7H156v-2.4h-4.6c-0.5,1.2-1.4,2.2-3.3,2.7l-0.4-0.8c2.1-1.4,2.2-2.5,2.2-6.1
		h1.9v1.2h4.1V22z M158.6,21.9c-0.2-0.3-0.4-0.7-0.6-1.1c-0.8,0.5-1.8,0.8-2.7,1l-0.4-1.3c0.2,0,0.4,0,0.7-0.1v-2.6
		c-0.2,0.3-0.4,0.6-0.7,0.8v3.5h-1.6v-3.6h0.7c0.3-0.7,0.6-1.6,0.8-2.2h-2.1c0.5,0.4,1.1,0.9,1.5,1.5l-1.2,0.8
		c-0.1-0.2-0.2-0.5-0.3-0.7c0,1,0,2-0.1,2.8c-0.1,0.9-1.1,1.3-2.4,0.5l0.2-0.6c0.8,0.1,0.9,0,0.9-0.3c0-0.4,0.1-1.5,0.1-2.1h-0.5
		c-0.1,1.8-0.8,3.2-1.9,4l-0.5-0.5c0.6-0.8,1-1.9,1.1-3.5h-0.7v-0.9h3.5c-0.1-0.2-0.2-0.4-0.3-0.5l0.4-0.3H149v-1h4.4
		c-0.7-0.3-1.4-0.7-1.9-0.9l0.2-0.8c0.9,0.1,2.6,0.4,3.6,0.8l-0.5,0.9h4.2v1h-0.6l1,1.1c-0.4,0.2-0.8,0.4-1.2,0.5
		c0.3,1.2,0.8,2.2,1.6,3L158.6,21.9z M156,24.1h-4.2c0,0.4-0.1,0.8-0.2,1.2h4.3V24.1z M156.3,16.8c-0.1,0.2-0.3,0.5-0.4,0.7l0.6,0.1
		c0.8-0.3,1.4-0.7,2-1.2h-3.1L156.3,16.8z M157.7,20.1c-0.2-0.6-0.3-1.3-0.4-1.9c-0.2,0-0.3,0.1-0.5,0.1v2L157.7,20.1z"/>
	<path class="st1" d="M45.5,47.8c-1.3-0.3-2.3-1.3-3-2.6c-1.4,1.2-3.1,2-5,2.5L37.2,47c1.9-0.8,3.4-1.9,4.6-3.3
		c-0.6-1.9-0.9-4.2-1-6.5h-4.4v2h3.8c0,2.3-0.1,3.6-0.2,4.7c-0.2,1.5-1.8,2-3.8,0.7l0.2-0.8c1.5,0.3,1.7,0.2,1.7-0.5
		c0.1-0.8,0.1-1.7,0.1-3.2h-1.8c0,4.5-1.1,6.5-2.8,7.9L33,47.5c1-1.6,1.3-2.6,1.3-7.4v-3.9h6.5c0-1,0-2,0-3h2c0,1,0,2,0,3h2.1
		c-0.5-0.9-1.1-1.8-1.6-2.5l0.6-0.6c1,0.6,2,1.5,2.8,2.3l-1,0.8h1.7v1.1h-4.5c0.1,1.5,0.2,2.9,0.5,4.3c0.6-1.1,1.1-2.2,1.4-3.5
		l1.9,0.7c-0.6,1.8-1.5,3.5-2.7,5c0.4,1,1,1.7,1.6,2c0.5,0.2,0.6-0.2,0.6-2.7h0.8C47.9,46.2,47.7,48.4,45.5,47.8z"/>
	<path class="st1" d="M63.5,45.8l-1,2.2c-3.1-0.7-6.2-2.7-7.4-6.5h-1.7v4c1-0.2,2.1-0.4,3-0.6l0.3,0.8c-1.8,1-4.8,2-6.9,2.4
		l-0.6-2.1c0.7-0.1,1.4-0.1,2.1-0.2v-4.2h-2.2v-1h2.5v-6.6h9.9v1h-7.9V36h7v1h-7v1.2h7v1h-7v1.2h9.5v1h-3l1.6,1.1
		c-0.9,0.8-1.8,1.5-2.7,1.9C60.4,45.1,61.8,45.5,63.5,45.8z M58.1,43.8c0.6-0.6,1.2-1.3,1.8-2.4h-3.9C56.6,42.4,57.3,43.2,58.1,43.8
		z"/>
</g>
<g>
	<path class="st1" d="M104.4,95.2c-1.1-0.4-2.8-0.6-4.5-0.6c-1.4,0-2.7,0.1-3.8,0.4c-2,0.5-2.3,1.1-2.3,1.5c0,0,0,0,0,0v1.6
		c0,0,0,0,0,0.1c0,0.4,0.4,0.9,1.6,1.3c1.1,0.4,2.8,0.6,4.5,0.6c1.4,0,2.7-0.1,3.8-0.4c1.9-0.4,2.3-1.1,2.3-1.4c0,0,0-0.1,0-0.1
		v-1.6C106,96.2,105.7,95.7,104.4,95.2z M95.4,98.6c-0.2-0.1-0.4-0.2-0.5-0.3v-0.6c0,0,0.1,0,0.1,0c0,0,0.1,0,0.1,0
		c0.1,0,0.2,0.1,0.3,0.1V98.6z M96.6,99c-0.2,0-0.3-0.1-0.5-0.1v-0.7c0.2,0,0.3,0.1,0.5,0.1V99z M97.7,99.2c-0.2,0-0.3,0-0.5-0.1
		v-0.8c0.1,0,0.1,0,0.2,0c0.1,0,0.2,0,0.3,0V99.2z M102.5,99.1c-0.2,0-0.3,0-0.5,0.1v-0.8c0,0,0.1,0,0.1,0c0.1,0,0.2,0,0.2,0h0
		c0.1,0,0.1,0,0.2,0V99.1z M104.9,98.3c-0.1,0.1-0.2,0.2-0.5,0.3v-0.7c0.1,0,0.2-0.1,0.4-0.1c0,0,0,0,0,0c0,0,0.1,0,0.1-0.1V98.3z
		 M105,96.6C105,96.6,105,96.6,105,96.6C105,96.6,105,96.7,105,96.6C105,96.7,104.9,96.7,105,96.6c-0.1,0.1-0.1,0.1-0.1,0.2
		c0,0,0,0,0,0c0,0,0,0-0.1,0c0,0,0,0-0.1,0.1c0,0,0,0,0,0c0,0,0,0,0,0c0,0,0,0,0,0c0,0,0,0,0,0c0,0,0,0-0.1,0c0,0,0,0,0,0l0,0
		c0,0-0.1,0-0.1,0.1c0,0-0.1,0-0.1,0.1c-0.1,0.1-0.3,0.1-0.5,0.2c-0.1,0-0.3,0.1-0.4,0.1l-0.2,0l0,0c-0.1,0-0.2,0.1-0.4,0.1
		c0,0,0,0,0,0c-0.2,0-0.4,0.1-0.6,0.1c-0.1,0-0.1,0-0.2,0c-0.1,0-0.3,0-0.4,0c0,0,0,0,0,0c-0.1,0-0.3,0-0.4,0c-0.4,0-0.8,0-1.2,0
		c-0.3,0-0.5,0-0.9,0c-0.2,0-0.4,0-0.6,0c-0.1,0-0.2,0-0.3,0c-0.2,0-0.4,0-0.5-0.1c-0.7-0.1-1.3-0.2-1.8-0.4
		c-0.2-0.1-0.4-0.1-0.5-0.2c0,0,0,0,0,0c0,0-0.1,0-0.1-0.1c0,0,0,0-0.1,0c0,0-0.1,0-0.1-0.1c0,0,0,0,0,0l0,0c0,0,0,0,0,0
		c0,0-0.1-0.1-0.1-0.1c0,0,0,0,0,0c0,0,0-0.1,0-0.1c0,0,0,0,0,0c0,0,0,0,0,0c0-0.2,0.4-0.5,1.6-0.8c1-0.2,2.2-0.4,3.5-0.4
		c1.6,0,3.1,0.2,4.1,0.5C104.7,96.2,105,96.4,105,96.6C105,96.6,105,96.6,105,96.6z M101.6,96.5c-0.3,0-0.8-0.1-1.4-0.1V96
		c0.3,0,0.6,0,0.7,0.1c0,0,0,0,0,0.1c0,0,0,0,0,0.1c0,0,0,0,0.1,0l0.1,0c0,0,0.1,0,0.1,0h0.3c0,0,0.1,0,0.1,0l0.1,0c0,0,0.1,0,0.1,0
		l0-0.1c0-0.1,0.1-0.1,0.1-0.2c0,0,0,0,0,0l0,0c0,0,0,0-0.1,0c-0.4,0-0.9-0.1-1.5-0.1v-0.1c0,0,0,0-0.1,0l-0.1,0c0,0-0.1,0-0.1,0
		h-0.4c-0.1,0-0.1,0-0.1,0l-0.1,0c0,0,0,0,0,0v0.1c-0.4,0-0.7,0-0.9,0.1c-0.7,0.1-1,0.2-1,0.4c0,0.1,0.2,0.2,0.6,0.3
		c0.3,0,0.7,0.1,1.3,0.1v0.4c-0.4,0-0.8,0-1-0.1c0,0,0,0-0.1-0.1l0-0.1c0,0,0,0-0.1,0l-0.1,0c0,0-0.1,0-0.1,0h-0.3c0,0-0.1,0-0.1,0
		l-0.1,0c0,0-0.1,0-0.1,0c0,0.1,0,0.2-0.1,0.3c0,0,0,0,0,0l0,0c0,0,0,0,0.1,0c0.6,0,1.2,0.1,1.8,0.1v0.1c0,0,0,0,0,0l0.1,0
		c0,0,0.1,0,0.1,0h0.4c0,0,0.1,0,0.1,0l0.1,0c0,0,0,0,0,0v-0.2c0.6,0,1.1-0.1,1.5-0.2c0.4-0.1,0.6-0.2,0.6-0.3
		C102.3,96.6,102.1,96.5,101.6,96.5z M99.4,96.3c-0.4,0-0.5-0.1-0.5-0.1c0-0.1,0.2-0.1,0.5-0.2V96.3z M100.9,97
		c-0.1,0-0.2,0-0.4,0.1v-0.4c0.4,0,0.6,0.1,0.6,0.2C101.2,96.9,101.1,96.9,100.9,97z M104.2,106c-0.1,0-0.3,0.1-0.4,0.1
		c-0.1,0-0.3,0.1-0.4,0.1l-0.2,0l0,0c-0.1,0-0.2,0.1-0.4,0.1c0,0,0,0,0,0c-0.2,0-0.4,0.1-0.6,0.1c-0.1,0-0.1,0-0.2,0
		c-0.1,0-0.3,0-0.4,0c0,0,0,0,0,0c-0.1,0-0.3,0-0.4,0c-0.4,0-0.8,0-1.2,0c-0.3,0-0.5,0-0.9,0c-0.2,0-0.4,0-0.6,0c-0.1,0-0.2,0-0.3,0
		c-0.2,0-0.4,0-0.5-0.1c-0.7-0.1-1.3-0.2-1.8-0.4c-0.1,0-0.2-0.1-0.3-0.1c-0.2,0-0.3-0.1-0.4-0.1c-0.6-0.2-1-0.4-1.3-0.6
		c0,0.1,0,0.1,0,0.1c0,0,0,0,0,0v1.6c0,0,0,0,0,0.1c0,0.4,0.4,0.9,1.6,1.3c1.1,0.4,2.8,0.6,4.5,0.6c1.4,0,2.7-0.1,3.8-0.4
		c1.9-0.4,2.3-1.1,2.3-1.4c0,0,0-0.1,0-0.1v-1.6c0-0.1,0-0.1,0-0.2C105.6,105.5,105,105.7,104.2,106z M95.4,107.6
		c-0.2-0.1-0.4-0.2-0.5-0.3v-0.6c0,0,0.1,0,0.1,0c0,0,0.1,0,0.1,0c0.1,0,0.2,0.1,0.3,0.1V107.6z M96.6,108c-0.2,0-0.3-0.1-0.5-0.1
		v-0.7c0.2,0,0.3,0.1,0.5,0.1V108z M97.7,108c-0.2,0-0.3,0-0.5-0.1v-0.8c0.1,0,0.1,0,0.2,0c0.1,0,0.2,0,0.3,0V108z M102.5,107.9
		c-0.2,0-0.3,0-0.5,0.1v-0.8c0,0,0.1,0,0.1,0c0.1,0,0.2,0,0.2,0h0c0.1,0,0.1,0,0.2,0V107.9z M104.9,107.1c-0.1,0.1-0.2,0.2-0.5,0.3
		v-0.7c0.1,0,0.2-0.1,0.4-0.1h0c0,0,0.1,0,0.1-0.1V107.1z M103.8,100.3c-0.1,0-0.3,0.1-0.4,0.1l-0.2,0l0,0c-0.1,0-0.2,0.1-0.4,0.1
		c0,0,0,0,0,0c-0.2,0-0.4,0.1-0.6,0.1c-0.1,0-0.1,0-0.2,0c-0.1,0-0.3,0-0.4,0c0,0,0,0,0,0c-0.1,0-0.3,0-0.4,0c-0.4,0-0.8,0-1.2,0
		c-0.3,0-0.5,0-0.9,0c-0.2,0-0.4,0-0.6,0c-0.1,0-0.2,0-0.3,0c-0.2,0-0.4,0-0.5-0.1c-0.7-0.1-1.3-0.2-1.8-0.4c-0.1,0-0.2-0.1-0.3-0.1
		c-0.2,0-0.3-0.1-0.4-0.1c-0.6-0.2-1-0.4-1.4-0.6c0,0,0,0,0,0v1.6c0,0,0,0,0,0.1c0,0.4,0.4,0.9,1.6,1.3c1.1,0.4,2.8,0.6,4.5,0.6
		c1.4,0,2.7-0.1,3.8-0.4c1.9-0.4,2.3-1.1,2.3-1.4c0,0,0-0.1,0-0.1v-1.6c0,0,0,0,0,0c0,0,0,0,0,0v0c-0.4,0.3-1,0.6-1.8,0.8
		C104.1,100.2,103.9,100.2,103.8,100.3z M95.4,101.6c-0.2-0.1-0.4-0.2-0.5-0.3v-0.6c0,0,0.1,0,0.1,0c0,0,0.1,0,0.1,0
		c0.1,0,0.2,0.1,0.3,0.1V101.6z M96.6,102c-0.2,0-0.3-0.1-0.5-0.1v-0.7c0.2,0,0.3,0.1,0.5,0.1V102z M97.7,102c-0.2,0-0.3,0-0.5-0.1
		v-0.8c0.1,0,0.1,0,0.2,0c0.1,0,0.2,0,0.3,0V102z M102.5,101.9c-0.2,0-0.3,0-0.5,0.1v-0.8c0,0,0.1,0,0.1,0c0.1,0,0.2,0,0.2,0h0
		c0.1,0,0.1,0,0.2,0V101.9z M104.4,100.7c0.1,0,0.2-0.1,0.4-0.1h0c0,0,0.1,0,0.1-0.1v0.6c-0.1,0.1-0.2,0.2-0.5,0.3V100.7z
		 M104.2,103c-0.1,0-0.3,0.1-0.4,0.1c-0.1,0-0.3,0.1-0.4,0.1l-0.2,0l0,0c-0.1,0-0.2,0.1-0.4,0.1c0,0,0,0,0,0c-0.2,0-0.4,0.1-0.6,0.1
		c-0.1,0-0.1,0-0.2,0c-0.1,0-0.3,0-0.4,0c0,0,0,0,0,0c-0.1,0-0.3,0-0.4,0c-0.4,0-0.8,0-1.2,0c-0.3,0-0.5,0-0.9,0c-0.2,0-0.4,0-0.6,0
		c-0.1,0-0.2,0-0.3,0c-0.2,0-0.4,0-0.5-0.1c-0.7-0.1-1.3-0.2-1.8-0.4c-0.1,0-0.2-0.1-0.3-0.1c-0.2,0-0.3-0.1-0.4-0.1
		c-0.6-0.2-1-0.4-1.3-0.6c0,0.1,0,0.1,0,0.1c0,0,0,0,0,0v1.6c0,0,0,0,0,0.1c0,0.4,0.4,0.9,1.6,1.3c1.1,0.4,2.8,0.6,4.5,0.6
		c1.4,0,2.7-0.1,3.8-0.4c1.9-0.4,2.3-1.1,2.3-1.4c0,0,0-0.1,0-0.1v-1.6c0-0.1,0-0.1,0-0.2C105.6,102.5,105,102.7,104.2,103z
		 M95.4,104.6c-0.2-0.1-0.4-0.2-0.5-0.3v-0.6c0,0,0.1,0,0.1,0c0,0,0.1,0,0.1,0c0.1,0,0.2,0.1,0.3,0.1V104.6z M96.6,105
		c-0.2,0-0.3-0.1-0.5-0.1v-0.7c0.2,0,0.3,0.1,0.5,0.1V105z M97.7,105c-0.2,0-0.3,0-0.5-0.1v-0.8c0.1,0,0.1,0,0.2,0
		c0.1,0,0.2,0,0.3,0V105z M102.5,104.9c-0.2,0-0.3,0-0.5,0.1v-0.8c0,0,0.1,0,0.1,0c0.1,0,0.2,0,0.2,0h0c0.1,0,0.1,0,0.2,0V104.9z
		 M104.9,104.1c-0.1,0.1-0.2,0.2-0.5,0.3v-0.7c0.1,0,0.2-0.1,0.4-0.1h0c0,0,0.1,0,0.1-0.1V104.1z"/>
	<path class="st1" d="M118.7,95.2c-1.1-0.4-2.8-0.6-4.5-0.6c-1.4,0-2.7,0.1-3.8,0.4c-2,0.5-2.3,1.1-2.3,1.5c0,0,0,0,0,0v1.6
		c0,0,0,0,0,0.1c0,0.4,0.4,0.9,1.6,1.3c1.1,0.4,2.8,0.6,4.5,0.6c1.4,0,2.7-0.1,3.8-0.4c1.9-0.4,2.3-1.1,2.3-1.4c0,0,0-0.1,0-0.1
		v-1.6C120.3,96.2,120,95.7,118.7,95.2z M109.7,98.6c-0.2-0.1-0.4-0.2-0.5-0.3v-0.6c0,0,0.1,0,0.1,0c0,0,0.1,0,0.1,0
		c0.1,0,0.2,0.1,0.3,0.1V98.6z M110.9,99c-0.2,0-0.3-0.1-0.5-0.1v-0.7c0.2,0,0.3,0.1,0.5,0.1V99z M112.1,99.2c-0.2,0-0.3,0-0.5-0.1
		v-0.8c0.1,0,0.1,0,0.2,0c0.1,0,0.2,0,0.3,0V99.2z M116.8,99.1c-0.2,0-0.3,0-0.5,0.1v-0.8c0,0,0.1,0,0.1,0c0.1,0,0.2,0,0.2,0h0
		c0.1,0,0.1,0,0.2,0V99.1z M119.2,98.3c-0.1,0.1-0.2,0.2-0.5,0.3v-0.7c0.1,0,0.2-0.1,0.4-0.1c0,0,0,0,0,0c0,0,0.1,0,0.1-0.1V98.3z
		 M119.3,96.6C119.3,96.6,119.3,96.6,119.3,96.6C119.3,96.6,119.3,96.7,119.3,96.6C119.3,96.7,119.3,96.7,119.3,96.6
		c-0.1,0.1-0.1,0.1-0.1,0.2c0,0,0,0,0,0c0,0,0,0-0.1,0c0,0,0,0-0.1,0.1c0,0,0,0,0,0c0,0,0,0,0,0c0,0,0,0,0,0c0,0,0,0,0,0
		c0,0,0,0-0.1,0c0,0,0,0,0,0l0,0c0,0-0.1,0-0.1,0.1c0,0-0.1,0-0.1,0.1c-0.1,0.1-0.3,0.1-0.5,0.2c-0.1,0-0.3,0.1-0.4,0.1l-0.2,0l0,0
		c-0.1,0-0.2,0.1-0.4,0.1c0,0,0,0,0,0c-0.2,0-0.4,0.1-0.6,0.1c-0.1,0-0.1,0-0.2,0c-0.1,0-0.3,0-0.4,0c0,0,0,0,0,0
		c-0.1,0-0.3,0-0.4,0c-0.4,0-0.8,0-1.2,0c-0.3,0-0.5,0-0.9,0c-0.2,0-0.4,0-0.6,0c-0.1,0-0.2,0-0.3,0c-0.2,0-0.4,0-0.5-0.1
		c-0.7-0.1-1.3-0.2-1.8-0.4c-0.2-0.1-0.4-0.1-0.5-0.2c0,0,0,0,0,0c0,0-0.1,0-0.1-0.1c0,0,0,0-0.1,0c0,0-0.1,0-0.1-0.1c0,0,0,0,0,0
		l0,0c0,0,0,0,0,0c0,0-0.1-0.1-0.1-0.1c0,0,0,0,0,0c0,0,0-0.1,0-0.1c0,0,0,0,0,0c0,0,0,0,0,0c0-0.2,0.4-0.5,1.6-0.8
		c1-0.2,2.2-0.4,3.5-0.4c1.6,0,3.1,0.2,4.1,0.5C119,96.2,119.3,96.4,119.3,96.6C119.3,96.6,119.3,96.6,119.3,96.6z M116,96.5
		c-0.3,0-0.8-0.1-1.4-0.1V96c0.3,0,0.6,0,0.7,0.1c0,0,0,0,0,0.1c0,0,0,0,0,0.1c0,0,0,0,0.1,0l0.1,0c0,0,0.1,0,0.1,0h0.3
		c0,0,0.1,0,0.1,0l0.1,0c0,0,0.1,0,0.1,0l0-0.1c0-0.1,0.1-0.1,0.1-0.2c0,0,0,0,0,0l0,0c0,0,0,0-0.1,0c-0.4,0-0.9-0.1-1.5-0.1v-0.1
		c0,0,0,0-0.1,0l-0.1,0c0,0-0.1,0-0.1,0H114c-0.1,0-0.1,0-0.1,0l-0.1,0c0,0,0,0,0,0v0.1c-0.4,0-0.7,0-0.9,0.1c-0.7,0.1-1,0.2-1,0.4
		c0,0.1,0.2,0.2,0.6,0.3c0.3,0,0.7,0.1,1.3,0.1v0.4c-0.4,0-0.8,0-1-0.1c0,0,0,0-0.1-0.1l0-0.1c0,0,0,0-0.1,0l-0.1,0c0,0-0.1,0-0.1,0
		h-0.3c0,0-0.1,0-0.1,0l-0.1,0c0,0-0.1,0-0.1,0c0,0.1,0,0.2-0.1,0.3c0,0,0,0,0,0l0,0c0,0,0,0,0.1,0c0.6,0,1.2,0.1,1.8,0.1v0.1
		c0,0,0,0,0,0l0.1,0c0,0,0.1,0,0.1,0h0.4c0,0,0.1,0,0.1,0l0.1,0c0,0,0,0,0,0v-0.2c0.6,0,1.1-0.1,1.5-0.2c0.4-0.1,0.6-0.2,0.6-0.3
		C116.6,96.6,116.4,96.5,116,96.5z M113.8,96.3c-0.4,0-0.5-0.1-0.5-0.1c0-0.1,0.2-0.1,0.5-0.2V96.3z M115.3,97c-0.1,0-0.2,0-0.4,0.1
		v-0.4c0.4,0,0.6,0.1,0.6,0.2C115.5,96.9,115.4,96.9,115.3,97z M118.5,106c-0.1,0-0.3,0.1-0.4,0.1c-0.1,0-0.3,0.1-0.4,0.1l-0.2,0
		l0,0c-0.1,0-0.2,0.1-0.4,0.1c0,0,0,0,0,0c-0.2,0-0.4,0.1-0.6,0.1c-0.1,0-0.1,0-0.2,0c-0.1,0-0.3,0-0.4,0c0,0,0,0,0,0
		c-0.1,0-0.3,0-0.4,0c-0.4,0-0.8,0-1.2,0c-0.3,0-0.5,0-0.9,0c-0.2,0-0.4,0-0.6,0c-0.1,0-0.2,0-0.3,0c-0.2,0-0.4,0-0.5-0.1
		c-0.7-0.1-1.3-0.2-1.8-0.4c-0.1,0-0.2-0.1-0.3-0.1c-0.2,0-0.3-0.1-0.4-0.1c-0.6-0.2-1-0.4-1.3-0.6c0,0.1,0,0.1,0,0.1c0,0,0,0,0,0
		v1.6c0,0,0,0,0,0.1c0,0.4,0.4,0.9,1.6,1.3c1.1,0.4,2.8,0.6,4.5,0.6c1.4,0,2.7-0.1,3.8-0.4c1.9-0.4,2.3-1.1,2.3-1.4c0,0,0-0.1,0-0.1
		v-1.6c0-0.1,0-0.1,0-0.2C119.9,105.5,119.4,105.7,118.5,106z M109.7,107.6c-0.2-0.1-0.4-0.2-0.5-0.3v-0.6c0,0,0.1,0,0.1,0
		c0,0,0.1,0,0.1,0c0.1,0,0.2,0.1,0.3,0.1V107.6z M110.9,108c-0.2,0-0.3-0.1-0.5-0.1v-0.7c0.2,0,0.3,0.1,0.5,0.1V108z M112.1,108
		c-0.2,0-0.3,0-0.5-0.1v-0.8c0.1,0,0.1,0,0.2,0c0.1,0,0.2,0,0.3,0V108z M116.8,107.9c-0.2,0-0.3,0-0.5,0.1v-0.8c0,0,0.1,0,0.1,0
		c0.1,0,0.2,0,0.2,0h0c0.1,0,0.1,0,0.2,0V107.9z M119.2,107.1c-0.1,0.1-0.2,0.2-0.5,0.3v-0.7c0.1,0,0.2-0.1,0.4-0.1h0
		c0,0,0.1,0,0.1-0.1V107.1z M118.1,100.3c-0.1,0-0.3,0.1-0.4,0.1l-0.2,0l0,0c-0.1,0-0.2,0.1-0.4,0.1c0,0,0,0,0,0
		c-0.2,0-0.4,0.1-0.6,0.1c-0.1,0-0.1,0-0.2,0c-0.1,0-0.3,0-0.4,0c0,0,0,0,0,0c-0.1,0-0.3,0-0.4,0c-0.4,0-0.8,0-1.2,0
		c-0.3,0-0.5,0-0.9,0c-0.2,0-0.4,0-0.6,0c-0.1,0-0.2,0-0.3,0c-0.2,0-0.4,0-0.5-0.1c-0.7-0.1-1.3-0.2-1.8-0.4c-0.1,0-0.2-0.1-0.3-0.1
		c-0.2,0-0.3-0.1-0.4-0.1c-0.6-0.2-1-0.4-1.4-0.6c0,0,0,0,0,0v1.6c0,0,0,0,0,0.1c0,0.4,0.4,0.9,1.6,1.3c1.1,0.4,2.8,0.6,4.5,0.6
		c1.4,0,2.7-0.1,3.8-0.4c1.9-0.4,2.3-1.1,2.3-1.4c0,0,0-0.1,0-0.1v-1.6c0,0,0,0,0,0c0,0,0,0,0,0v0c-0.4,0.3-1,0.6-1.8,0.8
		C118.4,100.2,118.3,100.2,118.1,100.3z M109.7,101.6c-0.2-0.1-0.4-0.2-0.5-0.3v-0.6c0,0,0.1,0,0.1,0c0,0,0.1,0,0.1,0
		c0.1,0,0.2,0.1,0.3,0.1V101.6z M110.9,102c-0.2,0-0.3-0.1-0.5-0.1v-0.7c0.2,0,0.3,0.1,0.5,0.1V102z M112.1,102
		c-0.2,0-0.3,0-0.5-0.1v-0.8c0.1,0,0.1,0,0.2,0c0.1,0,0.2,0,0.3,0V102z M116.8,101.9c-0.2,0-0.3,0-0.5,0.1v-0.8c0,0,0.1,0,0.1,0
		c0.1,0,0.2,0,0.2,0h0c0.1,0,0.1,0,0.2,0V101.9z M118.7,100.7c0.1,0,0.2-0.1,0.4-0.1h0c0,0,0.1,0,0.1-0.1v0.6
		c-0.1,0.1-0.2,0.2-0.5,0.3V100.7z M118.5,103c-0.1,0-0.3,0.1-0.4,0.1c-0.1,0-0.3,0.1-0.4,0.1l-0.2,0l0,0c-0.1,0-0.2,0.1-0.4,0.1
		c0,0,0,0,0,0c-0.2,0-0.4,0.1-0.6,0.1c-0.1,0-0.1,0-0.2,0c-0.1,0-0.3,0-0.4,0c0,0,0,0,0,0c-0.1,0-0.3,0-0.4,0c-0.4,0-0.8,0-1.2,0
		c-0.3,0-0.5,0-0.9,0c-0.2,0-0.4,0-0.6,0c-0.1,0-0.2,0-0.3,0c-0.2,0-0.4,0-0.5-0.1c-0.7-0.1-1.3-0.2-1.8-0.4c-0.1,0-0.2-0.1-0.3-0.1
		c-0.2,0-0.3-0.1-0.4-0.1c-0.6-0.2-1-0.4-1.3-0.6c0,0.1,0,0.1,0,0.1c0,0,0,0,0,0v1.6c0,0,0,0,0,0.1c0,0.4,0.4,0.9,1.6,1.3
		c1.1,0.4,2.8,0.6,4.5,0.6c1.4,0,2.7-0.1,3.8-0.4c1.9-0.4,2.3-1.1,2.3-1.4c0,0,0-0.1,0-0.1v-1.6c0-0.1,0-0.1,0-0.2
		C119.9,102.5,119.4,102.7,118.5,103z M109.7,104.6c-0.2-0.1-0.4-0.2-0.5-0.3v-0.6c0,0,0.1,0,0.1,0c0,0,0.1,0,0.1,0
		c0.1,0,0.2,0.1,0.3,0.1V104.6z M110.9,105c-0.2,0-0.3-0.1-0.5-0.1v-0.7c0.2,0,0.3,0.1,0.5,0.1V105z M112.1,105
		c-0.2,0-0.3,0-0.5-0.1v-0.8c0.1,0,0.1,0,0.2,0c0.1,0,0.2,0,0.3,0V105z M116.8,104.9c-0.2,0-0.3,0-0.5,0.1v-0.8c0,0,0.1,0,0.1,0
		c0.1,0,0.2,0,0.2,0h0c0.1,0,0.1,0,0.2,0V104.9z M119.2,104.1c-0.1,0.1-0.2,0.2-0.5,0.3v-0.7c0.1,0,0.2-0.1,0.4-0.1h0
		c0,0,0.1,0,0.1-0.1V104.1z"/>
	<path class="st1" d="M63.6,106.8c0.1,0.6,0.3,1.5,1.2,2.3H50.3c-24.5,0-1.4-35.4,3.4-34.5h12.5c2.2-0.4,8.3,6.8,11.8,14.8
		c-0.3-0.2-0.6-0.3-0.9-0.5c-1.4-0.6-3.3-0.9-5.3-0.9c-1.6,0-3.2,0.2-4.5,0.6c-2.1,0.7-3,1.7-3.4,2.6c-0.8-0.4-1.7-0.7-3-0.9v-4.7
		c0.9,0.1,1.5,0.4,1.9,1c0,0.1,0.1,0.3,0.1,0.8c0,0.2,0,0.5,0,0.9c0,0.1,0.1,0.2,0.1,0.3l0.1,0.1c0.1,0.1,0.2,0.1,0.3,0.1h0.8
		c0.1,0,0.2,0,0.3-0.1l0.1-0.1c0.1-0.1,0.1-0.2,0.1-0.3l0.1-1c0.1-1.1,0.1-1.9,0.3-2.3c0-0.1,0-0.2,0-0.3L65,84.4
		c0-0.1-0.1-0.2-0.2-0.2c-1.1-0.5-2.4-0.8-3.9-0.9v-0.8c0-0.1-0.1-0.3-0.2-0.3L60.6,82c-0.1-0.1-0.2-0.1-0.3-0.1h-0.9
		c-0.1,0-0.2,0.1-0.3,0.1L59,82.2c-0.1,0.1-0.1,0.2-0.1,0.3v0.9c-0.9,0.2-1.7,0.4-2.4,0.9c-1.7,1.1-2.6,2.7-2.6,4.9
		c0,1.5,0.5,2.7,1.6,3.6c0.7,0.6,1.8,1.1,3.4,1.4v5.3c-1.1-0.1-1.9-0.6-2.5-1.3c-0.1-0.3-0.1-0.6-0.1-0.9l0-0.9
		c0-0.1-0.1-0.2-0.1-0.3l-0.2-0.1c-0.1-0.1-0.2-0.1-0.3-0.1h-0.7c-0.1,0-0.2,0-0.3,0.1L54.4,96c-0.1,0.1-0.1,0.2-0.1,0.3
		c0,1.5-0.1,2.8-0.3,3.7c0,0.1,0,0.2,0,0.3l0.1,0.2c0,0.1,0.1,0.2,0.2,0.2c1.5,0.6,3,1,4.5,1v1.9c0,0.1,0,0.2,0.1,0.3l0.1,0.1
		c0.1,0.1,0.2,0.1,0.3,0.1h0.9c0.1,0,0.2,0,0.3-0.1l0.1-0.1c0.1-0.1,0.1-0.2,0.1-0.3v-2.1c1-0.2,1.9-0.6,2.7-1.1v2.1
		c0,0.1,0,0.2,0,0.3c0,0.2,0.1,0.4,0.1,0.6l-0.1,0.4c0,0.1-0.1,0.3-0.1,0.4c0,0.1,0,0.1,0,0.2v2.1C63.6,106.6,63.6,106.7,63.6,106.8
		z M58.9,89.8v-4.1c-0.9,0.4-1.4,1.1-1.4,2.2C57.5,88.9,57.9,89.5,58.9,89.8z M66.4,68.4c1.4,0,2.6,1.2,2.6,2.6
		c0,0.4-0.1,0.7-0.2,1.1c-0.2,0.4-0.5,0.8-0.8,1c-0.5,0.3-1,0.5-1.5,0.5H53.6c-1.4,0-2.6-1.2-2.6-2.6c0-0.4,0.1-0.8,0.3-1.1
		c0.2-0.4,0.5-0.8,0.9-1c0.4-0.3,1-0.5,1.5-0.5H66.4z M55.1,72.1l-2.5-1.4c0,0.1-0.1,0.2-0.1,0.4c0,0.6,0.5,1,1,1H55.1z M60.8,72.1
		L57.2,70h-3.6c0,0,0,0-0.1,0l3.6,2.1H60.8z M66.5,72.1L62.9,70h-3.6l3.6,2.1L66.5,72.1C66.5,72.1,66.5,72.1,66.5,72.1z M66.4,70H65
		l2.4,1.4c0-0.1,0.1-0.2,0.1-0.4C67.5,70.5,67,70,66.4,70z M60.9,99.2c0.4-0.2,0.7-0.5,1-0.8c0.4-0.5,0.6-1.1,0.6-1.7
		c0-1.1-0.5-1.8-1.6-2.1V99.2z M53.1,66.9C53.2,66.9,53.2,66.9,53.1,66.9C53.2,67,53.2,67,53.1,66.9L53.1,66.9
		c0.1,0.1,0.2,0.1,0.2,0.1c0.3,0.2,0.5,0.2,0.7,0.2l0,0h11.8l0,0c0.2,0,0.5-0.1,0.8-0.2c0.1-0.1,0.3-0.1,0.3-0.2
		c4.2-2.5,6.7-8.5,6.8-9.7c0,0,0-0.1,0-0.1c0,0,0,0,0,0c0,0,0,0,0,0c0-0.1-0.1-0.1-0.2-0.2c-2-1-4.6,1.4-7.5,1.4
		c-2.9,0-2.6-1.5-5.8-1.5c-3.2,0-3,1.5-5.9,1.5c-2.9,0-5.3-2.4-7.4-1.4c-0.1,0.1-0.2,0.1-0.2,0.2c0,0,0,0,0,0c0,0,0,0,0,0
		c0,0,0,0.1,0,0.1C46.7,58.3,49,64.4,53.1,66.9z M78.1,92.5C78.1,92.5,78.1,92.5,78.1,92.5C78.1,92.5,78.1,92.6,78.1,92.5v2.1
		c0,0,0,0.1,0,0.1c-0.1,0.5-0.5,1.4-2.4,2c-1.1,0.3-2.5,0.5-3.9,0.5c-1.8,0-3.4-0.3-4.6-0.8c-1.3-0.6-1.6-1.2-1.7-1.7
		c0,0,0-0.1,0-0.1v-2.1c0,0,0,0,0-0.1c0-0.5,0.4-1.4,2.4-2c1.1-0.3,2.5-0.5,3.9-0.5c1.8,0,3.4,0.3,4.6,0.8
		C77.8,91.3,78.1,92,78.1,92.5z M67.2,94.4c-0.1,0-0.2-0.1-0.3-0.1c0,0-0.1,0-0.1-0.1c0,0-0.1,0-0.1,0v0.8c0.1,0.1,0.3,0.3,0.5,0.4
		V94.4z M68.4,94.8c-0.2,0-0.3-0.1-0.5-0.1v1c0.2,0.1,0.3,0.1,0.5,0.2V94.8z M69.7,95c-0.1,0-0.2,0-0.3,0c-0.1,0-0.2,0-0.2,0v1
		c0.2,0,0.3,0.1,0.5,0.1V95z M70.9,95.1c-0.2,0-0.3,0-0.5,0v1c0.2,0,0.3,0,0.5,0V95.1z M72.1,95.2c-0.1,0-0.2,0-0.2,0
		c-0.1,0-0.2,0-0.3,0v1c0.1,0,0.2,0,0.3,0c0.1,0,0.2,0,0.2,0V95.2z M73.3,95.1c0,0-0.1,0-0.1,0c0,0,0,0,0,0h0c0,0,0,0,0,0
		c-0.1,0-0.2,0-0.4,0v1c0.2,0,0.3,0,0.5,0V95.1z M74.5,94.9c-0.1,0-0.1,0-0.2,0c0,0,0,0,0,0c-0.1,0-0.2,0-0.3,0c0,0-0.1,0-0.1,0v1
		c0.2,0,0.3-0.1,0.5-0.1V94.9z M75.7,94.6C75.7,94.6,75.7,94.6,75.7,94.6l-0.2,0.1c-0.1,0-0.2,0-0.3,0.1v1c0.1,0,0.1,0,0.2-0.1
		c0.1,0,0.2-0.1,0.3-0.1V94.6z M77,94.1c0,0-0.1,0.1-0.1,0.1c0,0,0,0,0,0c-0.1,0.1-0.2,0.1-0.4,0.2v0.9c0.3-0.1,0.4-0.3,0.5-0.4
		V94.1z M77.1,92.6c0-0.2-0.3-0.6-1.1-0.9c-1-0.4-2.6-0.7-4.2-0.7c-1.3,0-2.6,0.2-3.6,0.5c-1.3,0.4-1.6,0.9-1.6,1.1c0,0,0,0,0,0
		c0,0,0,0,0,0c0,0,0,0.1,0,0.1c0,0,0,0,0,0c0,0,0,0.1,0.1,0.1c0,0,0,0,0,0l0,0c0,0,0,0,0,0c0,0,0.1,0.1,0.1,0.1c0,0,0,0,0.1,0
		c0,0,0.1,0.1,0.1,0.1c0,0,0,0,0,0c0.2,0.1,0.4,0.2,0.6,0.3c0.5,0.2,1.1,0.4,1.9,0.5c0.2,0,0.4,0.1,0.5,0.1c0.1,0,0.2,0,0.3,0
		c0.2,0,0.4,0,0.6,0c0.3,0,0.6,0,0.9,0c0.4,0,0.8,0,1.2-0.1c0.1,0,0.3,0,0.4,0c0,0,0,0,0,0c0.1,0,0.3,0,0.4-0.1c0.1,0,0.1,0,0.2,0
		c0.2,0,0.5-0.1,0.7-0.1c0,0,0,0,0,0c0.1,0,0.3-0.1,0.4-0.1l0,0l0.2-0.1c0.1,0,0.3-0.1,0.4-0.1c0.2-0.1,0.3-0.1,0.5-0.2
		c0.1,0,0.1-0.1,0.1-0.1c0,0,0.1,0,0.1-0.1l0,0c0,0,0,0,0,0c0,0,0,0,0.1,0c0,0,0,0,0,0c0,0,0,0,0,0c0,0,0,0,0,0c0,0,0,0,0,0
		c0,0,0.1,0,0.1-0.1c0,0,0,0,0.1-0.1c0,0,0,0,0,0l0,0c0,0,0.1-0.1,0.1-0.1c0,0,0,0,0-0.1C77.1,92.7,77.1,92.6,77.1,92.6
		C77.1,92.6,77.1,92.6,77.1,92.6C77.1,92.6,77.1,92.6,77.1,92.6z M91.9,96.6C91.9,96.6,91.9,96.6,91.9,96.6l0,2.1c0,0,0,0.1,0,0.1
		c-0.1,0.5-0.5,1.4-2.4,2c-1.1,0.3-2.5,0.5-3.9,0.5c-1.8,0-3.4-0.3-4.6-0.8c-1.3-0.6-1.6-1.2-1.7-1.7c0,0,0-0.1,0-0.1v-2.1
		c0,0,0,0,0-0.1c0-0.5,0.4-1.4,2.4-2c1.1-0.3,2.5-0.5,3.9-0.5c1.8,0,3.4,0.3,4.6,0.8C91.6,95.3,91.9,96.1,91.9,96.6
		C91.9,96.6,91.9,96.6,91.9,96.6z M81,98.4c-0.1,0-0.2-0.1-0.3-0.1c0,0-0.1,0-0.1-0.1c0,0-0.1,0-0.1,0v0.8c0.1,0.1,0.3,0.3,0.5,0.4
		V98.4z M82.2,98.8c-0.2,0-0.3-0.1-0.5-0.1v1c0.2,0.1,0.3,0.1,0.5,0.2V98.8z M83.5,99.1c-0.1,0-0.2,0-0.3,0c-0.1,0-0.2,0-0.2,0v1
		c0.2,0,0.3,0.1,0.5,0.1V99.1z M84.7,99.2c-0.2,0-0.3,0-0.5,0v1c0.2,0,0.3,0,0.5,0V99.2z M85.9,99.2c-0.1,0-0.2,0-0.2,0
		c-0.1,0-0.2,0-0.3,0v1c0.1,0,0.2,0,0.3,0c0.1,0,0.2,0,0.2,0V99.2z M87.1,99.1c0,0-0.1,0-0.1,0c0,0,0,0,0,0h0c0,0,0,0,0,0
		c-0.1,0-0.2,0-0.4,0v1c0.2,0,0.3,0,0.5,0V99.1z M88.3,99c-0.1,0-0.1,0-0.2,0c0,0,0,0,0,0c-0.1,0-0.2,0-0.3,0c0,0-0.1,0-0.1,0v1
		c0.2,0,0.3-0.1,0.5-0.1V99z M89.5,98.7C89.5,98.7,89.5,98.7,89.5,98.7l-0.2,0.1c-0.1,0-0.2,0-0.3,0.1v1c0.1,0,0.1,0,0.2-0.1
		c0.1,0,0.2-0.1,0.3-0.1V98.7z M90.8,98.2c0,0-0.1,0.1-0.1,0.1c0,0,0,0,0,0c-0.1,0.1-0.2,0.1-0.4,0.2v0.9c0.3-0.1,0.4-0.3,0.5-0.4
		V98.2z M90.9,96.6c0-0.2-0.3-0.6-1.1-0.9c-1-0.4-2.6-0.7-4.2-0.7c-1.3,0-2.6,0.2-3.6,0.5c-1.3,0.4-1.6,0.9-1.6,1.1c0,0,0,0,0,0
		c0,0,0,0,0,0c0,0,0,0.1,0,0.1c0,0,0,0,0,0c0,0,0,0.1,0.1,0.1c0,0,0,0,0,0l0,0c0,0,0,0,0,0c0,0,0.1,0.1,0.1,0.1c0,0,0,0,0.1,0
		c0,0,0.1,0.1,0.1,0.1c0,0,0,0,0,0c0.2,0.1,0.4,0.2,0.6,0.3c0.5,0.2,1.1,0.4,1.9,0.5c0.2,0,0.4,0.1,0.5,0.1c0.1,0,0.2,0,0.3,0
		c0.2,0,0.4,0,0.6,0c0.3,0,0.6,0,0.9,0c0.4,0,0.8,0,1.2-0.1c0.1,0,0.3,0,0.4,0c0,0,0,0,0,0c0.1,0,0.3,0,0.4-0.1c0.1,0,0.1,0,0.2,0
		c0.2,0,0.5-0.1,0.7-0.1c0,0,0,0,0,0c0.1,0,0.3-0.1,0.4-0.1l0,0l0.2-0.1c0.1,0,0.3-0.1,0.4-0.1c0.2-0.1,0.3-0.1,0.5-0.2
		c0.1,0,0.1-0.1,0.1-0.1c0,0,0.1,0,0.1-0.1l0,0c0,0,0,0,0,0c0,0,0,0,0.1,0c0,0,0,0,0,0c0,0,0,0,0,0c0,0,0,0,0,0c0,0,0,0,0,0
		c0,0,0.1,0,0.1-0.1c0,0,0,0,0.1-0.1c0,0,0,0,0,0l0,0c0,0,0.1-0.1,0.1-0.1c0,0,0,0,0-0.1C90.8,96.7,90.8,96.7,90.9,96.6
		C90.9,96.7,90.9,96.7,90.9,96.6C90.9,96.6,90.9,96.6,90.9,96.6z M91.9,104.4C91.9,104.4,91.9,104.4,91.9,104.4
		C91.9,104.4,91.9,104.4,91.9,104.4v2.1c0,0,0,0.1,0,0.1c-0.1,0.5-0.5,1.4-2.4,2c-1.1,0.3-2.5,0.5-3.9,0.5c-1.8,0-3.4-0.3-4.6-0.8
		c-1.3-0.6-1.6-1.2-1.7-1.7c0,0,0-0.1,0-0.1v-2.1c0,0,0,0,0-0.1c0-0.1,0-0.1,0-0.2c0.3,0.3,0.8,0.6,1.4,0.8c0.1,0.1,0.3,0.1,0.5,0.2
		c0.1,0,0.2,0.1,0.3,0.1c0.5,0.2,1.1,0.4,1.9,0.5c0.2,0,0.4,0.1,0.5,0.1c0.1,0,0.2,0,0.3,0c0.2,0,0.4,0,0.6,0c0.3,0,0.6,0,0.9,0
		c0.4,0,0.8,0,1.2-0.1c0.1,0,0.3,0,0.4,0c0,0,0,0,0,0c0.1,0,0.3,0,0.4-0.1c0.1,0,0.1,0,0.2,0c0.2,0,0.5-0.1,0.7-0.1c0,0,0,0,0,0
		c0.1,0,0.3-0.1,0.4-0.1l0,0l0.2-0.1c0.1,0,0.3-0.1,0.4-0.1c0.2-0.1,0.3-0.1,0.4-0.2c0.8-0.3,1.4-0.7,1.8-1
		C91.9,104.3,91.9,104.3,91.9,104.4z M81,106.5c-0.1,0-0.2-0.1-0.3-0.1c0,0-0.1,0-0.1-0.1c0,0-0.1,0-0.1,0v0.8
		c0.1,0.1,0.3,0.3,0.5,0.4V106.5z M82.2,106.9c-0.2,0-0.3-0.1-0.5-0.1v1c0.2,0.1,0.3,0.1,0.5,0.2V106.9z M83.5,106.9
		c-0.1,0-0.2,0-0.3,0c-0.1,0-0.2,0-0.2,0v1c0.2,0,0.3,0.1,0.5,0.1V106.9z M84.7,107c-0.2,0-0.3,0-0.5,0v1c0.2,0,0.3,0,0.5,0V107z
		 M85.9,107c-0.1,0-0.2,0-0.2,0c-0.1,0-0.2,0-0.3,0v1c0.1,0,0.2,0,0.3,0c0.1,0,0.2,0,0.2,0V107z M87.1,107c0,0-0.1,0-0.1,0
		c0,0,0,0,0,0h0c0,0,0,0,0,0c-0.1,0-0.2,0-0.4,0v1c0.2,0,0.3,0,0.5,0V107z M88.3,106.8c-0.1,0-0.1,0-0.2,0c0,0,0,0,0,0
		c-0.1,0-0.2,0-0.3,0c0,0-0.1,0-0.1,0v1c0.2,0,0.3-0.1,0.5-0.1V106.8z M89.5,106.5C89.5,106.5,89.5,106.5,89.5,106.5l-0.2,0.1
		c-0.1,0-0.2,0-0.3,0.1v1c0.1,0,0.1,0,0.2-0.1c0.1,0,0.2-0.1,0.3-0.1V106.5z M90.8,106c0,0-0.1,0.1-0.1,0.1c0,0,0,0,0,0
		c-0.1,0.1-0.2,0.1-0.4,0.2v0.9c0.3-0.1,0.4-0.3,0.5-0.4V106z M88.1,96.7c0,0.2-0.2,0.3-0.6,0.4c-0.4,0.1-0.9,0.2-1.5,0.2v0.2
		c0,0,0,0,0,0l-0.1,0c0,0-0.1,0-0.1,0h-0.4c-0.1,0-0.1,0-0.1,0l-0.1,0c0,0,0,0,0,0v-0.2c-0.6,0-1.2,0-1.8-0.1c0,0-0.1,0-0.1,0l0,0
		c0,0,0,0,0,0c0.1-0.1,0.1-0.2,0.1-0.4c0,0,0,0,0.1,0l0.1,0c0,0,0.1,0,0.1,0h0.3c0,0,0.1,0,0.1,0l0.1,0c0,0,0.1,0,0.1,0l0,0.1
		c0,0,0,0.1,0.1,0.1c0.2,0.1,0.6,0.1,1,0.1v-0.5c-0.6,0-1.1-0.1-1.4-0.1c-0.4-0.1-0.6-0.2-0.6-0.4c0-0.2,0.3-0.4,1-0.5
		c0.3,0,0.6-0.1,1-0.1v-0.1c0,0,0,0,0,0l0.1,0c0,0,0.1,0,0.1,0h0.4c0,0,0.1,0,0.1,0l0.1,0c0,0,0.1,0,0.1,0v0.1c0.6,0,1.1,0,1.6,0.1
		c0,0,0.1,0,0.1,0l0,0c0,0,0,0,0,0c0,0-0.1,0.1-0.1,0.2l0,0.1c0,0,0,0-0.1,0l-0.1,0c0,0-0.1,0-0.1,0H87c0,0-0.1,0-0.1,0l-0.1,0
		c0,0-0.1,0-0.1,0c0,0,0-0.1,0-0.1c0-0.1,0-0.1,0-0.1c-0.2-0.1-0.4-0.1-0.8-0.1v0.5c0.6,0,1.1,0.1,1.4,0.1
		C87.9,96.4,88.1,96.6,88.1,96.7z M85.2,95.8c-0.4,0-0.6,0.1-0.6,0.2c0,0.1,0.2,0.2,0.6,0.2V95.8z M87,96.9c0-0.1-0.2-0.2-0.6-0.2
		v0.5c0.2,0,0.3,0,0.4-0.1C86.9,97,87,96.9,87,96.9z M78.1,104.4C78.1,104.4,78.1,104.4,78.1,104.4
		C78.1,104.4,78.1,104.4,78.1,104.4v2.1c0,0,0,0.1,0,0.1c-0.1,0.5-0.5,1.4-2.4,2c-1.1,0.3-2.5,0.5-3.9,0.5c-1.8,0-3.4-0.3-4.6-0.8
		c-1.3-0.6-1.6-1.2-1.7-1.7c0,0,0-0.1,0-0.1v-2.1c0,0,0,0,0-0.1c0-0.1,0-0.1,0-0.2c0.3,0.3,0.8,0.6,1.4,0.8c0.1,0.1,0.3,0.1,0.5,0.2
		c0.1,0,0.2,0.1,0.3,0.1c0.5,0.2,1.1,0.4,1.9,0.5c0.2,0,0.4,0.1,0.5,0.1c0.1,0,0.2,0,0.3,0c0.2,0,0.4,0,0.6,0c0.3,0,0.6,0,0.9,0
		c0.4,0,0.8,0,1.2-0.1c0.1,0,0.3,0,0.4,0c0,0,0,0,0,0c0.1,0,0.3,0,0.4-0.1c0.1,0,0.1,0,0.2,0c0.2,0,0.5-0.1,0.7-0.1c0,0,0,0,0,0
		c0.1,0,0.3-0.1,0.4-0.1l0,0l0.2-0.1c0.1,0,0.3-0.1,0.4-0.1c0.2-0.1,0.3-0.1,0.4-0.2c0.8-0.3,1.4-0.7,1.8-1
		C78.1,104.3,78.1,104.3,78.1,104.4z M67.2,106.5c-0.1,0-0.2-0.1-0.3-0.1c0,0-0.1,0-0.1-0.1c0,0-0.1,0-0.1,0v0.8
		c0.1,0.1,0.3,0.3,0.5,0.4V106.5z M68.4,106.9c-0.2,0-0.3-0.1-0.5-0.1v1c0.2,0.1,0.3,0.1,0.5,0.2V106.9z M69.7,106.9
		c-0.1,0-0.2,0-0.3,0c-0.1,0-0.2,0-0.2,0v1c0.2,0,0.3,0.1,0.5,0.1V106.9z M70.9,107c-0.2,0-0.3,0-0.5,0v1c0.2,0,0.3,0,0.5,0V107z
		 M72.1,107c-0.1,0-0.2,0-0.2,0c-0.1,0-0.2,0-0.3,0v1c0.1,0,0.2,0,0.3,0c0.1,0,0.2,0,0.2,0V107z M73.3,107c0,0-0.1,0-0.1,0
		c0,0,0,0,0,0h0c0,0,0,0,0,0c-0.1,0-0.2,0-0.4,0v1c0.2,0,0.3,0,0.5,0V107z M74.5,106.8c-0.1,0-0.1,0-0.2,0c0,0,0,0,0,0
		c-0.1,0-0.2,0-0.3,0c0,0-0.1,0-0.1,0v1c0.2,0,0.3-0.1,0.5-0.1V106.8z M75.7,106.5C75.7,106.5,75.7,106.5,75.7,106.5l-0.2,0.1
		c-0.1,0-0.2,0-0.3,0.1v1c0.1,0,0.1,0,0.2-0.1c0.1,0,0.2-0.1,0.3-0.1V106.5z M77,106c0,0-0.1,0.1-0.1,0.1c0,0,0,0,0,0
		c-0.1,0.1-0.2,0.1-0.4,0.2v0.9c0.3-0.1,0.4-0.3,0.5-0.4V106z M74.3,92.8c0,0.2-0.2,0.3-0.6,0.4c-0.4,0.1-0.9,0.2-1.5,0.2v0.2
		c0,0,0,0,0,0l-0.1,0c0,0-0.1,0-0.1,0h-0.4c-0.1,0-0.1,0-0.1,0l-0.1,0c0,0,0,0,0,0v-0.2c-0.6,0-1.2,0-1.8-0.1c0,0-0.1,0-0.1,0l0,0
		c0,0,0,0,0,0c0.1-0.1,0.1-0.2,0.1-0.4c0,0,0,0,0.1,0l0.1,0c0,0,0.1,0,0.1,0h0.3c0,0,0.1,0,0.1,0l0.1,0c0,0,0.1,0,0.1,0l0,0.1
		c0,0,0,0.1,0.1,0.1c0.2,0.1,0.6,0.1,1,0.1v-0.5c-0.6,0-1.1-0.1-1.4-0.1c-0.4-0.1-0.6-0.2-0.6-0.4c0-0.2,0.3-0.4,1-0.5
		c0.3,0,0.6-0.1,1-0.1v-0.1c0,0,0,0,0,0l0.1,0c0,0,0.1,0,0.1,0H72c0,0,0.1,0,0.1,0l0.1,0c0,0,0.1,0,0.1,0v0.1c0.6,0,1.1,0,1.6,0.1
		c0,0,0.1,0,0.1,0l0,0c0,0,0,0,0,0c0,0-0.1,0.1-0.1,0.2l0,0.1c0,0,0,0-0.1,0l-0.1,0c0,0-0.1,0-0.1,0h-0.3c0,0-0.1,0-0.1,0l-0.1,0
		c0,0-0.1,0-0.1,0c0,0,0-0.1,0-0.1c0-0.1,0-0.1,0-0.1c-0.2-0.1-0.4-0.1-0.8-0.1v0.5c0.6,0,1.1,0.1,1.4,0.1
		C74.1,92.5,74.3,92.6,74.3,92.8z M71.4,91.8c-0.4,0-0.6,0.1-0.6,0.2c0,0.1,0.2,0.2,0.6,0.2V91.8z M73.2,92.9c0-0.1-0.2-0.2-0.6-0.2
		v0.5c0.2,0,0.3,0,0.4-0.1C73.1,93,73.2,93,73.2,92.9z M91.9,100.4C91.9,100.4,91.9,100.4,91.9,100.4
		C91.9,100.4,91.9,100.4,91.9,100.4v2.1c0,0,0,0.1,0,0.1c-0.1,0.5-0.5,1.4-2.4,2c-1.1,0.3-2.5,0.5-3.9,0.5c-1.8,0-3.4-0.3-4.6-0.8
		c-1.3-0.6-1.6-1.2-1.7-1.7c0,0,0-0.1,0-0.1v-2.1c0,0,0,0,0,0c0.3,0.3,0.8,0.6,1.4,0.9c0.1,0.1,0.3,0.1,0.5,0.2
		c0.1,0,0.2,0.1,0.3,0.1c0.5,0.2,1.1,0.4,1.9,0.5c0.2,0,0.4,0.1,0.5,0.1c0.1,0,0.2,0,0.3,0c0.2,0,0.4,0,0.6,0c0.3,0,0.6,0,0.9,0
		c0.4,0,0.8,0,1.2-0.1c0.1,0,0.3,0,0.4,0c0,0,0,0,0,0c0.1,0,0.3,0,0.4-0.1c0.1,0,0.1,0,0.2,0c0.2,0,0.5-0.1,0.7-0.1c0,0,0,0,0,0
		c0.1,0,0.3-0.1,0.4-0.1l0,0l0.2-0.1c0.1,0,0.3-0.1,0.4-0.1c0.2-0.1,0.3-0.1,0.4-0.2C90.9,101.1,91.5,100.7,91.9,100.4
		C91.9,100.4,91.9,100.4,91.9,100.4z M81,102.5c-0.1,0-0.2-0.1-0.3-0.1c0,0-0.1,0-0.1-0.1c0,0-0.1,0-0.1,0v0.8
		c0.1,0.1,0.3,0.3,0.5,0.4V102.5z M82.2,102.9c-0.2,0-0.3-0.1-0.5-0.1v1c0.2,0.1,0.3,0.1,0.5,0.2V102.9z M83.5,102.8
		c-0.1,0-0.2,0-0.3,0c-0.1,0-0.2,0-0.2,0v1c0.2,0,0.3,0.1,0.5,0.1V102.8z M84.7,103c-0.2,0-0.3,0-0.5,0v1c0.2,0,0.3,0,0.5,0V103z
		 M85.9,103c-0.1,0-0.2,0-0.2,0c-0.1,0-0.2,0-0.3,0v1c0.1,0,0.2,0,0.3,0c0.1,0,0.2,0,0.2,0V103z M87.1,102.9c0,0-0.1,0-0.1,0
		c0,0,0,0,0,0l0,0c0,0,0,0,0,0c-0.1,0-0.2,0-0.4,0v1c0.2,0,0.3,0,0.5,0V102.9z M88.3,102.8c-0.1,0-0.1,0-0.2,0c0,0,0,0,0,0
		c-0.1,0-0.2,0-0.3,0c0,0-0.1,0-0.1,0v1c0.2,0,0.3-0.1,0.5-0.1V102.8z M89.5,102.5C89.5,102.5,89.5,102.5,89.5,102.5l-0.2,0.1
		c-0.1,0-0.2,0-0.3,0.1v1c0.1,0,0.1,0,0.2-0.1c0.1,0,0.2-0.1,0.3-0.1V102.5z M90.8,101.9c0,0-0.1,0.1-0.1,0.1c0,0,0,0,0,0
		c-0.1,0.1-0.2,0.1-0.4,0.2v0.9c0.3-0.1,0.4-0.3,0.5-0.4V101.9z M78.1,96.3C78.1,96.3,78.1,96.3,78.1,96.3
		C78.1,96.3,78.1,96.3,78.1,96.3v2.1c0,0,0,0.1,0,0.1c-0.1,0.5-0.5,1.4-2.4,2c-1.1,0.3-2.5,0.5-3.9,0.5c-1.8,0-3.4-0.3-4.6-0.8
		c-1.3-0.6-1.6-1.2-1.7-1.7c0,0,0-0.1,0-0.1v-2.1c0,0,0,0,0,0c0.3,0.3,0.8,0.6,1.4,0.9c0.1,0.1,0.3,0.1,0.5,0.2
		c0.1,0,0.2,0.1,0.3,0.1c0.5,0.2,1.1,0.4,1.9,0.5c0.2,0,0.4,0.1,0.5,0.1c0.1,0,0.2,0,0.3,0c0.2,0,0.4,0,0.6,0c0.3,0,0.6,0,0.9,0
		c0.4,0,0.8,0,1.2-0.1c0.1,0,0.3,0,0.4,0c0,0,0,0,0,0c0.1,0,0.3,0,0.4-0.1c0.1,0,0.1,0,0.2,0c0.2,0,0.5-0.1,0.7-0.1c0,0,0,0,0,0
		c0.1,0,0.3-0.1,0.4-0.1l0,0l0.2-0.1c0.1,0,0.3-0.1,0.4-0.1c0.2-0.1,0.3-0.1,0.4-0.2C77.1,97.1,77.7,96.7,78.1,96.3
		C78.1,96.3,78.1,96.3,78.1,96.3z M67.2,98.4c-0.1,0-0.2-0.1-0.3-0.1c0,0-0.1,0-0.1-0.1c0,0-0.1,0-0.1,0v0.8
		c0.1,0.1,0.3,0.3,0.5,0.4V98.4z M68.4,98.8c-0.2,0-0.3-0.1-0.5-0.1v1c0.2,0.1,0.3,0.1,0.5,0.2V98.8z M69.7,98.8c-0.1,0-0.2,0-0.3,0
		c-0.1,0-0.2,0-0.2,0v1c0.2,0,0.3,0.1,0.5,0.1V98.8z M70.9,98.9c-0.2,0-0.3,0-0.5,0v1c0.2,0,0.3,0,0.5,0V98.9z M72.1,98.9
		c-0.1,0-0.2,0-0.2,0c-0.1,0-0.2,0-0.3,0v1c0.1,0,0.2,0,0.3,0c0.1,0,0.2,0,0.2,0V98.9z M73.3,98.9c0,0-0.1,0-0.1,0c0,0,0,0,0,0h0
		c0,0,0,0,0,0c-0.1,0-0.2,0-0.4,0v1c0.2,0,0.3,0,0.5,0V98.9z M74.5,98.7c-0.1,0-0.1,0-0.2,0c0,0,0,0,0,0c-0.1,0-0.2,0-0.3,0
		c0,0-0.1,0-0.1,0v1c0.2,0,0.3-0.1,0.5-0.1V98.7z M75.7,98.4C75.7,98.4,75.7,98.4,75.7,98.4l-0.2,0.1c-0.1,0-0.2,0-0.3,0.1v1
		c0.1,0,0.1,0,0.2-0.1c0.1,0,0.2-0.1,0.3-0.1V98.4z M77,97.9c0,0-0.1,0.1-0.1,0.1c0,0,0,0,0,0c-0.1,0.1-0.2,0.1-0.4,0.2v0.9
		c0.3-0.1,0.4-0.3,0.5-0.4V97.9z M78.1,100.4C78.1,100.4,78.1,100.4,78.1,100.4C78.1,100.4,78.1,100.4,78.1,100.4v2.1
		c0,0,0,0.1,0,0.1c-0.1,0.5-0.5,1.4-2.4,2c-1.1,0.3-2.5,0.5-3.9,0.5c-1.8,0-3.4-0.3-4.6-0.8c-1.3-0.6-1.6-1.2-1.7-1.7
		c0,0,0-0.1,0-0.1v-2.1c0,0,0,0,0-0.1c0-0.1,0-0.1,0-0.2c0.3,0.3,0.8,0.6,1.4,0.8c0.1,0.1,0.3,0.1,0.5,0.2c0.1,0,0.2,0.1,0.3,0.1
		c0.5,0.2,1.1,0.4,1.9,0.5c0.2,0,0.4,0.1,0.5,0.1c0.1,0,0.2,0,0.3,0c0.2,0,0.4,0,0.6,0c0.3,0,0.6,0,0.9,0c0.4,0,0.8,0,1.2-0.1
		c0.1,0,0.3,0,0.4,0c0,0,0,0,0,0c0.1,0,0.3,0,0.4-0.1c0.1,0,0.1,0,0.2,0c0.2,0,0.5-0.1,0.7-0.1c0,0,0,0,0,0c0.1,0,0.3-0.1,0.4-0.1
		l0,0l0.2-0.1c0.1,0,0.3-0.1,0.4-0.1c0.2-0.1,0.3-0.1,0.4-0.2c0.8-0.3,1.4-0.7,1.8-1C78.1,100.2,78.1,100.3,78.1,100.4z M67.2,102.5
		c-0.1,0-0.2-0.1-0.3-0.1c0,0-0.1,0-0.1-0.1c0,0-0.1,0-0.1,0v0.8c0.1,0.1,0.3,0.3,0.5,0.4V102.5z M68.4,102.9
		c-0.2,0-0.3-0.1-0.5-0.1v1c0.2,0.1,0.3,0.1,0.5,0.2V102.9z M69.7,102.8c-0.1,0-0.2,0-0.3,0c-0.1,0-0.2,0-0.2,0v1
		c0.2,0,0.3,0.1,0.5,0.1V102.8z M70.9,103c-0.2,0-0.3,0-0.5,0v1c0.2,0,0.3,0,0.5,0V103z M72.1,103c-0.1,0-0.2,0-0.2,0
		c-0.1,0-0.2,0-0.3,0v1c0.1,0,0.2,0,0.3,0c0.1,0,0.2,0,0.2,0V103z M73.3,102.9c0,0-0.1,0-0.1,0c0,0,0,0,0,0h0c0,0,0,0,0,0
		c-0.1,0-0.2,0-0.4,0v1c0.2,0,0.3,0,0.5,0V102.9z M74.5,102.8c-0.1,0-0.1,0-0.2,0c0,0,0,0,0,0c-0.1,0-0.2,0-0.3,0c0,0-0.1,0-0.1,0v1
		c0.2,0,0.3-0.1,0.5-0.1V102.8z M75.7,102.5C75.7,102.5,75.7,102.5,75.7,102.5l-0.2,0.1c-0.1,0-0.2,0-0.3,0.1v1c0.1,0,0.1,0,0.2-0.1
		c0.1,0,0.2-0.1,0.3-0.1V102.5z M77,101.9c0,0-0.1,0.1-0.1,0.1c0,0,0,0,0,0c-0.1,0.1-0.2,0.1-0.4,0.2v0.9c0.3-0.1,0.4-0.3,0.5-0.4
		V101.9z"/>
	<path class="st1" d="M138.7,65.2l-8.4,1.2c-1.4,0.2-1.9,1.8-0.9,2.8l1.9,1.9l-6.8,6.8l-11.1-8.4c-1-0.8-2.5-0.8-3.5,0.1L92.2,84.1
		c-1.2,1-1.4,2.7-0.4,3.9c0.6,0.7,1.4,1,2.2,1c0.6,0,1.3-0.2,1.8-0.6l16-13.2l11.3,8.6c1.1,0.8,2.7,0.7,3.7-0.3l8.5-8.5l1.3,1.3
		c1,1,2.6,0.4,2.8-0.9l1.2-8.4C140.8,66,139.8,65,138.7,65.2z"/>
</g>
</svg>
