<?xml version="1.0" encoding="utf-8"?>
<!-- Generator: Adobe Illustrator 25.4.1, SVG Export Plug-In . SVG Version: 6.00 Build 0)  -->
<svg version="1.1" id="圖層_1" xmlns="http://www.w3.org/2000/svg" xmlns:xlink="http://www.w3.org/1999/xlink" x="0px" y="0px"
	 viewBox="0 0 170 120" style="enable-background:new 0 0 170 120;" xml:space="preserve">
<style type="text/css">
	.st0{fill:#47773D;}
	.st1{fill:#FFFFFF;}
</style>
<g>
	<rect class="st0" width="170" height="120"/>
</g>
<g>
	<path class="st1" d="M12.4,17.3l-4.9,2.1V17l5.8-2h2.4v23.5h-3.1V17.3H12.4z"/>
	<path class="st1" d="M22.8,26.7c-0.4,0-0.9,0-1.4,0.1v-2.2c3.6-0.3,6-2.5,6-4.7c0-2-1.3-3.6-3.7-3.6c-2.4,0-4,1-5.3,2v-2.6
		c0.7-0.4,2.8-1.2,5.9-1.2c4.9,0,6.5,2.2,6.5,5.3c0,3.1-3,4.7-5.1,5.4v0.2c2.8,0.1,6.2,2.1,6.2,6c0,5.9-4.4,7.3-9,7.4
		c-1.5,0-3.5-0.2-4.8-0.6l-0.2-1.6c1.4,0.4,3.1,0.5,4.3,0.5c4.1-0.2,6.3-1.4,6.3-5.5C28.5,28.6,25.4,26.7,22.8,26.7z"/>
</g>
<g>
	<path class="st1" d="M52.8,29.6c-2.2-0.5-2.3-5.2-2.3-8.7h-8.8v-0.9c-0.4,0.3-0.7,0.5-1.1,0.7L40.2,20c1.5-1.5,2.5-3.2,3.2-5.3
		l2.1,0.6c-0.1,0.3-0.3,0.7-0.5,1h8.4v1h-9c-0.7,1-1.5,1.9-2.5,2.7h10.7c0,2.5,0.1,7,0.6,7.5c0.3,0.3,0.3-0.2,0.3-2.2h0.8
		C55,28.8,54.1,30.1,52.8,29.6z M46.8,25.6c1.4,0.5,3.1,1.3,4,1.9L49.7,29c-0.9-0.8-1.9-1.7-2.9-2.5v3.2h-1.9v-3
		c-1,0.9-2.7,2-4.2,2.4l-0.3-0.7c1.5-0.8,3-2,4-3.3h-3.4v-0.9h2.2c-0.5-0.9-1-1.8-1.5-2.5l0.6-0.5c0.8,0.5,1.7,1.4,2.3,2.1l-1.2,1
		h1.6v-3h1.9v3h0.9l-0.6-0.5c0.4-0.7,0.9-1.7,1.3-2.6L50,22c-0.6,0.8-1.6,1.8-2.3,2.3h2.6v0.9h-3.5V25.6z M43.8,19v-0.9H52V19H43.8z
		"/>
	<path class="st1" d="M59.3,18.8v11h-1.9v-7.4c-0.3,0.4-0.6,0.8-0.9,1.2L55.9,23c1.4-2.5,2.1-5.9,2.4-8.1l2,0.4
		C60,16.3,59.8,17.5,59.3,18.8z M61.6,27.9H60V17.5h1.6V27.9z M70.6,28l-1.2,2c-1.3-0.8-2.6-2.3-3.2-4.3c-0.9,2.4-2.7,3.6-5.2,4.2
		l-0.3-0.8c2.3-1,3.3-2.3,3.8-4.1h-2.6v-1h2.8c0.1-0.6,0.1-1.3,0.1-2.1H64c-0.5,0.7-1.1,1.4-1.7,1.8l-0.6-0.6c0.6-0.9,1.3-2.6,1.6-4
		H62v-1h4.7c0.1-0.6,0.2-1.2,0.2-1.7h-4.3v-1h4.2l0.4-0.4l1.8,0.5c-0.1,0.8-0.3,1.7-0.4,2.6h1.7v1h-6.6l1.7,0.4
		c-0.2,0.5-0.4,0.9-0.6,1.3h4.9v1h-2.6c0,0.8-0.1,1.5-0.2,2.1h3.5v1h-3.2C67.8,26.7,69.3,27.5,70.6,28z"/>
	<path class="st1" d="M78.1,19c-0.5,0.9-1.2,1.7-1.8,2.5v8.3h-2v-6.4c-0.7,0.5-1.3,1-1.9,1.3L71.9,24c1.8-1.5,3.3-3.7,4.4-6L78.1,19
		z M72.7,20.3l-0.5-0.7c1.5-1.4,2.6-3.2,3.4-4.9l1.8,0.9C76.2,17.5,74.5,19.2,72.7,20.3z M86.5,21h-2.6v6.9c0,2-1.7,2.6-5,1.1
		l0.2-0.8c2.4,0.4,2.7,0.2,2.7-0.8V21h-3.6v-1h8.3V21z M85.8,17.1H79v-1h6.8V17.1z"/>
	<path class="st1" d="M101.8,18.6c-0.1,4.5-0.2,7.3-0.4,9.2c-0.2,1.6-1.6,2.4-4.1,0.9l0.3-0.8c1.8,0.4,2,0.2,2-0.8
		c0.1-1.5,0.3-4.2,0.3-7.5h-1c-0.2,5.1-1,8.3-3.8,10.3l-0.6-0.6c0.4-0.5,0.8-1,1.1-1.6c-2,0.8-4.7,1.4-7.2,1.7l-0.4-1.8
		c1.1,0,2.2-0.1,3.2-0.2v-1.1h-2.9v-0.9h2.9v-0.9h-2.6v-4.8h2.6v-0.8h-3.2v-0.9h3.2v-0.8c-1,0.1-2,0.1-2.9,0.1l-0.1-0.8
		c2.4-0.2,4.8-0.8,6.5-1.3l1.3,1.4c-0.8,0.2-1.8,0.4-2.8,0.5v0.9h3v0.9h0.8c0-1.1,0-2.3,0-3.6H99c0,1.3,0,2.5,0,3.6H101.8z
		 M90.4,21.4h1v-1h-1V21.4z M91.4,23.4v-1h-1v1H91.4z M94.2,21.4v-1h-1.1v1H94.2z M93.2,22.3v1h1.1v-1H93.2z M97.1,19.5h-1v-0.9
		h-2.8v0.8h2.6v4.8h-2.6v0.9h2.7v0.9h-2.7v0.9c0.9-0.1,1.8-0.2,2.5-0.4l0.1,0.4C96.7,25.4,97,23,97.1,19.5z"/>
</g>
<g>
	<path class="st1" d="M133.8,90.9C123,90.8,112,92.9,68.5,94c-12.1,0.3-23.9-2.5-35-4.9c-2.3-0.5-4.6-1-7-1.5
		c0.9,3.3,3.1,6.3,6.4,9.1c0,0,0,0,0,0c1.5,1.2,3.1,2.4,5,3.4c0,0,0,0-0.1,0c9.6,5.6,24.4,9.2,41,9.5c0,0,0.1,0,0.1,0
		c0.3,0,0.6,0,0.9,0c0,0,0.1,0,0.1,0c0.3,0,0.6,0,0.9,0c0,0,0,0,0,0c0,0,0,0,0,0c0,0,0,0,0.1,0c0.3,0,0.6,0,1,0c0.1,0,0.3,0,0.4,0
		c0.2,0,0.4,0,0.6,0c0.2,0,0.3,0,0.5,0c0.3,0,0.6,0,0.8,0c0.2,0,0.4,0,0.6,0c0.1,0,0.3,0,0.4,0c0.2,0,0.4,0,0.6,0c0.1,0,0.2,0,0.4,0
		c0.5,0,0.9,0,1.4-0.1c0,0,0,0,0,0c0.2,0,0.4,0,0.7,0c0.1,0,0.2,0,0.3,0c0.2,0,0.4,0,0.7,0c0.1,0,0.2,0,0.2,0c0.4,0,0.8-0.1,1.3-0.1
		c0.1,0,0.2,0,0.3,0c0.2,0,0.4,0,0.6-0.1c0.1,0,0.2,0,0.3,0c0.2,0,0.4,0,0.6-0.1c0.1,0,0.2,0,0.3,0c0.3,0,0.7-0.1,1-0.1
		c0.2,0,0.3,0,0.5-0.1c0.2,0,0.3,0,0.5-0.1c0.2,0,0.4,0,0.6-0.1c0.1,0,0.3,0,0.4,0c0.3,0,0.6-0.1,0.9-0.1c0.1,0,0.2,0,0.3,0
		c0.2,0,0.5-0.1,0.7-0.1c0.1,0,0.2,0,0.3,0c0.7-0.1,1.4-0.2,2-0.3c0,0,0,0,0,0c10.4-1.8,19.4-5,25.6-9.1c0,0-0.1,0-0.1,0
		C129.4,96.5,132.2,93.8,133.8,90.9z"/>
	<g>
		<g>
			<g>
				<path class="st1" d="M51.1,68.8v18.6C51.1,87.4,39.1,78,51.1,68.8z"/>
				<path class="st1" d="M51,68.8v18.6C51,87.4,63.1,78,51,68.8z"/>
			</g>
			<polygon class="st1" points="50.9,75.5 51.9,94.3 49.7,94.3 			"/>
		</g>
	</g>
	<g>
		<g>
			<g>
				<path class="st1" d="M107.8,66.7v20.3C107.8,86.9,94.7,76.7,107.8,66.7z"/>
				<path class="st1" d="M107.7,66.7v20.3C107.7,86.9,120.8,76.7,107.7,66.7z"/>
			</g>
			<polygon class="st1" points="107.6,73.9 108.6,94.5 106.2,94.5 			"/>
		</g>
		<g>
			<g>
				<path class="st1" d="M113.6,82.3v8.9C113.6,91.2,107.8,86.7,113.6,82.3z"/>
				<path class="st1" d="M113.5,82.3v8.9C113.5,91.2,119.3,86.7,113.5,82.3z"/>
			</g>
			<polygon class="st1" points="113.5,85.5 113.9,94.5 112.9,94.5 			"/>
		</g>
	</g>
	<path class="st1" d="M47.9,59.7c-0.1,0-0.1,0-0.2,0c-0.3-0.6-0.9-1.1-1.6-1.2c-0.3-1.6-1.7-2.9-3.5-2.9c-1.4,0-2.6,0.8-3.2,2
		c-1.1,0.2-2,1-2.3,2.1c0,0,0,0,0,0c-0.9,0-1.7,0.8-1.7,1.7c0,0.9,0.8,1.7,1.7,1.7c0.4,0,0.9-0.2,1.2-0.5c0.4,0.3,1,0.5,1.6,0.5
		c0.7,0,1.3-0.3,1.8-0.7c0,0,0,0,0,0c0.4,0.5,1.1,0.8,1.8,0.8c0.4,0,0.7-0.1,1-0.2c0.3,0.1,0.7,0.2,1,0.2c0.5,0,1-0.2,1.5-0.5
		c0.3,0.2,0.6,0.3,0.9,0.3c0.9,0,1.7-0.8,1.7-1.7C49.6,60.5,48.8,59.7,47.9,59.7z"/>
	<path class="st1" d="M72.8,82.6L72.8,82.6C72.8,82.6,72.8,82.6,72.8,82.6z"/>
	<path class="st1" d="M72.8,82.6L72.8,82.6C72.8,82.6,72.8,82.6,72.8,82.6z"/>
	<g>
		<g>
			<g>
				<path class="st1" d="M71.6,79.4c0,0,4.7-0.7,4.7-6.9c0,0-6.4,0.3-5.2,6.5c0,0,2.2-2.2,2.8-3.6C73.8,75.4,72.9,78.4,71.6,79.4z"
					/>
				<path class="st1" d="M70.3,79.2c0,0,1.1-4-3.9-6.2c0,0-2,5.2,3.3,6.5c0,0-1-2.6-1.9-3.5C67.9,76,70,77.9,70.3,79.2z"/>
			</g>
		</g>
		<g>
			<g>
				<g>
					<polygon class="st1" points="73.3,86.2 65.7,79 58.1,86.2 					"/>
					<path class="st1" d="M60.5,84.6v9.3h10.4v-9.3H60.5z M62.6,87.8h2.8v5.7h-2.8V87.8z"/>
					<rect x="68.9" y="81" class="st1" width="1.1" height="2.4"/>
				</g>
			</g>
		</g>
	</g>
	<path class="st1" d="M78,60.1v34.7H92V60.1H78z M84.2,89h-4.5v-6.8h4.5V89z M84.2,80.6h-4.5v-6.8h4.5V80.6z M84.2,72.2h-4.5v-6.8
		h4.5V72.2z M90.3,89h-4.5v-6.8h4.5V89z M90.3,80.6h-4.5v-6.8h4.5V80.6z M90.3,72.2h-4.5v-6.8h4.5V72.2z"/>
	<g>
		<path class="st1" d="M119.3,56c0-2.3-1.9-4.2-4.2-4.2c-2.3,0-4.2,1.9-4.2,4.2c0,2.3,1.9,4.2,4.2,4.2
			C117.4,60.1,119.3,58.3,119.3,56z"/>
		<g>
			<path class="st1" d="M115.3,66.1c0,0.1-0.1,0.2-0.2,0.2l0,0c-0.1,0-0.2-0.1-0.2-0.2v-5.3c0-0.1,0.1-0.2,0.2-0.2l0,0
				c0.1,0,0.2,0.1,0.2,0.2V66.1z"/>
			<path class="st1" d="M115.3,51.1c0,0.1-0.1,0.2-0.2,0.2l0,0c-0.1,0-0.2-0.1-0.2-0.2v-5.3c0-0.1,0.1-0.2,0.2-0.2l0,0
				c0.1,0,0.2,0.1,0.2,0.2V51.1z"/>
		</g>
		<g>
			<path class="st1" d="M105,56.1c-0.1,0-0.2-0.1-0.2-0.2l0,0c0-0.1,0.1-0.2,0.2-0.2h5.3c0.1,0,0.2,0.1,0.2,0.2l0,0
				c0,0.1-0.1,0.2-0.2,0.2H105z"/>
			<path class="st1" d="M119.9,56.1c-0.1,0-0.2-0.1-0.2-0.2l0,0c0-0.1,0.1-0.2,0.2-0.2h5.3c0.1,0,0.2,0.1,0.2,0.2l0,0
				c0,0.1-0.1,0.2-0.2,0.2H119.9z"/>
		</g>
		<g>
			<path class="st1" d="M108.1,63.2c-0.1,0.1-0.2,0.1-0.3,0l0,0c-0.1-0.1-0.1-0.2,0-0.3l3.8-3.8c0.1-0.1,0.2-0.1,0.3,0l0,0
				c0.1,0.1,0.1,0.2,0,0.3L108.1,63.2z"/>
			<path class="st1" d="M118.7,52.6c-0.1,0.1-0.2,0.1-0.3,0l0,0c-0.1-0.1-0.1-0.2,0-0.3l3.8-3.8c0.1-0.1,0.2-0.1,0.3,0l0,0
				c0.1,0.1,0.1,0.2,0,0.3L118.7,52.6z"/>
		</g>
		<g>
			<path class="st1" d="M107.8,48.9c-0.1-0.1-0.1-0.2,0-0.3l0,0c0.1-0.1,0.2-0.1,0.3,0l3.8,3.8c0.1,0.1,0.1,0.2,0,0.3l0,0
				c-0.1,0.1-0.2,0.1-0.3,0L107.8,48.9z"/>
			<path class="st1" d="M118.4,59.5c-0.1-0.1-0.1-0.2,0-0.3l0,0c0.1-0.1,0.2-0.1,0.3,0l3.8,3.8c0.1,0.1,0.1,0.2,0,0.3l0,0
				c-0.1,0.1-0.2,0.1-0.3,0L118.4,59.5z"/>
		</g>
	</g>
</g>
</svg>
