<?xml version="1.0" encoding="utf-8"?>
<!-- Generator: Adobe Illustrator 25.4.1, SVG Export Plug-In . SVG Version: 6.00 Build 0)  -->
<svg version="1.1" id="圖層_1" xmlns="http://www.w3.org/2000/svg" xmlns:xlink="http://www.w3.org/1999/xlink" x="0px" y="0px"
	 viewBox="0 0 170 120" style="enable-background:new 0 0 170 120;" xml:space="preserve">
<style type="text/css">
	.st03{fill:#2E9947;}
	.st1{fill:#FFFFFF;}
</style>
<g>
	<rect class="st03" width="170" height="120"/>
</g>
<g>
	<path class="st1" d="M14.1,26.7c-0.4,0-0.9,0-1.4,0.1v-2.2c3.6-0.3,6-2.5,6-4.7c0-2-1.3-3.6-3.7-3.6c-2.4,0-4,1-5.3,2v-2.6
		c0.7-0.4,2.8-1.2,5.9-1.2c4.9,0,6.5,2.2,6.5,5.3c0,3.1-3,4.7-5.1,5.4v0.2c2.8,0.1,6.2,2.1,6.2,6c0,5.9-4.4,7.3-9,7.4
		c-1.5,0-3.5-0.2-4.8-0.6l-0.2-1.6c1.4,0.4,3.1,0.5,4.3,0.5c4.1-0.2,6.3-1.4,6.3-5.5C19.8,28.6,16.7,26.7,14.1,26.7z"/>
</g>
<g>
	<path class="st1" d="M47.5,27L47,28.9c-0.8,0-1.6,0.1-2.3,0.1c-2.4,0-4.5-0.3-6-1.7c-0.5,0.9-1.1,1.6-1.8,2.1l-0.6-0.6
		c0.7-0.7,1.2-1.6,1.5-2.6c-0.6-0.9-1.1-2.2-1.3-3.8l0.7-0.2c0.3,1.1,0.6,1.9,1.1,2.6c0.3-1.2,0.4-2.4,0.5-3.8h-0.6l-0.3,0.8
		l-1.5-0.4c0.5-1.3,1.1-3,1.6-4.7h-1.2v-0.2c-0.1,0.5-0.3,1.1-0.5,1.7v11h-1.8v-7.3c-0.3,0.4-0.6,0.8-0.9,1.2l-0.6-0.6
		c1.4-2.4,2.1-5.8,2.4-8.2l1.9,0.3c-0.1,0.4-0.1,0.7-0.2,1.1h3c-0.4,1.4-0.9,2.8-1.4,4.2h0.2l0.3-0.3l1.4,0.4
		c-0.1,2.4-0.5,4.3-1.2,5.9c0.8,0.7,1.9,1,3.1,1.2v-2h-2.3v-1h2.3v-1h-1.8v-1h1.8v-1h-1.6v-1h1.6v-1.2h-2.5v-1h2.5v-1.1h-1.9v-1h1.9
		v-1.4h1.8v1.4h2.3v2h0.9v1h-0.9v2.2h-2.3v1h2.4v1h-2.4v1H47v1h-2.9v2.1C45.6,27.2,46.5,27.1,47.5,27z M44.1,18H45v-1.1h-0.8V18z
		 M44.1,20.2H45v-1.2h-0.8V20.2z"/>
	<path class="st1" d="M63.5,26.7l-1,2c-1.2-0.5-3.1-1.8-4.4-3.8v2.7c0,2-2,2.4-4.5,1l0.2-0.8c2,0.3,2.3,0.1,2.3-0.7v-1.3
		c-1.2,0.9-2.9,1.8-4,2.3l-0.8-1.8c-0.4,1.1-0.9,2.2-1.7,3.1l-0.7-0.5c1-2.2,1.1-3.9,1.1-8.9v-3.9H57c-0.9-0.4-1.8-0.8-2.5-1.1
		l0.2-0.8c1.2,0.1,2.8,0.3,4.2,0.8l-0.5,1.1h4.9v1h-5v1.1h3.5V20h1.5v0.9h-1.5v1.9h-3.5v0.5c0.4,0.6,0.9,1.1,1.5,1.5
		c0.5-0.5,1.1-1.1,1.7-1.9l1.4,1.3c-0.7,0.6-1.4,1-2.1,1.3C61.6,26,62.7,26.4,63.5,26.7z M56.2,24.8v-2.1h-3.3v-0.9h3.3v-0.9h-4.1
		c0,1.5-0.1,3.5-0.6,5.3C52.9,26,55,25.3,56.2,24.8L56.2,24.8z M52.1,17.1V20h4.1v-0.9H53v-0.9h3.2v-1.1H52.1z M52.6,22.9
		c0.8,0.2,1.9,0.6,2.8,1.1l-1,1.4c-0.7-0.6-1.5-1.2-2.2-1.7L52.6,22.9z M58.2,19.1V20h1.6v-0.9H58.2z M59.8,20.9h-1.6v1h1.6V20.9z"
		/>
	<path class="st1" d="M70.2,25.3l1.6,1c-1.6,1.4-4.4,2.7-6.5,3.1L65,28.7c1.9-0.9,3.5-2,4.7-3.3h-4.5v-1h1.2
		c-0.1-3.1-0.2-5.6-0.4-8.7l1.3,0.2c0.7-0.5,1.3-1,1.8-1.6l1.4,1.3c0-0.4,0.1-0.7,0.1-1.1l1.7,0.2c0,0.5-0.1,1.1-0.2,1.6h2.3v0.9
		h-2.4c-0.1,0.5-0.1,1-0.2,1.5h2.7c-0.1,2-0.3,4-0.5,5.7h2l0.1-2.3h-1.4v-0.9h1.5l0.1-1.9H75v-0.9h1.6l0.1-2.1h-1.8v-1h3.7L78,24.4
		h1.4v1H70.2z M68.2,24.4h1.6c0.2-1.4,0.3-2.5,0.5-3.8l1.6,0.3c-0.1,1.3-0.3,2.3-0.4,3.6h1c0.2-1.5,0.3-3.3,0.4-4.8h-1
		c0,0.2-0.1,0.4-0.1,0.7L70,20c0.2-1.4,0.4-3,0.6-4.5c-0.8,0.5-1.8,0.8-2.6,1.1c0,0.5,0,1,0.1,1.6h1.7v0.9h-1.7c0,0.6,0,1.3,0.1,1.9
		h1.6V22h-1.6C68.2,22.8,68.2,23.6,68.2,24.4z M79.7,27.5l-1.2,2c-1.6-1.2-3.5-2.4-5.3-3.4l0.4-0.8C75.8,25.8,77.6,26.5,79.7,27.5z"
		/>
	<path class="st1" d="M86.6,22.2h8.3v7.1H93v-0.8h-4.5v0.9h-1.9v-5.9l-0.9,0.7c-0.3-0.5-0.5-0.9-0.7-1.3v6.5H83v-5.9
		c-0.5,0.4-1.1,0.8-1.7,1.2l-0.4-0.7c2-1.7,3.1-3.7,3.6-5.4h-3.3v-1h2.1c-0.4-1-0.9-2-1.3-2.8l0.7-0.5c0.9,0.7,1.7,1.6,2.3,2.4
		l-1.5,0.9h1l0.4-0.4l1.7,0.8c-0.4,1.2-1,2.3-1.7,3.3c0.6,0.4,1.1,0.8,1.5,1.3V22.2z M94.9,15.4v1h-8.5v-1H94.9z M94.1,17.4V21h-6.8
		v-3.6H94.1z M88.5,24.8h1.3v-1.7h-1.3V24.8z M88.5,27.5h1.3v-1.8h-1.3V27.5z M92.2,18.4h-3v1.7h3V18.4z M91.6,24.8H93v-1.7h-1.4
		V24.8z M91.6,27.5H93v-1.8h-1.4V27.5z"/>
	<path class="st1" d="M111.4,27.9v1h-9.5v-1h1.5v-4.7l-1.3,1.1c-0.3-0.6-0.6-1.2-0.9-1.7v6.8h-2v-6c-0.6,0.5-1.3,0.9-2,1.2l-0.4-0.7
		c1.9-1.5,3.1-3.2,3.9-5.4h-3.6v-1h2.3c-0.3-0.9-0.8-2-1.2-2.8l0.7-0.4c0.7,0.5,1.6,1.5,2.2,2.5l-1.4,0.8h1l0.5-0.4l1.8,0.9
		c-0.5,1.2-1,2.1-1.6,3c0.7,0.5,1.4,1,2,1.7v-4.5h1.8v9.6h1.2V14.5h2v5.8h2.4v1h-2.4v6.6H111.4z"/>
</g>
<g>
	<g>
		<path class="st1" d="M60.5,57.7c-5.1-0.5-11.5,2.1-13.1,6.5c-1.4-4.4-9.2-7.3-14.3-7c-13.4,0.8-18.3,16-12.8,26.3
			c3,5.6,7.3,10.5,12,14.9c1.3,1.2,3.3,2.9,5.3,4.6c0,0,0,0,0,0c1.7,1.4,3.5,2.8,5,4c0.3-2.3,0.8-5.3,0.7-6
			c-0.2-1.6-0.9-3.2-2.1-4.3c-1.2-1.2-2.6-2.2-3.6-3.5c-0.5-0.6-0.8-1.2-1.3-1.9c-0.4-0.6-0.9-1.2-1.4-1.8c-1-1.2-2-2.3-3.1-3.5
			c-0.9-1-1.8-1.9-2.6-3c-0.5-0.7-1.1-1.7-0.4-2.5c0.5-0.6,1.2-0.9,2-0.6c0.8,0.4,1.5,1.1,2.2,1.7c0.8,0.8,1.5,1.7,2.3,2.6
			c0.5,0.5,0.9,1.2,1.5,1.6c1.1,0.7,2.9,0.7,3.8-0.3c0.7-0.8,0.6-1.9,0.3-2.9c-0.3-1.4-0.8-2.7-1.1-4.1c-0.6-2.7-1.1-5.4-1.2-8.1
			c0-0.8-0.1-1.6,0.1-2.4c0.1-0.5,0.5-0.7,0.9-0.9c1.8-0.8,2.4,1.6,2.6,2.9c0.2,1.7,0.4,3.3,0.9,4.9c0.3,1,0.8,2.1,1.5,2.9
			c0.2,0.2,0.5,0.7,0.7,0.3c0.2-0.5,0.1-1.2,0.2-1.8c0-0.8,0.2-1.6,0.2-2.4c0-0.9,0-1.8-0.1-2.7c-0.1-1.3-0.3-2.7,0-3.9
			c0.2-0.8,0.9-1.6,1.8-1.5c0.9,0.1,1.2,1.1,1.3,1.9c0.1,0.5,0.1,1,0.1,1.4c0,0.6,0,1.1,0,1.7c0,2.1,0,4.3,0.5,6.3
			c0.1,0.3,0.1,0.8,0.4,1c0.3,0.3,0.5-0.2,0.6-0.4c0.4-1.1,0.5-2.5,0.5-3.7c0-1.1,0.1-2.2,0-3.3c-0.1-1-0.1-2.3,0.5-3.1
			c0.5-0.6,1.4-0.6,1.9-0.1c0.6,0.6,0.7,1.6,0.7,2.4c0.2,2,0.1,4.2-0.2,6.2c-0.1,1-0.2,2-0.2,2.9c0,0.4-0.1,2,0.6,1.6
			c0.8-0.5,1.2-1.6,1.4-2.5c0.2-1.1,0.3-2.2,0.5-3.2c0.1-0.8,0.2-1.7,0.7-2.3c0.3-0.4,1-0.6,1.4-0.5c0.5,0.2,0.6,0.8,0.7,1.3
			c0.1,1.1,0,2.3,0,3.4c-0.1,2.6-0.3,5.1-0.8,7.7c-0.5,2.6-1,5.3-1.8,7.9c-0.3,1-0.6,2-1.1,3c-0.4,1-1.1,1.9-1.6,2.9
			c-0.1,0.3-0.3,0.7-0.3,1.1c0,0.5,0.2,0.9,0.3,1.4c0,0.1,0,0.3,0.1,0.4c0.1,0.5,0.3,1.9,0.5,3.1c2.7-2,5.4-4.1,7.1-5.5
			c4.9-4.2,9.4-8.9,12.6-14.4C79.5,74.4,73.9,59.1,60.5,57.7z"/>
		<path class="st1" d="M54.4,87.1c-1.5,0-3.1,0-4.6,0c-0.1,0-0.3,0-0.4,0c0-1.1,0-2.3,0-3.4c0-0.6,0-1.1,0-1.7
			c0-0.2-0.2-0.3-0.3-0.3c-1,0-1.9,0-2.9,0c-0.2,0-0.3,0.2-0.3,0.3c0,1.5,0,3.1,0,4.6c0,0.1,0,0.3,0,0.4c-1.1,0-2.3,0-3.4,0
			c-0.6,0-1.1,0-1.7,0c-0.2,0-0.3,0.2-0.3,0.3c0,1,0,1.9,0,2.9c0,0.1,0,0.2,0.1,0.2c0.1,0.1,0.1,0.1,0.2,0.1c1.5,0,3.1,0,4.6,0
			c0.1,0,0.3,0,0.4,0c0,1.1,0,2.3,0,3.4c0,0.6,0,1.1,0,1.7c0,0.2,0.2,0.3,0.3,0.3c1,0,1.9,0,2.9,0c0.1,0,0.2,0,0.2-0.1
			c0.1-0.1,0.1-0.1,0.1-0.2c0-1.5,0-3.1,0-4.6c0-0.1,0-0.3,0-0.4c1.1,0,2.3,0,3.4,0c0.6,0,1.1,0,1.7,0c0.2,0,0.3-0.2,0.3-0.3
			c0-1,0-1.9,0-2.9C54.8,87.3,54.6,87.1,54.4,87.1z"/>
	</g>
	<path class="st1" d="M152,80.4c-6.7,0.2-13.3,0.3-20,0.5c-0.6,0-1.1-0.4-1.2-0.9c-2-7.3-4-14.5-6-21.8c-0.2,0.7-0.5,1.4-0.7,2.1
		c-4.9,14.5-9.8,28.9-14.7,43.4c-0.4,1.2-2.1,1.1-2.5,0c-0.5-1.5-1.1-3.1-1.6-4.6c-3.4-9.8-6.8-19.5-10.3-29.3
		c-2.1,4-4.2,7.9-6.2,11.9c-0.2,0.4-0.7,0.6-1.1,0.6c-7.3,0-14.7,0-22.1,0c-1.7,0-1.7-2.4,0-2.4c7.1,0,14.2,0,21.2,0
		c2.4-4.6,4.8-9.3,7.3-13.9c0.5-1,2-0.6,2.4,0.3c0.5,1.5,1.1,3.1,1.6,4.6c3.3,9.5,6.7,19,10,28.6c0.3-0.8,0.6-1.7,0.9-2.5
		c4.9-14.5,9.8-28.9,14.7-43.4c0.4-1.1,2.2-1.2,2.5,0c2.3,8.3,4.6,16.6,6.9,24.9c6.3-0.2,12.7-0.3,19-0.5
		C153.7,77.9,153.7,80.3,152,80.4z"/>
</g>
</svg>
