<?xml version="1.0" encoding="utf-8"?>
<!-- Generator: Adobe Illustrator 25.4.1, SVG Export Plug-In . SVG Version: 6.00 Build 0)  -->
<svg version="1.1" id="圖層_1" xmlns="http://www.w3.org/2000/svg" xmlns:xlink="http://www.w3.org/1999/xlink" x="0px" y="0px"
	 viewBox="0 0 170 120" style="enable-background:new 0 0 170 120;" xml:space="preserve">
<style type="text/css">
	.st0{fill:#D09F29;}
	.st1{fill:#FFFFFF;}
</style>
<g>
	<rect class="st0" width="170" height="120"/>
</g>
<g>
	<path class="st1" d="M22,21.2c0,4.2-3.3,8.3-8.3,12.8l-2.1,2v0.2h11v2.1H7.6v-1.7l2.5-2.2c5.4-4.7,8.5-9.4,8.6-12.8
		c0.1-3.5-1.2-5.2-4.7-5.2c-2.3,0-4.4,1.2-5.8,2.4v-2.6c1.4-0.7,3.8-1.6,6.3-1.6C19.5,14.5,22,17,22,21.2z"/>
</g>
<g>
	<path class="st1" d="M35.1,20.4c-0.6-0.8-1.5-1.9-2.1-2.6l0.4-0.6c0.9,0.4,2.1,1.1,2.9,1.7L35.1,20.4z M35.8,20.7l0.7,0.2
		c-0.3,2-0.9,4.6-1.4,5.9l-1.9-0.9C34,24.5,35,22.5,35.8,20.7z M34,14.1c0.9,0.4,2.1,1.1,2.8,1.8l-1.3,1.3c-0.6-0.9-1.4-1.9-1.9-2.6
		L34,14.1z M38.4,18.1c-0.3-1-0.9-2.2-1.3-3.1l0.7-0.4c0.8,0.7,1.7,1.8,2.2,2.6L38.4,18.1z M42,18.2h2.8v7.3c0,1.5-1.1,2.3-3.8,1
		l0.1-0.7c1.7,0.2,1.9,0.1,1.9-0.6v-1.6h-4v3.5h-1.8v-8.9h2.9v-4H42V18.2z M43,19.1h-4v1.4h4V19.1z M43,22.7v-1.5h-4v1.5H43z
		 M42.9,18.1l-0.6-0.5c0.5-0.9,1-2,1.3-3.1l1.7,0.8C44.6,16.3,43.7,17.3,42.9,18.1z"/>
	<path class="st1" d="M49.2,23.8v3.3h-1.6V14.5l1.4,0.4h1.1l0.4-0.4l1.6,0.7c-0.7,1.9-1.4,3-2,3.8c1,1.1,1.6,2.1,1.6,3.3
		C51.7,23.9,50.7,24.6,49.2,23.8z M49.4,19c0.3-1,0.7-2.2,0.8-3.3h-1.1V23c0.8,0.1,1,0,1-1C50.2,21.1,50,20.2,49.4,19z M54,22.5
		c-0.7,1.5-2,3-3.2,3.8l-0.5-0.5c0.9-1,1.7-2.4,2.1-3.9L54,22.5z M58.6,21.6h-2.6v4c0,1.9-1.9,2.1-3.7,0.7l0.2-0.7
		c1.4,0.4,1.7,0.3,1.7-0.4v-3.6h-2.4v-0.8h2.4v-1.5h-1.6v-0.4c-0.5,0.4-1,0.7-1.5,1l-0.4-0.6c1.5-1.2,2.8-3.3,3.4-5.2l1.8,0.5
		c-0.1,0.2-0.2,0.4-0.2,0.5c1,1.3,2,2,4.1,2.9l-1,1.8c-0.4-0.2-0.9-0.5-1.3-0.9v0.5h-1.6v1.5h2.6V21.6z M57.1,18.4
		c-0.8-0.7-1.4-1.7-1.9-2.6c-0.6,1-1.3,1.9-2.2,2.6H57.1z M59.6,25.2l-1.5,1.1c-0.5-1.2-1.4-2.8-2-3.8l0.5-0.5
		C57.6,22.8,58.9,24.1,59.6,25.2z"/>
	<path class="st1" d="M72.8,26.7c-0.5,0.1-1.1,0.1-1.6,0c-0.9-0.1-1.1-0.5-1.1-1.7v-9.3h-1.1v5.2c0,3.6-1.1,5.2-3,6.3l-0.4-0.5
		c0.5-0.6,0.9-1,1.2-1.5l-0.8,0.5c-0.1-0.3-0.3-0.6-0.4-0.9c-1.1,0.8-2.7,1.6-3.8,1.9L61.1,25c0.3,0,0.6-0.1,1-0.2v-6.2
		c-0.3,0.2-0.5,0.4-0.8,0.5l-0.4-0.6c1.2-1.3,2.1-2.8,2.7-4.6l1.7,0.4L65,15c0.8,0.5,1.7,1.1,2.3,1.8v-1.9h4.4v9.8
		c0,0.4,0.1,0.5,0.4,0.5c0.5,0,0.5-0.2,0.5-2.2h0.7C74,25.7,73.7,26.5,72.8,26.7z M67.3,20.5v-3.7l-1.1,1c-0.5-0.8-1-1.5-1.5-2.1
		c-0.1,0.2-0.3,0.4-0.4,0.6c0.4,0.4,0.8,0.8,1.1,1.3l-1.1,0.7c-0.2-0.4-0.3-0.9-0.5-1.3c-0.4,0.5-0.8,0.9-1.2,1.3h4.2v4.2h-3v2
		c0.5-0.1,1-0.3,1.4-0.4c-0.2-0.3-0.4-0.6-0.5-0.9l0.5-0.5c0.7,0.5,1.4,1.1,1.9,1.8C67.2,23.7,67.3,22.5,67.3,20.5z M65.2,19.1h-1.5
		V20h1.5V19.1z M63.6,21.7h1.5v-0.9h-1.5V21.7z"/>
	<path class="st1" d="M79.5,26c-0.1-0.3-0.2-0.7-0.4-1c-1.1,0.8-2.5,1.4-3.6,1.8L75,25.3c0.3,0,0.6-0.1,0.9-0.2v-6.5
		c-0.2,0.2-0.5,0.4-0.7,0.5l-0.4-0.5c1.1-1.2,2-2.8,2.5-4.5l1.7,0.5c-0.1,0.2-0.2,0.3-0.2,0.5c0.8,0.6,1.4,1.2,2.1,2L79.7,18
		c-0.4-0.8-0.9-1.5-1.3-2.2c-0.1,0.2-0.3,0.4-0.4,0.6c0.4,0.4,0.8,0.9,1.1,1.4l-0.9,0.5h2.1v4.3h-2.8v2.1c0.5-0.1,1-0.3,1.5-0.5
		c-0.1-0.3-0.3-0.7-0.4-1l0.6-0.4c0.7,0.7,1.4,1.7,1.8,2.4L79.5,26z M76.2,18.3h1.7c-0.1-0.4-0.3-0.9-0.5-1.2
		C77,17.5,76.6,18,76.2,18.3z M78.7,19.1h-1.4V20h1.4V19.1z M78.7,21.8v-1h-1.4v1H78.7z M86.2,26.9c-0.6-0.2-1.1-0.7-1.4-1.5
		c-0.5,0.5-1,1-1.6,1.4l-0.3-0.5c-0.5,0.8-1.7,0.8-2.8,0l0.2-0.6c1.1,0.2,1.2,0.1,1.2-0.6v-2.5c-0.3,0.1-0.5,0.3-0.8,0.4l-0.5-1.5
		c0.5-0.1,0.9-0.2,1.4-0.4v-2.4h-1.1V18h1.1v-1.8c-0.4,0.1-0.7,0.2-1.1,0.2l-0.2-0.6c0.9-0.4,2-1,2.7-1.6l0.9,0.9v-0.9h1.5v1.4
		c0,0.9,0,1.7,0,2.5h2.1v0.8h-2.1c0,1.1,0.1,2.1,0.1,3c0.2-0.8,0.4-1.6,0.6-2.6l1.3,0.4c-0.4,1.7-0.9,3.1-1.6,4.3
		c0.2,0.7,0.4,1.1,0.7,1.3c0.3,0.2,0.3-0.4,0.3-2h0.7C87.9,25.8,87.6,27.4,86.2,26.9z M84.4,24.3c-0.2-0.9-0.3-2-0.4-3.3
		c-0.3,0.3-0.6,0.5-0.9,0.8v3.8c0,0.2,0,0.4-0.1,0.5C83.5,25.6,84,25,84.4,24.3z M83,18h0.8c0-0.8,0-1.6,0-2.4v-0.3
		c-0.3,0.2-0.5,0.3-0.8,0.4V18z M83,20.7c0.2-0.1,0.4-0.2,0.6-0.3l0.3,0.6c0-0.7-0.1-1.4-0.1-2.2H83V20.7z M86.2,17.6
		c-0.2-0.9-0.5-1.9-0.8-2.7l0.5-0.3c0.7,0.7,1.2,1.8,1.5,2.5L86.2,17.6z"/>
</g>
<g>
	<path class="st1" d="M40.3,106.4c-0.7,0-0.4-9.4,0-9.4S41.1,106.4,40.3,106.4z"/>
	<path class="st1" d="M40.4,101.7v-2.3c0,0,0.1-0.9-2.6-1.7c-2.7-0.8-4-1.9-4.6-3.3c0,0-0.5,2.3,1.8,3.9
		C37.3,99.9,39.6,100.7,40.4,101.7z"/>
	<path class="st1" d="M40.4,104v-2.3c0,0-0.1-0.9,2.6-1.7c2.7-0.8,4-1.9,4.6-3.3c0,0,0.5,2.3-1.8,3.9C43.4,102.1,41.1,103,40.4,104z
		"/>
	<path class="st1" d="M39.9,95.8c0,0,0.7-3-1.2-4.4s-4.4-2.7-5.1-3.7C33.6,87.7,31,93.8,39.9,95.8z"/>
	<path class="st1" d="M39.9,89.4c0,0,0.7-2.9-1.1-4.3c-1.8-1.4-4.2-2.6-4.9-3.5C33.8,81.5,31.3,87.5,39.9,89.4z"/>
	<path class="st1" d="M39.9,83.3c0,0,0.7-2.8-1.1-4.1c-1.7-1.3-4.1-2.5-4.7-3.4C34.1,75.8,31.7,81.5,39.9,83.3z"/>
	<path class="st1" d="M39.9,76.8c0,0,0.6-2.7-1-3.9c-1.6-1.2-3.8-2.3-4.4-3.2C34.5,69.8,32.2,75.1,39.9,76.8z"/>
	<path class="st1" d="M40.7,95.8c0,0-0.7-3,1.2-4.4c1.9-1.4,4.4-2.7,5.1-3.7C46.9,87.7,49.6,93.8,40.7,95.8z"/>
	<path class="st1" d="M40.7,89.4c0,0-0.7-2.9,1.1-4.3c1.8-1.4,4.2-2.6,4.9-3.5C46.7,81.5,49.3,87.5,40.7,89.4z"/>
	<path class="st1" d="M40.7,83.3c0,0-0.7-2.8,1.1-4.1c1.7-1.3,4.1-2.5,4.7-3.4C46.5,75.8,48.9,81.5,40.7,83.3z"/>
	<path class="st1" d="M40.7,76.8c0,0-0.6-2.7,1-3.9c1.6-1.2,3.8-2.3,4.4-3.2C46.1,69.8,48.4,75.1,40.7,76.8z"/>
	<path class="st1" d="M40.4,71.6c0,0-6-5,0-10.4C40.4,61.3,46.1,66.8,40.4,71.6z"/>
</g>
<g>
	<path class="st1" d="M57.7,106.4c-0.7,0-0.4-9.4,0-9.4S58.5,106.4,57.7,106.4z"/>
	<path class="st1" d="M57.8,101.7v-2.3c0,0,0.1-0.9-2.6-1.7c-2.7-0.8-4-1.9-4.6-3.3c0,0-0.5,2.3,1.8,3.9
		C54.7,99.9,57,100.7,57.8,101.7z"/>
	<path class="st1" d="M57.8,104v-2.3c0,0-0.1-0.9,2.6-1.7c2.7-0.8,4-1.9,4.6-3.3c0,0,0.5,2.3-1.8,3.9C60.8,102.1,58.5,103,57.8,104z
		"/>
	<path class="st1" d="M57.3,95.8c0,0,0.7-3-1.2-4.4s-4.4-2.7-5.1-3.7C51,87.7,48.4,93.8,57.3,95.8z"/>
	<path class="st1" d="M57.3,89.4c0,0,0.7-2.9-1.1-4.3c-1.8-1.4-4.2-2.6-4.9-3.5C51.3,81.5,48.7,87.5,57.3,89.4z"/>
	<path class="st1" d="M57.3,83.3c0,0,0.7-2.8-1.1-4.1c-1.7-1.3-4.1-2.5-4.7-3.4C51.5,75.8,49.1,81.5,57.3,83.3z"/>
	<path class="st1" d="M57.3,76.8c0,0,0.6-2.7-1-3.9c-1.6-1.2-3.8-2.3-4.4-3.2C51.9,69.8,49.6,75.1,57.3,76.8z"/>
	<path class="st1" d="M58.1,95.8c0,0-0.7-3,1.2-4.4c1.9-1.4,4.4-2.7,5.1-3.7C64.4,87.7,67,93.8,58.1,95.8z"/>
	<path class="st1" d="M58.1,89.4c0,0-0.7-2.9,1.1-4.3c1.8-1.4,4.2-2.6,4.9-3.5C64.1,81.5,66.7,87.5,58.1,89.4z"/>
	<path class="st1" d="M58.1,83.3c0,0-0.7-2.8,1.1-4.1c1.7-1.3,4.1-2.5,4.7-3.4C63.9,75.8,66.3,81.5,58.1,83.3z"/>
	<path class="st1" d="M58.1,76.8c0,0-0.6-2.7,1-3.9c1.6-1.2,3.8-2.3,4.4-3.2C63.5,69.8,65.8,75.1,58.1,76.8z"/>
	<path class="st1" d="M57.8,71.6c0,0-6-5,0-10.4C57.8,61.3,63.5,66.8,57.8,71.6z"/>
</g>
<g>
	<path class="st1" d="M75.2,106.4c-0.7,0-0.4-9.4,0-9.4S76,106.4,75.2,106.4z"/>
	<path class="st1" d="M75.2,101.7v-2.3c0,0,0.1-0.9-2.6-1.7c-2.7-0.8-4-1.9-4.6-3.3c0,0-0.5,2.3,1.8,3.9
		C72.1,99.9,74.5,100.7,75.2,101.7z"/>
	<path class="st1" d="M75.2,104v-2.3c0,0-0.1-0.9,2.6-1.7c2.7-0.8,4-1.9,4.6-3.3c0,0,0.5,2.3-1.8,3.9C78.2,102.1,75.9,103,75.2,104z
		"/>
	<path class="st1" d="M74.7,95.8c0,0,0.7-3-1.2-4.4s-4.4-2.7-5.1-3.7C68.4,87.7,65.8,93.8,74.7,95.8z"/>
	<path class="st1" d="M74.7,89.4c0,0,0.7-2.9-1.1-4.3c-1.8-1.4-4.2-2.6-4.9-3.5C68.7,81.5,66.1,87.5,74.7,89.4z"/>
	<path class="st1" d="M74.7,83.3c0,0,0.7-2.8-1.1-4.1c-1.7-1.3-4.1-2.5-4.7-3.4C68.9,75.8,66.5,81.5,74.7,83.3z"/>
	<path class="st1" d="M74.7,76.8c0,0,0.6-2.7-1-3.9c-1.6-1.2-3.8-2.3-4.4-3.2C69.3,69.8,67,75.1,74.7,76.8z"/>
	<path class="st1" d="M75.5,95.8c0,0-0.7-3,1.2-4.4c1.9-1.4,4.4-2.7,5.1-3.7C81.8,87.7,84.4,93.8,75.5,95.8z"/>
	<path class="st1" d="M75.5,89.4c0,0-0.7-2.9,1.1-4.3c1.8-1.4,4.2-2.6,4.9-3.5C81.6,81.5,84.1,87.5,75.5,89.4z"/>
	<path class="st1" d="M75.5,83.3c0,0-0.7-2.8,1.1-4.1c1.7-1.3,4.1-2.5,4.7-3.4C81.3,75.8,83.7,81.5,75.5,83.3z"/>
	<path class="st1" d="M75.5,76.8c0,0-0.6-2.7,1-3.9c1.6-1.2,3.8-2.3,4.4-3.2C80.9,69.8,83.2,75.1,75.5,76.8z"/>
	<path class="st1" d="M75.2,71.6c0,0-6-5,0-10.4C75.2,61.3,80.9,66.8,75.2,71.6z"/>
</g>
<g>
	<path class="st1" d="M92.6,106.4c-0.7,0-0.4-9.4,0-9.4S93.4,106.4,92.6,106.4z"/>
	<path class="st1" d="M92.6,101.7v-2.3c0,0,0.1-0.9-2.6-1.7c-2.7-0.8-4-1.9-4.6-3.3c0,0-0.5,2.3,1.8,3.9
		C89.5,99.9,91.9,100.7,92.6,101.7z"/>
	<path class="st1" d="M92.6,104v-2.3c0,0-0.1-0.9,2.6-1.7c2.7-0.8,4-1.9,4.6-3.3c0,0,0.5,2.3-1.8,3.9C95.6,102.1,93.3,103,92.6,104z
		"/>
	<path class="st1" d="M92.1,95.8c0,0,0.7-3-1.2-4.4s-4.4-2.7-5.1-3.7C85.9,87.7,83.2,93.8,92.1,95.8z"/>
	<path class="st1" d="M92.1,89.4c0,0,0.7-2.9-1.1-4.3c-1.8-1.4-4.2-2.6-4.9-3.5C86.1,81.5,83.5,87.5,92.1,89.4z"/>
	<path class="st1" d="M92.1,83.3c0,0,0.7-2.8-1.1-4.1c-1.7-1.3-4.1-2.5-4.7-3.4C86.3,75.8,83.9,81.5,92.1,83.3z"/>
	<path class="st1" d="M92.1,76.8c0,0,0.6-2.7-1-3.9c-1.6-1.2-3.8-2.3-4.4-3.2C86.7,69.8,84.4,75.1,92.1,76.8z"/>
	<path class="st1" d="M92.9,95.8c0,0-0.7-3,1.2-4.4c1.9-1.4,4.4-2.7,5.1-3.7C99.2,87.7,101.8,93.8,92.9,95.8z"/>
	<path class="st1" d="M92.9,89.4c0,0-0.7-2.9,1.1-4.3c1.8-1.4,4.2-2.6,4.9-3.5C99,81.5,101.5,87.5,92.9,89.4z"/>
	<path class="st1" d="M92.9,83.3c0,0-0.7-2.8,1.1-4.1c1.7-1.3,4.1-2.5,4.7-3.4C98.7,75.8,101.1,81.5,92.9,83.3z"/>
	<path class="st1" d="M92.9,76.8c0,0-0.6-2.7,1-3.9c1.6-1.2,3.8-2.3,4.4-3.2C98.3,69.8,100.6,75.1,92.9,76.8z"/>
	<path class="st1" d="M92.6,71.6c0,0-6-5,0-10.4C92.6,61.3,98.4,66.8,92.6,71.6z"/>
</g>
<g>
	<path class="st1" d="M110,106.4c-0.7,0-0.4-9.4,0-9.4C110.4,97,110.8,106.4,110,106.4z"/>
	<path class="st1" d="M110,101.7v-2.3c0,0,0.1-0.9-2.6-1.7c-2.7-0.8-4-1.9-4.6-3.3c0,0-0.5,2.3,1.8,3.9
		C106.9,99.9,109.3,100.7,110,101.7z"/>
	<path class="st1" d="M110,104v-2.3c0,0-0.1-0.9,2.6-1.7c2.7-0.8,4-1.9,4.6-3.3c0,0,0.5,2.3-1.8,3.9C113,102.1,110.7,103,110,104z"
		/>
	<path class="st1" d="M109.5,95.8c0,0,0.7-3-1.2-4.4s-4.4-2.7-5.1-3.7C103.3,87.7,100.7,93.8,109.5,95.8z"/>
	<path class="st1" d="M109.5,89.4c0,0,0.7-2.9-1.1-4.3c-1.8-1.4-4.2-2.6-4.9-3.5C103.5,81.5,100.9,87.5,109.5,89.4z"/>
	<path class="st1" d="M109.5,83.3c0,0,0.7-2.8-1.1-4.1c-1.7-1.3-4.1-2.5-4.7-3.4C103.7,75.8,101.3,81.5,109.5,83.3z"/>
	<path class="st1" d="M109.5,76.8c0,0,0.6-2.7-1-3.9c-1.6-1.2-3.8-2.3-4.4-3.2C104.1,69.8,101.8,75.1,109.5,76.8z"/>
	<path class="st1" d="M110.3,95.8c0,0-0.7-3,1.2-4.4c1.9-1.4,4.4-2.7,5.1-3.7C116.6,87.7,119.2,93.8,110.3,95.8z"/>
	<path class="st1" d="M110.3,89.4c0,0-0.7-2.9,1.1-4.3c1.8-1.4,4.2-2.6,4.9-3.5C116.4,81.5,118.9,87.5,110.3,89.4z"/>
	<path class="st1" d="M110.3,83.3c0,0-0.7-2.8,1.1-4.1c1.7-1.3,4.1-2.5,4.7-3.4C116.1,75.8,118.5,81.5,110.3,83.3z"/>
	<path class="st1" d="M110.3,76.8c0,0-0.6-2.7,1-3.9c1.6-1.2,3.8-2.3,4.4-3.2C115.8,69.8,118,75.1,110.3,76.8z"/>
	<path class="st1" d="M110.1,71.6c0,0-6-5,0-10.4C110.1,61.3,115.8,66.8,110.1,71.6z"/>
</g>
<g>
	<path class="st1" d="M127.4,106.4c-0.7,0-0.4-9.4,0-9.4C127.8,97,128.2,106.4,127.4,106.4z"/>
	<path class="st1" d="M127.4,101.7v-2.3c0,0,0.1-0.9-2.6-1.7c-2.7-0.8-4-1.9-4.6-3.3c0,0-0.5,2.3,1.8,3.9
		C124.4,99.9,126.7,100.7,127.4,101.7z"/>
	<path class="st1" d="M127.4,104v-2.3c0,0-0.1-0.9,2.6-1.7c2.7-0.8,4-1.9,4.6-3.3c0,0,0.5,2.3-1.8,3.9
		C130.4,102.1,128.1,103,127.4,104z"/>
	<path class="st1" d="M126.9,95.8c0,0,0.7-3-1.2-4.4s-4.4-2.7-5.1-3.7C120.7,87.7,118.1,93.8,126.9,95.8z"/>
	<path class="st1" d="M126.9,89.4c0,0,0.7-2.9-1.1-4.3c-1.8-1.4-4.2-2.6-4.9-3.5C120.9,81.5,118.4,87.5,126.9,89.4z"/>
	<path class="st1" d="M126.9,83.3c0,0,0.7-2.8-1.1-4.1c-1.7-1.3-4.1-2.5-4.7-3.4C121.1,75.8,118.7,81.5,126.9,83.3z"/>
	<path class="st1" d="M126.9,76.8c0,0,0.6-2.7-1-3.9c-1.6-1.2-3.8-2.3-4.4-3.2C121.5,69.8,119.2,75.1,126.9,76.8z"/>
	<path class="st1" d="M127.7,95.8c0,0-0.7-3,1.2-4.4c1.9-1.4,4.4-2.7,5.1-3.7C134,87.7,136.6,93.8,127.7,95.8z"/>
	<path class="st1" d="M127.7,89.4c0,0-0.7-2.9,1.1-4.3c1.8-1.4,4.2-2.6,4.9-3.5C133.8,81.5,136.3,87.5,127.7,89.4z"/>
	<path class="st1" d="M127.7,83.3c0,0-0.7-2.8,1.1-4.1c1.7-1.3,4.1-2.5,4.7-3.4C133.5,75.8,135.9,81.5,127.7,83.3z"/>
	<path class="st1" d="M127.7,76.8c0,0-0.6-2.7,1-3.9c1.6-1.2,3.8-2.3,4.4-3.2C133.2,69.8,135.4,75.1,127.7,76.8z"/>
	<path class="st1" d="M127.5,71.6c0,0-6-5,0-10.4C127.5,61.3,133.2,66.8,127.5,71.6z"/>
</g>
</svg>
