<?xml version="1.0" encoding="utf-8"?>
<!-- Generator: Adobe Illustrator 25.4.1, SVG Export Plug-In . SVG Version: 6.00 Build 0)  -->
<svg version="1.1" id="圖層_1" xmlns="http://www.w3.org/2000/svg" xmlns:xlink="http://www.w3.org/1999/xlink" x="0px" y="0px"
	 viewBox="0 0 170 120" style="enable-background:new 0 0 170 120;" xml:space="preserve">
<style type="text/css">
	.st12{fill:#CB8B21;}
	.st1{fill:#FFFFFF;}
</style>
<g>
	<rect class="st12" width="170" height="120"/>
</g>
<g>
	<path class="st1" d="M11.7,17.3l-4.9,2.1V17l5.8-2h2.4v23.5h-3.1V17.3H11.7z"/>
	<path class="st1" d="M32,21.2c0,4.2-3.3,8.3-8.3,12.8l-2.1,2v0.2h11v2.1H17.6v-1.7l2.5-2.2c5.4-4.7,8.5-9.4,8.6-12.8
		c0.1-3.5-1.2-5.2-4.7-5.2c-2.3,0-4.4,1.2-5.8,2.4v-2.6c1.4-0.7,3.8-1.6,6.3-1.6C29.5,14.5,32,17,32,21.2z"/>
</g>
<g>
	<path class="st1" d="M45.6,26l1.2,1.2c-1.5,0.9-3.8,1.6-6.2,1.8l-0.2-0.8c1.9-0.5,3.5-1.3,4.8-2.2h-3v-5.9h10.1V26H45.6z
		 M54.1,19.5H40.4v-0.9h5.8v-0.8h-4.1v-0.9h4.1v-0.8h-4.9v-0.9h4.9v-1.2h2v1.2h4.9v0.9h-4.9v0.8h4.2v0.9h-4.2v0.8h5.8V19.5z
		 M44.2,21.7h6v-0.8h-6V21.7z M44.2,23.4h6v-0.8h-6V23.4z M44.2,25.1h6v-0.9h-6V25.1z M54.3,27.2L53.5,29c-1.4-0.7-3.6-1.5-5.2-2.1
		l0.2-0.8C50.2,26.2,52.7,26.6,54.3,27.2z"/>
	<path class="st1" d="M60,17.7v11.1h-2v-7.6c-0.5,0.7-1,1.2-1.5,1.6l-0.6-0.6c1.1-1.7,2.4-4.5,3-8.3l2.1,0.5
		C60.8,15.6,60.4,16.7,60,17.7z M66.5,21.8V27H70v1h-9.1v-1h3.6v-5.2h-3.8v-1h3.8v-3.8c-1.2,0.1-2.4,0.3-3.4,0.3l-0.1-0.8
		c2.7-0.5,5.3-1.4,7.2-2.4l1.8,1.8c-1,0.4-2.1,0.6-3.4,0.9v4.2h3.9v1H66.5z"/>
	<path class="st1" d="M74.5,21c-0.7-0.9-1.7-2.1-2.4-2.9l0.5-0.7c1,0.4,2.4,1.2,3.3,2L74.5,21z M75.3,21.4l0.8,0.2
		c-0.4,2.3-1,5.2-1.6,6.7l-2.2-1C73.3,25.8,74.4,23.5,75.3,21.4z M73.3,13.9c1,0.4,2.4,1.3,3.2,2.1L75,17.4c-0.7-1-1.6-2.2-2.2-2.9
		L73.3,13.9z M78.2,18.5c-0.4-1.2-1-2.5-1.5-3.5l0.8-0.5c0.9,0.8,2,2,2.5,3L78.2,18.5z M82.4,18.6h3.2v8.3c0,1.7-1.3,2.6-4.4,1.1
		l0.2-0.8c1.9,0.3,2.2,0.1,2.2-0.7v-1.8H79v4h-2V18.6h3.4V14h2V18.6z M83.6,19.6H79v1.6h4.6V19.6z M83.6,23.8v-1.7H79v1.7H83.6z
		 M83.4,18.5l-0.7-0.5c0.6-1,1.1-2.3,1.5-3.6l2,1C85.4,16.5,84.4,17.6,83.4,18.5z"/>
	<path class="st1" d="M93.7,26.1l1.1,0.8c-1.5,0.8-3.7,1.6-6.1,1.9L88.5,28c1.8-0.5,3-1.1,4.2-1.9h-2.4v-4.5
		c-0.5,0.2-1.1,0.4-1.8,0.6l-0.2-0.8c1.8-0.6,2.9-1.4,3.6-2.7h-1.1l-0.4,1l-1.6-0.3c0.4-1.1,0.7-2,1-3.3l1.3,0.3h1.5
		c0-0.2,0.1-0.5,0.1-0.8h-3.8v-0.9h3.9c0-0.3,0-0.6,0-0.9h1.9c0,0.3,0,0.6,0,0.9H96v-0.9h1.9v0.9h3.4v2.5h-3.4V18h4.3
		c-0.1,0.8-0.2,1.4-0.3,1.8c-0.3,0.8-0.8,1.1-1.5,1v5.3H93.7z M92.1,18c0.1-0.2,0.1-0.4,0.2-0.7h-1.2L91,18H92.1z M98.4,21.4h-6.2
		v0.7h6.2V21.4z M98.4,22.9h-6.2v0.7h6.2V22.9z M92.2,25.2h6.2v-0.8h-6.2V25.2z M92.4,20.5h6.9c-0.2-0.1-0.5-0.2-0.7-0.4l0.2-0.7
		c1,0.3,1.2,0.2,1.3,0c0-0.2,0.1-0.3,0.1-0.5h-2.4v1.3H96v-1.3h-2.2C93.4,19.5,92.9,20,92.4,20.5z M96,17.3h-1.7
		c0,0.2-0.1,0.5-0.2,0.7H96V17.3z M94.4,16.5H96v-0.8h-1.4C94.5,16,94.5,16.2,94.4,16.5z M102.2,27.1l-0.7,1.8
		c-1.5-0.6-3.6-1.4-5.3-1.9l0.2-0.8C98.1,26.2,100.6,26.6,102.2,27.1z M97.8,15.7v0.8h1.5v-0.8H97.8z"/>
	<path class="st1" d="M117.3,28.9c-1.6-0.5-3.2-1.3-4.6-2.5c-1.6,1.3-3.7,2.2-6.2,2.6l-0.3-0.8c2.3-0.8,4-1.8,5.3-3
		c-1.1-1.3-1.9-2.9-2.4-4.9c-0.7,3.6-2.1,6.6-4.6,8.5l-0.5-0.6c2.6-3.1,3.3-6.9,3.4-12.4h-2.5v-1.1h9.9c-0.3,1.7-0.8,3.3-1.1,4.4
		h0.8l0.5-0.5l2,0.9c-0.7,2.2-1.6,4-2.9,5.5c1.3,0.7,2.7,1.2,4.3,1.6L117.3,28.9z M109.6,15.8c0,1.1-0.1,2.2-0.3,3.3h2.3
		c0.3-1,0.6-2.2,0.8-3.3H109.6z M114.5,20.1H110c0.6,1.7,1.5,2.9,2.6,3.9C113.5,22.8,114.1,21.5,114.5,20.1z"/>
	<path class="st1" d="M134.3,26.9V28h-13.8v-1.1h6v-3.8h-4.4V22h4.4v-3.2h-2.8c-0.7,1.3-1.6,2.5-2.6,3.4l-0.6-0.5
		c1.3-2,2.1-4.4,2.5-7.2l2.2,0.5c-0.2,0.9-0.5,1.9-0.9,2.8h2.3V14h2.2v3.8h4.6v1.1h-4.6V22h4.3v1.1h-4.3v3.8H134.3z"/>
	<path class="st1" d="M139,22.1c0,0.9-0.1,1.9-0.3,2.8c0.8-1.2,1.4-2.7,1.7-4.4l1.9,0.5c-0.2,0.4-0.3,0.9-0.5,1.3h1.6v-1.8h2v1.8h4
		v0.9h-4v1.4h3.6v0.9h-3.6v1.6h4.8v1h-11.6v-1h4.8v-1.6h-3.2v-0.9h3.2v-1.4h-2.1c-0.6,0.9-1.3,1.7-2.1,2.4l-0.4-0.4
		c-0.4,1.5-1,2.8-1.9,3.7l-0.6-0.5c0.7-1.6,0.9-3.1,0.9-6.3v-2.9h2.4l-0.1-0.5c1.3-0.2,2.4-0.5,3.3-0.8c-1-0.3-1.9-0.5-2.7-0.7
		l0.2-0.7c1.1,0.1,2.6,0.4,4.2,0.8c0.5-0.2,0.9-0.5,1.3-0.8h-8.3v-1h6c-0.7-0.4-1.6-0.8-2.2-1l0.2-0.7c1,0.1,2.6,0.4,3.8,0.8
		l-0.5,0.9h5.3v1h-2.6l0.4,0.3c-0.4,0.4-1,0.7-1.6,1c0.8,0.2,1.6,0.5,2.2,0.7l-0.4,0.8h2.4v1H139V22.1z M141.2,19.2h5.1
		c-0.7-0.3-1.4-0.5-2-0.8C143.3,18.8,142.3,19,141.2,19.2z"/>
</g>
<g>
	<path class="st1" d="M85.6,95.5l-0.2-0.1c-0.4-0.2-0.9-0.4-1.1-0.4c0,0-0.1,0-0.1,0c-0.4-0.2-0.7-0.3-0.9-0.6
		c-0.2-0.3-0.2-0.8,0.1-1.1c0.5-0.4,1-0.4,1.4-0.4c0.3,0,0.6,0,0.9,0.1c0.3,0.1,0.7,0.3,0.9,0.5c0,0,0.1,0.1,0.1,0.1c0,0,0,0,0,0
		c0,0,0,0,0,0.1c0.1,0.2,0.3,0.3,0.6,0.3c0.4,0,0.8-0.3,1-0.5c0.2-0.2,0.2-0.5,0-0.7c-0.4-0.6-1.4-1.1-2.1-1.3
		c-0.2-0.1-0.5-0.1-0.7-0.1v-0.8c0-0.1-0.1-0.2-0.3-0.2h-1c-0.2,0-0.3,0.1-0.3,0.2v0.9c-0.8,0.1-1.5,0.4-2,0.8
		c-0.9,0.7-1.1,1.8-0.6,2.7c0.2,0.4,0.6,0.8,1.1,1c0.4,0.2,2.1,0.9,2.9,1.2l0.4,0.2c0.4,0.2,0.7,0.4,0.8,0.6
		c0.2,0.3,0.1,0.8-0.2,1.1c-0.3,0.2-0.7,0.3-1.2,0.3c-0.4,0-1-0.1-1.4-0.2c-0.3-0.1-0.7-0.3-0.9-0.5c0,0-0.1-0.1-0.1-0.1l0,0
		c0,0,0,0,0,0c0,0,0,0,0-0.1c-0.1-0.2-0.3-0.3-0.6-0.3c-0.4,0-0.8,0.3-1,0.5c-0.2,0.2-0.2,0.5,0,0.7c0.5,0.8,1.7,1.2,2.9,1.4v0.9
		c0,0.1,0.1,0.2,0.3,0.2h1c0.2,0,0.3-0.1,0.3-0.2v-0.8c0.9-0.1,1.7-0.3,2.2-0.7c0.9-0.7,1.2-1.7,0.9-2.7
		C88.4,96.5,86.8,96,85.6,95.5z"/>
	<path class="st1" d="M63.3,77.8l-1.2,5.8L56.3,90c-0.7,0.8-0.6,2,0.1,2.6c0.8,0.7,2,0.6,2.6-0.1l6.2-6.8c0.2-0.2,0.4-0.6,0.4-0.9
		l0.8-4.2c-0.4-0.4-0.8-0.9-1.2-1.3C64.5,78.9,63.8,78.3,63.3,77.8z"/>
	<path class="st1" d="M72.2,66.1c-0.1,0.6-0.5,1.6-0.5,1.6l3.5,1.1c0.5,0.1,1,0.1,1.4-0.2l4.5-3.2c0.7-0.5,0.8-1.5,0.3-2.1
		c-0.5-0.7-1.5-0.8-2.1-0.3l-3.9,2.8l-3.4-1.1C72.1,64.5,72.3,65.4,72.2,66.1z"/>
	<path class="st1" d="M71,61.4c1.9-0.3,2.4-2.9,2.5-5.1c0.1-2.1-1.5-3.7-3-3.7c-2.1-0.1-3.5,1.6-3.6,3.7
		C67.2,59.8,69.6,61.7,71,61.4z"/>
	<path class="st1" d="M57.5,68.6L57.5,68.6c0.1-0.1,4.1-3.3,4.3-3.4c0.2,0,3.6,0.1,3.6,0.1l-1.2,0.4c-0.5,2.4-2,6.9-2.2,9.1
		c0,0.2,0.6,0.4,0.6,0.6c0,0.5,0.7,2.1,3,3.3c0.6,0.6,3.8,3.8,3.8,3.9c0,0.1-1,7.1-1,7.1c-0.2,1.2,0.5,2.2,1.6,2.3
		c1.1,0.1,2-0.6,2.2-1.8c0,0,1-7.3,1.1-7.6c0.3-1.2-0.2-1.6-0.4-1.9c-0.2-0.4-3.7-4.4-3.9-4.6c0.7-5.5,2.9-9.3,2.8-10.1
		c-0.1-1.7-0.6-2.4-0.6-2.4L71,63.9c0,2.4-0.7,4.2-0.7,4.2s0.2-2.8,0.1-3.7c0.1-0.3,0.3-0.6,0.3-0.6L70.4,63c0,0-0.2-0.1-0.4-0.1
		c-0.3,0.1-0.6,0.5-0.6,0.5s0.1,0.4,0.3,0.8c-0.1,0.1-0.3,1.4-0.7,2.8c0.1-3.9-0.7-4.9-1-5.2h0v0c-0.4,0-1.5,0-1.5-0.1
		c-1.1,0.1-3.1,0.3-5.7,0.6c-0.1,0-5.4,4-5.4,4c-0.6,0.6-0.7,1.6-0.1,2.2C55.8,69.1,56.8,69.2,57.5,68.6z"/>
	<path class="st1" d="M94.5,90.2l1.9-1.7l-2.9-3.2l-1.9,1.7c-1.1-0.8-2.4-1.4-3.8-1.7l0.1-2.6l-4.3-0.2l-0.1,2.6
		c-1.4,0.2-2.7,0.7-3.9,1.5l-1.7-1.9l-3.2,2.9l1.7,1.9c-0.8,1.1-1.4,2.4-1.8,3.8L72,93.3l-0.2,4.3l2.5,0.1c0.2,1.4,0.7,2.8,1.5,4
		l-1.8,1.7l2.9,3.2l1.8-1.7c1.1,0.8,2.4,1.4,3.9,1.8l-0.1,2.5l4.3,0.2l0.1-2.5c1.4-0.2,2.8-0.8,4-1.5l1.7,1.8l3.2-2.9l-1.7-1.8
		c0.8-1.1,1.4-2.4,1.8-3.9l2.5,0.1l0.2-4.3L96,94.2C95.7,92.8,95.2,91.4,94.5,90.2z M90,101.2c-1.3,1.2-3.1,2-5.1,1.9
		c-2-0.1-3.7-0.9-4.9-2.2c-1.2-1.3-2-3.1-1.9-5.1c0.1-2,0.9-3.7,2.3-4.9c1.3-1.2,3.1-2,5.1-1.9c2,0.1,3.7,0.9,4.9,2.3
		c1.2,1.3,2,3.1,1.9,5.1C92.2,98.2,91.3,99.9,90,101.2z"/>
	<path class="st1" d="M71.7,102l-0.2-2.6l-1.5,0.1c-0.2-0.8-0.7-1.6-1.2-2.3l1-1.2l-2-1.7l-1,1.2c-0.7-0.4-1.6-0.7-2.4-0.8l-0.1-1.6
		l-2.6,0.2l0.1,1.6c-0.8,0.2-1.6,0.6-2.3,1.2l-1.2-1l-1.7,2l1.2,1c-0.4,0.7-0.7,1.6-0.8,2.4l-1.5,0.1l0.2,2.6l1.5-0.1
		c0.2,0.8,0.7,1.6,1.2,2.3l-1,1.2l2,1.7l1-1.2c0.7,0.4,1.6,0.7,2.5,0.8l0.1,1.5l2.6-0.2l-0.1-1.5c0.9-0.2,1.6-0.7,2.3-1.2l1.2,1
		l1.7-2l-1.2-1c0.4-0.7,0.7-1.6,0.8-2.5L71.7,102z M66.8,104.1c-0.7,0.8-1.7,1.4-2.9,1.5c-1.2,0.1-2.3-0.3-3.1-1
		c-0.8-0.7-1.4-1.7-1.5-2.9c-0.1-1.2,0.3-2.3,1-3.1c0.7-0.8,1.7-1.4,2.9-1.5c1.2-0.1,2.3,0.3,3.1,1c0.8,0.7,1.4,1.7,1.5,2.9
		C67.9,102.2,67.5,103.3,66.8,104.1z"/>
	<path class="st1" d="M52.1,98.6l-0.3-3.8L49.5,95c-0.4-1.2-1-2.3-1.7-3.3l1.4-1.7l-2.9-2.5l-1.5,1.7c-1.1-0.6-2.3-1-3.5-1.1
		l-0.2-2.3l-3.8,0.3l0.2,2.3c-1.2,0.4-2.3,0.9-3.3,1.7l-1.7-1.5l-2.5,2.9l1.7,1.4c-0.6,1.1-1,2.3-1.1,3.5l-2.2,0.2l0.3,3.8l2.2-0.2
		c0.4,1.2,0.9,2.4,1.7,3.3l-1.4,1.7l2.9,2.5l1.4-1.7c1.1,0.6,2.3,1,3.6,1.1l0.2,2.2l3.8-0.3L43,107c1.2-0.4,2.4-1,3.3-1.7l1.7,1.4
		l2.5-2.9l-1.7-1.4c0.6-1.1,1-2.3,1.1-3.6L52.1,98.6z M45,101.7c-1,1.2-2.5,2-4.2,2.2c-1.7,0.1-3.3-0.4-4.5-1.4
		c-1.2-1-2-2.5-2.2-4.2c-0.1-1.7,0.4-3.3,1.4-4.5c1-1.2,2.5-2,4.2-2.2c1.7-0.1,3.3,0.4,4.5,1.4c1.2,1,2,2.5,2.2,4.2
		C46.6,98.9,46.1,100.5,45,101.7z"/>
	<path class="st1" d="M98.2,73.9c-0.1-0.9-0.3-1.7-0.8-2.5l1.2-1l-1.7-2l-1.2,1c-0.7-0.6-1.5-1-2.3-1.2l0.1-1.5l-2.6-0.2L90.8,68
		c-0.8,0.1-1.7,0.3-2.4,0.8l-1-1.2l-2,1.7l1,1.2c-0.6,0.7-1,1.4-1.2,2.3l-1.6-0.1l-0.2,2.6l1.5,0.1c0.1,0.8,0.3,1.7,0.7,2.5l-1.2,1
		l1.7,2l1.2-1c0.7,0.6,1.5,1,2.3,1.2l-0.1,1.5l2.6,0.2l0.1-1.5c0.9-0.1,1.7-0.3,2.5-0.8l1,1.2l2-1.7l-1-1.2c0.6-0.7,1-1.5,1.2-2.3
		l1.5,0.1l0.2-2.6L98.2,73.9z M95.8,75.1c-0.1,1.1-0.6,2.2-1.5,2.9c-0.9,0.8-2.1,1.1-3.2,1c-1.1-0.1-2.2-0.6-2.9-1.5
		c-0.8-0.9-1.1-2.1-1-3.2c0.1-1.1,0.6-2.2,1.5-2.9c0.9-0.8,2.1-1.1,3.2-1c1.1,0.1,2.2,0.6,2.9,1.5C95.6,72.8,95.9,74,95.8,75.1z"/>
	<path class="st1" d="M121.1,83c-3.1-5.1-9.2-6.9-13.7-4.2l-2.7,1.7l0,0c-4.4,2.8-5.1,8.9-2,13.9c3.1,4.9,8.6,7,13.1,4.5l0,0
		l2.7-1.7l0,0c-4.5,2.4-10.4,0.5-13.4-4.3c-3-4.9-2.1-11,2.1-13.9l0.3,0.5c-3.9,2.8-4.8,8.5-1.9,13.1c2.9,4.6,8.4,6.4,12.6,4.1
		l0.3,0.5c0.1,0,0.2-0.1,0.3-0.1C123.2,94.4,124.2,88.1,121.1,83z M102.6,86.9l-1.2,0.7c0-0.5,0.1-0.9,0.1-1.4l1.1-0.7
		C102.6,86,102.6,86.4,102.6,86.9z M112.3,98.8c0.7,0.1,1.3,0.1,2,0.1l-0.9,0.6c-0.7,0.1-1.4,0.1-2.1,0L112.3,98.8z M109.4,97.9
		c0.4,0.2,0.8,0.4,1.3,0.5l-1.1,0.7c-0.4-0.1-0.9-0.3-1.3-0.5L109.4,97.9z M107.2,96.4c0.3,0.3,0.6,0.5,1,0.7l-1.2,0.7
		c-0.3-0.2-0.7-0.4-1-0.7L107.2,96.4z M105.6,94.7c0.2,0.3,0.5,0.6,0.8,0.8l-1.3,0.8c-0.3-0.3-0.5-0.5-0.8-0.8L105.6,94.7z
		 M104.2,92.8c0.1,0.2,0.2,0.3,0.3,0.5c0.1,0.2,0.2,0.3,0.3,0.5l-1.3,0.8c-0.1-0.2-0.2-0.3-0.3-0.5c-0.1-0.2-0.2-0.3-0.3-0.5
		L104.2,92.8z M103,83.9l-1,0.6c0.2-0.7,0.5-1.3,0.9-1.9l0.9-0.6C103.5,82.6,103.2,83.2,103,83.9z M116.5,94.1l-0.7-1.1
		c-0.2,0.1-0.4,0.1-0.6,0.2c-0.5,0.1-1,0.1-1.5,0c-0.3-0.1-0.6-0.2-0.9-0.4c-0.4-0.2-0.6-0.6-0.7-0.6c-0.2-0.2-0.1-0.5,0.1-0.6
		l0.8-0.5c0.2-0.1,0.5-0.2,0.5-0.1c0,0,0,0,0.1,0.1c0.1,0.1,0.2,0.1,0.3,0.1c0.2,0.1,0.5,0.1,0.9,0c0.3-0.1,0.5-0.2,0.8-0.4
		c0,0,0.1-0.1,0.1-0.1c0.4-0.3,0.6-0.6,0.8-0.8c0.1-0.3,0.2-0.5,0.1-0.7c0-0.1-0.1-0.2-0.1-0.4c-0.1-0.1-0.2-0.2-0.4-0.4
		c-0.1,0-0.2-0.1-0.3-0.1c-0.1,0-0.3,0-0.6,0c-0.4,0-1,0.1-1.6,0.2c-0.4,0.1-0.9,0.1-1.3,0.2c-0.4,0-0.9,0.1-1.4,0
		c-0.3-0.1-0.6-0.2-1-0.3c-0.5-0.3-0.8-0.6-1.1-1.1c-0.2-0.4-0.4-0.8-0.4-1.2c-0.1-0.4,0-0.8,0.1-1.2c0.2-0.6,0.5-1.2,1.1-1.7
		l-0.7-1.1c-0.1-0.2-0.1-0.5,0.1-0.6l0.8-0.5c0.2-0.1,0.5-0.1,0.6,0.2l0.7,1.1c0.2-0.1,0.4-0.1,0.6-0.2c0.5-0.1,1-0.1,1.5,0
		c0.3,0.1,0.6,0.2,0.9,0.4c0.4,0.2,0.6,0.6,0.7,0.6c0.2,0.2,0.1,0.5-0.1,0.6l-0.8,0.5c-0.2,0.1-0.5,0.2-0.5,0.1c0,0,0,0-0.1-0.1
		c-0.1-0.1-0.2-0.1-0.3-0.1c-0.2-0.1-0.5-0.1-0.9,0c-0.3,0.1-0.5,0.2-0.8,0.4c0,0-0.1,0.1-0.1,0.1c-0.4,0.3-0.6,0.6-0.8,0.8
		c-0.1,0.3-0.2,0.5-0.1,0.7c0,0.1,0.1,0.2,0.1,0.4c0.1,0.1,0.2,0.2,0.4,0.4c0.1,0,0.2,0.1,0.3,0.1c0.1,0,0.3,0,0.6,0
		c0.4,0,1-0.1,1.6-0.2c0.4-0.1,0.9-0.1,1.3-0.2c0.5,0,0.9-0.1,1.4,0c0.3,0.1,0.6,0.2,1,0.3c0.5,0.3,0.8,0.6,1.1,1.1
		c0.2,0.4,0.4,0.8,0.4,1.2c0.1,0.4,0,0.8-0.1,1.2c-0.2,0.6-0.5,1.2-1.1,1.7l0.7,1.1c0.1,0.2,0.1,0.5-0.1,0.6l-0.8,0.5
		C117,94.4,116.7,94.3,116.5,94.1z M118.1,95.7c-0.1,0.1-0.2,0.1-0.4,0.2c0,0,0,0,0,0c3.5-2.5,4.3-7.7,1.7-11.8
		c-2.6-4.1-7.6-5.7-11.3-3.7c0,0,0,0,0,0c0.1-0.1,0.2-0.2,0.3-0.2c3.8-2.4,9.1-0.8,11.7,3.5C122.8,87.9,121.9,93.3,118.1,95.7z"/>
	<g>
		<path class="st1" d="M140.7,90.5L140.7,90.5L140.7,90.5c-0.1-0.1-0.1-0.1-0.1-0.1c0,0,0,0,0,0l-2.7-1.2c-4.5-2-10,0.6-12.3,5.8
			c-2.3,5.2-0.4,11,4.1,13c0.1,0,0.2,0.1,0.3,0.1l0.2-0.5c4.3,1.6,9.3-0.9,11.3-5.6c2.1-4.7,0.5-10.1-3.6-12.1l0.2-0.5
			c4.3,2.2,6,7.8,3.8,12.8c-2.2,5-7.5,7.6-12,5.9l0,0l2.4,1.1c0,0,0,0,0,0c0,0,0,0,0,0l0.4,0.2l0,0c4.5,1.7,9.5-1,11.7-6.1
			C146.7,98.1,145.2,92.5,140.7,90.5z M130.5,106.7c-0.1,0-0.2-0.1-0.4-0.1c-3.9-1.7-5.5-6.7-3.6-11.1c1.9-4.4,6.7-6.6,10.6-4.9
			c0.1,0.1,0.2,0.1,0.3,0.2c0,0,0,0,0,0c-3.8-1.4-8.3,0.8-10.2,5C125.4,100,126.9,104.8,130.5,106.7
			C130.5,106.7,130.5,106.7,130.5,106.7z M137.6,97c-0.1,0.2-0.3,0.4-0.5,0.3l-0.8-0.4c-0.2-0.1-0.4-0.3-0.3-0.4c0,0,0,0,0-0.1
			c0-0.1,0-0.2,0-0.3c-0.1-0.2-0.2-0.5-0.5-0.7c-0.2-0.2-0.4-0.3-0.8-0.5c0,0-0.1,0-0.2-0.1c-0.4-0.2-0.8-0.2-1.1-0.2
			c-0.3,0-0.5,0.1-0.6,0.3c-0.1,0.1-0.2,0.2-0.2,0.3c-0.1,0.1-0.1,0.3-0.1,0.5c0,0.1,0,0.2,0.1,0.3c0.1,0.1,0.2,0.3,0.3,0.4
			c0.2,0.3,0.6,0.7,1,1.1c0.3,0.3,0.6,0.6,0.8,0.9c0.3,0.3,0.5,0.7,0.7,1.1c0.1,0.3,0.2,0.6,0.3,0.9c0,0.5,0,1-0.2,1.4
			c-0.2,0.4-0.4,0.7-0.7,1c-0.3,0.3-0.6,0.5-1,0.6c-0.6,0.2-1.2,0.2-1.9,0.1l-0.5,1.1c-0.1,0.2-0.3,0.3-0.6,0.2l-0.9-0.4
			c-0.2-0.1-0.3-0.3-0.2-0.6l0.5-1.1c-0.2-0.1-0.3-0.2-0.5-0.4c-0.4-0.3-0.6-0.7-0.8-1.2c-0.1-0.3-0.2-0.6-0.2-0.9
			c0-0.4,0.1-0.8,0.1-0.8c0.1-0.2,0.3-0.4,0.5-0.3l0.8,0.4c0.2,0.1,0.4,0.3,0.3,0.4c0,0,0,0,0,0.1c0,0.1,0,0.2,0,0.3
			c0.1,0.2,0.2,0.5,0.5,0.7c0.2,0.2,0.4,0.3,0.8,0.5c0,0,0.1,0,0.2,0.1c0.4,0.2,0.8,0.2,1.1,0.2c0.3,0,0.5-0.1,0.6-0.3
			c0.1-0.1,0.2-0.2,0.2-0.3c0.1-0.1,0.1-0.3,0.1-0.5c0-0.1,0-0.2-0.1-0.3c-0.1-0.1-0.2-0.3-0.3-0.4c-0.2-0.3-0.6-0.7-1-1.1
			c-0.3-0.3-0.6-0.6-0.8-0.9c-0.3-0.3-0.5-0.7-0.7-1.1c-0.1-0.3-0.2-0.6-0.3-0.9c0-0.5,0-1,0.2-1.4c0.2-0.4,0.4-0.7,0.7-1
			c0.3-0.3,0.6-0.5,1-0.6c0.6-0.2,1.2-0.2,1.9-0.1l0.5-1.1c0.1-0.2,0.3-0.3,0.6-0.2l0.9,0.4c0.2,0.1,0.3,0.3,0.2,0.6l-0.5,1.1
			c0.2,0.1,0.3,0.2,0.5,0.4c0.4,0.3,0.6,0.7,0.8,1.2c0.1,0.3,0.2,0.6,0.2,0.9C137.8,96.6,137.6,97,137.6,97z M142.7,93.4
			c-0.3-0.6-0.6-1.1-1-1.6l0.9,0.4c0.4,0.5,0.8,1.1,1.1,1.6L142.7,93.4z M135.1,109.5l-0.9-0.4c0.6,0,1.2-0.2,1.8-0.4l1.1,0.5
			C136.4,109.4,135.8,109.5,135.1,109.5z M138.6,108.6l-1.1-0.5c0.4-0.2,0.8-0.4,1.1-0.7l1.2,0.5C139.4,108.2,139,108.4,138.6,108.6
			z M140.9,107.2l-1.2-0.5c0.3-0.3,0.6-0.5,0.8-0.8l1.3,0.6C141.5,106.6,141.2,106.9,140.9,107.2z M142.5,105.4l-1.3-0.6
			c0.2-0.3,0.4-0.6,0.6-0.9l1.3,0.6C142.9,104.9,142.7,105.2,142.5,105.4z M143.9,103c-0.1,0.2-0.1,0.3-0.2,0.5l-1.3-0.6
			c0.1-0.2,0.2-0.3,0.2-0.5c0.1-0.2,0.1-0.3,0.2-0.5l1.3,0.6C144.1,102.7,144,102.9,143.9,103z M143.5,96.2
			c-0.1-0.4-0.1-0.9-0.3-1.3l1.1,0.5c0.1,0.4,0.2,0.9,0.3,1.3L143.5,96.2z"/>
		<rect x="130" y="108.1" transform="matrix(0.4532 -0.8914 0.8914 0.4532 -25.3181 174.9682)" class="st1" width="0" height="0"/>
	</g>
</g>
</svg>
