<?xml version="1.0" encoding="utf-8"?>
<!-- Generator: Adobe Illustrator 25.4.1, SVG Export Plug-In . SVG Version: 6.00 Build 0)  -->
<svg version="1.1" id="圖層_1" xmlns="http://www.w3.org/2000/svg" xmlns:xlink="http://www.w3.org/1999/xlink" x="0px" y="0px"
	 viewBox="0 0 170 120" style="enable-background:new 0 0 170 120;" xml:space="preserve">
<style type="text/css">
	.st04{fill:#C21F32;}
	.st1{fill:#FFFFFF;}
</style>
<g>
	<rect class="st04" width="170" height="120"/>
</g>
<g>
	<path class="st1" d="M24.5,31.3h-3.1v6.1h-3v-6.1H7.7v-2l10.2-15.3h3.5v15.2h3.1V31.3z M18.3,29.1v-8.8c0-1.1,0.1-2.7,0.1-3.5h-0.2
		c-0.3,0.6-0.6,1.3-1.8,3.2l-5.8,8.9v0.2H18.3z"/>
</g>
<g>
	<path class="st1" d="M37,18.6v10.7h-1.8V22c-0.3,0.5-0.7,0.9-1.1,1.3l-0.6-0.5c1.2-1.9,2.2-5.6,2.5-8.4l2,0.3
		C37.8,16,37.5,17.3,37,18.6z M47.4,29.2c-1.5-0.1-3.1-0.4-4.6-1.1c-1.6,0.7-3.4,1-5.3,1.1l-0.1-0.7c1.7-0.3,3.1-0.7,4.1-1.2
		c-0.5-0.4-1-0.8-1.4-1.2c-0.7,0.5-1.5,1-2.4,1.3l-0.3-0.6c1.4-0.9,2.3-1.8,2.9-2.8c-0.2-0.2-0.4-0.4-0.4-0.9v-1.5h1.3v1
		c0,0.3,0.1,0.5,0.6,0.5c0.6,0,1.2,0,1.7,0c0.4,0,0.5-0.2,0.5-1.1h0.7c0.3,1.4,0.1,2-0.9,2.1c-0.6,0.1-1.4,0.1-2,0
		c-0.1,0.1-0.2,0.3-0.3,0.4h2.6l0.4-0.2l1.7,0.9c-0.5,0.8-1.2,1.4-1.9,1.9c1.1,0.2,2.3,0.3,3.5,0.3L47.4,29.2z M41.5,16.1h-3.4v-0.9
		h9.1v0.9h-3.9c-0.2,0.3-0.5,0.6-0.8,0.8h3.6v3.6h1.5v2.3h-1.2c0.3,0.3,0.5,0.6,0.7,0.8L46,24.3c-0.3-0.8-0.7-1.6-1.1-2.3l0.5-0.4
		c0.2,0.1,0.4,0.4,0.7,0.6v-0.9h-6.9V22c0-0.1,0-0.1,0.1-0.2l0.6,0.2c-0.1,0.8-0.4,1.9-0.9,2.6L37.8,24c0.4-0.4,0.7-0.8,0.9-1.2
		h-1.2v-2.3h1.4v-3.6h2.6C41.5,16.6,41.5,16.3,41.5,16.1z M44.5,17.7h-3.9v0.5h3.9V17.7z M40.6,19.3h3.9v-0.5h-3.9V19.3z M44.5,20.5
		V20h-3.9v0.5H44.5z M42.7,26.7c0.6-0.4,1-0.8,1.3-1.2h-3.2c-0.1,0-0.1,0.1-0.2,0.2C41.4,26.1,42,26.4,42.7,26.7z M41.5,22l0.2-0.5
		c0.5,0.1,1.4,0.3,2,0.6l-0.5,1C42.7,22.7,41.9,22.3,41.5,22z"/>
	<path class="st1" d="M50.3,21.5L49.7,21c1.1-1.4,1.1-3,1.1-6l1.7,0.3c1-0.2,2-0.4,3-0.9l1.3,1.4c-1.4,0.2-2.7,0.3-4,0.3
		c0,0.3,0,0.6-0.1,0.8h4v0.9h-1.3v2h-1.8v-2h-1C52.2,19.6,51.4,20.7,50.3,21.5z M63.8,27.6L63,29.4c-1.5-0.7-3.6-1.6-5.2-2.1
		l0.2-0.8h-2.7l1.2,0.8c-1.6,0.9-4.3,1.7-6.4,1.9l-0.2-0.8c1.7-0.5,3.2-1.2,4.5-2h-2.6v-6.2H62v6.2h-3.5C60,26.7,62,27,63.8,27.6z
		 M53.7,22h6.2v-0.9h-6.2V22z M53.7,23.8h6.2v-0.9h-6.2V23.8z M53.7,25.6h6.2v-1h-6.2V25.6z M57.1,15l1.6,0.3
		c1.1-0.2,2.1-0.4,3.1-0.9l1.4,1.4c-1.4,0.2-2.9,0.3-4.4,0.3c0,0.3,0,0.6-0.1,0.8h4.9v0.9h-2v2h-1.8v-2h-1.3
		c-0.4,1.1-1.2,1.8-2.1,2.3l-0.5-0.6C57,18.4,57.1,17.3,57.1,15z"/>
	<path class="st1" d="M70.9,25.5v2c0,1.7-1.8,2.2-4.1,0.9l0.2-0.7c1.7,0.2,2.1,0.1,2.1-0.7v-1c-1.1,0.3-2.1,0.5-2.9,0.7L65.7,25
		c0.9-0.1,2.1-0.2,3.3-0.4v-1.4l1.1,0.2c0.4-0.5,0.7-1,0.9-1.4h-1.3c-1.2,1.1-2.5,2-3.7,2.6l-0.4-0.6c0.8-0.5,1.6-1.2,2.4-1.9h-1.5
		V21h2.4c0.3-0.4,0.7-0.7,1-1.2h-4v-1h2.6v-1.5h-2v-0.9h2v-1.8h1.9v1.8h1.5c0.2-0.5,0.4-1.1,0.6-1.6l1.8,0.7
		c-0.5,1.2-1.1,2.4-1.8,3.4h1.4v1h-2.1c-0.3,0.4-0.7,0.8-1,1.2h0.6l0.4-0.3l1.4,1c-0.5,0.6-1.4,1.5-2.2,2v0.6
		c0.9-0.2,1.8-0.4,2.6-0.6l0.3,0.7C72.9,24.8,71.9,25.2,70.9,25.5z M70.2,18.8h0.2c0.3-0.5,0.6-1,0.9-1.5h-1.1V18.8z M80.2,27.4
		l-1.4,2c-1.1-0.8-2-1.7-2.6-3c-1.1,1.2-2.5,2.2-4.5,2.9l-0.4-0.7c1.9-1,3.2-2.2,4.1-3.7c-0.4-1.1-0.7-2.4-0.8-3.8
		c-0.4,0.7-0.8,1.3-1.2,1.7l-0.6-0.4c1-2,1.6-5,1.9-7.9l2.1,0.3c-0.2,1-0.4,2-0.7,2.9h3.6v1H79c-0.1,2.2-0.6,4.3-1.6,6.1
		C78.1,25.9,79.1,26.6,80.2,27.4z M76.3,23c0.4-1.3,0.7-2.7,0.7-4.3h-1.3c-0.1,0.3-0.2,0.5-0.3,0.8C75.6,20.9,75.9,22.1,76.3,23z"/>
	<path class="st1" d="M95.8,17.2h-4.4c1.5,0.6,2.9,1.3,4.3,2.4l-1.3,1.6c-0.4-0.5-0.9-1-1.4-1.5c-3,0.6-7.6,1-9.8,1.1l-0.4-2
		c0.9,0.1,1.9,0.1,2.9,0.1c0.3-0.5,0.6-1.1,0.9-1.7h-4.7v-1h7c-0.8-0.5-1.7-0.9-2.4-1.2l0.2-0.8c1.1,0.1,2.9,0.5,4,1l-0.6,1.1h5.7
		V17.2z M84,21.1h9.7v6.4c0,1.8-1.7,2.3-4.5,1l0.2-0.8c2.1,0.3,2.4,0.1,2.4-0.7v-0.8H86v3.1h-2V21.1z M86,22.1v1.1h5.7v-1.1H86z
		 M91.8,25.2v-1.1H86v1.1H91.8z M90.8,17.8l0.4-0.7H89c-0.6,0.6-1.3,1.2-1.9,1.7c1.7,0,3.4,0,4.9-0.1C91.6,18.5,91.2,18.2,90.8,17.8
		z"/>
</g>
<g>
	<g>
		<path class="st1" d="M29.3,106h63.5c1,0,1.8-0.8,1.8-1.8V68.2c0-1-0.8-1.8-1.8-1.8h-1.1v-2.7v-2.9l-2.7-1
			c-4.6-1.7-9.7-2.6-14.9-2.6c-4.5,0-9,0.7-13,2c-4.2-1.3-8.6-2-13.1-2c-5.2,0-10.2,0.9-14.9,2.6l-2.7,1v2.9v2.7h-1.1
			c-1,0-1.8,0.8-1.8,1.8v36.1C27.6,105.2,28.4,106,29.3,106z M34.6,66.4v-2.7c4.3-1.6,8.9-2.4,13.4-2.4c3.8,0,7.6,0.5,11.2,1.6v3.5
			v30.3c-3.6-1.1-7.4-1.6-11.2-1.6c-4.6,0-9.2,0.8-13.4,2.4V66.4z M87.6,66.4v31.1c-4.3-1.6-8.9-2.4-13.4-2.4
			c-3.8,0-7.6,0.5-11.2,1.6V66.4V63c2.9-0.9,6.1-1.4,9.2-1.5v5v4.5l3.4-2.8l3.4,2.8v-4.5v-4.7c2.9,0.4,5.8,1,8.5,2V66.4z"/>
	</g>
	<g>
		<path class="st1" d="M117.2,84c-0.2,0.1-0.4,0.3-0.7,0.4v21.1h2.6V83.6c-0.2,0-0.3-0.1-0.6-0.1C118,83.6,117.7,83.7,117.2,84z"/>
		<path class="st1" d="M110.9,83.6v21.9h3.3V84.8c-1.1-0.1-1.8-0.5-2.3-0.8C111.6,83.8,111.3,83.7,110.9,83.6z"/>
		<path class="st1" d="M105.9,84.7v20.7h2.6V84.3c-0.5,0.2-1.1,0.5-2.1,0.5C106.3,84.8,106.1,84.8,105.9,84.7z"/>
		<path class="st1" d="M136.7,82.5v-1.4c0.3-0.2,0.5-0.4,0.7-0.6c1.2-1.2,1.9-2.8,1.7-4.4c-0.3-2.6-2.4-4.5-2.9-7
			c-0.3-1.4-0.1-2.7,0.1-4.1c0-0.2-0.2-0.4-0.4-0.3c-0.1,0-0.2,0.1-0.2,0.1c-0.2,0.1-0.5,0.3-0.7,0.4c-0.5,0.3-0.9,0.5-1.4,0.8
			c-1.7,1-3.4,2.3-4.6,3.8c-1.1,1.3-1.9,2.9-1.9,4.6c0,1.8,0.4,3.6,1.5,5c0.3,0.4,0.6,0.7,0.9,1c0.2,0.2,0.4,0.4,0.6,0.5
			c0,0,0,0,0,0v1.5c0,0.3,0.3,0.6,0.6,0.6h0.1l-2.4,22.1h9.9l-2.4-22.1h0.1C136.5,83.1,136.7,82.9,136.7,82.5z"/>
		<path class="st1" d="M115,68.7l-1.2-3.2h-2.5l-1.2,3.2l-0.5,0.7l-4,6.3v6.4c0.1,0,0.2,0.1,0.3,0.1c0.2,0,0.3,0.1,0.6,0.1
			c0.7,0,0.9-0.2,1.4-0.4c0.5-0.3,1.2-0.7,2.3-0.8c0.1,0,0.2,0,0.4,0c0.1,0,0.3,0,0.4,0c1.1,0.1,1.8,0.5,2.3,0.8
			c0.4,0.3,0.7,0.4,1.4,0.4c0.7,0,0.9-0.2,1.4-0.4c0.5-0.3,1.2-0.7,2.3-0.8c0.1,0,0.2,0,0.4,0s0.3,0,0.4,0c0.1,0,0.1,0,0.2,0
			c0.1,0,0.2,0,0.3,0v-5.4l-4-6.3L115,68.7z"/>
	</g>
</g>
</svg>
