<?xml version="1.0" encoding="utf-8"?>
<!-- Generator: Adobe Illustrator 25.4.1, SVG Export Plug-In . SVG Version: 6.00 Build 0)  -->
<svg version="1.1" id="圖層_1" xmlns="http://www.w3.org/2000/svg" xmlns:xlink="http://www.w3.org/1999/xlink" x="0px" y="0px"
	 viewBox="0 0 170 120" style="enable-background:new 0 0 170 120;" xml:space="preserve">
<style type="text/css">
	.st0{fill:#EE4028;}
	.st1{fill:#FFFFFF;}
</style>
<g>
	<rect class="st0" width="170" height="120"/>
</g>
<g>
	<path class="st1" d="M9.3,37.5L9.1,36c7.1,0.4,10.2-1.8,10.4-6.6c0.2-3.8-1.8-4.9-3.7-4.9c-2,0-3.2,0.6-3.8,1.3l-2.1-0.4l0.4-11.5
		h11.5v2.1H13l-0.3,7.5l0.1,0.1c0.6-0.4,2-1.1,3.6-1.1c3.3,0,6.4,2.3,6.4,6.4C22.9,35.7,17.6,38.3,9.3,37.5z"/>
</g>
<g>
	<path class="st1" d="M34.6,16.9c0.1,1.4,0.2,3.6-0.2,4.9l-1.6-0.6c0.6-1.1,0.9-2.7,1-4.3L34.6,16.9z M47.5,27.6v1h-9.7v-1h4v-3.9
		h-3v-1h3v-3.3h-1.7c-0.5,1.2-1.1,2.3-1.7,3l-0.7-0.4c0.3-0.5,0.5-1.2,0.7-2l-0.8,0.3c-0.2-1-0.4-2.1-0.6-3.1v12.1H35V14.5h1.9v2.4
		l0.6-0.2c0.4,0.7,0.8,1.4,1.1,2.1c0.2-1.1,0.4-2.4,0.5-3.4l2.1,0.4c-0.2,0.9-0.4,1.8-0.7,2.7h1.3v-3.8h2v3.8h3.3v1h-3.3v3.3h3.1v1
		h-3.1v3.9H47.5z"/>
	<path class="st1" d="M53.4,21.8H57c-0.1,2.6-0.2,4.4-0.4,5.6c-0.4,2-2.4,2.3-4.4,0.7l0.3-0.8c1.8,0.4,2.1,0.3,2.3-0.6
		c0.1-1,0.2-2.2,0.3-3.9h-1.8c-0.4,2.9-1.3,5.1-3.7,6.6L49,28.7c1.8-1.9,2.3-4.3,2.4-8.3h-1.5v-5.1h6.9v5.1h-3.4
		C53.4,20.9,53.4,21.3,53.4,21.8z M51.8,19.4H55v-3.1h-3.2V19.4z M62.7,14.6v12.7c0,2.2-2.2,2.6-4.9,1l0.2-0.8
		c2.3,0.4,2.8,0.3,2.8-0.5V14.6H62.7z M59.7,25.5h-1.8v-9.3h1.8V25.5z"/>
	<path class="st1" d="M71.2,23.5h-5.9v-1.1h5.9v-6.1H66v-1.1h12.5v1.1h-5.2v6.1h6v1.1h-6v5.9h-2.2V23.5z M66.8,17.2l0.8-0.4
		c1.2,1.2,2.3,2.8,3,4.2l-2.1,0.9C68,20.2,67.5,18.7,66.8,17.2z M74,21.5c0.7-1.4,1.2-2.8,1.6-4.8l2.3,0.8c-1,1.9-1.9,3.2-3.2,4.4
		L74,21.5z"/>
	<path class="st1" d="M85,21.2v8.1h-1.9v-6.8c-0.4,1.1-0.9,2.1-1.5,2.9L81,24.9c0.8-1.5,1.4-3.7,1.8-6.2h-1.5v-1h1.8v-3.2H85v3.2
		h1.4v1H85v0.9c0.7,0.7,1.3,1.5,1.9,2.3l-1.2,0.8C85.4,22.2,85.2,21.7,85,21.2z M92.5,27.6h2.8v0.9h-6.4v0.7H87v-4.9
		c-0.4,0.4-0.8,0.7-1.1,0.9l-0.5-0.6c1.1-1.2,2.1-2.9,2.6-4.3h-1.2v-2.7h3.7v2.6c0.7,0.2,1.5,0.5,2.2,0.9l-0.5,0.7h2.9v0.9h-2.6v0.9
		h2.3v0.9h-2.3v1h2.3v0.9h-2.3V27.6z M95.4,15.5v0.9h-1.9v0.8h-1.8v-0.8h-1.8v0.8h-1.8v-0.8h-2v-0.9h2v-1.1h1.8v1.1h1.8v-1.1h1.8
		v1.1H95.4z M88.1,19.5h1.1v-1h-1.1V19.5z M88.1,20.4l1.6,0.6c-0.2,0.3-0.4,0.6-0.6,0.9h2.2c-0.5-0.4-0.9-0.7-1.4-1.1l0.3-0.5H88.1z
		 M90.6,22.9h-1.7v0.9h1.7V22.9z M90.6,24.7h-1.7v1h1.7V24.7z M90.6,26.6h-1.7v1h1.7V26.6z M94.9,20.4h-3.8v-2.7h3.8V20.4z
		 M93.6,18.5h-1.1v1h1.1V18.5z"/>
</g>
<path id="Woman" class="st1" d="M68.7,81.4c0-8.8-7.2-16-16-16c-8.8,0-16,7.2-16,16c0,8,5.9,14.6,13.5,15.8v4.4h-3.9v4.9h3.9v3.5
	h4.9v-3.5h3.9v-4.9h-3.9v-4.4C62.9,96,68.7,89.4,68.7,81.4z M41.7,81.4c0-6.1,5-11.1,11.1-11.1c6.1,0,11.1,5,11.1,11.1
	c0,6.1-5,11.1-11.1,11.1C46.6,92.5,41.7,87.5,41.7,81.4z"/>
<path id="Man" class="st1" d="M126.8,68.8l3-11l-11,3l2.3,2.3l-5.8,5.8c-2.7-2-6.1-3.2-9.7-3.2c-9,0-16.4,7.3-16.4,16.4
	c0,9,7.3,16.4,16.4,16.4c9,0,16.4-7.3,16.4-16.4c0-3.6-1.2-7-3.2-9.7l5.8-5.8L126.8,68.8z M105.6,93.3c-6.3,0-11.4-5.1-11.4-11.4
	c0-6.3,5.1-11.4,11.4-11.4c6.3,0,11.4,5.1,11.4,11.4C117,88.2,111.9,93.3,105.6,93.3z"/>
<g>
	<rect x="61.1" y="75.1" class="st1" width="35.8" height="4.9"/>
	<rect x="61.1" y="84.5" class="st1" width="35.8" height="4.9"/>
</g>
</svg>
