<?xml version="1.0" encoding="utf-8"?>
<!-- Generator: Adobe Illustrator 25.4.1, SVG Export Plug-In . SVG Version: 6.00 Build 0)  -->
<svg version="1.1" id="圖層_1" xmlns="http://www.w3.org/2000/svg" xmlns:xlink="http://www.w3.org/1999/xlink" x="0px" y="0px"
	 viewBox="0 0 170 120" style="enable-background:new 0 0 170 120;" xml:space="preserve">
<style type="text/css">
	.st0{fill:#2E9947;}
	.st1{fill:#FFFFFF;}
</style>
<g>
	<rect class="st0" width="170" height="120"/>
</g>
<g>
	<path class="st1" d="M14.1,26.7c-0.4,0-0.9,0-1.4,0.1v-2.2c3.6-0.3,6-2.5,6-4.7c0-2-1.3-3.6-3.7-3.6c-2.4,0-4,1-5.3,2v-2.6
		c0.7-0.4,2.8-1.2,5.9-1.2c4.9,0,6.5,2.2,6.5,5.3c0,3.1-3,4.7-5.1,5.4v0.2c2.8,0.1,6.2,2.1,6.2,6c0,5.9-4.4,7.3-9,7.4
		c-1.5,0-3.5-0.2-4.8-0.6l-0.2-1.6c1.4,0.4,3.1,0.5,4.3,0.5c4.1-0.2,6.3-1.4,6.3-5.5C19.8,28.6,16.7,26.7,14.1,26.7z"/>
</g>
<g>
	<path class="st1" d="M45.6,25.1l-0.4,1.7c-0.7,0-1.4,0.1-2,0.1c-2.1,0-3.9-0.2-5.3-1.5c-0.4,0.8-1,1.4-1.6,1.8l-0.5-0.5
		c0.6-0.6,1-1.4,1.3-2.2c-0.5-0.8-0.9-1.9-1.2-3.3l0.6-0.2c0.2,0.9,0.5,1.7,0.9,2.3c0.3-1,0.4-2.1,0.4-3.3h-0.5l-0.3,0.7l-1.3-0.3
		c0.4-1.1,0.9-2.6,1.4-4.1h-1.1V16c-0.1,0.5-0.3,1-0.4,1.5V27h-1.6v-6.4c-0.3,0.4-0.5,0.7-0.8,1.1l-0.5-0.5c1.2-2.1,1.8-5.1,2.1-7.2
		l1.6,0.3c-0.1,0.3-0.1,0.6-0.2,1H39c-0.4,1.2-0.8,2.4-1.3,3.7h0.2l0.3-0.3l1.2,0.3c-0.1,2.1-0.4,3.8-1,5.2c0.7,0.6,1.6,0.9,2.7,1
		v-1.8h-2v-0.8h2v-0.9h-1.6v-0.8h1.6V20h-1.4v-0.9h1.4v-1h-2.2v-0.8h2.2v-1h-1.7v-0.8h1.6v-1.3h1.5v1.3h2v1.8h0.8v0.8h-0.8V20h-2
		v0.9h2.1v0.8h-2.1v0.9h2.5v0.8h-2.5v1.8C43.9,25.3,44.7,25.2,45.6,25.1z M42.6,17.2h0.7v-1h-0.7V17.2z M42.6,19.1h0.7v-1.1h-0.7
		V19.1z"/>
	<path class="st1" d="M59.6,24.8l-0.9,1.7c-1.1-0.5-2.7-1.6-3.8-3.3v2.3c0,1.7-1.8,2.1-4,0.9l0.2-0.7c1.8,0.3,2,0.1,2-0.6V24
		c-1,0.8-2.5,1.6-3.5,2L49,24.4c-0.3,1-0.8,1.9-1.5,2.7l-0.6-0.4c0.9-1.9,1-3.4,1-7.8v-3.4h6c-0.8-0.4-1.6-0.7-2.2-1l0.1-0.7
		c1.1,0.1,2.5,0.3,3.7,0.7l-0.5,1h4.3v0.9h-4.4v0.9H58v1.6h1.3v0.8H58v1.6h-3.1v0.4c0.4,0.5,0.8,0.9,1.3,1.3c0.5-0.4,1-1,1.5-1.7
		l1.3,1.1c-0.6,0.5-1.3,0.9-1.9,1.1C57.9,24.3,58.8,24.6,59.6,24.8z M53.2,23.2v-1.8h-2.9v-0.8h2.9v-0.8h-3.6c0,1.3-0.1,3.1-0.6,4.7
		C50.3,24.2,52.1,23.6,53.2,23.2L53.2,23.2z M49.6,16.4v2.5h3.6v-0.8h-2.8v-0.8h2.8v-0.9H49.6z M50.1,21.6c0.7,0.2,1.6,0.5,2.4,0.9
		l-0.8,1.2c-0.6-0.5-1.3-1.1-1.9-1.5L50.1,21.6z M54.9,18.2v0.8h1.4v-0.8H54.9z M56.3,19.8h-1.4v0.8h1.4V19.8z"/>
	<path class="st1" d="M65.4,23.7l1.4,0.9c-1.4,1.2-3.8,2.4-5.7,2.7l-0.3-0.7c1.7-0.8,3.1-1.7,4.1-2.9h-3.9v-0.8h1
		c-0.1-2.7-0.2-4.9-0.3-7.6l1.2,0.2c0.6-0.4,1.1-0.9,1.6-1.4l1.2,1.2c0-0.3,0.1-0.6,0.1-0.9l1.5,0.2c0,0.4-0.1,0.9-0.2,1.4h2v0.8
		h-2.1C67.1,17,67,17.4,67,17.8h2.3c-0.1,1.8-0.3,3.5-0.4,5h1.8l0.1-2h-1.3V20h1.3l0.1-1.7h-1.3v-0.8H71l0.1-1.8h-1.6v-0.8h3.2
		l-0.5,7.9h1.2v0.8H65.4z M63.7,22.8h1.4c0.2-1.2,0.3-2.2,0.4-3.4l1.4,0.2c-0.1,1.2-0.2,2-0.4,3.1h0.8c0.1-1.3,0.3-2.9,0.3-4.2h-0.9
		c0,0.2-0.1,0.4-0.1,0.6L65.3,19c0.2-1.2,0.4-2.6,0.5-3.9c-0.7,0.4-1.6,0.7-2.3,0.9c0,0.5,0,0.9,0.1,1.4h1.5v0.8h-1.5
		c0,0.6,0,1.1,0.1,1.7h1.4v0.8h-1.4C63.7,21.4,63.7,22.1,63.7,22.8z M73.8,25.6l-1,1.8c-1.4-1.1-3.1-2.1-4.6-3l0.3-0.7
		C70.3,24.1,71.9,24.6,73.8,25.6z"/>
	<path class="st1" d="M79.7,20.9H87v6.2h-1.7v-0.7h-3.9v0.8h-1.7V22L79,22.7c-0.2-0.4-0.4-0.8-0.6-1.2v5.6h-1.7V22
		c-0.4,0.4-1,0.7-1.5,1.1l-0.4-0.6c1.7-1.5,2.7-3.2,3.2-4.8h-2.9v-0.9H77c-0.3-0.9-0.8-1.7-1.2-2.5l0.6-0.4c0.8,0.6,1.5,1.4,2,2.1
		l-1.3,0.8H78l0.4-0.3l1.5,0.7c-0.4,1.1-0.9,2-1.5,2.9c0.5,0.4,0.9,0.7,1.3,1.2V20.9z M87,14.9v0.8h-7.5v-0.8H87z M86.3,16.7v3.2
		h-5.9v-3.2H86.3z M81.4,23.2h1.2v-1.5h-1.2V23.2z M81.4,25.5h1.2V24h-1.2V25.5z M84.7,17.6h-2.6v1.5h2.6V17.6z M84.1,23.2h1.2v-1.5
		h-1.2V23.2z M84.1,25.5h1.2V24h-1.2V25.5z"/>
	<path class="st1" d="M101.5,25.9v0.9h-8.3v-0.9h1.3v-4.1l-1.1,0.9c-0.3-0.5-0.5-1-0.8-1.5v5.9h-1.8v-5.3c-0.5,0.4-1.1,0.8-1.7,1.1
		l-0.4-0.6c1.6-1.3,2.7-2.8,3.4-4.7H89v-0.8h2c-0.3-0.8-0.7-1.8-1-2.5l0.6-0.4c0.6,0.5,1.4,1.3,1.9,2.2l-1.2,0.7h0.9l0.4-0.3
		l1.6,0.8c-0.4,1-0.9,1.9-1.4,2.6c0.6,0.4,1.2,0.9,1.8,1.5v-3.9h1.6v8.4h1.1V14.2h1.8v5.1h2.1v0.9h-2.1v5.8H101.5z"/>
</g>
<g>
	<g>
		<path class="st1" d="M60.4,57.7c-5.1-0.5-11.5,2.1-13.1,6.5c-1.4-4.4-9.2-7.3-14.3-7c-13.4,0.8-18.3,16-12.8,26.3
			c3,5.6,7.3,10.5,12,14.9c1.3,1.2,3.3,2.9,5.3,4.6c0,0,0,0,0,0c1.7,1.4,3.5,2.8,5,4c0.3-2.3,0.8-5.3,0.7-6
			c-0.2-1.6-0.9-3.2-2.1-4.3c-1.2-1.2-2.6-2.2-3.6-3.5c-0.5-0.6-0.8-1.2-1.3-1.9c-0.4-0.6-0.9-1.2-1.4-1.8c-1-1.2-2-2.3-3.1-3.5
			c-0.9-1-1.8-1.9-2.6-3c-0.5-0.7-1.1-1.7-0.4-2.5c0.5-0.6,1.2-0.9,2-0.6c0.8,0.4,1.5,1.1,2.2,1.7c0.8,0.8,1.5,1.7,2.3,2.6
			c0.5,0.5,0.9,1.2,1.5,1.6c1.1,0.7,2.9,0.7,3.8-0.3c0.7-0.8,0.6-1.9,0.3-2.9c-0.3-1.4-0.8-2.7-1.1-4.1c-0.6-2.7-1.1-5.4-1.2-8.1
			c0-0.8-0.1-1.6,0.1-2.4c0.1-0.5,0.5-0.7,0.9-0.9c1.8-0.8,2.4,1.6,2.6,2.9c0.2,1.7,0.4,3.3,0.9,4.9c0.3,1,0.8,2.1,1.5,2.9
			c0.2,0.2,0.5,0.7,0.7,0.3c0.2-0.5,0.1-1.2,0.2-1.8c0-0.8,0.2-1.6,0.2-2.4c0-0.9,0-1.8-0.1-2.7c-0.1-1.3-0.3-2.7,0-3.9
			c0.2-0.8,0.9-1.6,1.8-1.5c0.9,0.1,1.2,1.1,1.3,1.9c0.1,0.5,0.1,1,0.1,1.4c0,0.6,0,1.1,0,1.7c0,2.1,0,4.3,0.5,6.3
			c0.1,0.3,0.1,0.8,0.4,1c0.3,0.3,0.5-0.2,0.6-0.4c0.4-1.1,0.5-2.5,0.5-3.7c0-1.1,0.1-2.2,0-3.3c-0.1-1-0.1-2.3,0.5-3.1
			c0.5-0.6,1.4-0.6,1.9-0.1c0.6,0.6,0.7,1.6,0.7,2.4c0.2,2,0.1,4.2-0.2,6.2c-0.1,1-0.2,2-0.2,2.9c0,0.4-0.1,2,0.6,1.6
			c0.8-0.5,1.2-1.6,1.4-2.5c0.2-1.1,0.3-2.2,0.5-3.2c0.1-0.8,0.2-1.7,0.7-2.3c0.3-0.4,1-0.6,1.4-0.5c0.5,0.2,0.6,0.8,0.7,1.3
			c0.1,1.1,0,2.3,0,3.4c-0.1,2.6-0.3,5.1-0.8,7.7c-0.5,2.6-1,5.3-1.8,7.9c-0.3,1-0.6,2-1.1,3c-0.4,1-1.1,1.9-1.6,2.9
			c-0.1,0.3-0.3,0.7-0.3,1.1c0,0.5,0.2,0.9,0.3,1.4c0,0.1,0,0.3,0.1,0.4c0.1,0.5,0.3,1.9,0.5,3.1c2.7-2,5.4-4.1,7.1-5.5
			c4.9-4.2,9.4-8.9,12.6-14.4C79.5,74.4,73.8,59.1,60.4,57.7z"/>
		<path class="st1" d="M54.4,87.1c-1.5,0-3.1,0-4.6,0c-0.1,0-0.3,0-0.4,0c0-1.1,0-2.3,0-3.4c0-0.6,0-1.1,0-1.7
			c0-0.2-0.2-0.3-0.3-0.3c-1,0-1.9,0-2.9,0c-0.2,0-0.3,0.2-0.3,0.3c0,1.5,0,3.1,0,4.6c0,0.1,0,0.3,0,0.4c-1.1,0-2.3,0-3.4,0
			c-0.6,0-1.1,0-1.7,0c-0.2,0-0.3,0.2-0.3,0.3c0,1,0,1.9,0,2.9c0,0.1,0,0.2,0.1,0.2c0.1,0.1,0.1,0.1,0.2,0.1c1.5,0,3.1,0,4.6,0
			c0.1,0,0.3,0,0.4,0c0,1.1,0,2.3,0,3.4c0,0.6,0,1.1,0,1.7c0,0.2,0.2,0.3,0.3,0.3c1,0,1.9,0,2.9,0c0.1,0,0.2,0,0.2-0.1
			c0.1-0.1,0.1-0.1,0.1-0.2c0-1.5,0-3.1,0-4.6c0-0.1,0-0.3,0-0.4c1.1,0,2.3,0,3.4,0c0.6,0,1.1,0,1.7,0c0.2,0,0.3-0.2,0.3-0.3
			c0-1,0-1.9,0-2.9C54.8,87.3,54.6,87.1,54.4,87.1z"/>
	</g>
	<path class="st1" d="M152,80.4c-6.7,0.2-13.3,0.3-20,0.5c-0.6,0-1.1-0.4-1.2-0.9c-2-7.3-4-14.5-6-21.8c-0.2,0.7-0.5,1.4-0.7,2.1
		c-4.9,14.5-9.8,28.9-14.7,43.4c-0.4,1.2-2.1,1.1-2.5,0c-0.5-1.5-1.1-3.1-1.6-4.6c-3.4-9.8-6.8-19.5-10.3-29.3
		c-2.1,4-4.2,7.9-6.2,11.9c-0.2,0.4-0.7,0.6-1.1,0.6c-7.3,0-14.7,0-22.1,0c-1.7,0-1.7-2.4,0-2.4c7.1,0,14.2,0,21.2,0
		c2.4-4.6,4.8-9.3,7.3-13.9c0.5-1,2-0.6,2.4,0.3c0.5,1.5,1.1,3.1,1.6,4.6c3.3,9.5,6.7,19,10,28.6c0.3-0.8,0.6-1.7,0.9-2.5
		c4.9-14.5,9.8-28.9,14.7-43.4c0.4-1.1,2.2-1.2,2.5,0c2.3,8.3,4.6,16.6,6.9,24.9c6.3-0.2,12.7-0.3,19-0.5
		C153.6,77.9,153.6,80.3,152,80.4z"/>
</g>
</svg>
