<?xml version="1.0" encoding="utf-8"?>
<!-- Generator: Adobe Illustrator 25.4.1, SVG Export Plug-In . SVG Version: 6.00 Build 0)  -->
<svg version="1.1" id="圖層_1" xmlns="http://www.w3.org/2000/svg" xmlns:xlink="http://www.w3.org/1999/xlink" x="0px" y="0px"
	 viewBox="0 0 170 120" style="enable-background:new 0 0 170 120;" xml:space="preserve">
<style type="text/css">
	.st0{fill:#02538A;}
	.st1{fill:#FFFFFF;}
	.st2{fill-rule:evenodd;clip-rule:evenodd;fill:#FFFFFF;}
</style>
<g>
	<rect class="st0" width="170" height="120"/>
</g>
<g>
	<path class="st1" d="M9.4,17.3l-4.9,2.1V17l5.8-2h2.4v23.5H9.6V17.3H9.4z"/>
	<path class="st1" d="M24.7,38.9c-5.6,0-7.8-4.8-7.8-10.9c0-8.3,4.8-13.5,13.2-13.5l0.3,1.4c-6.9,0-10.5,5.5-10.5,10.8l0.2,0
		c0.8-1.8,2.6-3.7,5.5-3.6c4.3,0,6.8,3.8,6.8,7.6C32.4,34.8,30.2,38.9,24.7,38.9z M24.9,25c-2.4,0-4.5,2.2-4.5,5.5
		c0,3.7,1.9,6.5,4.5,6.6c2.8,0,4.2-2.4,4.2-6.2C29.1,26.9,27.2,25,24.9,25z"/>
</g>
<g>
	<path class="st1" d="M48,23.9L46.6,25c-0.4-0.7-0.8-1.5-1.2-2.2v6.9h-2v-6.1c-0.6,1.3-1.6,2.7-2.8,3.8l-0.6-0.6
		c1.2-1.6,2.4-4,3-6.5h-2.4v-1h2.7v-2.1c-1,0.1-1.9,0.2-2.6,0.3l-0.1-0.8c2.2-0.4,4-1.1,5.6-2.1l1.4,1.6c-0.7,0.3-1.5,0.5-2.3,0.7
		v2.5h2.3v1h-2.3v1C46.2,22,47.4,23,48,23.9z M53.7,16.7v12.4h-1.9v-1.5h-1.9v1.7H48V16.7H53.7z M51.8,17.7h-1.9v8.9h1.9V17.7z"/>
	<path class="st1" d="M62.2,24h-5.9v-1.1h5.9v-6.1H57v-1.1h12.5v1.1h-5.2v6.1h6V24h-6v5.9h-2.2V24z M57.8,17.7l0.8-0.4
		c1.2,1.2,2.3,2.8,3,4.2l-2.1,0.9C59,20.7,58.5,19.2,57.8,17.7z M65,22c0.7-1.4,1.2-2.8,1.6-4.8l2.3,0.8c-1,1.9-1.9,3.2-3.2,4.4
		L65,22z"/>
	<path class="st1" d="M76.4,20.8l0.7-0.9c1.8,1,3.5,2.2,4.9,3.4l-1.8,2C79,23.6,77.8,22.2,76.4,20.8z"/>
	<path class="st1" d="M102.3,28v1.1h-14V28h2.1V20h2.1V28h2.4V17h-5.9v-1.1h12.8V17H97v4.6h4.1v1.1H97V28H102.3z"/>
	<path class="st1" d="M116.8,29.8c-1.3-0.1-2.3-0.7-3-1.6c-1.2,0.7-2.5,1.1-3.9,1.3l-0.2-0.8c1.3-0.4,2.5-1,3.4-1.6
		c-0.4-0.7-0.7-1.6-0.8-2.4h-2.7v0.9c0.8-0.1,1.5-0.2,2.1-0.3l0.2,0.7c-0.6,0.2-1.4,0.4-2.3,0.7V28c0,1.9-1.8,2.2-4.2,1l0.2-0.8
		c1.9,0.2,2.1,0.1,2.1-0.6V27c-1.1,0.2-2.1,0.4-3.1,0.5l-0.3-1.6c1.1,0,2.3-0.1,3.4-0.2v-1.1h-3.2v-1h3.2v-0.7
		c-0.8,0.1-1.6,0.1-2.5,0.1l-0.1-0.8c1.8-0.2,3.4-0.6,4.5-1.1h-4.7v-0.9h5.4v-0.8h-4.2v-0.9h4.2v-0.7h-4.9v-0.9h3.5
		c-0.4-0.6-0.8-1.2-1.2-1.7l0.5-0.6c0.8,0.4,1.8,1,2.4,1.7l-0.7,0.6h2.4c0.3-0.7,0.6-1.6,0.9-2.3l1.9,0.9c-0.5,0.5-1,1-1.6,1.4h3.6
		v0.9h-4.9v0.7h4.2v0.9h-4.2v0.8h5.4v0.9h-7.4l1.2,1c-0.7,0.2-1.3,0.3-2,0.4v1h2.5c-0.1-0.7-0.2-1.4-0.2-2.2l1.8,0
		c0,0.7,0.1,1.5,0.3,2.2h2.2c-0.6-0.6-1.5-1.3-2-1.7l0.4-0.6c0.9,0.3,2.1,0.9,2.9,1.4l-0.8,1h1.4v1H116l1.2,0.8
		c-0.5,0.7-1.1,1.2-1.8,1.7c0.4,0.4,0.8,0.7,1.2,0.8c0.5,0.1,0.6-0.4,0.7-2.1h0.8C118.6,28.3,118.4,30,116.8,29.8z M114.2,24.6
		c0.1,0.4,0.3,0.8,0.4,1.2c0.4-0.4,0.7-0.8,1-1.2H114.2z"/>
	<path class="st1" d="M133.3,29.9c-1.6-0.5-3.2-1.3-4.6-2.5c-1.6,1.3-3.7,2.2-6.2,2.6l-0.3-0.8c2.3-0.8,4-1.8,5.3-3
		c-1.1-1.3-1.9-2.9-2.4-4.9c-0.7,3.6-2.1,6.6-4.6,8.5l-0.5-0.6c2.6-3.1,3.3-6.9,3.4-12.4h-2.5v-1.1h9.9c-0.3,1.7-0.8,3.3-1.1,4.4
		h0.8l0.5-0.5l2,0.9c-0.7,2.2-1.6,4-2.9,5.5c1.3,0.7,2.7,1.2,4.3,1.6L133.3,29.9z M125.6,16.8c0,1.1-0.1,2.2-0.3,3.3h2.3
		c0.3-1,0.6-2.2,0.8-3.3H125.6z M130.5,21.1H126c0.6,1.7,1.5,2.9,2.6,3.9C129.5,23.8,130.1,22.5,130.5,21.1z"/>
	<path class="st1" d="M54.5,46.7L54,48.6c-0.8,0-1.6,0.1-2.3,0.1c-2.4,0-4.5-0.3-6-1.7c-0.5,0.9-1.1,1.6-1.8,2.1l-0.6-0.6
		c0.7-0.7,1.2-1.6,1.5-2.6c-0.6-0.9-1.1-2.2-1.3-3.8l0.7-0.2c0.3,1.1,0.6,1.9,1.1,2.6c0.3-1.2,0.4-2.4,0.5-3.8h-0.6l-0.3,0.8
		l-1.5-0.4c0.5-1.3,1.1-3,1.6-4.7h-1.2v-0.2c-0.1,0.5-0.3,1.1-0.5,1.7v11h-1.8v-7.3c-0.3,0.4-0.6,0.8-0.9,1.2l-0.6-0.6
		c1.4-2.4,2.1-5.8,2.4-8.2l1.9,0.3c-0.1,0.4-0.1,0.7-0.2,1.1h3c-0.4,1.4-0.9,2.8-1.4,4.2h0.2l0.3-0.3l1.4,0.4
		C47.3,42,47,44,46.3,45.6c0.8,0.7,1.9,1,3.1,1.2v-2h-2.3v-1h2.3v-1h-1.8v-1h1.8v-1h-1.6v-1h1.6v-1.2h-2.5v-1h2.5v-1.1h-1.9v-1h1.9
		v-1.4h1.8v1.4h2.3v2h0.9v1h-0.9v2.2h-2.3v1h2.4v1h-2.4v1H54v1h-2.9v2.1C52.6,46.9,53.5,46.8,54.5,46.7z M51.1,37.7H52v-1.1h-0.8
		V37.7z M51.1,39.9H52v-1.2h-0.8V39.9z"/>
	<path class="st1" d="M64.4,47.3H70v1.1H56.6v-1.1h5.5v-2.5h-3.9v-1.1h3.9v-2.3H59V41c-0.9,0.5-1.8,0.9-2.8,1.2l-0.4-0.8
		c2.8-1.5,4.6-3.6,5.5-5.6h-3.2v-1.1h6c1.1,2.2,3.3,4.1,6.5,5.2l-1.2,2.1c-0.7-0.3-1.3-0.7-2-1.2v0.5h-3.3v2.3h3.9v1.1h-3.9V47.3z
		 M66.9,40.3c-1.4-1.2-2.6-2.7-3.2-4.3c-0.7,1.6-2,3.1-3.6,4.3H66.9z"/>
	<path class="st1" d="M77.6,39.5H81v1h-3.4v1.3h3V46c0,1.4-1.5,1.7-3,0.9v1.9h-1.9v-6.2h-1.2v5.1h-1.8v-6h3v-1.3h-3.5v-1h3.5v-1.8
		h-1.6c-0.4,0.7-0.7,1.2-1.2,1.7l-0.7-0.4c0.6-1.4,0.9-3,1.1-4.5l1.8,0.4c-0.2,0.6-0.4,1.3-0.6,1.9h1.1v-2.5h1.9v2.5h2.9v0.9h-2.9
		V39.5z M77.6,42.7v3.6l0-0.2c1,0.1,1.2,0,1.2-0.4v-3H77.6z M85.7,34.2V47c0,2-1.6,2.7-4.6,1.1l0.2-0.8c2.4,0.3,2.6,0.2,2.6-0.7
		V34.2H85.7z M83,45.5h-1.7v-9.6H83V45.5z"/>
	<path class="st1" d="M91.2,40.1c0,4.1-0.7,7.3-2.5,9l-0.7-0.5c0.9-1.8,1.1-3.7,1.1-8.5v-4.3h6.5c-0.8-0.4-1.7-0.8-2.4-1l0.2-0.8
		c1.3,0.1,2.8,0.3,4.1,0.8l-0.5,1.1h4.8v1H91.2v1.6h2v-1.2h1.9v1.2h2.5v-1.3h1.9v1.3h2.3v1h-2.3v2.4h-6.3v-2.4h-2V40.1z M101.2,48.9
		c-1.6-0.3-3.2-0.8-4.6-1.6c-1.7,0.9-3.7,1.4-6,1.6l-0.2-0.8c2-0.4,3.6-0.9,4.9-1.7c-0.9-0.8-1.7-1.8-2.2-3h-1.3v-1h6.6l0.6-0.4
		l1.8,1c-0.7,1.3-1.5,2.3-2.5,3.2c1.2,0.4,2.4,0.5,3.8,0.7L101.2,48.9z M96.6,45.6c0.7-0.6,1.3-1.3,1.8-2.1h-4.3
		C94.8,44.4,95.7,45.1,96.6,45.6z M95.1,40.7h2.5v-1.4h-2.5V40.7z"/>
</g>
<g>
	<path class="st1" d="M110.4,78.4c0.1,0.1,0.1,0.1,0.2,0.2c3.2-2.7,6.5-5.4,9.7-8.1c0,0-0.1-0.1-0.1-0.1
		C116.1,72.1,113.2,75.1,110.4,78.4z"/>
	<path class="st1" d="M85.9,84.4c-1.4-0.2-2.8-0.5-4.2-0.3c-0.8,0.1-1.5,0.4-2.2,0.7c-2.1,1.1-4.3,1.4-6.7,0.7
		c-0.9-0.3-1.8-0.4-2.7-0.6c-0.2-0.1-0.4-0.1-0.8-0.3c0.4-0.3,0.6-0.5,0.9-0.6c1.8-1,3.8-1.2,5.8-0.9c1.2,0.1,2.5,0.1,3.7,0.1
		c-0.8-0.6-1.7-1.1-2.6-1.5c-0.7-0.3-1.4-0.5-2.2-0.4c-1.8,0.1-3.4-0.4-4.8-1.5c-1.1-0.8-2.1-1.8-3.1-2.8c-0.2-0.1-0.2-0.4-0.4-0.6
		c0.3-0.4,0.7-0.2,1-0.1c2.5,0.9,5.1,1.4,7.3,2.8c0,0,0.1,0,0.3,0c-3-3.7-5.4-7.6-5.2-12.7c0.3,0.2,0.4,0.3,0.5,0.4
		c0.5,0.5,0.9,1,1.4,1.6c1.5,1.8,2.3,3.8,2.3,6.1c0,2.2,0.9,4,2.6,5.4c0.6,0.5,1.3,1,2.1,1.6c-0.5-1.4-1-2.5-1.3-3.7
		c-0.3-1.2-0.5-2.5-0.6-3.7c-0.1-1.2-0.3-2.5,0-3.7c0.1,0,0.2-0.1,0.2-0.1c0.2,0.2,0.4,0.4,0.6,0.7c1.2,2,2.1,4,2,6.4
		c0,0.9,0,1.9,0.1,2.8c0,0.2,0,0.5,0.1,0.7c0.1,0.9,0.5,1.4,1.3,1.9c1.1,0.6,2.2,1,3.6,0.9c-0.2-0.2-0.3-0.3-0.4-0.4
		c-0.7-0.6-1.5-1.2-2.2-1.9c-0.6-0.6-1-1.4-1.4-2.1c-0.1-0.2-0.1-0.5-0.2-0.7c0.2,0,0.3-0.1,0.4,0c1.5,0.7,2.8,1.6,3.7,3
		c0.3,0.4,0.5,0.9,0.7,1.4c0.2,0.6,0.6,1,1.2,1.1c0.4,0.1,0.9,0.1,1.3,0.2c0.3,0,0.6,0,0.9,0.1c0.2,0,0.3,0.2,0.4,0.3
		c-0.1,0.1-0.2,0.4-0.4,0.4c-1.2,0.1-2.2,0.9-3.2,1.4c-1.9,0.9-3.8,0.8-5.8,0.6c-0.2-0.5,0.1-0.6,0.3-0.7c0.6-0.2,1.2-0.3,1.8-0.5
		c1.3-0.3,2.5-0.6,3.8-1C86,84.6,85.9,84.5,85.9,84.4z"/>
	<path class="st1" d="M125.3,102.7c-0.2-0.4-0.5-0.7-0.8-1c-2.9-2.9-5.9-5.6-9.1-8.1c-0.3-0.2-0.6-0.5-0.8-0.7
		c0.7-0.5,1.3-0.8,1.8-1.3c0.5-0.5,0.7-1.3,1.1-2c1.9-0.4,3.6-1.2,4.1-3.5c2.7-0.8,4.1-2.5,3.7-5.4c0.3-0.2,0.7-0.3,1-0.5
		c0.9-0.5,1.7-1,2.2-1.9c0.7-1.2,0.9-2.4,0.1-3.7c-0.2-0.3-0.3-0.5-0.5-0.8c1.3-0.7,2.4-1.4,3.1-2.6c0.7-1.1,1.3-2.3,1.3-3.7
		c0-1.3,0-2.7-0.6-4c-0.4,0.2-0.8,0.2-1,0.4c-2.4,1.3-4.8,2.6-7.2,3.9c-0.2,0.1-0.4,0.2-0.6,0.3c-0.2-0.5-0.4-0.9-0.5-1.4
		c0.3-0.2,0.5-0.3,0.7-0.4c1-0.5,1.5-1.3,1.7-2.4c0.5-2.1-0.3-3.7-1.7-5.2c-0.7-0.7-0.9-0.7-1.6,0c-1.9,1.7-3.8,3.4-5.5,5.2
		c-4.3,4.5-8.3,9.2-12.7,13.7c-0.2,0.2-0.4,0.4-0.7,0.7c-0.2-0.2-0.3-0.4-0.5-0.6c-1.5-1.8-2.9-3.7-4.5-5.5
		c-1.3-1.5-2.8-2.8-4.5-3.7c-2.3-1.2-4.8-0.2-6.1,1.2c-0.7,0.8-1,1.7-0.9,2.7c0.1,0.9,0.3,1.7,0.5,2.5c0.1,0.3,0.1,0.6-0.1,0.9
		c-0.4,0.7-0.9,1.4-1.3,2.2c-0.3,0.6-0.2,0.8,0.5,1c0.4,0.1,0.9,0.1,1.3,0.2c0.8,0.1,1.6,0.2,2.3,0.3c0.9,2.5,1.7,5,2.6,7.4
		c1,2.7,2.3,5.3,4,7.6c1.7,2.2,3.8,3.6,6.4,4.5c2.4,0.8,4.8,0.8,7.3,0.3c0.9-0.2,1.7-0.4,2.6-0.6c0.1,0.2,0.2,0.4,0.2,0.5
		c1,2.4,2,4.8,3,7.2c0.3,0.8,0.8,1.5,1.3,2.2c1.2,1.4,2.5,1.2,3.3-0.6c1.1,0.4,1.8,0,2.2-1.1c0.6,0.3,1.1,0.2,1.5-0.1
		c0.5-0.4,0.5-0.9,0.5-1.4c0.1-0.1,0.2-0.1,0.3-0.1C125.7,104.7,126,103.7,125.3,102.7z M90.6,75c-0.4-0.1-0.7-0.6-0.6-1
		c0.1-0.5,0.5-0.8,0.9-0.6c0.5,0.1,0.7,0.6,0.6,1.1C91.5,74.9,91.1,75.2,90.6,75z"/>
	<g>
		<path class="st2" d="M43.8,102.1v2.5H29.1v-2.5c0-1.2,1-2.2,2.2-2.2h10.2C42.8,99.9,43.8,100.9,43.8,102.1L43.8,102.1z"/>
		<g>
			<path class="st2" d="M38.9,68.1c0.4-1,1.5-1.4,2.4-1l10.6,4.2c1,0.4,1.4,1.5,1,2.4c-0.4,1-1.5,1.4-2.4,1L40,70.5
				C39,70.1,38.5,69.1,38.9,68.1L38.9,68.1z"/>
			<path class="st2" d="M30.1,90.3c-0.4,1,0.1,2,1,2.4l10.6,4.2c1,0.4,2-0.1,2.4-1c0.4-1-0.1-2-1-2.4l-10.6-4.2
				C31.6,88.9,30.5,89.4,30.1,90.3L30.1,90.3z"/>
			<path class="st2" d="M32.5,88L39,71.4L50.7,76l-2.5,6.2c7,2.7,29.4,11,36.8,13.9c1.5,0.6,2.3,2.3,1.7,3.9
				c-0.6,1.5-2.3,2.3-3.9,1.7c-7.4-2.9-28.4-12.1-36.3-15.3l-2.5,6.2L32.5,88L32.5,88z"/>
		</g>
		<polygon class="st2" points="27.7,106.2 45.2,106.2 45.2,108.6 27.7,108.6 27.7,106.2 		"/>
	</g>
</g>
</svg>
