<?xml version="1.0" encoding="utf-8"?>
<!-- Generator: Adobe Illustrator 25.4.1, SVG Export Plug-In . SVG Version: 6.00 Build 0)  -->
<svg version="1.1" id="圖層_1" xmlns="http://www.w3.org/2000/svg" xmlns:xlink="http://www.w3.org/1999/xlink" x="0px" y="0px"
	 viewBox="0 0 170 120" style="enable-background:new 0 0 170 120;" xml:space="preserve">
<style type="text/css">
	.st02{fill:#D09F29;}
	.st1{fill:#FFFFFF;}
</style>
<g>
	<rect class="st02" width="170" height="120"/>
</g>
<g>
	<path class="st1" d="M23,21.2c0,4.2-3.3,8.3-8.3,12.8l-2.1,2v0.2h11v2.1H8.6v-1.7l2.5-2.2c5.4-4.7,8.5-9.4,8.6-12.8
		c0.1-3.5-1.2-5.2-4.7-5.2c-2.3,0-4.4,1.2-5.8,2.4v-2.6c1.4-0.7,3.8-1.6,6.3-1.6C20.5,14.5,23,17,23,21.2z"/>
</g>
<g>
	<path class="st1" d="M35.5,21.6c-0.7-0.9-1.7-2.1-2.4-2.9l0.5-0.7c1,0.4,2.4,1.2,3.3,2L35.5,21.6z M36.3,21.9l0.8,0.2
		c-0.4,2.3-1,5.2-1.6,6.7l-2.2-1C34.3,26.3,35.4,24,36.3,21.9z M34.3,14.4c1,0.4,2.4,1.3,3.2,2.1L36,17.9c-0.7-1-1.6-2.2-2.2-2.9
		L34.3,14.4z M39.2,19c-0.4-1.2-1-2.5-1.5-3.5l0.8-0.5c0.9,0.8,2,2,2.5,3L39.2,19z M43.4,19.1h3.2v8.3c0,1.7-1.3,2.6-4.4,1.1
		l0.2-0.8c1.9,0.3,2.2,0.1,2.2-0.7v-1.8H40v4h-2V19.1h3.4v-4.6h2V19.1z M44.6,20.1H40v1.6h4.6V20.1z M44.6,24.3v-1.7H40v1.7H44.6z
		 M44.4,19l-0.7-0.5c0.6-1,1.1-2.3,1.5-3.6l2,1C46.4,17,45.4,18.1,44.4,19z"/>
	<path class="st1" d="M51.6,25.5v3.8h-1.8V14.8l1.6,0.5h1.3l0.4-0.4l1.9,0.8c-0.8,2.1-1.6,3.4-2.3,4.3c1.1,1.2,1.8,2.4,1.8,3.7
		C54.5,25.6,53.4,26.5,51.6,25.5z M51.9,20.1c0.4-1.2,0.8-2.6,0.9-3.8h-1.2v8.3c0.9,0.1,1.2,0,1.2-1.2
		C52.8,22.4,52.5,21.4,51.9,20.1z M57.1,24.1c-0.8,1.7-2.3,3.5-3.6,4.3L53,27.8c1-1.2,1.9-2.8,2.4-4.4L57.1,24.1z M62.3,23h-3v4.5
		c0,2.2-2.2,2.4-4.2,0.8l0.3-0.8c1.6,0.4,1.9,0.3,1.9-0.4V23h-2.7v-1h2.7v-1.7h-1.8v-0.5c-0.5,0.4-1.1,0.8-1.7,1.1l-0.4-0.7
		c1.8-1.4,3.2-3.8,3.9-5.9l2.1,0.6c-0.1,0.2-0.2,0.4-0.3,0.6c1.2,1.4,2.3,2.3,4.7,3.3l-1.1,2c-0.5-0.3-1-0.6-1.4-1v0.6h-1.8V22h3V23
		z M60.6,19.3c-0.9-0.8-1.6-1.9-2.2-3c-0.7,1.1-1.5,2.1-2.5,3H60.6z M63.5,27.1l-1.7,1.2c-0.6-1.4-1.6-3.2-2.3-4.3l0.6-0.5
		C61.2,24.3,62.7,25.9,63.5,27.1z"/>
	<path class="st1" d="M78.6,28.8c-0.6,0.1-1.3,0.1-1.8,0c-1-0.1-1.3-0.6-1.3-1.9V16.2h-1.3v5.9c0,4.1-1.2,5.9-3.5,7.2l-0.5-0.6
		c0.6-0.6,1-1.2,1.4-1.7l-0.9,0.6c-0.1-0.3-0.3-0.7-0.5-1c-1.3,1-3.1,1.8-4.4,2.2l-0.7-1.9c0.4,0,0.7-0.1,1.1-0.2v-7.1
		c-0.3,0.2-0.6,0.4-0.9,0.6L65,19.6c1.4-1.5,2.4-3.2,3-5.3l1.9,0.5l-0.2,0.6c1,0.6,1.9,1.3,2.6,2.1v-2.2h5v11.2
		c0,0.5,0.1,0.6,0.5,0.6c0.6,0,0.6-0.2,0.6-2.5h0.8C80,27.7,79.6,28.6,78.6,28.8z M72.3,21.8v-4.3L71,18.7c-0.6-1-1.2-1.7-1.7-2.4
		c-0.1,0.2-0.3,0.5-0.4,0.7c0.5,0.4,1,1,1.3,1.5l-1.3,0.8c-0.2-0.5-0.4-1-0.6-1.5c-0.4,0.5-0.9,1-1.4,1.5h4.8V24h-3.4v2.3
		c0.6-0.2,1.2-0.3,1.6-0.5c-0.2-0.4-0.4-0.7-0.6-1l0.6-0.5c0.8,0.5,1.6,1.3,2.1,2.1C72.2,25.3,72.3,24,72.3,21.8z M69.9,20.1h-1.7
		v1.1h1.7V20.1z M68.1,23.1h1.7V22h-1.7V23.1z"/>
	<path class="st1" d="M86.2,28c-0.1-0.4-0.3-0.8-0.4-1.1c-1.3,0.9-2.8,1.6-4.1,2l-0.6-1.8c0.3,0,0.7-0.1,1-0.2v-7.4
		c-0.3,0.2-0.5,0.4-0.8,0.6l-0.4-0.6c1.3-1.4,2.3-3.2,2.9-5.2l1.9,0.6c-0.1,0.2-0.2,0.4-0.3,0.6c0.9,0.6,1.6,1.4,2.4,2.3l-1.3,1
		c-0.5-0.9-1-1.8-1.5-2.5c-0.1,0.2-0.3,0.5-0.5,0.7c0.5,0.5,0.9,1.1,1.3,1.6l-1.1,0.6H87v4.9h-3.2v2.4c0.6-0.2,1.2-0.4,1.7-0.5
		c-0.2-0.4-0.3-0.8-0.5-1.1l0.7-0.4c0.8,0.8,1.6,1.9,2,2.8L86.2,28z M82.4,19.2h2c-0.2-0.5-0.4-1-0.6-1.4
		C83.4,18.3,82.9,18.8,82.4,19.2z M85.4,20.2h-1.6v1h1.6V20.2z M85.4,23.2v-1.1h-1.6v1.1H85.4z M93.9,29c-0.7-0.2-1.2-0.8-1.6-1.7
		c-0.5,0.6-1.1,1.2-1.8,1.6L90,28.4c-0.5,0.9-1.9,0.9-3.2,0l0.2-0.7c1.2,0.2,1.4,0.1,1.4-0.6v-2.8c-0.3,0.1-0.6,0.3-0.9,0.4L87,23
		c0.5-0.1,1.1-0.3,1.6-0.4v-2.7h-1.3v-1h1.3v-2c-0.4,0.1-0.8,0.2-1.2,0.3L87,16.4c1.1-0.4,2.3-1.1,3.1-1.9l1,1v-1h1.7v1.6
		c0,1,0,1.9,0,2.8h2.4v1h-2.4c0,1.3,0.1,2.4,0.2,3.4c0.3-0.9,0.5-1.9,0.7-2.9l1.5,0.4c-0.5,1.9-1.1,3.6-1.8,4.9
		c0.2,0.8,0.4,1.3,0.8,1.5c0.3,0.2,0.4-0.4,0.3-2.3h0.8C95.9,27.8,95.5,29.6,93.9,29z M91.8,26.1c-0.3-1-0.4-2.3-0.5-3.7
		c-0.3,0.3-0.7,0.6-1.1,0.9v4.3c0,0.2,0,0.4-0.1,0.6C90.8,27.5,91.3,26.8,91.8,26.1z M90.2,18.9h1c0-0.9,0-1.8,0-2.8v-0.3
		c-0.3,0.2-0.6,0.3-0.9,0.5V18.9z M90.2,22c0.2-0.1,0.5-0.2,0.7-0.3l0.4,0.7c0-0.8-0.1-1.6-0.1-2.5h-1V22z M93.9,18.5
		c-0.2-1.1-0.6-2.2-0.9-3.1l0.6-0.3c0.8,0.8,1.4,2,1.7,2.9L93.9,18.5z"/>
</g>
<g>
	<path class="st1" d="M40.3,106.4c-0.7,0-0.4-9.4,0-9.4S41.1,106.4,40.3,106.4z"/>
	<path class="st1" d="M40.4,101.7v-2.3c0,0,0.1-0.9-2.6-1.7c-2.7-0.8-4-1.9-4.6-3.3c0,0-0.5,2.3,1.8,3.9
		C37.3,99.9,39.6,100.7,40.4,101.7z"/>
	<path class="st1" d="M40.4,104v-2.3c0,0-0.1-0.9,2.6-1.7c2.7-0.8,4-1.9,4.6-3.3c0,0,0.5,2.3-1.8,3.9C43.4,102.1,41.1,103,40.4,104z
		"/>
	<path class="st1" d="M39.9,95.8c0,0,0.7-3-1.2-4.4s-4.4-2.7-5.1-3.7C33.6,87.7,31,93.8,39.9,95.8z"/>
	<path class="st1" d="M39.9,89.4c0,0,0.7-2.9-1.1-4.3c-1.8-1.4-4.2-2.6-4.9-3.5C33.8,81.5,31.3,87.5,39.9,89.4z"/>
	<path class="st1" d="M39.9,83.3c0,0,0.7-2.8-1.1-4.1c-1.7-1.3-4.1-2.5-4.7-3.4C34.1,75.8,31.7,81.5,39.9,83.3z"/>
	<path class="st1" d="M39.9,76.8c0,0,0.6-2.7-1-3.9c-1.6-1.2-3.8-2.3-4.4-3.2C34.5,69.8,32.2,75.1,39.9,76.8z"/>
	<path class="st1" d="M40.7,95.8c0,0-0.7-3,1.2-4.4c1.9-1.4,4.4-2.7,5.1-3.7C46.9,87.7,49.6,93.8,40.7,95.8z"/>
	<path class="st1" d="M40.7,89.4c0,0-0.7-2.9,1.1-4.3c1.8-1.4,4.2-2.6,4.9-3.5C46.7,81.5,49.3,87.5,40.7,89.4z"/>
	<path class="st1" d="M40.7,83.3c0,0-0.7-2.8,1.1-4.1c1.7-1.3,4.1-2.5,4.7-3.4C46.5,75.8,48.9,81.5,40.7,83.3z"/>
	<path class="st1" d="M40.7,76.8c0,0-0.6-2.7,1-3.9c1.6-1.2,3.8-2.3,4.4-3.2C46.1,69.8,48.4,75.1,40.7,76.8z"/>
	<path class="st1" d="M40.4,71.6c0,0-6-5,0-10.4C40.4,61.3,46.1,66.8,40.4,71.6z"/>
</g>
<g>
	<path class="st1" d="M57.7,106.4c-0.7,0-0.4-9.4,0-9.4S58.5,106.4,57.7,106.4z"/>
	<path class="st1" d="M57.8,101.7v-2.3c0,0,0.1-0.9-2.6-1.7c-2.7-0.8-4-1.9-4.6-3.3c0,0-0.5,2.3,1.8,3.9
		C54.7,99.9,57,100.7,57.8,101.7z"/>
	<path class="st1" d="M57.8,104v-2.3c0,0-0.1-0.9,2.6-1.7c2.7-0.8,4-1.9,4.6-3.3c0,0,0.5,2.3-1.8,3.9C60.8,102.1,58.5,103,57.8,104z
		"/>
	<path class="st1" d="M57.3,95.8c0,0,0.7-3-1.2-4.4s-4.4-2.7-5.1-3.7C51,87.7,48.4,93.8,57.3,95.8z"/>
	<path class="st1" d="M57.3,89.4c0,0,0.7-2.9-1.1-4.3c-1.8-1.4-4.2-2.6-4.9-3.5C51.3,81.5,48.7,87.5,57.3,89.4z"/>
	<path class="st1" d="M57.3,83.3c0,0,0.7-2.8-1.1-4.1c-1.7-1.3-4.1-2.5-4.7-3.4C51.5,75.8,49.1,81.5,57.3,83.3z"/>
	<path class="st1" d="M57.3,76.8c0,0,0.6-2.7-1-3.9c-1.6-1.2-3.8-2.3-4.4-3.2C51.9,69.8,49.6,75.1,57.3,76.8z"/>
	<path class="st1" d="M58.1,95.8c0,0-0.7-3,1.2-4.4c1.9-1.4,4.4-2.7,5.1-3.7C64.4,87.7,67,93.8,58.1,95.8z"/>
	<path class="st1" d="M58.1,89.4c0,0-0.7-2.9,1.1-4.3c1.8-1.4,4.2-2.6,4.9-3.5C64.1,81.5,66.7,87.5,58.1,89.4z"/>
	<path class="st1" d="M58.1,83.3c0,0-0.7-2.8,1.1-4.1c1.7-1.3,4.1-2.5,4.7-3.4C63.9,75.8,66.3,81.5,58.1,83.3z"/>
	<path class="st1" d="M58.1,76.8c0,0-0.6-2.7,1-3.9c1.6-1.2,3.8-2.3,4.4-3.2C63.5,69.8,65.8,75.1,58.1,76.8z"/>
	<path class="st1" d="M57.8,71.6c0,0-6-5,0-10.4C57.8,61.3,63.5,66.8,57.8,71.6z"/>
</g>
<g>
	<path class="st1" d="M75.2,106.4c-0.7,0-0.4-9.4,0-9.4S76,106.4,75.2,106.4z"/>
	<path class="st1" d="M75.2,101.7v-2.3c0,0,0.1-0.9-2.6-1.7c-2.7-0.8-4-1.9-4.6-3.3c0,0-0.5,2.3,1.8,3.9
		C72.1,99.9,74.5,100.7,75.2,101.7z"/>
	<path class="st1" d="M75.2,104v-2.3c0,0-0.1-0.9,2.6-1.7c2.7-0.8,4-1.9,4.6-3.3c0,0,0.5,2.3-1.8,3.9C78.2,102.1,75.9,103,75.2,104z
		"/>
	<path class="st1" d="M74.7,95.8c0,0,0.7-3-1.2-4.4s-4.4-2.7-5.1-3.7C68.4,87.7,65.8,93.8,74.7,95.8z"/>
	<path class="st1" d="M74.7,89.4c0,0,0.7-2.9-1.1-4.3c-1.8-1.4-4.2-2.6-4.9-3.5C68.7,81.5,66.1,87.5,74.7,89.4z"/>
	<path class="st1" d="M74.7,83.3c0,0,0.7-2.8-1.1-4.1c-1.7-1.3-4.1-2.5-4.7-3.4C68.9,75.8,66.5,81.5,74.7,83.3z"/>
	<path class="st1" d="M74.7,76.8c0,0,0.6-2.7-1-3.9c-1.6-1.2-3.8-2.3-4.4-3.2C69.3,69.8,67,75.1,74.7,76.8z"/>
	<path class="st1" d="M75.5,95.8c0,0-0.7-3,1.2-4.4c1.9-1.4,4.4-2.7,5.1-3.7C81.8,87.7,84.4,93.8,75.5,95.8z"/>
	<path class="st1" d="M75.5,89.4c0,0-0.7-2.9,1.1-4.3c1.8-1.4,4.2-2.6,4.9-3.5C81.6,81.5,84.1,87.5,75.5,89.4z"/>
	<path class="st1" d="M75.5,83.3c0,0-0.7-2.8,1.1-4.1c1.7-1.3,4.1-2.5,4.7-3.4C81.3,75.8,83.7,81.5,75.5,83.3z"/>
	<path class="st1" d="M75.5,76.8c0,0-0.6-2.7,1-3.9c1.6-1.2,3.8-2.3,4.4-3.2C80.9,69.8,83.2,75.1,75.5,76.8z"/>
	<path class="st1" d="M75.2,71.6c0,0-6-5,0-10.4C75.2,61.3,80.9,66.8,75.2,71.6z"/>
</g>
<g>
	<path class="st1" d="M92.6,106.4c-0.7,0-0.4-9.4,0-9.4S93.4,106.4,92.6,106.4z"/>
	<path class="st1" d="M92.6,101.7v-2.3c0,0,0.1-0.9-2.6-1.7c-2.7-0.8-4-1.9-4.6-3.3c0,0-0.5,2.3,1.8,3.9
		C89.5,99.9,91.9,100.7,92.6,101.7z"/>
	<path class="st1" d="M92.6,104v-2.3c0,0-0.1-0.9,2.6-1.7c2.7-0.8,4-1.9,4.6-3.3c0,0,0.5,2.3-1.8,3.9C95.6,102.1,93.3,103,92.6,104z
		"/>
	<path class="st1" d="M92.1,95.8c0,0,0.7-3-1.2-4.4s-4.4-2.7-5.1-3.7C85.9,87.7,83.2,93.8,92.1,95.8z"/>
	<path class="st1" d="M92.1,89.4c0,0,0.7-2.9-1.1-4.3c-1.8-1.4-4.2-2.6-4.9-3.5C86.1,81.5,83.5,87.5,92.1,89.4z"/>
	<path class="st1" d="M92.1,83.3c0,0,0.7-2.8-1.1-4.1c-1.7-1.3-4.1-2.5-4.7-3.4C86.3,75.8,83.9,81.5,92.1,83.3z"/>
	<path class="st1" d="M92.1,76.8c0,0,0.6-2.7-1-3.9c-1.6-1.2-3.8-2.3-4.4-3.2C86.7,69.8,84.4,75.1,92.1,76.8z"/>
	<path class="st1" d="M92.9,95.8c0,0-0.7-3,1.2-4.4c1.9-1.4,4.4-2.7,5.1-3.7C99.2,87.7,101.8,93.8,92.9,95.8z"/>
	<path class="st1" d="M92.9,89.4c0,0-0.7-2.9,1.1-4.3c1.8-1.4,4.2-2.6,4.9-3.5C99,81.5,101.5,87.5,92.9,89.4z"/>
	<path class="st1" d="M92.9,83.3c0,0-0.7-2.8,1.1-4.1c1.7-1.3,4.1-2.5,4.7-3.4C98.7,75.8,101.1,81.5,92.9,83.3z"/>
	<path class="st1" d="M92.9,76.8c0,0-0.6-2.7,1-3.9c1.6-1.2,3.8-2.3,4.4-3.2C98.3,69.8,100.6,75.1,92.9,76.8z"/>
	<path class="st1" d="M92.6,71.6c0,0-6-5,0-10.4C92.6,61.3,98.4,66.8,92.6,71.6z"/>
</g>
<g>
	<path class="st1" d="M110,106.4c-0.7,0-0.4-9.4,0-9.4C110.4,97,110.8,106.4,110,106.4z"/>
	<path class="st1" d="M110,101.7v-2.3c0,0,0.1-0.9-2.6-1.7c-2.7-0.8-4-1.9-4.6-3.3c0,0-0.5,2.3,1.8,3.9
		C106.9,99.9,109.3,100.7,110,101.7z"/>
	<path class="st1" d="M110,104v-2.3c0,0-0.1-0.9,2.6-1.7c2.7-0.8,4-1.9,4.6-3.3c0,0,0.5,2.3-1.8,3.9C113,102.1,110.7,103,110,104z"
		/>
	<path class="st1" d="M109.5,95.8c0,0,0.7-3-1.2-4.4s-4.4-2.7-5.1-3.7C103.3,87.7,100.7,93.8,109.5,95.8z"/>
	<path class="st1" d="M109.5,89.4c0,0,0.7-2.9-1.1-4.3c-1.8-1.4-4.2-2.6-4.9-3.5C103.5,81.5,100.9,87.5,109.5,89.4z"/>
	<path class="st1" d="M109.5,83.3c0,0,0.7-2.8-1.1-4.1c-1.7-1.3-4.1-2.5-4.7-3.4C103.7,75.8,101.3,81.5,109.5,83.3z"/>
	<path class="st1" d="M109.5,76.8c0,0,0.6-2.7-1-3.9c-1.6-1.2-3.8-2.3-4.4-3.2C104.1,69.8,101.8,75.1,109.5,76.8z"/>
	<path class="st1" d="M110.3,95.8c0,0-0.7-3,1.2-4.4c1.9-1.4,4.4-2.7,5.1-3.7C116.6,87.7,119.2,93.8,110.3,95.8z"/>
	<path class="st1" d="M110.3,89.4c0,0-0.7-2.9,1.1-4.3c1.8-1.4,4.2-2.6,4.9-3.5C116.4,81.5,118.9,87.5,110.3,89.4z"/>
	<path class="st1" d="M110.3,83.3c0,0-0.7-2.8,1.1-4.1c1.7-1.3,4.1-2.5,4.7-3.4C116.1,75.8,118.5,81.5,110.3,83.3z"/>
	<path class="st1" d="M110.3,76.8c0,0-0.6-2.7,1-3.9c1.6-1.2,3.8-2.3,4.4-3.2C115.8,69.8,118,75.1,110.3,76.8z"/>
	<path class="st1" d="M110.1,71.6c0,0-6-5,0-10.4C110.1,61.3,115.8,66.8,110.1,71.6z"/>
</g>
<g>
	<path class="st1" d="M127.4,106.4c-0.7,0-0.4-9.4,0-9.4C127.8,97,128.2,106.4,127.4,106.4z"/>
	<path class="st1" d="M127.4,101.7v-2.3c0,0,0.1-0.9-2.6-1.7c-2.7-0.8-4-1.9-4.6-3.3c0,0-0.5,2.3,1.8,3.9
		C124.4,99.9,126.7,100.7,127.4,101.7z"/>
	<path class="st1" d="M127.4,104v-2.3c0,0-0.1-0.9,2.6-1.7c2.7-0.8,4-1.9,4.6-3.3c0,0,0.5,2.3-1.8,3.9
		C130.4,102.1,128.1,103,127.4,104z"/>
	<path class="st1" d="M126.9,95.8c0,0,0.7-3-1.2-4.4s-4.4-2.7-5.1-3.7C120.7,87.7,118.1,93.8,126.9,95.8z"/>
	<path class="st1" d="M126.9,89.4c0,0,0.7-2.9-1.1-4.3c-1.8-1.4-4.2-2.6-4.9-3.5C120.9,81.5,118.4,87.5,126.9,89.4z"/>
	<path class="st1" d="M126.9,83.3c0,0,0.7-2.8-1.1-4.1c-1.7-1.3-4.1-2.5-4.7-3.4C121.1,75.8,118.7,81.5,126.9,83.3z"/>
	<path class="st1" d="M126.9,76.8c0,0,0.6-2.7-1-3.9c-1.6-1.2-3.8-2.3-4.4-3.2C121.5,69.8,119.2,75.1,126.9,76.8z"/>
	<path class="st1" d="M127.7,95.8c0,0-0.7-3,1.2-4.4c1.9-1.4,4.4-2.7,5.1-3.7C134,87.7,136.6,93.8,127.7,95.8z"/>
	<path class="st1" d="M127.7,89.4c0,0-0.7-2.9,1.1-4.3c1.8-1.4,4.2-2.6,4.9-3.5C133.8,81.5,136.3,87.5,127.7,89.4z"/>
	<path class="st1" d="M127.7,83.3c0,0-0.7-2.8,1.1-4.1c1.7-1.3,4.1-2.5,4.7-3.4C133.5,75.8,135.9,81.5,127.7,83.3z"/>
	<path class="st1" d="M127.7,76.8c0,0-0.6-2.7,1-3.9c1.6-1.2,3.8-2.3,4.4-3.2C133.2,69.8,135.4,75.1,127.7,76.8z"/>
	<path class="st1" d="M127.5,71.6c0,0-6-5,0-10.4C127.5,61.3,133.2,66.8,127.5,71.6z"/>
</g>
</svg>
