<?xml version="1.0" encoding="utf-8"?>
<!-- Generator: Adobe Illustrator 25.4.1, SVG Export Plug-In . SVG Version: 6.00 Build 0)  -->
<svg version="1.1" id="圖層_1" xmlns="http://www.w3.org/2000/svg" xmlns:xlink="http://www.w3.org/1999/xlink" x="0px" y="0px"
	 viewBox="0 0 170 120" style="enable-background:new 0 0 170 120;" xml:space="preserve">
<style type="text/css">
	.st11{fill:#FC9D25;}
	.st1{fill:#FFFFFF;}
</style>
<g>
	<rect class="st11" width="170" height="120"/>
</g>
<g>
	<path class="st1" d="M14.2,16.3l-4.9,2.1V16l5.8-2h2.4v23.5h-3.1V16.3H14.2z"/>
	<path class="st1" d="M27.1,16.3l-4.9,2.1V16l5.8-2h2.4v23.5h-3.1V16.3H27.1z"/>
</g>
<g>
	<path class="st1" d="M46.4,21.4c-0.9,3.3-2.8,6-6,7.5L40,28.2c2.5-2,3.5-4,4-6.2h-3.4v-1h3.3l0.5-0.4L46.4,21.4z M54.7,26.7
		l-1.6,2.1c-2-1.5-3.4-3.5-4.4-6.2v5.1c0,2.4-2.2,2.7-5,1l0.2-0.8c2.4,0.4,2.7,0.2,2.7-0.7v-8.1h-4V18h6.1v1.6
		c0.2,0.7,0.5,1.4,0.8,2c0.7-0.7,1.5-1.7,2.4-3.1l1.9,1.5c-1.3,1.1-2.7,1.9-3.8,2.4C51.2,24.5,52.9,25.7,54.7,26.7z M49.1,17.8
		c-1.3-0.8-3.1-1.7-4.6-2.4l0.2-0.8c1.6,0.2,3.9,0.7,5.3,1.3L49.1,17.8z"/>
	<path class="st1" d="M57.8,25.2c0.1,1.7-0.1,3.3-0.4,4.5L55.8,29c0.6-1.1,1-2.2,1.4-3.9L57.8,25.2z M56.8,23
		c0.6-0.8,1.1-1.7,1.6-2.7c-0.7,0.3-1.4,0.5-2,0.6l-0.4-1.7h0.9c0.4-1.3,0.8-2.9,1-4.4l2,0.5c-0.5,1.3-1.3,2.8-2,3.9l1.1,0
		c0.3-0.6,0.5-1.3,0.8-2l1.7,0.7c-0.8,1.6-2.1,3.6-3.5,5c0.7,0,1.3-0.1,1.9-0.2c-0.1-0.4-0.3-0.7-0.4-1.1l0.6-0.4
		c0.7,0.7,1.3,1.6,1.8,2.6l-1.3,0.7c-0.1-0.3-0.2-0.7-0.4-1.1c-1.2,0.6-2.6,1.1-3.7,1.3L55.9,23C56.2,23,56.5,23,56.8,23z M58.9,25
		c0.4,1.2,0.9,2.9,1.1,3.8l-1.6,0.3c0-1.1,0-2.7-0.1-4L58.9,25z M60,24.5c0.7,0.9,1.5,2.3,1.8,3.2l-1.4,0.6c-0.2-1.1-0.7-2.5-1-3.5
		L60,24.5z M70.9,28.4L70,30c-1-0.6-2.5-1.4-3.9-2l0.2-0.7h-1.9l1,0.8c-1.6,1-3.4,1.6-5.2,1.8L60,29.3c1.3-0.5,2.6-1.1,3.7-1.9h-1.9
		v-5h7.7v5h-2.1C68.5,27.6,69.8,28,70.9,28.4z M64.7,16.9h-3.5V16h3.5v-1.1h2V16h3.5v0.9h-3.5v0.7h2.7v0.9h-7.5v-0.9h2.8V16.9z
		 M61.3,19H70v2.9h-8.8V19z M62.9,21h0.9v-1.1h-0.9V21z M63.6,23.8h4.1v-0.6h-4.1V23.8z M63.6,25.1h4.1v-0.6h-4.1V25.1z M63.6,26.5
		h4.1v-0.7h-4.1V26.5z M65.2,21h0.9v-1.1h-0.9V21z M67.5,21h0.9v-1.1h-0.9V21z"/>
	<path class="st1" d="M85.1,29.7c-1-0.3-1.7-1-2.2-2.3c-1,1.1-2.2,1.9-3.7,2.5l-0.4-0.7c1.5-0.8,2.7-2,3.6-3.3
		c-0.4-1.8-0.6-4.2-0.7-7.2h-2.8v2.1h2.5c0,2.1,0,3.8-0.1,4.8c-0.1,1.4-1.4,1.8-2.8,0.8l0.2-0.7c0.8,0.2,1,0.1,1.1-0.4
		c0.1-0.8,0.1-1.9,0.1-3.6h-1V22c0,4-1.1,6.3-3.2,7.9l-0.5-0.6c1-1.2,1.6-2.5,1.8-4.8c-1.2,1.1-2.8,2.1-4.3,2.8l-0.8-2
		c0.5-0.1,1-0.3,1.6-0.5v-4.6h-1.4v-1h1.4v-4h1.9v3.9h1.3v1h-1.3v3.9c0.4-0.2,0.8-0.3,1.2-0.5l0.3,0.6c0-0.6,0.1-1.3,0.1-2.1v-4.4
		h4.7c0-0.8,0-1.7,0-2.7h1.8v2.7h1.3c-0.4-0.7-0.8-1.5-1.3-2.1l0.6-0.5c0.8,0.5,1.5,1.2,2.1,2l-0.9,0.7h1.1v1h-2.9
		c0,1.7,0.1,3.2,0.2,4.5c0.4-1,0.7-2.2,1-3.4l1.7,0.5c-0.5,2.1-1.3,4-2.3,5.5c0.3,1,0.6,1.6,1,1.8c0.3,0.1,0.4-0.2,0.4-2.2h0.8
		C87.1,28.9,86.4,30,85.1,29.7z"/>
	<path class="st1" d="M91.1,17.7l1.7,0.6C92.2,20,91,22,89.9,23.5c0.4-0.1,0.8-0.1,1.2-0.2c0.1-0.5,0.1-0.9,0.1-1.4l1.6,0.2
		c-0.2,3.5-1.4,6.5-4.4,7.9L88,29.2c1.6-1.2,2.4-2.8,2.8-4.8c-0.8,0.5-1.6,0.8-2.3,1L88,23.7c0.3,0,0.5,0,0.7-0.1
		c0.4-0.8,0.9-1.8,1.4-3.1c-0.6,0.3-1.2,0.5-1.8,0.7L88,19.5c0.2,0,0.4,0,0.6,0c0.4-1.3,0.8-2.9,1-4.6l1.8,0.4
		c-0.5,1.6-1.2,2.9-1.8,4.1c0.4,0,0.7-0.1,1.1-0.1C90.8,18.8,91,18.2,91.1,17.7z M102.4,25.3c0,2.6-1.8,2.6-3,1.9v2.6h-1.7v-1.3
		l-1.4,0.4c-0.1-0.7-0.2-1.3-0.4-1.9c-1.2,1-2.7,1.8-3.9,2.3l-0.7-1.8c0.5-0.1,1-0.2,1.5-0.4v-9.9h1.8c-0.3-0.8-0.6-1.5-1-2.2
		l0.7-0.4c0.7,0.6,1.4,1.4,1.9,2.3l-0.8,0.4h2v6.2h-2.9v3.2c0.4-0.2,0.8-0.3,1.2-0.5c-0.2-0.7-0.3-1.3-0.5-1.8L96,24
		c0.8,1.3,1.4,2.7,1.8,4V15.3l1.6,0.4h0.9l0.4-0.4l1.6,0.6c-0.5,2.1-1.1,3.9-1.8,5.1C101.7,22.4,102.5,23.8,102.4,25.3z M94.5,18.2
		v1.6h1.2v-1.6H94.5z M95.8,22.5v-1.7h-1.2v1.7H95.8z M100.7,24.9c0-1.3-0.4-2.6-0.9-3.9c0.3-1.4,0.5-3,0.7-4.4h-1v9.6
		C100.4,26.4,100.7,26.1,100.7,24.9z"/>
</g>
<g>
	<polygon class="st1" points="145.2,109.1 134.7,99.9 124.1,109.1 	"/>
	<path class="st1" d="M113.7,88.5l-20,13h3.5v7.6H124v-7.6h2.5L113.7,88.5z M106,108.4h-4.2v-5.9h4.2V108.4z M112.9,108.4h-4.2v-5.9
		h4.2V108.4z M109.9,96.7c0-1.9,1.6-3.5,3.5-3.5c1.9,0,3.5,1.6,3.5,3.5c0,1.9-1.6,3.5-3.5,3.5C111.4,100.2,109.9,98.7,109.9,96.7z
		 M119.8,108.4h-4.2v-5.9h4.2V108.4z"/>
	<path class="st1" d="M127.3,90.1v19h14.8v-19H127.3z M134.1,100h-3.7v-3.3h3.7V100z M134.1,95.8h-3.7v-3.3h3.7V95.8z M138.7,100
		H135v-3.3h3.7V100z M138.7,95.8H135v-3.3h3.7V95.8z"/>
	<g>
		<path class="st1" d="M90.3,109.1H86c0,0,0.6-0.9,1-5.3c0.3-3.1,0.2-6.6-0.1-8.5c-0.2-1.1-0.2-2.1-0.6-3c-1.3-2.4-1.5-2.9-2.9-3.2
			c0,0-0.8,1.2-1.3,2.3c-0.5,1.1-1.1,2.5-1.3,2.5c-0.2-0.1,0.3-1.6,0.7-2.8c0.4-1.1,0.9-2.1,0.9-2.1s-1,0.2-2.1,0.4
			c-1.1,0.2-3,0.6-3.2,0.4c-0.1-0.2,1.1-0.8,2.5-1.3c1.4-0.5,3.2-0.3,3.2-0.3s-0.9-1.1-1.7-2.5c-0.8-1.4-1.6-2.8-1.5-3.2
			c0.1-0.4,1.8,2.5,2.7,3.6c0.9,1.1,2.8,2.7,3.5,2.5c0.7-0.2,0.5-1.8,0.1-3.7c-0.4-1.9-0.9-2.7-0.9-2.7s-1-0.6-2.1-1.9
			c-1.1-1.2-2.5-2.6-2.5-2.6s1.9,1,2.7,1.7c0.8,0.7,1.9,1.6,1.9,1.6s-1-1.7-2.3-4.2c-1.3-2.4-2.1-3.8-1.4-3.2
			c0.5,0.5,1.2,1.1,1.9,1.9c1.6,1.8,2.4,3.8,2.4,3.8s0-1.5,0.2-2.7c0.2-1.2,0.7-3.7,0.7-3.7s0,3,0,4.7c0,1.7,0.5,4.7,1,6.5
			c0.5,1.8,0.8,3.7,0.8,3.7s0.4-5.5,0.3-6.9c0-0.6-0.2-1.7-0.6-2.4c-0.5-1-1.2-1.3-1.2-1.3s0.9-0.3,1.4,0.6c0.4,0.7,0.8,1.6,0.8,1.6
			s0-3.4,0.1-5.1c0.2-3.5,1-6.8,1.1-6.8c0.2,0-0.4,6.1-0.4,8.3c-0.1,2.2,0,3.1,0,3.1s0.6-1.6,1.7-2.3c1.1-0.6-0.4,0.9-0.8,2.1
			c-0.4,1.2-1.1,3.1-1.1,4.2c0,1.1-0.1,2.5-0.1,2.5s1.1-1.7,2.8-4.7c1.6-3,3.5-4.3,3.5-4.3s-2.3,3.6-3.5,6c-1.2,2.4-2.8,9.6-2.8,9.6
			s1-1.2,3-2.4c0.6-0.4,1.4-0.6,2.2-0.9c0.3-0.1,1.9-5.3,2.3-5.4c0.4-0.2-1.3,5.2-1.1,5.2c1.1-0.2,2.3-0.4,2.3-0.4s-1.6,0.7-3.2,1.5
			c-0.3,0.2,3.6,1.8,3.6,1.8s-4.6-0.9-4.7-0.8c-0.5,0.3-0.9,0.3-1.3,0.6c-1.9,1.6-2.7,2.5-3,4.7c-0.2,2.2-0.3,4.4-0.1,7.8
			C89.7,107.2,90.3,109.1,90.3,109.1z"/>
		<path class="st1" d="M100.2,89.1c0.2-0.4,0.3-0.9,0.3-1.5c0-1.4-0.7-2.5-1.6-3.2c0.6-0.8,1-1.8,1-2.9c0-1.6-0.7-2.9-1.8-3.7
			c0.3-0.6,0.4-1.3,0.4-2c0-1.8-1-3.3-2.4-4c0-0.1,0-0.1,0-0.2c0-1.9-1.1-3.6-2.7-4.2c0,0,0-0.1,0-0.1c0-2.5-1.8-4.5-4.1-4.5
			c-2.3,0-4.1,2-4.1,4.5c0,0.4,0,0.7,0.1,1.1c-0.1,0-0.2,0-0.3,0c-2.3,0-4.1,2-4.1,4.5c0,0.3,0,0.6,0.1,0.9
			c-1.6,0.6-2.8,2.3-2.8,4.2c0,0.6,0.1,1.2,0.3,1.7c-0.1,0.2-0.1,0.5-0.2,0.8c-1.3,0.7-2.2,2.2-2.2,4c0,0.8,0.2,1.6,0.6,2.3
			c0,0.2,0.1,0.3,0.1,0.5c-1.1,0.6-1.8,1.9-1.8,3.3c0,2,1.5,3.7,3.4,3.7c0.3,2.1,2,3.7,4,3.7c1.2,0,2.2-0.5,3-1.4
			c0.7,0.6,1.6,1,2.6,1c0.8,0,1.5-0.2,2.1-0.6c0.7,0.5,1.5,0.8,2.3,0.8c1.2,0,2.2-0.5,2.9-1.3c0.6,0.4,1.3,0.6,2,0.6
			c2.3,0,4.1-2,4.1-4.5C101.6,91.1,101,90,100.2,89.1z"/>
	</g>
	<path class="st1" d="M53.1,64.6v44.4h19.4V64.6H53.1z M55.1,68.3h6.5v3.6h-6.5V68.3z M55.1,76.1h6.5v3.6h-6.5V76.1z M55.1,83.8h6.5
		v3.6h-6.5V83.8z M55.1,91.5h6.5v3.6h-6.5V91.5z M62.4,108.5h-4.6V100h4.6V108.5z M67.7,108.5h-4.6V100h4.6V108.5z M70.4,95.1h-6.5
		v-3.6h6.5V95.1z M70.4,87.4h-6.5v-3.6h6.5V87.4z M70.4,79.6h-6.5v-3.6h6.5V79.6z M70.4,71.9h-6.5v-3.6h6.5V71.9z"/>
	<path class="st1" d="M25.3,55.9v53.2H51V55.9H25.3z M39.3,60.6H43v3.6h-3.7V60.6z M39.3,68.3H43v3.6h-3.7V68.3z M39.3,76.1H43v3.6
		h-3.7V76.1z M39.3,83.8H43v3.6h-3.7V83.8z M39.3,91.5H43v3.6h-3.7V91.5z M33.4,60.6h3.7v3.6h-3.7V60.6z M33.4,68.3h3.7v3.6h-3.7
		V68.3z M33.4,76.1h3.7v3.6h-3.7V76.1z M33.4,83.8h3.7v3.6h-3.7V83.8z M33.4,91.5h3.7v3.6h-3.7V91.5z M31.2,95.1h-3.7v-3.6h3.7V95.1
		z M31.2,87.4h-3.7v-3.6h3.7V87.4z M31.2,79.6h-3.7v-3.6h3.7V79.6z M31.2,71.9h-3.7v-3.6h3.7V71.9z M31.2,64.2h-3.7v-3.6h3.7V64.2z
		 M37.9,108.5h-4.6V100h4.6V108.5z M43.1,108.5h-4.6V100h4.6V108.5z M48.9,95.1h-3.7v-3.6h3.7V95.1z M48.9,87.4h-3.7v-3.6h3.7V87.4z
		 M48.9,79.6h-3.7v-3.6h3.7V79.6z M48.9,71.9h-3.7v-3.6h3.7V71.9z M48.9,64.2h-3.7v-3.6h3.7V64.2z"/>
</g>
</svg>
