<?xml version="1.0" encoding="utf-8"?>
<!-- Generator: Adobe Illustrator 25.4.1, SVG Export Plug-In . SVG Version: 6.00 Build 0)  -->
<svg version="1.1" id="圖層_1" xmlns="http://www.w3.org/2000/svg" xmlns:xlink="http://www.w3.org/1999/xlink" x="0px" y="0px"
	 viewBox="0 0 170 120" style="enable-background:new 0 0 170 120;" xml:space="preserve">
<style type="text/css">
	.st17{fill:#1B3767;}
	.st1{fill:#FFFFFF;}
</style>
<g>
	<rect class="st17" width="170" height="120"/>
</g>
<g>
	<path class="st1" d="M11.2,16.3l-4.9,2.1V16l5.8-2h2.4v23.5h-3.1V16.3H11.2z"/>
	<path class="st1" d="M28.9,16.1H17.5v-2.1H32v2c-3.2,6.8-6.7,14.6-10,21.4h-3.4c3.4-6.7,6.9-14.4,10.2-21.2V16.1z"/>
</g>
<g>
	<path class="st1" d="M54.3,22.5c-2.5,4.9-6.4,7-13,7.3L41.1,29c5.8-0.9,8.9-2.6,10.8-6.1H49c-0.5,0.5-1.1,1-1.7,1.4
		c0.6,0.4,1.1,0.9,1.6,1.4l-1.4,1.1c-0.4-0.7-0.7-1.3-1.1-1.9c-1.1,0.7-2.3,1.2-3.6,1.6l-0.3-0.8c2.4-1.1,4.3-2.6,5.7-4.5
		c-1.9,1.6-4.4,2.7-7.2,3.2l-0.3-0.8c4.4-1.3,7-3.6,8.3-6h-2.9c-0.4,0.4-0.8,0.8-1.2,1.1c0.6,0.4,1.1,0.8,1.7,1.3l-1.4,1.1
		c-0.4-0.7-0.7-1.2-1.2-1.8c-0.8,0.6-1.6,1-2.5,1.3l-0.4-0.8c2-1.2,3.4-2.9,4.6-5.1l2,0.8c-0.2,0.3-0.4,0.6-0.7,0.9h2.1l0.5-0.3
		l1.8,1c-0.6,1.1-1.3,2.1-2.2,3l1.5,0.7c-0.2,0.4-0.5,0.7-0.8,1.1h2l0.6-0.3L54.3,22.5z"/>
	<path class="st1" d="M68.8,29.2c-1.1,0.1-2,0.1-3,0c-1.6-0.1-1.8-0.4-1.8-1.9v-6.1h-1.6c-0.1,4.2-1.4,7.6-6,8.7l-0.3-0.8
		c3.5-1.7,4.1-4.5,4.2-8h-3.6v-1.1h13.2v1.1H66v5.3c0,0.6,0.1,0.8,0.6,0.8c0.6,0,1.2,0,1.7,0C69,27.2,69.1,27,69,24h0.8
		C70.7,27.5,70.7,29,68.8,29.2z M68.6,17.1H57.9V16h10.8V17.1z"/>
	<path class="st1" d="M86.7,22.7c-1.7,4.6-4.8,6.4-8.3,7.1l-0.3-0.8c1.9-0.7,3.3-1.5,4.4-2.6c-0.4-0.7-0.9-1.3-1.4-2
		c-0.5,0.4-1,0.6-1.5,0.9l-0.4-0.7c1.1-0.9,2.3-2.2,3.1-3.4c-0.9,0.6-1.8,1.2-2.8,1.5l-0.3-0.5v0.9h-2.4v0.5
		c0.9,0.6,2.1,1.5,2.7,2.3l-1.3,1.2c-0.3-0.5-0.8-1.3-1.4-2.1v4.8h-1.9v-4c-0.7,1.1-1.5,2-2.4,2.7L72,27.9c1-1.2,1.9-2.7,2.6-4.7
		h-2.3v-1h2.6v-1h-2.2v-5.7h6.3v3.3c0.9-1,1.8-2.5,2.4-4.2l1.7,0.6c-0.2,0.4-0.4,0.7-0.6,1.1h1.2l0.5-0.3l1.5,0.8
		c-0.6,1.5-1.5,2.7-2.5,3.7l1.2,0.6c-0.2,0.4-0.4,0.7-0.7,1h1l0.4-0.3L86.7,22.7z M74.2,17.9h0.8v-1.4h-0.8V17.9z M75.1,20.4v-1.5
		h-0.8v1.5H75.1z M76.6,17.9h0.8v-1.4h-0.8V17.9z M77.4,20.4v-1.5h-0.8v1.5H77.4z M81.7,20.1c-0.4-0.5-0.8-1-1.2-1.4
		c-0.4,0.4-0.8,0.7-1.2,0.9l-0.3-0.4v2h-2.1v1h2.4l-0.1-0.2C80.2,21.5,81,20.8,81.7,20.1z M81.7,17.4c-0.2,0.2-0.4,0.5-0.6,0.7
		c0.5,0.2,1,0.6,1.5,0.9c0.4-0.5,0.7-1.1,0.9-1.6H81.7z M84.5,23.2h-1.9c-0.3,0.3-0.6,0.5-0.9,0.8c0.6,0.4,1.2,0.8,1.7,1.2
		C83.9,24.6,84.2,24,84.5,23.2z"/>
	<path class="st1" d="M91.9,18.8v11h-2v-7.6c-0.4,0.5-0.9,1-1.4,1.5l-0.5-0.6c1.5-2.2,2.5-5.8,2.9-8.3l2.2,0.4
		C92.8,16.3,92.4,17.5,91.9,18.8z M102.4,23.9v0.9h-4.1v4.9h-2.1v-4.9h-3.9v-0.9h3.9v-2.3h-3.4v-1h3.4v-5.7h2.1v5.7h3.5v1h-3.5v2.3
		H102.4z M92.9,16.3l0.7-0.4c0.9,1,2,2.6,2.4,3.7l-1.9,0.7C93.8,19.1,93.3,17.6,92.9,16.3z M99.1,20.3l-0.6-0.5
		c0.5-1.1,1.2-2.8,1.5-4.1l2,0.9C101.4,17.7,100.3,19.2,99.1,20.3z"/>
	<path class="st1" d="M110.4,22.2c0.4,0.4,0.9,1.1,1.1,1.7l-1.1,0.4c0-0.2-0.1-0.5-0.2-0.7c-1,0.4-2.2,0.6-3.1,0.8l-0.3-1.2h0.8
		c0.3-0.3,0.7-0.6,1-1c-0.5,0.2-1,0.3-1.5,0.4l-0.3-1.2c0.2,0,0.3,0,0.5,0c0.4-0.6,0.7-1.2,1-1.8h-1.6v10.1h-1.9V15.5h6v4h-2.2
		l0.9,0.5c-0.4,0.5-0.9,1-1.4,1.4c0.4,0,0.7,0,1.1-0.1c0.3-0.3,0.5-0.6,0.6-0.9l1.2,0.7c-0.6,0.7-1.5,1.5-2.4,2
		c0.4,0,0.9-0.1,1.3-0.1c-0.1-0.2-0.1-0.4-0.2-0.5L110.4,22.2z M106.7,17.2h2.3v-0.7h-2.3V17.2z M106.7,18.7h2.3V18h-2.3V18.7z
		 M109.6,24.5h1.4v1.7c0,2.1-1.5,3.1-3.6,3.5l-0.3-0.7c1-0.4,1.7-0.8,2.1-1.6h-1.9v-2.7h1.4v1.9h0.8c0-0.2,0-0.5,0-0.8V24.5z
		 M117.7,15.5v12.7c0,1.5-1.4,2.1-3.8,0.8l0.2-0.8c1.5,0.3,1.7,0.2,1.7-0.7V24l-1,0.4c-0.1-0.3-0.1-0.5-0.2-0.8
		c-1,0.4-1.9,0.6-2.8,0.7l-0.3-1.1h0.7c0.3-0.3,0.6-0.6,0.9-1c-0.5,0.2-1,0.3-1.6,0.4l-0.3-1.2c0.2,0,0.4,0,0.6,0
		c0.4-0.5,0.6-1.2,0.9-1.8h-1.1v-4H117.7z M115.2,27.4h-2.1v2.1h-1.5v-5h1.5v2.1h0.8v-1.9h1.4V27.4z M115.8,23.9v-4.3h-2.8l1,0.5
		c-0.4,0.4-0.8,1-1.3,1.4l1,0c0.2-0.3,0.4-0.6,0.5-0.8l1.2,0.7c-0.6,0.7-1.3,1.4-2.2,1.9c0.4,0,0.8-0.1,1.2-0.1
		c-0.1-0.2-0.1-0.3-0.2-0.5l0.5-0.3C115.2,22.8,115.6,23.4,115.8,23.9z M113.6,17.2h2.3v-0.7h-2.3V17.2z M113.6,18.7h2.3V18h-2.3
		V18.7z"/>
	<path class="st1" d="M123.8,18.9v10.8h-1.9V22c-0.5,0.6-1,1.1-1.4,1.5l-0.6-0.6c1.4-2.1,2.5-4.7,3.1-8.1l2.1,0.5
		C124.8,16.7,124.3,17.9,123.8,18.9z M130.4,23.6V28c0,1.8-1.9,2.5-4.2,1l0.2-0.7c1.8,0.2,2,0.1,2-0.8v-3.3
		c-0.7,0.1-1.3,0.3-1.9,0.4l1.6,0.8c-1,1.5-2.1,2.7-3.7,3.7l-0.5-0.6c1-1.1,1.9-2.5,2.5-3.9c-0.5,0.1-1,0.2-1.5,0.2l-0.4-1.9
		c0.5,0,1.1,0,1.6,0c0.8-0.5,1.7-1.3,2.6-2.2c-1.1,0.4-2.3,0.6-3.4,0.8l-0.5-1.8c0.4,0,0.8,0,1.3,0c0.6-0.8,1.2-1.6,1.6-2.4
		c-0.8,0.1-1.7,0.1-2.4,0.1l-0.1-0.8c2.6-0.3,5.3-1.1,6.8-1.8l1.5,1.5c-1.1,0.4-3,0.7-4.9,0.9l1.1,0.4c-0.5,0.7-1.3,1.4-2.1,2.1
		c0.8-0.1,1.6-0.1,2.2-0.2c0.5-0.6,1-1.3,1.4-2l1.9,1c-1.4,1.8-3.2,3.3-5.2,4.4c1.4-0.1,2.8-0.3,4-0.4c-0.2-0.5-0.4-0.9-0.7-1.3
		l0.6-0.4c1,0.9,1.9,2,2.6,3.2l-1.6,0.9c-0.2-0.5-0.4-1.1-0.6-1.6C131.6,23.3,131,23.5,130.4,23.6z M134.6,27.6l-1.7,1.2
		c-0.7-1.3-1.6-2.7-2.4-3.9l0.5-0.6C132.3,25.1,133.7,26.4,134.6,27.6z"/>
</g>
<g>
	<path class="st1" d="M78.3,109.1c0.1,0.6,0.9,0.5,1.8,0.4c0.9-0.1,0.7,0.1,2,0.1c1.3,0,1.7-0.5,1.8-0.6c0-0.2-0.6-0.3-1.2-0.4
		c-0.1,0-0.2,0-0.3-0.1c-0.8-0.2-1.3-0.7-1.9-1.2c-0.6-0.4-1-2.5-1-2.5l-1.8,0c0,0,0.6,1.8,0.9,2.5c0.2,0.4,0,0.9-0.1,1.2
		C78.3,108.7,78.3,108.9,78.3,109.1z"/>
	<path class="st1" d="M80.1,109.5c0.9-0.1,0.7,0.1,2,0.1c1.3,0,1.7-0.5,1.8-0.6c0-0.2-0.6-0.3-1.2-0.4l0,0c0,0-0.8,0.5-1.9,0.4
		c-0.9-0.1-1.8-0.4-2.3-0.4c0,0.2-0.1,0.4,0,0.6C78.4,109.6,79.2,109.6,80.1,109.5z"/>
	<path class="st1" d="M64.1,109c0,0.6,0.8,0.6,1.8,0.5c0.9-0.1,0.7,0.1,2,0.2c1.3,0,1.7-0.4,1.8-0.6c0.1-0.2-0.6-0.3-1.2-0.5
		c-0.1,0-0.2,0-0.2-0.1c-0.7-0.2-1.2-0.8-1.9-1.2c-0.6-0.5-0.1-2.4-0.1-2.4l-1.4-0.7c0,0-0.2,2-0.3,3c0,0.4-0.2,0.8-0.3,1.2
		C64.1,108.6,64.1,108.8,64.1,109z"/>
	<path class="st1" d="M65.8,109.4c0.9-0.1,0.7,0.1,2,0.2c1.3,0,1.7-0.4,1.8-0.6c0.1-0.2-0.6-0.3-1.2-0.5l0,0c0,0-0.8,0.4-1.9,0.3
		c-0.9-0.1-1.7-0.5-2.3-0.5c0,0.2-0.1,0.4-0.1,0.6C64.1,109.5,64.9,109.5,65.8,109.4z"/>
	<path class="st1" d="M67.2,80.4c0,0-0.4,1.9-0.8,11.3c0,0-0.7,1.7-1.2,3.9c-0.5,2.1-0.9,11-0.9,11s0.2,0.3,0.8,0.3
		c0.5,0,0.9-0.2,0.9-0.2s3.6-11.6,5.3-16.2c1.7-4.5,2.8-11,2.8-11L67.2,80.4z"/>
	<path class="st1" d="M71.5,81.2c0,0,0.3,1.9,3.2,10.8c0,0-0.1,1.9,0.2,4.1c0.3,2.2,3.2,10.8,3.2,10.8s0.4,0.1,1,0
		c0.5-0.1,1-0.5,1-0.5S78.9,94.1,79,89.3C79,84.4,77.8,78,77.8,78L71.5,81.2z"/>
	<path class="st1" d="M76.6,55.2c-0.5-0.3-1-0.3-1.4-0.3c0.1-0.1,0.3-0.1,0.3-0.1c-0.2,0-0.8,0.2-0.8,0.2c-3.3-1.5-4.1,3.5-4.1,4.6
		c0,1.2,0,2.5-1.8,3.4c-3.4,1.9-0.8,5.6-0.8,5.6c-0.6,1.8,1.7,3.9,1.7,3.9c0-0.9,4.3-6.9,6.6-8.3c0.6-0.8,0.9-2.2,0.9-2.3
		c-0.2,1.1-0.4,1.7-0.6,2.1C78.6,62.4,77.8,56,76.6,55.2z"/>
	<path class="st1" d="M75.9,63.6c0,0-1.1,0.6-1.9,0.3c-0.8-0.2-1.3-1.2-1.3-1.2c0.3-0.1,0.4-0.5,0.4-2.5l0.1,0l2.4,0.5l0.1,0
		c0,0-0.1,0.8-0.1,1.5c0,0.2,0,0.3,0,0.5C75.8,63.2,75.8,63.6,75.9,63.6z"/>
	<path class="st1" d="M75.7,62.3c0,0.2,0,0.3,0,0.5c-1.4-0.1-2.2-1.7-2.5-2.4l2.5,0.4l0.1,0C75.8,60.8,75.7,61.6,75.7,62.3z"/>
	<path class="st1" d="M73,60c0,0-0.7-1.2-0.9-2.2c-0.1-0.7,0.2-3.3,2.9-3c0,0,0.8,0.1,1.5,0.6c0.6,0.4,1.4,1.2,0.5,3.5l-0.2,0.8
		L73,60z"/>
	<path class="st1" d="M75.9,62c0,0-3.3-0.4-3-2.5c0.3-2,0.1-3.5,2.2-3.3c2.1,0.2,2.4,1,2.5,1.7C77.7,58.6,76.8,62,75.9,62z"/>
	<path class="st1" d="M76.6,56.4c0,0-1.3,2.3-2.7,2.4c-1.4,0.1-2-0.3-2-0.3s1.2-0.7,1.6-2.1C73.6,56.4,76.1,55.1,76.6,56.4z"/>
	<path class="st1" d="M76.4,56.5c0,0,0.6,0.6,0.7,1.2c0.1,0.5,0,1.6,0.3,1.6c0,0,0.9-1.5,0.3-2.6C77,55.7,76.4,56.5,76.4,56.5z"/>
	<path class="st1" d="M98.2,84.3c-0.7-1.5-2.6-2.7-4.2-2.7c-1.2,0-2.2,0.4-3.1,1.1c-0.5,0.4-1.2,0.1-1.3-0.5l-1.4-6.6
		c-0.2-1-1.1-1.6-2.1-1.4l-22.9,4.9c-0.9,0.2-1.5,1.1-1.3,2.1l4.9,22.8c0.1,0.7,0.6,1.1,1.2,1.3l-0.3,0.1h0.9l0,0c0.1,0,0.2,0,0.3,0
		l0.5-0.1l0,0l0,0l5.9-1.3c0.8-0.2,1.2-1.2,0.6-1.8c-0.5-0.6-0.9-1.4-1.1-2.2c-0.5-2.4,1-4.8,3.4-5.5c2.7-0.7,5.3,0.9,5.9,3.6
		c0.2,1,0.1,2-0.3,2.9c-0.1,0.3,0,0.7,0.2,0.9l-0.3,0.2l0.8,0v0c0.1,0,0.1,0,0.2,0l7-1.5c1-0.2,1.6-1.1,1.4-2.1L91.7,92
		c-0.1-0.6,0.4-1.1,1-1c0.7,0.2,1.4,0.2,2.2,0C97.9,90.4,99.6,87.2,98.2,84.3z"/>
	<path class="st1" d="M93.2,81.6c-1.2,0-2.2,0.4-3.1,1.1c-0.5,0.4-1.2,0.1-1.3-0.5l-1.4-6.6c-0.2-1-1.1-1.6-2.1-1.4l-22.9,4.9
		c-0.9,0.2-1.5,1.1-1.3,2.1l4.9,22.8c0.2,1,1.2,1.6,2.1,1.4l6.4-1.4c0.8-0.2,1.2-1.2,0.6-1.8c-0.5-0.6-0.9-1.4-1.1-2.2
		c-0.5-2.4,1-4.8,3.4-5.5c2.7-0.7,5.3,0.9,5.9,3.6c0.2,1,0.1,2-0.3,2.9c-0.2,0.6,0.3,1.2,0.9,1l7-1.5c1-0.2,1.6-1.1,1.4-2.1L90.9,92
		c-0.1-0.6,0.4-1.1,1-1c0.7,0.2,1.4,0.2,2.2,0c2.9-0.6,4.6-3.8,3.3-6.7C96.7,82.8,94.8,81.6,93.2,81.6z"/>
	<path class="st1" d="M84.8,72.9c0,0,1.4,0.2,1.8,1.2c0.4,0.9-0.1,1.6-0.3,1.6c-0.2,0-0.6-0.2-0.8-0.6
		C85.3,74.5,84.8,72.9,84.8,72.9z"/>
	<path class="st1" d="M65.2,77.1c0,0,1.6,0,2.2,0.9c0.6,0.9,0.1,1.7-0.1,1.8c-0.2,0-0.7-0.1-1-0.6C66,78.7,65.2,77.1,65.2,77.1z"/>
	<path class="st1" d="M84.9,74c-0.1,0-0.8-0.1-1.6-0.2c-1.5-0.2-3.5-0.6-4.2-1.3c-0.2-0.2-0.6-1.1-1.1-2.2c-0.5,2.4-0.5,4.2-0.4,5.6
		L67.9,78c0.8-1.7,2.1-3.8,1.9-5.5c-0.1-0.6-0.4-1.5-0.6-2.5c0-0.1,0-0.2,0-0.3c-1.4,1.1-3,2.4-3,2.6c-0.1,0.4,1,5.1,1,5.1
		C67,78.1,65.8,78,65.8,78c-1.1-0.8-2.7-5.2-2.6-6.1c0.1-1,4.1-6.5,5-7.8c0.9-1.3,4.4-1.3,4.5-1.3h0c0,0,0,0,0,0
		c2.7,1.6,3,0.3,3,0.3s2.5,0.5,2.9,1.2c0.4,0.7,2.3,6.3,2.4,6.5c0.3,0.4,4.8,2,4.9,2.5C86,73.7,85.3,74.1,84.9,74z"/>
	<path class="st1" d="M71.3,77.3L67.9,78c0.9-1.7,2-3.8,1.7-5.5c-0.1-0.6-0.3-1.4-0.4-2.4c0-0.1,0-0.4,0-0.4s2.4,1.9,2.5,4
		C71.7,74.8,71.5,76.2,71.3,77.3z"/>
	<path class="st1" d="M83.4,73.8c-1.5-0.2-3.5-0.6-4.2-1.3c-0.2-0.2-0.6-1.1-1.1-2.2c0,0-0.2-1.7,0.3-1.7c0.5,0.1,1.1,3.1,1.6,3.3
		C80.4,72.2,82.8,73.1,83.4,73.8z"/>
</g>
<g id="man_00000004544170452894202290000005598178759757487789_">
	<g>
		<path class="st1" d="M137.5,104.7c-0.2,0.5-0.9,0.9-1,1.6c0,0.3-0.2,0.6-0.3,0.7h-2.3c0-0.1,0.1-0.3,0.4-0.3
			c0.6-0.1,0.9-0.9,0.8-1.6c0-0.3,0-0.7,0-1c0-0.4,0.1-0.7,0.1-0.7l1.4-0.3l0.1,0.2l0.1,0.2C136.8,103.4,137.6,104.2,137.5,104.7z"
			/>
		<path class="st1" d="M126.7,107.1H122c0.1-0.1,0.3-0.2,0.6-0.3c0.7-0.1,2-0.5,2.3-1.5c0,0,0-0.1,0-0.1c0.2-1,1.8,0.3,1.8,0.3
			s0,0,0,0.1C126.7,105.9,126.8,106.7,126.7,107.1z"/>
		<path class="st1" d="M122.8,80.9c0,0,0.2,3.1,0.5,6.7c0.4,5,0.9,11.1,0.9,12.3c0.1,2,0.4,5.2,0.4,5.2s0.8,0.8,2.3,0.4
			c0,0,1.4-4.6,1.8-9.5c0-0.1,0-0.2,0-0.2c0.4-5,0.9-15.4,0.9-15.4L122.8,80.9z"/>
		<path class="st1" d="M122.8,80.9c0,0,0.2,3.1,0.5,6.7l5.4,8.5c0-0.1,0-0.2,0-0.2c0.4-5,0.9-15.4,0.9-15.4L122.8,80.9z"/>
		<path class="st1" d="M123.9,81.3c0,0,4.4,11.1,7.3,16.3c2.9,5.2,3.8,6.6,3.8,6.6s1.7-0.7,1.8-1.1c0,0-1.1-10-3.1-12.5
			c-1.1-1.4-2.4-5.5-2.4-7c-0.1-1.5-0.4-4.3-0.4-4.3L123.9,81.3z"/>
	</g>
	<path class="st1" d="M126.1,64.2c-0.2-1.2-0.2-1.8-0.2-1.8l2.2-1.8c-0.1,2.5,1.5,3.7,1.5,3.7s-3,1.5-4.7,0.9
		C125,65.1,125.4,64.6,126.1,64.2z"/>
	<path class="st1" d="M125.4,62.3c0,0,2.8,0.5,3.1-1.3c0.3-1.8,0.8-2.9-1-3.3c-1.8-0.4-2.3,0.2-2.5,0.8
		C124.8,59.1,124.7,62.1,125.4,62.3z"/>
	<g>
		<path class="st1" d="M115.4,66l-0.6-0.4c0,0-0.8-1.1-2-0.4c0,0-0.5,0.3-0.2,0.6c0.3,0.3,0.3,0.1,0.7,0.5c0.5,0.4,1.1,0.5,1.5,0.3
			l0.5,0L115.4,66z"/>
		<path class="st1" d="M114.7,66.1c0.2-0.5,0.2-0.5,0.2-0.5s4.9,0.6,5.4,0.6c0.5,0,6.9-1.3,6.9-1.3l3,3.7c0,0-8.9,0.3-10.1,0.2
			c-1.9-0.2-5.4-2-5.4-2S114.6,66.5,114.7,66.1z"/>
	</g>
	<path class="st1" d="M131.3,79.8c0,0.2-0.4,0.4-0.6,0.5c-1.3,0.6-2.5,1-3.8,1.1c-1.6,0.2-3.5-0.2-4.1-0.2c-0.1,0-0.1,0-0.2-0.1
		c0,0-0.1-2,0-4.4c0-0.1,0-0.2,0-0.3v0c0-0.3,0-0.5,0-0.8c0-0.7,0-1.5,0.1-2.2c0-1.1,0.1-2.1,0.2-3.1c0.1-1,0.2-1.8,0.4-2.4
		c0.3-1.4,1.1-2.3,1.9-3l0.6-0.5c0.6,0.1,1.2,0.1,1.9-0.2c0.7-0.3,1.4-0.7,1.5-0.6c0.9,0.7,1.5,2.2,1.9,4.2c0.2,1.1,0.3,2.3,0.2,3.5
		c0,0.5,0,1,0,1.4c-0.2,2.6,0,4.9,0.1,6.2C131.2,79.3,131.3,79.6,131.3,79.8z"/>
	<path class="st1" d="M116.1,55.6l-18-2.9c-0.8-0.1-1.5,0.4-1.6,1.2l-0.8,5c0,0.2,0,0.9,0,0.9l0.6,0.1c0,0,0.1,0,0.1,0l0,0l0,0
		c0.1,0,0.2,0,0.4,0c0.6-0.2,1.3-0.3,1.9-0.2c1.9,0.3,3.2,2.1,3,4c-0.2,2.1-2.2,3.6-4.3,3.3c-0.8-0.1-1.5-0.5-2-1
		c-0.1-0.1-0.2-0.2-0.4-0.2l0,0l-0.7-0.1l-0.8,6.1c-0.1,0.8,0.4,1.5,1.2,1.6l5.1,0.8c0.5,0.1,0.7,0.6,0.4,1c-0.3,0.5-0.6,1-0.6,1.6
		c-0.4,2.3,1.5,4.5,4,4.3c1.3-0.1,2.7-1.1,3.1-2.3c0.3-0.9,0.3-1.7,0.1-2.5c-0.1-0.4,0.2-0.9,0.7-0.8l5.2,0.8
		c0.8,0.1,1.5-0.4,1.6-1.1l2.9-18C117.4,56.4,116.9,55.7,116.1,55.6z"/>
	<path class="st1" d="M129.1,67.7c0,0-1.4,6.4-6.6,7.9c0-0.7,0-1.5,0.1-2.2c0-1.1,0.1-2.1,0.2-3.1c0.1,0,0.2-0.1,0.3-0.1
		C124.8,69.6,129.1,67.7,129.1,67.7z"/>
	<path class="st1" d="M106.2,78.7c0.3-0.9,0.3-1.7,0.1-2.5c-0.1-0.4,0.2-0.9,0.7-0.8l5.2,0.8c0.8,0.1,1.5-0.4,1.6-1.1l2.9-18
		c0.1-0.7-0.4-1.4-1.1-1.5l-18-2.9c-0.8-0.1-1.5,0.4-1.6,1.2l-0.8,5c-0.1,0.6,0.5,1.2,1.1,0.9c0.6-0.2,1.3-0.3,1.9-0.2
		c1.9,0.3,3.2,2.1,3,4c-0.2,2.1-2.2,3.6-4.3,3.3c-0.8-0.1-1.5-0.5-2-1c-0.3-0.3-0.9-0.1-1,0.3L93,71.8c-0.1,0.8,0.4,1.5,1.2,1.6
		l5.1,0.8c0.5,0.1,0.7,0.6,0.4,1c-0.3,0.5-0.6,1-0.6,1.6c-0.4,2.3,1.5,4.5,4,4.3C104.3,81,105.7,79.9,106.2,78.7z"/>
	<g>
		<path class="st1" d="M115.4,70.1l-0.7-0.1c0,0-0.8-1.2-2.3-0.5c0,0-0.6,0.3-0.2,0.6c0.4,0.3,0.3,0.1,0.8,0.6
			c0.5,0.4,1.2,0.6,1.7,0.4l0.6,0L115.4,70.1z"/>
		<path class="st1" d="M114.9,70.5c0-0.5,0.3-0.6,0.3-0.6s5.6-0.4,6.1-0.5c0.5-0.1,5-3.8,5-3.8s1.7-1.6,2.9-1
			c1.1,0.5,1.4,1.4,1.4,2.2c0.1,1-0.5,1.9-1.4,2.3c-2,0.9-6,2.8-6.9,2.9c-2,0.4-7.3-0.8-7.3-0.8S114.8,70.9,114.9,70.5z"/>
	</g>
	<path class="st1" d="M125,58.5c0,0-1.2-0.9-0.4-2.2c0,0,0.9,0.3,2.2,0c1.3-0.3,2.4,0.1,2.6,0.6c0,0,0.5,0.2,0.6,1
		c0.1,0.8-1.5,3.1-1.5,3.1s-0.3-0.4-0.2-0.7c0.1-0.3,0.4-0.9,0-0.9c-0.3,0-0.5,0.5-0.6,0.3c-0.1-0.2,0.1-1-0.3-1.2
		C127,58.4,125.5,58.8,125,58.5z"/>
</g>
<g>
	<g>
		<path class="st1" d="M39.1,81.4l0.5,0.4c0,0,1.3-0.5,1.6,1.1c0,0,0.1,0.7-0.3,0.7s-0.3-0.1-0.9-0.1c-0.6,0-1.1-0.3-1.2-0.8
			l-0.3-0.4L39.1,81.4z"/>
		<path class="st1" d="M39.1,82.2c0.4-0.4,0.4-0.7,0.4-0.7s-4.5-3.7-4.9-4c-0.3-0.2-3.6-3.1-5.2-4.9c-0.8-0.9-1.7-0.5-2.8-0.2
			l-0.9,0.3c-1.1,0.3-1.4,1.8-0.5,2.6c2.5,2.1,6.6,4.4,7.4,4.9c1.9,1.2,5.7,2.7,5.7,2.7S38.7,82.6,39.1,82.2z"/>
	</g>
	<path class="st1" d="M44.3,104.8c0,0,1.1,0.8,2.8,0.4c0,0,1.3-0.3,1.6,0.4c0,0-2.1,1-2.6,1.3c-0.4,0.2-0.8,0.6-1.1,0.8
		c-0.2,0.2-0.6,0.2-0.8-0.1c-0.1-0.1-0.2-0.2-0.3-0.4c-0.3-0.4-1.1-1.8-1.1-1.8L44.3,104.8z"/>
	<path class="st1" d="M44.8,104.4c0,0-0.7,1.5-2.2,1.2c0,0-3.1-2.6-5.3-5.3c-0.7-0.9-1.3-1.8-1.6-2.6c-1.4-3.3-5.3-8.2-7.7-10.7
		l6.1-2.2c0,0,2,3.9,4.6,8.8C40.6,97.2,42.8,101.1,44.8,104.4z"/>
	<path class="st1" d="M38.7,93.7l-1.3,6.7c-0.7-0.9-1.3-1.8-1.6-2.6c-1.4-3.3-5.3-8.2-7.7-10.7l6.1-2.2
		C34.2,84.9,36.1,88.9,38.7,93.7z"/>
	<path class="st1" d="M33.7,105.6c0,0-0.1,1.2,1.4,1.4c0,0,0.8,0,0.8,0.8l-4.3,0c0,0-0.1-0.3-0.2-1c0-0.5,0.5-1.9,0.5-1.9
		L33.7,105.6z"/>
	<path class="st1" d="M32.2,84.9c0,0,2.7,3,4.4,8.4c0.9,2.9-1.7,10.3-2.2,12.8c0,0-1.8,0.2-3-0.3c0,0-0.1-5.3,0.6-9.3
		c0.4-2.3-3.6-4.9-5.3-9c-1.2-2.8,0.3-2.8,2-2.8L32.2,84.9z"/>
	<path class="st1" d="M29,71.6c-1.5,0.9-4.6,0.1-4.6,0.1s1.3-1.4,0.7-3.7l1.2,0.6l1.3,0.6c0,0,0.1,0.4,0.1,1.1c0,0.2,0,0.4,0,0.6
		C28.5,71.2,29,71.6,29,71.6z"/>
	<path class="st1" d="M34.6,84.8c0,0.3-0.3,0.4-0.4,0.4c-0.6,0.1-2.3,0.8-3.8,0.9c-1.3,0.1-2.5,0-3.8-0.3c-0.2,0-0.6-0.1-0.6-0.3
		c0-0.2-5.1-10.3-1.2-14.6c0.1-0.1,0.9,0.1,1.6,0.2c0.7,0.2,1.3,0.1,1.8-0.1l0.7,0.3c0.8,0.5,2.4,2.1,2.5,3.3
		c0.1,0.6,0.5,1.1,0.6,1.7c0,0.2,0.1,0.4,0.1,0.6c0.1,0.4,0.2,0.8,0.2,1.1c0.2,1,0.5,1.8,0.7,2.5c0.3,0.8,0.5,1.4,0.7,1.9
		c0.3,0.7,0.5,1.2,0.7,1.6C34.5,84.4,34.6,84.6,34.6,84.8z"/>
	<path class="st1" d="M34.4,84.1c-7.1-3.4-9.6-9.8-9.6-9.8s5.8,2.1,7.2,2.7c0.1,0.4,0.2,0.8,0.2,1.1c0.2,1,0.5,1.8,0.7,2.5
		c0.3,0.8,0.5,1.4,0.7,1.9C34,83.2,34.2,83.7,34.4,84.1z"/>
	<path class="st1" d="M54.5,77L53,72.2c-0.1-0.5-0.6-0.7-1.1-0.6l0,0l0,0c0,0,0,0-0.1,0l-0.5,0.2c0,0-0.8,0.9-1.4,1
		c-1.8,0.5-3.6-0.4-4.3-2.3c-0.7-2,0.1-4.2,2.1-4.8c0.7-0.2,2,0.2,2,0.2l0.5-0.2c0.3-0.1,0.5-0.4,0.4-0.7L49,59.7
		c-0.2-0.7-1-1.1-1.7-0.9l-5,1.6c-0.5,0.1-0.9-0.2-0.8-0.7c0.1-0.5,0.1-1.1-0.1-1.7c-0.7-2.2-3.3-3.3-5.5-2
		c-1.1,0.6-1.9,2.2-1.8,3.5c0.1,0.9,0.5,1.7,1.1,2.3c0.3,0.3,0.2,0.9-0.3,1l-5,1.6c-0.7,0.2-1.1,1-0.9,1.7l5.5,17.4
		c0.2,0.7,1,1.1,1.7,0.9l17.3-5.5C54.3,78.5,54.7,77.7,54.5,77z"/>
	<path class="st1" d="M33.6,59.5c0.1,0.9,0.5,1.7,1.1,2.3c0.3,0.3,0.2,0.9-0.3,1l-5,1.6c-0.7,0.2-1.1,1-0.9,1.7L34,83.5
		c0.2,0.7,1,1.1,1.7,0.9l17.3-5.5c0.7-0.2,1.1-1,0.9-1.8l-1.5-4.8c-0.2-0.6-1-0.8-1.4-0.3c-0.4,0.5-1,0.8-1.7,1
		c-1.8,0.5-3.8-0.5-4.5-2.3c-0.7-2,0.3-4.2,2.4-4.8c0.8-0.2,1.5-0.2,2.2,0c0.5,0.1,0.9-0.3,0.7-0.7l-1.7-5.3c-0.2-0.7-1-1.1-1.7-0.9
		l-5,1.6c-0.5,0.1-0.9-0.2-0.8-0.7c0.1-0.5,0.1-1.1-0.1-1.7c-0.7-2.2-3.3-3.3-5.5-2C34.3,56.7,33.5,58.3,33.6,59.5z"/>
	<g>
		<path class="st1" d="M38.6,82.2l0.6,0.2c0,0,1.2-0.9,2,0.5c0,0,0.3,0.6-0.2,0.8c-0.4,0.1-0.3,0-0.9,0.2c-0.6,0.2-1.2,0.1-1.5-0.4
			l-0.4-0.3L38.6,82.2z"/>
		<path class="st1" d="M39.1,83c0.2-0.6,0.3-0.9,0.3-0.9s-4.6-3.8-5.1-4.1c-0.3-0.2-3.5-2.6-5.1-4.5c-0.8-0.9-2-1.4-3.2-1.1l-1,0.2
			c-1.2,0.2-1.6,1.7-0.6,2.5c2.6,2.2,6.9,4.8,7.7,5.3c2,1.3,6.5,3.2,6.5,3.2S38.9,83.5,39.1,83z"/>
	</g>
	<path class="st1" d="M27.7,70.3c-1.5,0.1-2.5-1.1-2.5-1.1s0.7-0.4,1-0.6l1.3,0.6C27.6,69.2,27.6,69.6,27.7,70.3z"/>
	<path class="st1" d="M28.3,68.8c0,0-2.3,1.6-3.2,0.2c-1-1.4-1.9-2.2-0.5-3.3c1.4-1.1,2.1-0.7,2.5-0.4
		C27.5,65.8,28.9,68.3,28.3,68.8z"/>
	<path class="st1" d="M27.3,64.1c-0.1-0.5-0.3-0.9-0.3-0.9s-0.1,0.6-1.2,0.5c-1.1-0.1-2.8,0.1-3.3,1.3c0,0.1-0.1,0.2-0.1,0.2
		c-0.1-0.3-0.1-0.7-0.1-0.7c-0.2,0.5,0,1.2,0,1.2h0c0,0,0,0,0,0.1c-0.2,0.2-0.4,0.8-0.4,0.8c0.1-0.2,0.2-0.3,0.4-0.4
		c0,0.9,0.4,1.9,1.1,2.2c1,0.4,1,0.1,2,0.8c0,0,0.3-0.3,0.1-0.6c-0.2-0.2-0.9-0.5-0.5-0.9c0.4-0.3,0.5,0,0.7-0.2
		c0.1-0.2-0.6-0.9,0.3-1.5C26.8,65.5,27.4,64.7,27.3,64.1z"/>
</g>
</svg>
