<?xml version="1.0" encoding="utf-8"?>
<!-- Generator: Adobe Illustrator 25.4.1, SVG Export Plug-In . SVG Version: 6.00 Build 0)  -->
<svg version="1.1" id="圖層_1" xmlns="http://www.w3.org/2000/svg" xmlns:xlink="http://www.w3.org/1999/xlink" x="0px" y="0px"
	 viewBox="0 0 170 120" style="enable-background:new 0 0 170 120;" xml:space="preserve">
<style type="text/css">
	.st0{fill:#017DBB;}
	.st1{fill:#FFFFFF;}
</style>
<g>
	<rect class="st0" width="170" height="120"/>
</g>
<g>
	<path class="st1" d="M11.4,16.3l-4.9,2.1V16l5.8-2h2.4v23.5h-3.1V16.3H11.4z"/>
	<path class="st1" d="M34.2,31.3h-3.1v6.1h-3v-6.1H17.4v-2l10.2-15.3h3.5v15.2h3.1V31.3z M28.1,29.1v-8.8c0-1.1,0.1-2.7,0.1-3.5H28
		c-0.3,0.6-0.6,1.3-1.8,3.2l-5.8,8.9v0.2H28.1z"/>
</g>
<g>
	<path class="st1" d="M54.6,26.7l-1.3,1.9c-1.1-0.8-2.4-2.2-3.3-3.9v5h-2v-4.5c-0.9,1.3-2.4,2.6-3.9,3.5L43.6,28v1.7h-2v-7.2
		c-0.4,0.5-0.7,0.9-1.1,1.3l-0.6-0.5c1.5-2.5,2.3-5.4,2.7-8.5l2.1,0.4c-0.2,1.2-0.6,2.5-1.1,3.8V28c1.5-1.2,2.8-2.8,3.7-4.8h-3.2v-1
		H48v-1.5h-2.8v-5.1H53v5.1h-2.9v1.5h4.1v1h-3.9C51.4,24.8,53.3,26.1,54.6,26.7z M47.2,19.8H51v-3.1h-3.8V19.8z"/>
	<path class="st1" d="M70.3,17.7h-4.4c1.5,0.6,2.9,1.3,4.3,2.4l-1.3,1.6c-0.4-0.5-0.9-1-1.4-1.5c-3,0.6-7.6,1-9.8,1.1l-0.4-2
		c0.9,0.1,1.9,0.1,2.9,0.1c0.3-0.5,0.6-1.1,0.9-1.7h-4.7v-1h7c-0.8-0.5-1.7-0.9-2.4-1.2l0.2-0.8c1.1,0.1,2.9,0.5,4,1l-0.6,1.1h5.7
		V17.7z M58.5,21.6h9.7V28c0,1.8-1.7,2.3-4.5,1l0.2-0.8c2.1,0.3,2.4,0.1,2.4-0.7v-0.8h-5.7v3.1h-2V21.6z M60.5,22.6v1.1h5.7v-1.1
		H60.5z M66.2,25.7v-1.1h-5.7v1.1H66.2z M65.3,18.3l0.4-0.7h-2.3c-0.6,0.6-1.3,1.2-1.9,1.7c1.7,0,3.4,0,4.9-0.1
		C66.1,19,65.7,18.7,65.3,18.3z"/>
	<path class="st1" d="M72.4,18.3c1,0.5,2.1,1.1,3.1,2l-1.4,1.5c-0.8-1.1-1.6-2-2.2-2.7L72.4,18.3z M74.6,22.4l0.8,0.2
		c-0.2,2.1-0.7,5.3-1.1,6.9l-2.2-0.9C72.9,27,73.9,24.5,74.6,22.4z M75,18.2c-0.7-1-1.5-2-2.2-2.8l0.5-0.7c0.9,0.4,2.1,1.1,3.1,2
		L75,18.2z M85.2,23.4c-0.1,1.1-0.1,2.1-0.2,2.9h1.3v1h-1.4l0,0.3c-0.3,1.9-1.7,3-4.6,1.3l0.2-0.8c2,0.4,2.2,0.3,2.4-0.7h-4.5
		l-0.1,0.9l-2-0.2c0.3-1.4,0.5-2.9,0.8-4.6h-1.1v-1h1.2c0.1-1,0.3-2.2,0.4-3.4c-0.4,0.5-0.8,0.9-1.2,1.3l-0.6-0.5
		c0.9-1.6,1.5-3.5,1.9-5.2l2,0.5c-0.2,0.5-0.4,0.9-0.6,1.4h7.4v1h-7.9c-0.3,0.4-0.5,0.9-0.8,1.3h7.8c-0.1,1.3-0.1,2.5-0.2,3.6h1.2v1
		H85.2z M83.2,23.4h-4.3c-0.1,1-0.3,2-0.4,2.9h3.2c-0.7-0.7-1.6-1.3-2.3-1.9l0.4-0.8c1,0.3,2.1,0.6,3,1.2l-0.9,1.5h1.2
		C83,25.5,83.1,24.5,83.2,23.4z M79,22.4h2.7c-0.6-0.6-1.4-1.2-2-1.7L80,20c0.9,0.3,2,0.7,2.8,1.2L82,22.4h1.2
		c0.1-1,0.1-1.9,0.1-2.6h-4.1C79.2,20.6,79.1,21.5,79,22.4z"/>
	<path class="st1" d="M88.4,18.5c0.9,0.4,2.4,1.2,3.3,1.9L90.3,22c-0.7-0.9-1.7-2-2.4-2.8L88.4,18.5z M90.9,22.6l0.8,0.3
		c-0.4,2.2-1,4.9-1.6,6.5L88,28.3C88.9,26.8,90.1,24.6,90.9,22.6z M90.8,18.2c-0.7-0.8-1.7-2-2.3-2.7l0.5-0.7c1,0.4,2.4,1.2,3.2,1.9
		L90.8,18.2z M102.3,24.3v1h-4.3v4.4h-2.1v-4.4h-4.1v-1h4.1v-2.2h-3.2v-1h3.2v-2h-3.7v-1h2.4c-0.4-1-0.9-2-1.3-2.9l0.7-0.5
		c0.9,0.7,1.9,1.7,2.5,2.6l-1.2,0.7h2.5c0.4-1,0.8-2.3,1.1-3.4l2.2,0.8c-0.6,0.9-1.4,1.9-2.1,2.6h3.1v1h-4v2h3.4v1h-3.4v2.2H102.3z"
		/>
	<path class="st1" d="M118.3,27.9V29h-13.8v-1.1h6v-3.8h-4.4V23h4.4v-3.2h-2.8c-0.7,1.3-1.6,2.5-2.6,3.4l-0.6-0.5
		c1.3-2,2.1-4.4,2.5-7.2l2.2,0.5c-0.2,0.9-0.5,1.9-0.9,2.8h2.3V15h2.2v3.8h4.6v1.1h-4.6V23h4.3v1.1h-4.3v3.8H118.3z"/>
	<path class="st1" d="M122.3,25.2l0.8,0.3c-0.1,1.4-0.6,2.8-1.4,3.9L120,28C121,27.2,121.7,26.3,122.3,25.2z M120.5,17
		c0.4,0,0.9,0,1.3,0.1c0.4-0.7,0.7-1.4,1.1-2.3l1.8,0.6c-0.6,0.7-1.1,1.2-1.7,1.7c0.9,0,1.8,0,2.6,0c-0.2-0.3-0.3-0.6-0.5-0.9
		l0.6-0.4c0.8,0.6,1.4,1.2,2,2.1l-1.3,0.9c-0.1-0.3-0.3-0.6-0.4-0.9c-1.6,0.4-3.5,0.7-5.1,0.8L120.5,17z M125.3,22.9v-0.3h-2.4v2.2
		h-1.8v-6h6v4.4c0,1.6-1.6,2-3.3,0.9l0.2-0.7C125.1,23.7,125.3,23.6,125.3,22.9z M122.8,19.7v0.6h2.4v-0.6H122.8z M125.3,21.8v-0.7
		h-2.4v0.7H125.3z M131.2,26.2c0.8,2.6,0.3,3.2-1.3,3.4c-1.1,0.1-2.8,0.1-3.9,0c-1.6-0.1-2.5-0.3-2.5-1.7v-2.6h1.9V27
		c0,0.7,0.1,0.9,1.1,0.9c1,0,2.3,0,3.1,0c0.7-0.1,0.8-0.2,0.8-1.7H131.2z M126.2,25.4l0.4-0.7c1,0.3,2.1,0.8,3,1.3l-1.1,1.4
		C127.8,26.7,127,26,126.2,25.4z M127.7,23v-2.9h1.8v1.6c0.8-0.4,1.7-0.9,2.5-1.6l1.3,1.2c-1.2,0.6-2.6,1-3.9,1.2
		c0,0.6,0.1,0.7,0.7,0.7c0.6,0.1,1.4,0.1,2,0c0.7-0.1,0.8-0.2,0.8-1.3h0.8c0.6,2,0.3,2.7-1.4,2.8c-0.8,0-1.9,0.1-2.6,0
		C128.4,24.7,127.7,24.6,127.7,23z M127.8,17.9V15h1.8v1.7c0.8-0.4,1.7-1,2.4-1.6l1.3,1.2c-1.2,0.6-2.5,1-3.8,1.2
		c0,0.6,0.2,0.7,0.7,0.7c0.6,0,1.2,0,1.9,0c0.7-0.1,0.7-0.3,0.7-1.3h0.8c0.6,2.1,0.1,2.6-1.3,2.7c-0.7,0-1.7,0.1-2.4,0
		C128.3,19.7,127.8,19.5,127.8,17.9z M134.8,27.9l-1.7,1.1c-0.5-1.3-1-2.4-1.6-3.4l0.6-0.5C133.2,25.8,134.1,26.8,134.8,27.9z"/>
</g>
<g>
	<g>
		<path class="st1" d="M70.9,102.3c0.4-0.9,0.8-1.9,1.4-2.7c0.6-0.8,1.5-1.4,2.4-1.9c0.7-0.4,1.4-0.7,2-1.2c1.3-1.1,1.9-2.7,1.9-4.4
			c0-1.5,0.4-3.2,1.6-4.3c0.3-0.3,0-1-0.5-0.9c-1.4,0.3-2.1,2.1-2.5,3.3c-0.3,0.9-0.1,1.8-0.3,2.7c-0.3,1-0.7,1.9-1.6,2.5
			c-1.6,1-3.4,1.8-4.4,3.3c-0.7,1.1-1.2,2.3-1.4,3.5H70.9z"/>
		<path class="st1" d="M65.1,102.3h2c-0.3-1-0.6-2-0.8-3.1c-0.2-1-0.4-2.3,0.2-3.2c0.6-1,1.3-1.9,1.5-3.1c0.2-1.3,0.2-2.7,0-4
			c-0.2-1.2-0.1-2.6,0.3-3.8c0.2-0.6,0.4-1.1,0.5-1.7c0.1-0.2,0.1-0.3,0.2-0.5c0-0.2,0.2-0.3,0-0.2c0.3-0.2,0.5-0.6,0.2-0.9
			c0,0,0,0,0-0.1c-0.2-0.2-0.4-0.3-0.7-0.3c-0.8,0.1-1.1,1-1.3,1.6c-0.5,1.2-0.8,2.3-1,3.5c-0.3,2.5,0.7,5.3-0.8,7.5
			c-0.7,1-1.1,1.9-1.1,3.1c0,1.2,0.2,2.3,0.5,3.5C64.8,101.3,65,101.8,65.1,102.3z"/>
		<path class="st1" d="M69,100.5c0.2,0.6,0,1.2-0.2,1.8h3.6c0-0.7-0.4-1.5-0.5-2.2c-0.2-1,0.4-2.1,0.9-3c0.6-1,1.2-1.8,1.5-2.9
			c0.3-0.8,0.2-1.7,0.1-2.6c-0.1-1.1-0.1-2.1,0.2-3.1c0.3-1.1,1-2.1,1.6-2.9c0.7-0.7,1.6-2,1.8-2.3c0.2-0.5-0.3-1-0.8-0.7
			c-0.8,0.5-1.5,1.2-2.1,1.9c-0.7,0.8-1.3,1.8-1.8,2.7c-0.5,0.9-0.7,1.9-0.8,3c-0.1,1,0.2,2.1,0.1,3.1c-0.2,1.1-0.9,2-1.6,2.9
			c-0.5,0.7-0.9,1.6-1.1,2.4c-0.4-0.8-0.7-1.5-0.7-2.4c0-1,0.7-1.7,0.9-2.7c0.2-0.9,0.8-1.6,1.1-2.4c0.3-0.9,0.3-1.9,0.1-2.8
			c-0.1-0.6-0.3-1.3-0.8-1.6c-0.3-0.3-1,0.1-0.8,0.6c0.4,0.8,0.2,1.9,0,2.7c-0.2,0.9-0.7,1.7-1.1,2.5c-0.4,0.8-0.8,1.7-1.1,2.6
			c-0.3,0.9-0.2,1.9,0.1,2.7C68.1,98.9,68.6,99.7,69,100.5z"/>
		<path class="st1" d="M62,85.1c0.3,0.8,0.8,2.5,0.9,2.9c0.2,2-1.6,3.6-1.6,5.6c0,1.2,0.2,2.4,0.8,3.5c0.5,0.9,1.2,1.7,1.8,2.5
			c0.6,0.8,1.1,1.7,1.3,2.6h1.9c0-0.8-0.2-1.7-0.6-2.3c-1.2-1.9-3.1-3.6-3.3-5.9c-0.1-1.3,0.6-2.4,1.1-3.5c0.4-0.8,0.6-1.9,0.4-2.7
			c-0.1-1-0.6-2-1-3c-0.5-1.1-1.1-2.2-1.5-3.4c-0.2-0.6-1.1-0.5-1,0.2C61.1,82.9,61.7,84.3,62,85.1z"/>
		<path class="st1" d="M58.6,91.1c0.1,0.8-0.2,1.5-0.3,2.3c-0.2,0.8-0.5,1.7-0.4,2.5c0.1,1,0.5,1.9,1,2.7c0.5,0.7,1.3,1.3,1.9,2
			c0.4,0.5,0.8,1.1,1.1,1.7h2.1c-0.2-0.5-0.4-1.1-0.7-1.5c-0.5-0.9-1.1-1.6-1.9-2.3c-0.8-0.7-1.5-1.5-1.7-2.5
			c-0.2-0.9,0.3-1.9,0.4-2.8c0.1-0.9,0.4-1.6,0.1-2.5c-0.3-0.9-0.7-1.6-1.4-2.3c-0.5-0.6-1.2-1.2-1.5-1.9c-0.3-0.6-1.4-0.2-1.2,0.4
			c0.2,0.7,0.6,1.4,1,2C57.8,89.6,58.5,90.3,58.6,91.1z"/>
	</g>
	<path class="st1" d="M131.6,96.8c-12,1.5-12-7.7-27.1-6.7c-15.1,1-17.7,8.5-35.9,9.7c-18.2,1.2-17.1-3.4-29.3-7.7
		c-12.2-4.3-25.1-1.5-25.1-1.5s22.5,8.6,26.4,9.5c46.9,10.6,69.7,10.2,98.4-1.5c12.2-5,14.3-17.2,14.3-17.2
		C137.7,85.7,143.2,95.4,131.6,96.8z"/>
	<g>
		<path class="st1" d="M136.3,86c-2-0.8-4.7-1.1-4.7-1.1c-1-1.3-2.4-4.1-5.4-10.6c-1.5-3.3-5.4-7.2-8.8-9.4c0.1-0.7,0.3-1.4,0.7-2
			c0.4-0.6,1.7-1.3,2.3-1.9c0.6-0.6-1-2.2-5-1.9c-3,0.2-4.3,1.5-5.7,2.4c-3.9-1-10.5-0.3-15.4,1.1c-5.2,1.5-5.4,3.8-6.6,4.6
			c-1.2,0.7-2.8,0.2-3.6,1.4c-0.8,1.2,0,2,1.7,1.9c1.8-0.1,4.6,0.5,4.6,0.5s6.1,2,10.7,2.9c-0.1,1,0.1,2.2,0.6,3.5
			c1.3,3,2.9,5.2,3.8,5.1c0.9-0.1-0.3-2-0.2-3.3c0-1.3,0.7-2.4-0.2-4.3c-0.1-0.1-0.1-0.2-0.2-0.3c4.6,0.9,10.7,2.6,14.1,3.9
			c4.5,1.7,11,7.4,11,7.4s-0.4,1.5-0.6,2.5c-0.1,0.9-0.2,1.5-0.1,2.1c0.1,0.9,0.3,1.4,0.6,1.3c0.3-0.1,0.6-1,1.1-1.7
			c0.6-0.6,1.2-1.3,1.9-1.6c1.1-0.6,3.8-0.8,4.6-0.9C138.5,87.5,138.4,86.9,136.3,86z M92.8,68.5c-0.3,0-0.5-0.2-0.5-0.5
			c0-0.3,0.2-0.5,0.5-0.5c0.3,0,0.5,0.2,0.5,0.5C93.3,68.3,93.1,68.5,92.8,68.5z"/>
		<g>
			<path class="st1" d="M136.3,86c-2-0.8-4.7-1.1-4.7-1.1c-1-1.3-2.4-4.1-5.4-10.6c-1.5-3.3-5.4-7.2-8.8-9.4c0-0.3,0.1-0.5,0.2-0.8
				c-0.1,0.4-0.2,0.8-0.3,1.2c3.4,2.2,7.3,6.1,8.8,9.4c3,6.4,4.4,9.3,5.4,10.6c0,0,2.6,0.2,4.7,1.1c1.1,0.5,1.6,0.8,1.8,1.1
				C138.4,87.3,138.1,86.8,136.3,86z"/>
			<path class="st1" d="M87.7,67.7c1.2-0.7,1.4-3,6.6-4.6c4.9-1.4,11.5-2.1,15.4-1.1c1.4-0.9,2.7-2.2,5.7-2.4c3.3-0.2,5,0.8,5.1,1.5
				c0,0,0,0,0,0c0.6-0.6-1-2.2-5-1.9c-3,0.2-4.3,1.5-5.7,2.4c-3.9-1-10.5-0.3-15.4,1.1c-5.2,1.5-5.4,3.8-6.6,4.6
				c-1.2,0.7-2.8,0.2-3.6,1.4c-0.2,0.2-0.2,0.5-0.3,0.7c0-0.1,0.1-0.2,0.1-0.3C84.9,67.9,86.5,68.4,87.7,67.7z"/>
		</g>
	</g>
	<g>
		<path class="st1" d="M66.4,70.3c0.1-0.6,0.7-0.9,1.3-0.8c0.6,0.1,0.9,0.7,0.8,1.3c-0.1,0.6-0.7,0.9-1.3,0.8
			C66.6,71.5,66.3,70.9,66.4,70.3z"/>
		<path class="st1" d="M66.8,71.4c-0.3-0.2-0.4-0.6-0.3-1c0.1-0.6,0.7-0.9,1.3-0.8c0.1,0,0.3,0.1,0.4,0.2c-0.1-0.1-0.3-0.2-0.5-0.3
			c-0.6-0.1-1.1,0.2-1.3,0.8C66.3,70.8,66.5,71.2,66.8,71.4z"/>
	</g>
	<g>
		<path class="st1" d="M140.8,71.6c0.3-1.2,1.5-2,2.7-1.8c1.2,0.3,2,1.5,1.8,2.7c-0.3,1.2-1.5,2-2.7,1.8
			C141.3,74,140.5,72.8,140.8,71.6z"/>
		<path class="st1" d="M141.8,74c-0.6-0.5-0.8-1.3-0.7-2.1c0.3-1.2,1.5-2,2.7-1.8c0.3,0.1,0.5,0.2,0.8,0.3c-0.3-0.3-0.7-0.5-1.1-0.6
			c-1.2-0.3-2.5,0.5-2.7,1.8C140.6,72.5,141,73.5,141.8,74z"/>
	</g>
	<g>
		<path class="st1" d="M133.1,67.4c0.1-0.5,0.6-0.8,1.1-0.7c0.5,0.1,0.8,0.6,0.7,1.1c-0.1,0.5-0.6,0.8-1.1,0.7
			C133.3,68.4,133,67.9,133.1,67.4z"/>
		<path class="st1" d="M133.5,68.4c-0.2-0.2-0.3-0.5-0.3-0.9c0.1-0.5,0.6-0.8,1.1-0.7c0.1,0,0.2,0.1,0.3,0.1
			c-0.1-0.1-0.3-0.2-0.4-0.2c-0.5-0.1-1,0.2-1.1,0.7C133,67.8,133.2,68.2,133.5,68.4z"/>
	</g>
	<g>
		<path class="st1" d="M73.3,66.2c0.1-0.3,0.3-0.5,0.6-0.4c0.3,0.1,0.5,0.3,0.4,0.6c-0.1,0.3-0.3,0.5-0.6,0.4
			C73.5,66.7,73.3,66.4,73.3,66.2z"/>
		<path class="st1" d="M73.6,66.7c-0.1-0.1-0.2-0.3-0.1-0.5c0.1-0.3,0.3-0.5,0.6-0.4c0.1,0,0.1,0,0.2,0.1c-0.1-0.1-0.2-0.1-0.3-0.1
			c-0.3-0.1-0.6,0.1-0.6,0.4C73.3,66.4,73.4,66.6,73.6,66.7z"/>
	</g>
	<g>
		<path class="st1" d="M113,93.7c0-0.2,0.2-0.3,0.4-0.3c0.2,0,0.3,0.2,0.3,0.4c0,0.2-0.2,0.3-0.4,0.3C113,94.1,112.9,93.9,113,93.7z
			"/>
		<path class="st1" d="M113.1,94.1c-0.1-0.1-0.1-0.2-0.1-0.3c0-0.2,0.2-0.3,0.4-0.3c0,0,0.1,0,0.1,0.1c0,0-0.1-0.1-0.2-0.1
			c-0.2,0-0.4,0.1-0.4,0.3C112.9,93.9,113,94,113.1,94.1z"/>
	</g>
	<g>
		<path class="st1" d="M120,92.9c0-0.2,0.2-0.3,0.4-0.2c0.2,0,0.3,0.2,0.2,0.4c0,0.2-0.2,0.3-0.4,0.2C120.1,93.2,120,93.1,120,92.9z
			"/>
		<path class="st1" d="M120.2,93.2c-0.1-0.1-0.1-0.2-0.1-0.3c0-0.2,0.2-0.3,0.4-0.2c0,0,0.1,0,0.1,0c0,0-0.1-0.1-0.1-0.1
			c-0.2,0-0.3,0.1-0.4,0.2C120,93,120.1,93.1,120.2,93.2z"/>
	</g>
	<g>
		<path class="st1" d="M70.5,60.5c0-0.2,0.3-0.3,0.5-0.3c0.2,0,0.3,0.3,0.3,0.5c0,0.2-0.3,0.3-0.5,0.3
			C70.6,60.9,70.5,60.7,70.5,60.5z"/>
		<path class="st1" d="M70.7,60.9c-0.1-0.1-0.1-0.2-0.1-0.4c0-0.2,0.3-0.3,0.5-0.3c0,0,0.1,0,0.1,0.1c-0.1,0-0.1-0.1-0.2-0.1
			c-0.2,0-0.4,0.1-0.5,0.3C70.5,60.6,70.6,60.8,70.7,60.9z"/>
	</g>
	<g>
		<path class="st1" d="M48.2,69.5c0,0,1.2-0.3,2.9,0.8c1.8,1.1,2.7,3.6,6.4,4.3c1.4,0.3,2.6-0.4,2.6-0.7c0.1-0.3-2.6-2.5-4.6-3.7
			c-2.1-1.2-3.1-0.7-5-1.9C48.7,67.1,48.2,69.5,48.2,69.5z"/>
		<path class="st1" d="M48.2,69.5c0,0,1.2-0.3,2.9,0.8c1.8,1.1,2.7,3.6,6.4,4.3c1.4,0.3,2.6-0.4,2.6-0.7c0.1-0.3-2.6-2.5-4.6-3.7
			c-2.1-1.2-3.1-0.7-5-1.9C48.7,67.1,48.2,69.5,48.2,69.5z"/>
		<path class="st1" d="M52.4,82.8c-2.3,0.8-7.2-2.2-9.4-4.9c-2.2-2.6-3.3-4.7-3.3-4.7s-0.2,0.1-0.7,0.1c-0.7,0.1-2,0.2-3.5,0
			c-2.3-0.3-4.5-1.4-5.4-2c-0.9-0.6-1.6-0.9-2.7-0.1c-1.1,0.8-1.4,10.4-1.8,10.5c-0.3,0.1-1.8-3.3-2.1-6c-0.3-2.7-0.3-4,0.8-5.3
			c0.6-0.7,1.2-1.2,1.8-1.4c0.5-0.3,0.8-0.4,0.8-0.4s-1.3-0.4-2.4-1.1c-1.1-0.7-1.2-1.4-1.2-1.4L23,66c-0.8-1.3,0-2.7,0.8-3.2
			c0.8-0.5,2.3-0.4,3.5-0.3c1.1,0.1,3.4,1.3,3.4,1.3s0,0,0,0c3.1-4.9,8.3-2.8,12.3-1.7c4.1,1.1,7.9,3.4,9.1,4.2
			c1.3,0.8,3.1,1.2,3.1,1.2s-2.7,1.1-4.2,1.9c-1.5,0.8-2.5,1.7-3.6,2.4c-0.1,0.1-0.3,0.2-0.5,0.2c-0.1,0-0.1,0-0.2,0.1
			c0,0-0.1,0-0.1,0c-0.9,0.3-1.9,0.1-1.9,0c0,0,0,0,0,0c0.1,0.1,2.6,1.7,3.4,3.6c0.8,2,2.7,3.3,4,4.3C53.5,81.1,54.7,82,52.4,82.8z"
			/>
		<path class="st1" d="M55.3,67.6c0,0-11.3-0.5-13.7-1.5c-2.4-1-4.5-0.2-5.7-0.5c-1.2-0.3-1.4-1-3-1.6c-1.5-0.6-2.2-0.1-2.2-0.1
			c3.1-4.9,8-4.2,11.6-2.8c3.9,1.5,8.4,4.2,9.6,5C53.3,66.9,55.3,67.6,55.3,67.6z"/>
		<path class="st1" d="M55.3,67.6c0,0-9.5,0.2-13.7-1.5c-2.4-1-4.5-0.2-5.7-0.5c-1.2-0.3-1.4-1-3-1.6c-1.5-0.6-2.2-0.1-2.2-0.1
			c3.1-4.9,8-4.2,11.6-2.8c3.9,1.5,8.4,4.2,9.6,5C53.3,66.9,55.3,67.6,55.3,67.6z"/>
		<path class="st1" d="M39.7,73.2c0,0-0.2,0.1-0.7,0.1c-0.4-0.6-1.7-2.4-1.7-3.6c0-0.8,0.6-0.9,0.6-0.9c-0.3,0-0.5,0.8,0.1,2
			C38.6,71.8,39.7,73.2,39.7,73.2z"/>
		<path class="st1" d="M46.8,72.2c-0.9,0.3-1.9,0.1-1.9,0c0,0-1.3-1-1.8-1.5C43.2,70.7,46,72.3,46.8,72.2z"/>
		<path class="st1" d="M47.1,72.1c-0.1,0-0.1,0-0.2,0.1c0,0,0,0,0,0C47,72.1,47,72.1,47.1,72.1z"/>
		<path class="st1" d="M31.7,69.6c0,0-0.9-0.3-1.9-0.3c-1,0-2,0.1-3.6-0.4c0.5-0.3,0.8-0.4,0.8-0.4s0.8,0.3,1.8,0.4
			C29.8,69.1,31.2,69.2,31.7,69.6z"/>
	</g>
</g>
</svg>
