<?xml version="1.0" encoding="utf-8"?>
<!-- Generator: Adobe Illustrator 25.4.1, SVG Export Plug-In . SVG Version: 6.00 Build 0)  -->
<svg version="1.1" id="圖層_1" xmlns="http://www.w3.org/2000/svg" xmlns:xlink="http://www.w3.org/1999/xlink" x="0px" y="0px"
	 viewBox="0 0 170 120" style="enable-background:new 0 0 170 120;" xml:space="preserve">
<style type="text/css">
	.st0{fill:#EB1B2B;}
	.st1{fill:#FFFFFF;}
</style>
<g>
	<rect class="st0" width="170" height="120"/>
</g>
<g>
	<path class="st1" d="M14.6,16.3l-4.9,2.1V16l5.8-2h2.4v23.5h-3.1V16.3H14.6z"/>
</g>
<g>
	<path class="st1" d="M34.6,23.1c0.1,1.5-0.1,3.2-0.3,4.1l-1.5-0.6c0.5-0.9,1-2,1.2-3.5L34.6,23.1z M45.7,20.6l-0.8,1.8
		c-1.3-0.4-2.4-1.1-3.3-1.9c-0.4,0.3-0.9,0.6-1.3,0.9c1,0.3,2.5,0.9,3.5,1.6l-0.9,1.4c-0.9-0.8-2.1-1.7-3.1-2.4l0.2-0.4
		c-0.4,0.2-0.9,0.4-1.4,0.6l0.1,0.3l-1.3,0.5c-0.1-0.4-0.3-0.9-0.4-1.3c-1.2,0.6-2.7,1-3.8,1.3l-0.4-1.6c0.4,0,0.8,0,1.2-0.1
		c0.4-0.6,0.9-1.4,1.3-2.2c-0.7,0.3-1.4,0.4-2.1,0.6L33,17.9c0.3,0,0.6,0,0.9,0c0.4-1.2,0.9-2.6,1.1-3.9l1.8,0.5
		c-0.5,1.1-1.3,2.5-2,3.4c0.4,0,0.8,0,1.2,0c0.3-0.5,0.5-1.1,0.8-1.8l1.6,0.7c-0.8,1.5-2.1,3.1-3.2,4.2c0.6-0.1,1.2-0.1,1.8-0.2
		c-0.1-0.3-0.2-0.7-0.4-1l0.6-0.3c0.4,0.4,0.9,1.1,1.2,1.8c0.9-0.5,1.7-1.1,2.4-1.8c-0.5-0.5-0.8-1.1-1.1-1.7
		c-0.5,0.6-1.1,1.1-1.7,1.5l-0.4-0.6c1.2-1.3,2-2.9,2.6-4.8l1.6,0.6c-0.2,0.4-0.4,0.8-0.6,1.2h1.5l0.5-0.3l1.5,0.8
		c-0.6,1.3-1.2,2.3-2,3.2C43.6,20,44.6,20.3,45.7,20.6z M35.8,22.8c0.4,0.9,1,2.6,1.1,3.5l-1.5,0.3c0-0.9-0.1-2.5-0.2-3.6L35.8,22.8
		z M36.9,22.4c0.7,0.8,1.6,2,2,2.9l-1.4,0.7c-0.3-0.9-0.8-2.3-1.2-3.2L36.9,22.4z M39.3,23.4c1.5,0.4,3.5,1.2,5.1,2.2l-1,1.5
		c-1.1-1-3.1-2.3-4.3-3.1L39.3,23.4z M40.1,17.3c0.4,0.6,0.9,1,1.4,1.4c0.5-0.6,0.9-1.3,1.2-2.1h-2.1C40.5,16.8,40.3,17.1,40.1,17.3
		z"/>
	<path class="st1" d="M48.8,23c0,1.4-0.1,3-0.4,4l-1.6-0.7c0.5-0.8,1.1-2.1,1.3-3.4L48.8,23z M56.6,17.3v2.3h2.4v0.8h-6.7v-0.8h2.4
		v-2.3h-2.6c-0.8,1.5-2,2.8-3,3.8c0.6-0.1,1.1-0.1,1.7-0.2c-0.1-0.3-0.2-0.6-0.3-0.9l0.6-0.3c0.5,0.6,1.1,1.4,1.5,2.3v-0.4H59v5.5
		h-1.8v-0.8h-2.9v0.9h-1.7v-2.2l-1.3,0.7c-0.3-1-0.7-2.1-1-3l0.5-0.3c0.7,0.8,1.5,1.9,1.8,2.6v-2.8l-1.3,0.5c-0.1-0.3-0.2-0.7-0.3-1
		c-1.2,0.5-2.6,0.9-3.7,1.2L47,21.1c0.4,0,0.7,0,1.1,0c0.6-0.7,1.1-1.5,1.6-2.3c-0.7,0.3-1.5,0.5-2.3,0.6l-0.3-1.6
		c0.3,0,0.5,0,0.7,0c0.5-1.2,1-2.6,1.2-3.9l1.8,0.5c-0.6,1.2-1.4,2.5-2.1,3.4c0.5,0,1,0,1.4-0.1c0.2-0.4,0.4-0.9,0.6-1.3l1.5,0.7
		v-0.8h2.7v-2.3h1.8v2.3h2.8v0.9H56.6z M49.8,22.7c0.5,1,1,2.5,1.2,3.4l-1.5,0.4c-0.1-1-0.2-2.4-0.3-3.6L49.8,22.7z M54.3,25.4h2.9
		v-3h-2.9V25.4z"/>
	<path class="st1" d="M71.7,24.7h-5.9l1,0.9c-1.3,0.7-3.6,1.3-5.5,1.5l-0.2-0.7c1.5-0.4,2.9-1,4-1.7h-2.2v-4.9
		c-0.4,0.1-0.9,0.2-1.4,0.3l-0.2-0.7c2.1-0.5,3.2-1.2,3.9-2.3h-1v-0.4c-0.8,0.7-1.8,1.3-2.9,1.8L61.1,18c1.5-1,2.4-2.1,3.1-3.5
		l1.6,0.7c-0.3,0.4-0.6,0.8-0.9,1.1h5c-0.3-0.4-0.5-0.8-0.6-1.1h-2.9v-0.8h3.2c0.8,1.5,2.5,2.1,4,2.5l-0.8,1.7
		c-0.6-0.2-1.4-0.7-2-1.2c-0.1,0.4-0.2,0.8-0.2,1.1c-0.4,1.1-1.7,1.3-3.5,0.2l0.2-0.6c1.3,0.3,1.6,0.3,1.7-0.1
		c0.1-0.2,0.2-0.5,0.2-0.8h-2c-0.6,1.2-1.7,1.9-3,2.4h7.6V24.7z M69.9,20.3h-5.2V21h5.2V20.3z M69.9,21.8h-5.2v0.7h5.2V21.8z
		 M69.9,23.2h-5.2V24h5.2V23.2z M68.4,24.7c1.7,0.1,3.6,0.5,5,1l-0.7,1.5c-1.2-0.6-3-1.3-4.5-1.8L68.4,24.7z"/>
	<path class="st1" d="M87.1,22.4c-0.1,1.3-0.2,2.5-0.3,3.3c-0.3,1.7-2.2,1.7-4.1,0.4l0.2-0.6c1.8,0.4,2.3,0.3,2.3-0.2
		c0.1-0.5,0.2-1.3,0.2-2.1h-2.1c-0.1,0.3-0.1,0.6-0.2,0.8l-1.5-0.2c0.1-0.4,0.2-0.9,0.3-1.3c-0.3,0.3-0.6,0.6-0.9,0.9v2.1
		c0,1.5-1.3,2.1-3.5,0.9l0.2-0.6c1.5,0.2,1.8,0.2,1.8-0.7v-0.5c-1.3,0.8-2.7,1.4-4.3,1.8l-0.2-0.6c1.7-0.6,3.2-1.3,4.4-2.4
		c-1.2,0.5-2.5,0.8-3.8,1L75.2,23l0.8,0v-4.1h1.8c0.1-0.3,0.1-0.5,0.1-0.7c-0.7,0.2-1.5,0.4-2.4,0.5l-0.1-0.6
		c0.7-0.2,1.3-0.3,1.8-0.5h-1.7v-2.1h5.3c-0.6-0.3-1.2-0.5-1.7-0.6l0.1-0.7c1,0,2.3,0.2,3.3,0.6l-0.3,0.8h4.8v1.7h-0.7l0.5,0.6
		c-0.7,0.6-1.3,0.6-2.8,0.6c-1.8,0-2.3-0.2-2.3-1.4v-0.6h-1c-0.4,0.6-1,1.1-1.8,1.5l0.7,0.1c-0.2,0.3-0.6,0.7-0.9,1h2.2v2.8l0.4-0.5
		l0.7,0.7l0.2-1.6l1.4,0.4h1.6v-1.2h-3.6v-0.8h5.2v2.7h-3.2c0,0.4-0.1,0.8-0.2,1.1H87.1z M77.3,17.4c0.8-0.3,1.3-0.7,1.7-1.3h-1.7
		V17.4z M77.5,20.1h1.9v-0.6h-1.9V20.1z M77.5,21.4h1.9v-0.6h-1.9V21.4z M77.5,22.8c0.7-0.1,1.3-0.1,1.9-0.2v-0.5h-1.9V22.8z
		 M85.3,16.9v-0.8h-2v0.4c0,0.5,0.2,0.6,0.9,0.6c0.5,0,1.1,0,1.6-0.2H85.3z"/>
</g>
<g>
	<g>
		<path class="st1" d="M74.3,61.3c-6.7,1.3-2.9,13.2,3,8.3C80,67.4,80,60.2,74.3,61.3z"/>
		<path class="st1" d="M90.9,76.7c-4.4,0.9-1.9,8.6,1.9,5.4C94.6,80.6,94.6,76,90.9,76.7z"/>
		<path class="st1" d="M81.8,95.1c-0.8-0.8,2.5-8.4,5.6-10.5c1.5-1,5-1.2,6.6,0c2.4,1.9,6.9,11.1,5.7,11.8c-2.2,1.3-2.5-4.1-4.2-2.9
			c-0.7,0.5-0.8,4.5-0.9,5.4c-0.4,2.3-0.5,8-2.3,7.9c-2.4-0.2,0.5-6.9-1.7-7.4c-3.1-0.7,0,7.2-2,7.3c-2.8,0.1-2.7-13.3-3.3-13.5
			C84.7,93,83,96.4,81.8,95.1z"/>
		<path class="st1" d="M56.6,76.7c-4.4,0.9-1.9,8.6,1.9,5.4C60.3,80.6,60.3,76,56.6,76.7z"/>
		<path class="st1" d="M47.5,95.1c-0.8-0.8,2.5-8.4,5.6-10.5c1.5-1,5-1.2,6.6,0c2.4,1.9,6.9,11.1,5.7,11.8c-2.2,1.3-2.5-4.1-4.2-2.9
			c-0.7,0.5-0.8,4.5-0.9,5.4c-0.4,2.3-0.5,8-2.3,7.9c-2.4-0.2,0.5-6.9-1.7-7.4c-3.1-0.7,0,7.2-2,7.3c-2.8,0.1-2.7-13.3-3.3-13.5
			C50.3,93,48.6,96.4,47.5,95.1z"/>
		<path class="st1" d="M79.1,73.5c-2.5-1.9-7.8-1.6-10.1,0c-4.7,3.2-9.9,14.8-8.6,16.1c1.8,1.9,4.4-3.3,5.4-2.9
			c1,0.4,0.8,21,5.1,20.8c3-0.2-1.7-12.4,3.1-11.3c3.4,0.8-1.2,11,2.6,11.3c2.8,0.3,2.9-8.5,3.6-12.1c0.3-1.4,0.3-7.5,1.4-8.2
			c2.5-1.8,3,6.4,6.4,4.5C89.7,90.6,82.7,76.4,79.1,73.5z M73.4,85.5c-1.6-0.2-3.2-3.5-2.9-5.3c0.4-2.2,3.1-1.3,3.4,0.6
			c0,0,1.8-2.1,3.3-0.6C78.7,81.7,75.1,85.7,73.4,85.5z"/>
	</g>
	<g>
		<path class="st1" d="M55.9,57.3c2.6,2.9-4.7,10.2-7.8,9.7c-3.1-0.5-5.8-7-5-10.3c1-4.2,6-2.1,6.4,1.5
			C49.5,58.1,53.2,54.3,55.9,57.3z"/>
		<path class="st1" d="M49.2,69.9c-2.4-2.4-5.4,8.9-15,9.9c-8.1,0.8-16.7,7-16.5,10c0.3,5,10.3-7.3,10.4,0.3
			c0.1,7.7-0.4,18.9,3.5,18.2c2-0.3,0.6-10.9,2.7-10.7c4.3,0.5,1.8,10.7,3.9,10.9c4.2,0.5,2.6-12.7,2.9-19.5
			C41.5,81.5,52,72.6,49.2,69.9z"/>
		<path class="st1" d="M32.7,70c-5.6,2.6,0.3,12.2,4.4,6.7C39,74.1,37.5,67.7,32.7,70z"/>
	</g>
	<g>
		<path class="st1" d="M140.9,65c-6.1,1.2-2.6,12,2.7,7.5C146,70.5,146,64,140.9,65z"/>
		<path class="st1" d="M128.2,90.7c-1.1-1.1,3.5-11.7,7.8-14.6c2.1-1.4,7-1.7,9.2,0c6.2,4.8,8.4,16.2,8,16.4c-3.1,1.8-3.5-5.7-5.8-4
			c-1,0.7-1.1,6.2-1.3,7.5c-0.6,3.2-0.7,11.2-3.2,10.9c-3.4-0.3,0.8-9.6-2.3-10.3c-4.3-1,0,10.1-2.8,10.2
			c-3.9,0.2-3.8-18.5-4.7-18.8C132.2,87.7,129.9,92.4,128.2,90.7z"/>
		<path class="st1" d="M135.2,54.9c-4.9-2-8.9,0.9-9.3,5.6c-0.5,5.3,5.6,9.7,9.8,8.2c-0.7,0.2-2.5-0.8-2.2-2c0.3-1.5,2.6-0.3,4.6-3
			C140.4,60.6,139,56.5,135.2,54.9z M131.9,63.4c-1.3-0.3-2.4-3.1-2-4.5c0.5-1.8,2.6-0.8,2.7,0.7c0,0,1.6-1.5,2.8-0.2
			C136.5,60.7,133.3,63.7,131.9,63.4z"/>
	</g>
	<g>
		<path class="st1" d="M109.4,61.9c6.6-1.4,7.6,10.8,0.5,8.6C106.7,69.5,103.9,63,109.4,61.9z"/>
		<path class="st1" d="M119.7,94c-5-0.1-7.3,10.3-4.2,12.3c4.4,2.9,4.2-9.6,4.2-11.3V94z"/>
		<path class="st1" d="M102,84.2c0.6,3.7,4.5,6.4,6.6,4.3c1.5-1.6-1.9-1.7-3.1-3.6c-0.9-1.5,0.9-3.6,2.2-3.1c0.1,0,0.1,0.1,0.2,0.1
			c0.2,0.6,0.4,1.1,0.6,1.6c2.5,8.7-4,22.7,0.1,23c3.4,0.3,4.1-10,6.4-11.3c4.9-2.7,8-3.4,7.8-7.5c-0.2-3.4-4.1-5.4-5.5-7.1
			c5.2-1.4-1.1-8.1-5.2-8c-2,0-3.2-0.2-4.5,0.5C104.7,74.5,101.4,80.5,102,84.2z M113.6,85.9c1.2-1.4,3,0.3,3,0.3
			c0.1-1.7,2.4-2.7,3-0.8c0.4,1.5-0.7,4.6-2.1,4.9C115.9,90.5,112.4,87.3,113.6,85.9z"/>
	</g>
</g>
</svg>
