<?xml version="1.0" encoding="utf-8"?>
<!-- Generator: Adobe Illustrator 25.4.1, SVG Export Plug-In . SVG Version: 6.00 Build 0)  -->
<svg version="1.1" id="圖層_1" xmlns="http://www.w3.org/2000/svg" xmlns:xlink="http://www.w3.org/1999/xlink" x="0px" y="0px"
	 viewBox="0 0 170 120" style="enable-background:new 0 0 170 120;" xml:space="preserve">
<style type="text/css">
	.st15{fill:#40AF49;}
	.st1{fill:#FFFFFF;}
</style>
<g>
	<rect class="st15" width="170" height="120"/>
</g>
<g>
	<path class="st1" d="M12.5,16.3l-4.9,2.1V16l5.8-2h2.4v23.5h-3.1V16.3H12.5z"/>
	<path class="st1" d="M18.5,37.5L18.3,36c7.1,0.4,10.2-1.8,10.4-6.6c0.2-3.8-1.8-4.9-3.7-4.9c-2,0-3.2,0.6-3.8,1.3L19,25.5l0.4-11.5
		h11.5v2.1h-8.8l-0.3,7.5l0.1,0.1c0.6-0.4,2-1.1,3.6-1.1c3.3,0,6.4,2.3,6.4,6.4C32,35.7,26.7,38.3,18.5,37.5z"/>
</g>
<g>
	<path class="st1" d="M54.6,26.7l-1.3,1.9c-1.1-0.8-2.4-2.2-3.3-3.9v5h-2v-4.5c-0.9,1.3-2.4,2.6-3.9,3.5L43.6,28v1.7h-2v-7.2
		c-0.4,0.5-0.7,0.9-1.1,1.3l-0.6-0.5c1.5-2.5,2.3-5.4,2.7-8.5l2.1,0.4c-0.2,1.2-0.6,2.5-1.1,3.8V28c1.5-1.2,2.8-2.8,3.7-4.8h-3.2v-1
		H48v-1.5h-2.8v-5.1H53v5.1h-2.9v1.5h4.1v1h-3.9C51.4,24.8,53.3,26.1,54.6,26.7z M47.2,19.8H51v-3.1h-3.8V19.8z"/>
	<path class="st1" d="M70.3,17.7h-4.4c1.5,0.6,2.9,1.3,4.3,2.4l-1.3,1.6c-0.4-0.5-0.9-1-1.4-1.5c-3,0.6-7.6,1-9.8,1.1l-0.4-2
		c0.9,0.1,1.9,0.1,2.9,0.1c0.3-0.5,0.6-1.1,0.9-1.7h-4.7v-1h7c-0.8-0.5-1.7-0.9-2.4-1.2l0.2-0.8c1.1,0.1,2.9,0.5,4,1l-0.6,1.1h5.7
		V17.7z M58.5,21.6h9.7V28c0,1.8-1.7,2.3-4.5,1l0.2-0.8c2.1,0.3,2.4,0.1,2.4-0.7v-0.8h-5.7v3.1h-2V21.6z M60.5,22.6v1.1h5.7v-1.1
		H60.5z M66.2,25.7v-1.1h-5.7v1.1H66.2z M65.3,18.3l0.4-0.7h-2.3c-0.6,0.6-1.3,1.2-1.9,1.7c1.7,0,3.4,0,4.9-0.1
		C66.1,19,65.7,18.7,65.3,18.3z"/>
	<path class="st1" d="M74.6,26.3v3.5h-1.8V15.3l1.6,0.4h1l0.4-0.3l1.8,0.7c-0.7,2.1-1.3,3.6-1.9,4.5c1.1,1.3,1.7,2.7,1.7,4
		C77.5,26.5,76.2,27.1,74.6,26.3z M75.7,24.1c0-1-0.2-2.1-0.8-3.5c0.3-1.2,0.6-2.7,0.7-4h-1.1v8.6C75.5,25.4,75.7,25.3,75.7,24.1z
		 M82.3,28.3h3.9v1h-9.9v-1h4v-2.2h-2.6v-1h2.6v-2h2v2h2.8v1h-2.8V28.3z M80.3,17.7h-2.6v-1h2.6v-1.9h2v1.9h2.8v1h-2.8v1.5h3.6v1
		h-2.2v1c0,0.4,0.2,0.6,0.8,0.6c0.4,0,0.8-0.1,1.1-0.3l0.6,1.3c-0.4,0.4-1.3,0.6-2.1,0.5c-1.6,0-2.2-0.2-2.2-1.6v-1.4h-1.1
		c-0.2,1.8-1.2,3.3-3.1,4l-0.4-0.8c1.2-0.9,1.6-1.7,1.7-3.2h-2v-1h3.3V17.7z"/>
	<path class="st1" d="M93.2,24.7c-1.6,1.2-3.2,2.1-4.6,2.8l-0.8-1.9c0.6-0.1,1.2-0.3,1.8-0.5v-5.2h-1.5v-1h1.5v-3.7h2v3.7H93v1h-1.4
		v4.6c0.4-0.2,0.8-0.3,1.2-0.5L93.2,24.7z M97.7,25.6c-1.6,1-3.4,1.9-5,2.4l-0.6-1.8c1.8-0.3,3.4-0.7,5.3-1.4L97.7,25.6z
		 M100.9,29.7c-1.1-0.2-1.8-1.2-2.3-2.6c-1.4,1.4-2.8,2.2-4.2,2.7L94,29c1.5-0.8,3-1.9,4.1-3.5c-0.5-2.1-0.6-4.7-0.6-6.9H93v-1h4.6
		V15h1.8v2.6h1.4c-0.4-0.7-0.8-1.4-1.3-2.1l0.6-0.5c0.8,0.6,1.6,1.2,2.1,2l-0.9,0.7h1.1v1h-3c0,1.4,0.1,3,0.2,4.4
		c0.4-0.9,0.7-2,1-3.2l1.7,0.5c-0.6,2.1-1.4,3.7-2.3,5.1c0.3,1.2,0.6,2,1.2,2.1c0.2,0.1,0.3-0.3,0.3-2.3h0.8
		C102.9,28.5,102.6,30.1,100.9,29.7z M97.1,19.8v4.6h-3.8v-4.6H97.1z M95.7,20.8h-1v2.7h1V20.8z"/>
	<path class="st1" d="M118.3,27.9V29h-13.8v-1.1h6v-3.8h-4.4V23h4.4v-3.2h-2.8c-0.7,1.3-1.6,2.5-2.6,3.4l-0.6-0.5
		c1.3-2,2.1-4.4,2.5-7.2l2.2,0.5c-0.2,0.9-0.5,1.9-0.9,2.8h2.3V15h2.2v3.8h4.6v1.1h-4.6V23h4.3v1.1h-4.3v3.8H118.3z"/>
	<path class="st1" d="M122.3,25.2l0.8,0.3c-0.1,1.4-0.6,2.8-1.4,3.9L120,28C121,27.2,121.7,26.3,122.3,25.2z M120.5,17
		c0.4,0,0.9,0,1.3,0.1c0.4-0.7,0.7-1.4,1.1-2.3l1.8,0.6c-0.6,0.7-1.1,1.2-1.7,1.7c0.9,0,1.8,0,2.6,0c-0.2-0.3-0.3-0.6-0.5-0.9
		l0.6-0.4c0.8,0.6,1.4,1.2,2,2.1l-1.3,0.9c-0.1-0.3-0.3-0.6-0.4-0.9c-1.6,0.4-3.5,0.7-5.1,0.8L120.5,17z M125.3,22.9v-0.3h-2.4v2.2
		h-1.8v-6h6v4.4c0,1.6-1.6,2-3.3,0.9l0.2-0.7C125.1,23.7,125.3,23.6,125.3,22.9z M122.8,19.7v0.6h2.4v-0.6H122.8z M125.3,21.8v-0.7
		h-2.4v0.7H125.3z M131.2,26.2c0.8,2.6,0.3,3.2-1.3,3.4c-1.1,0.1-2.8,0.1-3.9,0c-1.6-0.1-2.5-0.3-2.5-1.7v-2.6h1.9V27
		c0,0.7,0.1,0.9,1.1,0.9c1,0,2.3,0,3.1,0c0.7-0.1,0.8-0.2,0.8-1.7H131.2z M126.2,25.4l0.4-0.7c1,0.3,2.1,0.8,3,1.3l-1.1,1.4
		C127.8,26.7,127,26,126.2,25.4z M127.7,23v-2.9h1.8v1.6c0.8-0.4,1.7-0.9,2.5-1.6l1.3,1.2c-1.2,0.6-2.6,1-3.9,1.2
		c0,0.6,0.1,0.7,0.7,0.7c0.6,0.1,1.4,0.1,2,0c0.7-0.1,0.8-0.2,0.8-1.3h0.8c0.6,2,0.3,2.7-1.4,2.8c-0.8,0-1.9,0.1-2.6,0
		C128.4,24.7,127.7,24.6,127.7,23z M127.8,17.9V15h1.8v1.7c0.8-0.4,1.7-1,2.4-1.6l1.3,1.2c-1.2,0.6-2.5,1-3.8,1.2
		c0,0.6,0.2,0.7,0.7,0.7c0.6,0,1.2,0,1.9,0c0.7-0.1,0.7-0.3,0.7-1.3h0.8c0.6,2.1,0.1,2.6-1.3,2.7c-0.7,0-1.7,0.1-2.4,0
		C128.3,19.7,127.8,19.5,127.8,17.9z M134.8,27.9l-1.7,1.1c-0.5-1.3-1-2.4-1.6-3.4l0.6-0.5C133.2,25.8,134.1,26.8,134.8,27.9z"/>
</g>
<g>
	<path class="st1" d="M112.4,67.2c0,0,7.4-3.8,15,1.3c-5.5-3.8-7.4-5.7-14.9-2.7c-1.6-0.6-3,0.2-3,0.2c-1.3-1.3-4.3-2.1-9.8,0.9
		c1.3-0.2,6.5-1.7,8.4,0.2c2.8,0.6,4,1.3,4.9,1.3c-0.2-1.3-0.2-1.3-0.2-1.3L112.4,67.2z"/>
	<path class="st1" d="M10.8,106.9c0,0,11.5-0.4,25-0.1c13.5,0.3,21.1,0.4,26.5,0.4c5.4-0.1,13-0.1,17.8,0.1
		c4.9,0.1,15.7,0.2,21.6,0.1c5.9-0.1,20.5-0.2,23.8-0.3c3.2-0.1,9.2-0.2,14.1-0.1c4.9,0.2,6.3-0.2,22.9-0.3c0,1.8,0,3.1,0,3.1H10.8
		V106.9z"/>
	<g>
		<path class="st1" d="M89.1,83.2c-0.3,0-0.4,0.2-0.5,0.3c-0.3-0.4,0.4-0.7,0-0.8c-0.5,0.7-0.9,0.2-1.3,0.3c0.1-0.1,0.3-0.1,0.3-0.3
			c-0.4,0.5-1.3,0.3-1.3-0.1c0.4,0,0.1-0.6,0.4-0.3c0.6-0.2,1.3,0.3,1.6,0c-0.2-0.2-0.6-0.1-0.8-0.4c0.3-0.4,0.6,0.5,0.7-0.1
			c-0.4-0.2-0.9-0.1-0.9-0.7c0.3,0.1,0.9,0,0.8-0.6c-0.4,0.2-0.7,0.5-1,0.2c0.2-0.5,0.2,0.2,0.6,0c-0.3-0.5,0.4-0.2,0.3-0.6
			c-0.5,0.1-0.4,0.1-0.8,0.1c-0.1-0.3,0.1-0.4,0.1-0.5c-0.3,0.1-0.7,0.4-0.8-0.1c0.1-0.6,0.4-0.3,0.4-0.8c-0.3-0.2-0.2-0.4-0.3-0.5
			c-0.1,0.5-0.6-0.1-0.6,0.4l-0.1,0c-0.4-0.3,0-0.7,0.1-1l-0.4,0.1c-0.2-0.5,0.3-0.4,0.3-0.8c-0.4-0.1-0.6,0.2-0.9,0.3c0,0,0,0,0,0
			c0,0,0,0,0,0c-0.1,0-0.2,0-0.3,0c0.2-0.2,0.8-0.2,0.6-1c-0.2,0.1,0,0.5-0.4,0.4l-0.1-0.6c0.3-0.3,0.7,0.3,0.8-0.3
			c-0.4-0.1-0.8-0.1-1.3,0.1c-0.1-0.2,0.1-0.4-0.1-0.5c-0.2,0.1-0.4,0.3-0.6,0.4c-0.1,0-0.1,0-0.2-0.1c0.1-0.2,0.4-0.5,0.4-0.6
			c0.1-0.1,0.1-0.2,0.1-0.4c-0.1,0.1-0.3,0.2-0.4,0.2c0,0,0-0.1,0-0.1c0,0,0,0-0.1,0c-0.1-0.2,0-0.3,0.1-0.3c0,0,0,0,0,0
			c0,0,0,0,0,0c0.1,0,0.2-0.1,0.2-0.2c-0.1,0-0.2,0-0.3,0c-0.1-0.1-0.2-0.2-0.2-0.5c0.1-0.5,0.5,0.1,0.5-0.3
			c-0.1-0.2-0.5,0.2-0.5-0.3c0-0.2,0.1-0.3,0-0.5l0.4-0.1c0.3,0,0.6,0,0.9,0c0.1,0,0.3-0.1,0.4,0c-0.1,0.1-0.2,0.8,0,0.6
			c0.2-0.2,0.1-0.6,0.3-0.8c0.1,0.4-0.3,0.9,0.2,0.9c-0.1-0.5,0.1-0.6,0.1-1l0.1,0c0.5-0.3,0.2,1.4,0.6,1.4c0-0.5-0.4-1.3,0-1.4
			c0.8,0.1,2.1,0.2,2.8-0.1c-0.8-0.2-0.6-0.3-1.4-0.2c0.1-0.3,0.5-0.9,1-0.7c-0.3-0.1-0.2-0.6-0.3-0.7c-0.1,0.4-0.4,0.6-0.7,0.9
			c-0.2-0.7,0.3-0.2,0.4-0.6c-0.3-0.4-0.8,0.3-1.1,0.1c-0.2-0.6,0.4-0.5,0.4-0.9c-0.6,0.3-0.7,1.1-1.3,0.6c0.2-0.2,0.5-0.2,0.6-0.5
			c-0.3-0.2-0.5,0.5-0.6-0.1c0.8-0.9,1.9-1.1,2.5-1.8c-0.2,0-0.5-0.2-0.5,0.1c0.1,0,0.2,0.2,0.1,0.3c-0.2-0.3-1,0.5-0.9,0.1
			c0.1-0.3,0.5-0.2,0.5-0.6c-0.4,0.2-0.4,0.1-0.6,0.4c-0.2-0.2,0.2-0.6-0.1-0.6c-0.1,0.3,0,0.7-0.2,0.9c-0.1-0.2-0.1-0.6-0.2-0.6
			c0.1,0.3,0,0.4-0.1,0.5c-0.1-1.4-0.8,0.6-1.4,0.6c0.2-0.6-0.3-0.4-0.1-1.1c-0.5,0.2-0.2,0.9-0.7,1.1c0.4-0.4-0.3-0.3-0.2-0.7
			c0,0-0.3,0.1-0.6,0c0.3-0.2,0.3-0.5,0-0.6c0.2-0.1,0.3-0.2,0.3-0.4c-0.5,0.3-0.2-0.2-0.4-0.2c-0.1,0.1-0.2,0.2-0.3,0.4
			c-0.5,0.3,0-0.5-0.3-0.4c-0.3-0.1,0.1-0.4-0.2-0.4c-0.2,0.2-0.3,0.4-0.5,0.6c0-0.1,0-0.2-0.1-0.3c0-0.3,0-0.5,0.1-0.6
			c0.8,0.1,2.1,0.2,2.8-0.1c-0.8-0.2-0.6-0.3-1.4-0.2c0.1-0.3,0.5-0.9,1-0.7c-0.3-0.1-0.2-0.6-0.3-0.7c-0.1,0.4-0.4,0.6-0.7,0.9
			c-0.2-0.7,0.3-0.2,0.4-0.6c-0.3-0.4-0.8,0.3-1.1,0.1c-0.2-0.6,0.4-0.5,0.4-0.9c-0.6,0.3-0.7,1.1-1.3,0.6c0.2-0.2,0.5-0.2,0.6-0.5
			c-0.3-0.2-0.5,0.5-0.6-0.1c0.8-0.9,1.9-1.1,2.5-1.8c-0.2,0-0.5-0.2-0.5,0.1c0.1,0,0.2,0.2,0.1,0.3c-0.2-0.3-1,0.5-0.9,0.1
			c0.1-0.3,0.5-0.2,0.5-0.6c-0.4,0.2-0.4,0.1-0.6,0.4c-0.2-0.2,0.2-0.6-0.1-0.6c-0.1,0.3,0,0.7-0.2,0.9c-0.1-0.2-0.1-0.6-0.2-0.6
			c0,0.3,0,0.4-0.1,0.5c-0.1-1.4-0.8,0.6-1.4,0.6c0.2-0.6-0.3-0.4-0.1-1.1c-0.5,0.2-0.2,0.9-0.7,1c0.4-0.4-0.3-0.3-0.2-0.7
			c0,0-0.3,0.1-0.6,0c0.3-0.2,0.3-0.4,0.1-0.6c0.1-0.1,0.2-0.4,0.4-0.2c0.1-0.1,0-0.2,0-0.2c-0.1-0.1-0.1,0.2-0.2,0.1c0,0,0,0,0,0
			c0-0.1,0-0.1,0-0.2c-0.1,0-0.1,0.1-0.1,0.1c0,0,0,0-0.1,0c-0.1,0-0.1,0-0.1-0.1c0,0,0-0.1,0-0.1c0,0,0,0,0,0c0-0.1,0-0.1-0.1-0.1
			c-0.1,0.1-0.2,0.2-0.3,0.4c0,0-0.1,0-0.1,0c0,0,0-0.1,0-0.2c0.1-0.1,0-0.3-0.1-0.4c0.2,0.1,0.3,0,0-0.1l0-0.2
			c0.9-0.2,0.6-0.7,0.9-1.5c0.2-0.1,0.3,0.2,0.3,0c-0.2-0.2,0.4-0.7,0.1-0.9c0.1,0.4-0.1,0.2-0.3,0.3c-0.1,0.2,0,0.3,0.1,0.5
			c-0.4,0.1-0.3-0.5-0.5-0.2c0.4,0.5-0.1,0.7-0.2,1c0-0.1,0-0.2-0.1-0.3c0.2,0.4-0.2,1-0.4,0.8c0.1-0.3-0.4-0.2-0.1-0.4
			c0-0.5,0.6-0.8,0.4-1.1c-0.2,0.1-0.2,0.4-0.5,0.4c-0.2-0.3,0.5-0.2,0.2-0.5c-0.3,0.2-0.3,0.6-0.7,0.4c0.1-0.2,0.2-0.6-0.2-0.7
			c0,0.3,0.1,0.6-0.2,0.7c-0.3-0.3,0.2-0.1,0.1-0.4c-0.4,0,0-0.3-0.3-0.3c-0.1,0.4-0.1,0.3-0.2,0.6c-0.2,0-0.2-0.2-0.3-0.3
			c0,0.2,0,0.6-0.3,0.5c-0.4-0.2-0.1-0.3-0.4-0.5c-0.2,0.1-0.4,0-0.5,0.1c0.3,0.2-0.2,0.4,0.1,0.5l0,0.1c-0.3,0.2-0.4-0.2-0.6-0.3
			l0,0.3c-0.4,0-0.2-0.3-0.4-0.4c-0.2,0.2,0,0.5-0.1,0.7c0,0,0,0,0,0c0,0,0,0,0,0c0,0.1,0,0.1-0.1,0.2c-0.1-0.2,0.1-0.6-0.5-0.7
			c0,0.1,0.3,0.2,0.2,0.4l-0.4-0.1c-0.1-0.3,0.4-0.4,0.1-0.6c-0.2,0.2-0.3,0.5-0.3,0.9c-0.2,0-0.3-0.2-0.3-0.1
			c0,0.2,0.1,0.3,0.1,0.5c0,0-0.1,0.1-0.1,0.1c-0.1-0.1-0.2-0.4-0.3-0.5c0-0.1-0.1-0.1-0.2-0.2c0,0.1,0,0.2,0,0.3c0,0,0,0-0.1,0
			c0,0,0,0,0,0c-0.2,0-0.2-0.1-0.2-0.1c0,0,0,0,0,0c0,0,0,0,0,0c0-0.1,0-0.2-0.1-0.2c0,0.1,0,0.2-0.1,0.2c-0.1,0-0.2,0.1-0.4,0
			c-0.3-0.2,0.2-0.3-0.1-0.5c-0.2,0,0,0.4-0.4,0.3c-0.1,0-0.1-0.1-0.3-0.2l0-0.3c0.1-0.2,0.2-0.4,0.3-0.6c0-0.1,0-0.2,0.1-0.2
			c0,0.1,0.5,0.3,0.4,0.2c-0.1-0.2-0.4-0.2-0.4-0.4c0.3,0.1,0.5,0.5,0.7,0.2c-0.4,0-0.4-0.2-0.6-0.3l0-0.1c0-0.4,1,0.3,1.1,0
			c-0.4-0.1-1-0.1-1-0.4c0.3-0.5,0.7-1.4,0.7-1.9c-0.4,0.5-0.4,0.3-0.5,0.9c-0.2-0.2-0.4-0.6-0.1-0.9c-0.2,0.2-0.5,0-0.6,0
			c0.2,0.2,0.3,0.5,0.4,0.7c-0.6-0.1,0-0.3-0.3-0.4c-0.4,0.1-0.1,0.6-0.3,0.8c-0.4-0.1-0.3-0.4-0.5-0.6c0.1,0.5,0.6,0.8,0,1
			c-0.1-0.2,0-0.4-0.2-0.6c-0.2,0.1,0.2,0.5-0.3,0.4c-0.4-0.8-0.2-1.6-0.5-2.3c0,0.1-0.3,0.3-0.1,0.4c0-0.1,0.2-0.1,0.2,0.1
			c-0.3,0.1,0,0.8-0.2,0.7c-0.1-0.1,0-0.4-0.3-0.5c0,0.3,0,0.3,0.1,0.5c-0.2,0-0.3-0.3-0.4-0.1c0.2,0.1,0.4,0.2,0.5,0.4
			c-0.2,0-0.4-0.1-0.5,0c0.2,0,0.3,0.1,0.3,0.2c-1-0.4,0.1,0.7,0,1.1c-0.3-0.3-0.4,0.1-0.8-0.3c0,0.4,0.6,0.4,0.5,0.8
			c-0.2-0.4-0.3,0.1-0.6-0.1c0,0,0,0.3-0.1,0.4c-0.1-0.3-0.3-0.4-0.4-0.2c0-0.1-0.1-0.2-0.2-0.3c0.1,0.4-0.2,0-0.2,0.2
			c0,0.1,0.1,0.2,0.2,0.3c0.1,0.4-0.4-0.1-0.3,0.1c-0.2,0.1-0.3-0.2-0.3,0c0,0.2,0.2,0.3,0.3,0.5c-0.1,0-0.1,0-0.2,0
			c-0.2,0-0.3-0.1-0.3-0.3c0.3-0.5,0.7-1.4,0.7-1.9c-0.4,0.5-0.4,0.3-0.5,0.9c-0.2-0.2-0.4-0.6-0.1-0.9c-0.2,0.2-0.5,0-0.6,0
			c0.2,0.2,0.3,0.5,0.4,0.7c-0.6-0.1,0-0.3-0.3-0.4c-0.4,0.1-0.1,0.6-0.3,0.8c-0.4-0.1-0.3-0.4-0.5-0.6c0.1,0.5,0.5,0.8,0,1
			c-0.1-0.2,0-0.4-0.2-0.6c-0.2,0.1,0.2,0.5-0.3,0.4c-0.4-0.8-0.2-1.6-0.5-2.3c0,0.1-0.3,0.3-0.1,0.4c0-0.1,0.2-0.1,0.2,0.1
			c-0.3,0.1,0,0.8-0.2,0.7c-0.1-0.1,0-0.4-0.3-0.5c0,0.3,0,0.3,0.1,0.5c-0.2,0-0.3-0.3-0.4-0.1c0.2,0.1,0.4,0.2,0.5,0.4
			c-0.2,0-0.4-0.1-0.5,0c0.2,0,0.3,0.1,0.3,0.2c-1-0.4,0.1,0.7,0,1.1c-0.3-0.3-0.4,0.1-0.8-0.3c0,0.4,0.6,0.4,0.5,0.8
			c-0.2-0.4-0.3,0.1-0.6-0.1c0,0,0,0.3-0.1,0.4c-0.1-0.3-0.3-0.4-0.4-0.2c0-0.1-0.1-0.2-0.2-0.3c0.1,0.4-0.2,0-0.2,0.2
			c0,0.1,0.1,0.2,0.2,0.3c0.1,0.4-0.4-0.1-0.3,0.1c-0.2,0.1-0.3-0.2-0.3,0c0,0.2,0.2,0.3,0.3,0.5c-0.1,0-0.2,0-0.2,0c0,0,0,0-0.1,0
			c0,0-0.1,0.1-0.1,0.1c0,0,0,0,0,0c-0.1,0.1-0.2,0.1-0.4,0.2c0,0,0,0,0-0.1c0,0,0,0,0,0.1c-0.1,0-0.2,0.1-0.4,0.1
			c-0.3-0.1-0.2-0.6-0.3-0.7c-0.6,0.7-1.1,0.2-1.5,0.8c0.3,0.2,0.3,0.2,0.5-0.2c-0.1,0.4-0.1,0.6-0.1,0.8c-0.2-0.8-0.7,0.1-0.9,0
			c0.2-0.1,0.4-0.7,0.1-0.8c0,0.3-0.2,1.2-0.6,0.8c0.2-0.1,0.3-0.7,0.1-0.7c-0.1,0.6-0.5,0.9-0.7,1c-0.1-0.2-0.1-0.6-0.2-0.6
			c0,0.6-0.1,0.3-0.4,0.6c-0.3-0.3,0-0.9-0.3-1.1c0.1-0.1,0.1-0.2,0.1-0.3c-0.5,0.3-0.5,0.1-0.8,0.7c-0.1-0.2-0.2-0.7,0.2-0.9
			c-0.2,0.1-0.4-0.2-0.5-0.2c0.1,0.3,0.1,0.5,0.1,0.8c-0.5-0.3,0.1-0.3-0.1-0.5c-0.4,0-0.3,0.6-0.6,0.6c-0.4-0.2-0.1-0.5-0.3-0.7
			c-0.1,0.5,0.2,0.9-0.4,1c0-0.2,0.2-0.4,0-0.6c-0.3,0,0,0.5-0.4,0.3c-0.1-0.9,0.4-1.6,0.3-2.3c-0.1,0.1-0.4,0.1-0.2,0.3
			c0-0.1,0.2,0,0.2,0.1c-0.3,0-0.3,0.8-0.4,0.5c-0.1-0.2,0.1-0.4-0.1-0.6c-0.1,0.3-0.1,0.3-0.1,0.5c-0.2,0-0.2-0.4-0.4-0.3
			c0.1,0.2,0.3,0.4,0.4,0.6c-0.1-0.1-0.3-0.3-0.4-0.2c0.2,0.1,0.2,0.2,0.2,0.3c-0.8-0.7-0.1,0.7-0.4,1.1c-0.2-0.4-0.4,0-0.6-0.5
			c-0.1,0.4,0.4,0.6,0.2,0.9c0-0.4-0.3,0-0.5-0.2c0,0-0.1,0.2-0.3,0.3c0-0.3-0.1-0.5-0.3-0.3c0.1-0.1,0-0.2-0.1-0.4
			c-0.1,0.4-0.2,0-0.3,0.1c0,0.1,0,0.2,0.1,0.4c-0.1,0.4-0.3-0.3-0.4,0c-0.2,0.1-0.2-0.3-0.3-0.1c0,0.1,0,0.2,0,0.3c0,0,0,0,0,0
			c-0.1-0.1,0-0.4-0.1,0c-0.1,0,0-0.2-0.1-0.3c0,0,0,0,0,0c0.5-0.4,1.1-1,1.2-1.4c-0.5,0.3-0.5,0.1-0.8,0.7
			c-0.1-0.2-0.2-0.7,0.2-0.9c-0.2,0.1-0.4-0.2-0.5-0.2c0.1,0.3,0.1,0.5,0.1,0.8c-0.5-0.3,0.1-0.3-0.1-0.5c-0.4,0-0.3,0.6-0.6,0.6
			c-0.4-0.2-0.1-0.5-0.3-0.7c-0.1,0.4,0.2,0.9-0.3,1c0-0.1,0-0.1,0-0.2c-0.1,0,0,0.1-0.1,0.1c0-0.2,0.1-0.4,0-0.5
			c-0.3,0.1,0,0.5-0.4,0.3c-0.1-0.9,0.4-1.6,0.3-2.3c-0.1,0.1-0.4,0.1-0.2,0.3c0-0.1,0.2,0,0.2,0.1c-0.3,0-0.3,0.8-0.4,0.5
			c-0.1-0.2,0.1-0.4-0.1-0.6c-0.1,0.3-0.1,0.3-0.1,0.5c-0.2,0-0.2-0.4-0.4-0.3c0.1,0.2,0.3,0.4,0.4,0.6c-0.1-0.1-0.3-0.3-0.4-0.2
			c0.2,0.1,0.2,0.2,0.2,0.3c-0.8-0.7-0.1,0.7-0.4,1.1c-0.2-0.4-0.4,0-0.6-0.5c-0.1,0.2,0.1,0.4,0.2,0.6c0,0,0,0,0,0
			c0-0.1,0-0.1-0.1-0.3c-0.1,0.2,0,0.2,0,0.4c0,0,0,0,0,0c0,0,0,0,0,0c0,0-0.1-0.3-0.2-0.2c0-0.1,0-0.2,0.1-0.1
			c0.1-0.1-0.1-0.1-0.2-0.1c0,0.2,0.1,0.3,0.2,0.5c-0.1,0-0.1,0-0.2-0.1c0,0-0.1,0.2-0.3,0.3c0-0.3-0.1-0.5-0.3-0.3
			c0.1-0.1,0-0.2-0.1-0.4c-0.1,0.4-0.2,0-0.3,0.1c0,0.1,0,0.2,0.1,0.4c-0.1,0.4-0.3-0.3-0.4,0c-0.2,0.1-0.2-0.3-0.3-0.1
			c0,0.2,0.1,0.4,0.1,0.6c-0.6-0.4-0.8,0.5-0.9-0.1c-0.1,0.2,0.2,0.4,0.1,0.7c-0.1,0-0.3-0.1-0.4,0c-0.1,0.2,0.2,0.3,0.2,0.4
			c-0.1-0.1-0.3-0.2-0.3-0.1c0.1,0.1,0.1,0.2,0.3,0.3c-0.1,0.2-0.4,0.1-0.5,0.3c0.1,0.2,0.4,0.4,0.2,0.6c-0.3-0.1-0.1-0.5-0.3-0.3
			c0,0.2,0.2,0.3,0,0.5c-0.4-0.4-0.1-0.1-0.2,0.2c-0.1-0.1-0.3-0.2-0.3-0.1c0,0.3-0.1,0.3-0.2,0.8c-0.2,0.1-0.4-0.2-0.5-0.2
			c0.1,0.7-0.4,0.7-0.3,1.2c0.3,0,0.3-0.1,0.2-0.4c0.2,0.3,0.3,0.4,0.4,0.5c-0.5-0.3-0.3,0.4-0.5,0.5c0-0.1-0.2-0.6-0.4-0.5
			c0.1,0.2,0.5,0.7,0.2,0.7c0-0.1-0.2-0.6-0.3-0.4c0.3,0.4,0.2,0.7,0.2,0.9c-0.1-0.1-0.3-0.3-0.4-0.2c0.3,0.3,0.1,0.3,0.1,0.5
			c-0.3,0-0.5-0.6-0.8-0.4c0.2,0.2,0.6,0.4,0.8,0.6c-0.2,0-0.2,0-0.4-0.1c-0.1,0-0.1,0.2-0.1,0.3c-0.3,0-0.3-0.4-0.2,0.1
			c-0.3,0.1-0.2-0.2-0.4-0.2c-0.2,0.1,0.2,0.2,0.1,0.4c-0.2,0.1-0.2-0.3-0.3-0.4c-0.2,0-0.2,0.3-0.5,0.3c0-0.2-0.1-0.3-0.1-0.4
			c-0.1,0-0.1,0.2-0.1,0.3c-0.1,0-0.1-0.4-0.2-0.3c-0.1,0.1-0.1,0.2-0.2,0.3c-0.2,0-0.3-0.3-0.5-0.3c0.4,0.4-0.4,0.2-0.4,0.9
			c-0.1-0.1-0.2-0.3-0.4-0.3c-0.2,0.1,0.1,0.2-0.1,0.3c-0.2,0,0.2,0.4-0.2,0.3c-0.1-0.1-0.1-0.2-0.2-0.2c-0.2,0,0.1,0.3-0.2,0.2
			c0,0.1,0.1,0.2,0.2,0.2c-0.2,0.2-0.2,0.4,0.1,0.4c-0.2,0.1-0.4,0.1-0.4,0.1c0.1,0.3-0.4,0.3-0.1,0.5c-0.4,0-0.3-0.5-0.6-0.5
			c0.3,0.4-0.1,0.4,0.1,0.8c-0.4,0.1-1.1-1.1-1-0.1c-0.1,0-0.2-0.1-0.2-0.3c-0.1,0-0.1,0.3-0.1,0.4c-0.1-0.1-0.1-0.4-0.2-0.5
			c-0.2,0.1,0.1,0.2,0,0.4c-0.2-0.1-0.2,0-0.5-0.1c0,0.3,0.3,0.2,0.4,0.3c0.1,0.2-0.5-0.2-0.6,0.1c-0.1,0-0.1-0.2,0-0.2
			c0-0.2-0.2,0.1-0.4,0.1c0.5,0.4,1.3,0.3,1.9,0.7c0,0.4-0.2,0-0.4,0.2c0.1,0.2,0.3,0.1,0.5,0.2c-0.4,0.5-0.5,0-0.9-0.1
			c0.1,0.3,0.4,0.1,0.4,0.5c-0.2,0.2-0.6-0.1-0.8,0.2c0.1,0.3,0.3-0.2,0.3,0.3c-0.2-0.1-0.4-0.2-0.5-0.4c-0.1,0.1,0,0.4-0.2,0.5
			c0.4-0.3,0.7,0,0.8,0.2c-0.6,0.1-0.4,0.1-0.9,0.4c0.5,0,1.4-0.3,1.9-0.5c0.3,0,0.1,0.6,0.2,1c0.3-0.1-0.1-1.2,0.2-1.1H36
			c0,0.2,0.2,0.3,0.2,0.7c0.3-0.1,0-0.3,0-0.7c0.2,0,0.2,0.3,0.3,0.4c0.1,0,0-0.4-0.1-0.4c0-0.1,0.1-0.1,0.2-0.1
			c0.2-0.1,0.4-0.2,0.6-0.2h0.3c0,0.2,0.1,0.2,0.1,0.3c0.1,0.4-0.3,0.2-0.3,0.3c0.1,0.3,0.3-0.2,0.4,0.1c0.1,0.3-0.1,0.3-0.2,0.5
			c0.3-0.1,0.2-0.8,0.6-0.9c0,0.1,0,0.3,0.2,0.4c0.2-0.1-0.2-0.2,0-0.4c0.1,0,0.1,0,0.2-0.1c0.2,0,0.3,0.4,0.4,0.5h-0.1
			c0-0.1-0.2-0.1-0.3-0.1c0,0.3,0.3,0.1,0.2,0.4c-0.4,0.3-0.6,0.1-0.9,0.7c-0.2,0-0.2-0.2-0.4-0.2c-0.2,0.2,0.3,0.4,0.4,0.5
			c-0.2,0.1-0.4-0.1-0.6-0.1c-0.1,0,0,0.1,0,0.3c-0.3,0-0.6,0.1-0.9,0.2c0.1,0.3,0.3-0.1,0.6,0v0.4c-0.2,0.1-0.2-0.2-0.3-0.2
			c0,0.6,0.4,0.4,0.5,0.5c-0.3,0.3-0.5-0.1-0.9,0.1c0,0.2,0.4,0,0.3,0.4h-0.3c0.1,0.2,0.4,0.3,0.2,0.7h-0.1
			c-0.1-0.3-0.3,0.2-0.5-0.1c-0.1,0.1,0,0.2-0.2,0.4c0.1,0.3,0.3,0,0.4,0.4c0,0.3-0.3,0.2-0.5,0.2c0,0.1,0.2,0.1,0.2,0.3
			c-0.3,0.1-0.2,0.1-0.6,0.1c0,0.3,0.4-0.1,0.2,0.3c0.2,0.1,0.2-0.4,0.4-0.1c-0.2,0.3-0.4,0.2-0.7,0.1c0,0.4,0.4,0.3,0.6,0.2
			c0,0.4-0.3,0.4-0.6,0.7c0.1,0.4,0.2-0.3,0.5-0.1c-0.1,0.2-0.3,0.3-0.5,0.4c0.3,0.2,0.7-0.4,1.1-0.3c0.2-0.3,0.1,0.2,0.3,0.1
			c0.1,0.2-0.5,0.6-0.9,0.3c0,0.1,0.1,0.1,0.2,0.1c-0.3,0.1-0.5,0.5-0.9,0.1c-0.3,0.2,0.2,0.2,0.1,0.5c-0.1-0.1-0.2-0.1-0.4-0.1
			c-0.1,0.1,0,0.3-0.3,0.2c0.2,0.3,0.8-0.2,0.9,0c0.2-0.1-0.1-0.2,0.1-0.3c0.8-0.2,1.2,0.1,1.6-0.8h0.2c0,0.3,0.1,0.2,0.1,0
			c0.1,0.3,0.4,0.3,0.6-0.1c0.1-0.1,0.3-0.1,0.4-0.2c0,0,0,0,0,0c0.1-0.1,0.1-0.2,0.2-0.3c-0.3,0-0.6,0.1-0.8-0.2h-0.1
			c0.1-0.2,0-0.1,0-0.4c0-0.2,0.3,0,0.3-0.2c0.1-0.2,0.2-0.4,0.5-0.4h0.2c-0.1,0.1-0.2,0.2-0.3,0.2c0,0.2,0.5,0,0.2,0.3
			c0.3-0.2,0.2-0.1,0.5,0c-0.1,0.2-0.3,0.1-0.3,0.4c0.3-0.1,0.5-0.3,0.5-0.8c0.1,0,0.2,0.1,0.2,0.2c0,0,0,0,0,0c0,0,0.1-0.1,0.1-0.1
			c0,0,0-0.1,0-0.1c0,0,0.1,0,0.1,0.1c0.1,0,0.1-0.1,0.2-0.1c0,0,0.1,0,0.1-0.1c0,0,0-0.1,0.1-0.1c0.1-0.1,0.1-0.1,0.2-0.1
			c0,0,0,0,0,0.1c0,0,0.1,0,0.1-0.1c0,0,0-0.1,0-0.1c0.1,0,0.1-0.3,0.2-0.2c0.1-0.2,0.5-0.2,0.6-0.4c0.4-0.1,0.5,0.1,0.7-0.1
			c0.2,0,0.2,0.2,0.5,0.1c0,0.1,0,0.3,0.1,0.3c-0.1-0.3,0.4,0.1,0.3-0.2c0.1,0,0.1,0,0.2,0c0,0,0-0.1,0-0.1c0,0,0.1-0.1,0.1-0.1
			c0,0,0.1,0,0.1,0c0.1,0,0.1,0,0.2,0c0,0,0,0,0,0c0.1-0.1,0.1-0.1,0.2,0c0.1,0,0.1-0.1,0.2-0.1c0.2-0.1,0.3-0.2,0.5-0.2
			c0,0,0,0,0.1,0c0-0.1,0.1-0.2,0.3-0.2c0,0,0.1,0,0.1,0.1c0,0,0,0,0-0.1l0,0c0,0,0,0.1,0,0.1c0,0,0,0,0,0c0,0,0-0.1,0.1-0.1
			c0,0.1,0.1,0.1,0.1,0.2c0,0,0,0,0.1,0c0-0.1,0-0.2,0-0.2l0.1-0.1c0,0,0.1,0,0.1,0c0.1,0.1,0,0.4,0.3,0.4l0.1,0.1
			c-0.1,0-0.1,0-0.2,0.1c0.1,0,0.2,0.1,0.2,0.1c-0.3,0.1-0.6,0.3-0.7,0.5c0.4-0.1,0.4,0,0.8-0.2c0,0.2,0,0.6-0.4,0.6
			c0.2,0,0.3,0.3,0.3,0.3c0-0.2,0.1-0.4,0.1-0.6c0.3,0.3-0.1,0.2,0,0.4c0.3,0.1,0.4-0.3,0.6-0.3c0.2,0.3-0.1,0.4,0,0.6
			c0.2-0.3,0.1-0.7,0.5-0.6c0,0.1-0.2,0.2-0.2,0.4c0.2,0,0.1-0.4,0.3-0.1c-0.2,0.6-0.7,1-0.9,1.5c0.1-0.1,0.3,0,0.3-0.1
			c0,0-0.1-0.1-0.1-0.1c0.2,0.1,0.4-0.5,0.4-0.3c0,0.2-0.2,0.2-0.1,0.4c0.2-0.2,0.2-0.2,0.2-0.3c0.1,0.1,0,0.4,0.2,0.3
			c0-0.2-0.1-0.3-0.1-0.5c0.1,0.1,0.2,0.3,0.2,0.2C47,78.4,47,78.3,47,78.2c0.4,0.7,0.3-0.5,0.6-0.6c0.1,0.3,0.3,0.1,0.3,0.5
			c0.2-0.2-0.1-0.5,0.1-0.7c-0.1,0.3,0.2,0.1,0.3,0.3c0,0,0.1-0.1,0.3-0.1c-0.1,0.2-0.1,0.3,0.1,0.3c-0.1,0.1-0.1,0.2,0,0.3
			c0.2-0.3,0.1,0.1,0.2,0c0-0.1,0.1-0.2,0-0.3c0.2-0.3,0.1,0.3,0.2,0.1c0.2,0,0.1,0.2,0.2,0.2c0.1-0.1,0-0.3,0.1-0.4
			c0,0.1,0.1,0.1,0.1,0.1c0.1,0.1,0.1,0.2,0.1,0.3c-0.4,0.1-1.1,0.4-1.4,0.7c0.4-0.1,0.4,0,0.8-0.2c0,0.2,0,0.6-0.4,0.6
			c0.2,0,0.3,0.3,0.3,0.3c0-0.2,0.1-0.4,0.1-0.6c0.3,0.3-0.1,0.2,0,0.4c0.3,0.1,0.4-0.3,0.6-0.3c0.2,0.3-0.1,0.4,0,0.6
			c0.2-0.3,0.1-0.7,0.5-0.6c0,0.1-0.2,0.2-0.2,0.4c0.2,0,0.1-0.4,0.3-0.1c-0.2,0.6-0.7,1-0.9,1.5c0.1-0.1,0.3,0,0.3-0.1
			c0,0-0.1-0.1-0.1-0.1c0.2,0.1,0.4-0.5,0.4-0.3c0,0.2-0.2,0.2-0.1,0.4c0.1-0.2,0.2-0.2,0.2-0.3c0.1,0.1,0,0.4,0.2,0.3
			c0-0.2-0.1-0.3-0.1-0.5c0.1,0.1,0.2,0.3,0.2,0.2c-0.1-0.1-0.1-0.2-0.1-0.3c0.4,0.7,0.3-0.5,0.6-0.6c0.1,0.3,0.3,0.1,0.3,0.5
			c0.2-0.2-0.1-0.5,0.1-0.7c-0.1,0.3,0.2,0.1,0.3,0.3c0,0,0.1-0.1,0.3-0.1c-0.1,0.2-0.1,0.3,0.2,0.3c-0.1,0.1-0.1,0.2,0,0.3
			c0.2-0.3,0.1,0.1,0.2,0c0-0.1,0.1-0.2,0-0.3c0,0,0,0,0,0c0.1,0.1,0.1,0.2,0.2,0.3c0,0,0-0.1,0-0.1c0,0,0,0,0,0
			c0.2,0,0.1,0.2,0.2,0.2c0,0,0-0.1,0-0.1c0.1,0.1,0.1,0.2,0.1,0.3c0,0-0.1,0.1-0.2,0.1c0.1,0.1,0.2,0.1,0.3,0.2
			c0.1,0,0.1,0.1,0.2,0.1c0-0.2,0-0.2,0.2-0.2c0.2,0,0.5-0.1,0.5,0.2c-0.1,0-0.2-0.2-0.2,0c0.7,0.6,1.5,1,2,1.9c0,0.4,0,0.7-0.1,1
			c0.2,0.2,0.3,0.4,0.4,0.6c0,0.1,0,0.3-0.1,0.4c-0.1,0.1-0.2,0.1-0.3,0.1c0,0,0,0,0,0.1c0,0,0,0.1,0,0.1c0,0,0,0,0,0.1
			c0,0.1,0,0.2,0.1,0.3c0,0,0,0,0,0c0,0.1,0.1,0.1,0.1,0.2v0.2c0.1,0.3,0.2,0.6,0.2,1c0.1,0.4,0.1,0.8,0.1,1.2c0,0,0.1,0,0.1,0
			c0.1,0-0.1,0.6,0,1c1.2,2.5,1.6,6.1,1.7,10c0,0,0,0,0,0c0,0,0,0,0,0.1c0,0.1,0,0.3,0,0.4c0,0.6,0,1.2,0,1.8l0,0c0,1,0,1.9,0,2.9
			c0,0.1,0,0.2,0,0.3c0,0.1,0,0.2,0,0.3c0,0.2,0,0.4,0,0.6c0,0.1,0,0.1,0,0.2c0,0.1,0,0.5,0,0.9c0,0.1,0,0.2,0,0.3
			c0,0.4,0,0.8,0.1,1c0,0,0.1,0,0.1-0.1c0,0.1,0,0.2,0,0.2c0.6,0.1,1.3,0.1,1.9,0c0-0.3,0-0.6,0-0.9c0-0.1,0-0.2,0-0.4
			c0-0.7,0-1.5,0-2.2c0-0.5,0-0.9,0-1.4c0-0.4,0-0.7-0.1-1.1c0-0.1,0-0.2,0-0.3c0-0.3-0.1-0.7-0.1-1c0-0.5,0-1,0-1.5c0,0,0,0,0,0
			c-0.1-0.8-0.2-1.7-0.3-2.5c-0.1-0.9-0.3-1.6-0.4-2.4c-0.2-0.6,0.1-1.3,0-2.2c0.1,0,0.1,0,0.1-0.1c0.1-0.7,0.3-1.4,0.2-2.1
			c0.1,0,0.1,0,0.1-0.1c0.1,0,0.1,0,0.1-0.1c0.2-0.7-0.5-1-0.4-2.1v-0.1c0,0,0,0,0,0c0-0.1-0.1-0.2,0-0.3c0,0,0,0,0,0
			c0.1-0.2,0.2-0.3,0.3-0.5c0,0-0.1,0-0.1,0c0-0.1,0.1-0.1,0.2-0.1c0.1-0.1,0.1-0.1,0.2-0.2c0,0,0,0,0-0.1c0,0,0,0,0,0
			c0-0.1,0.1-0.1,0.1-0.2c0-0.1,0-0.1,0.1-0.1c0,0,0-0.1,0-0.1c0-0.1,0.1-0.2,0.1-0.3h0c0-0.2,0.1-0.3,0.2-0.3
			c0-0.1,0.1-0.1,0.1-0.2c0,0,0-0.1,0.1-0.1c0-0.1,0-0.2,0.1-0.3c0.1,0,0,0.1,0,0.3c0,0,0.1-0.1,0.1-0.1c0,0,0-0.1,0-0.2
			c0.2-0.2,0.5-0.4,0.8-0.5c0-0.1-0.1-0.1-0.2-0.1c0-0.1,0.1-0.1,0.2-0.1c0.1,0,0.1,0.1,0.2,0.1c0.3-0.1,0-0.2,0.2-0.4
			c0.1,0,0.1,0.1,0.1,0.2c0.2-0.1,0.3-0.4,0.4-0.7c0.3-0.3,1.1-0.3,1.4-0.1c0.2,0.3,0.5,0.4,0.6,0.8c0.1-0.2-0.4-0.5-0.5-0.9h0.1
			c0.1,0.2,0.4,0.2,0.6,0.3c0.2,0-0.1-0.3-0.2-0.2c0-0.1,0.2-0.1,0.2-0.2c0.1-0.2,0.1,0,0.2,0c0.3,0.1,0.4,0.4,0.8,0.4
			c0-0.3-0.4,0.1-0.2-0.3c0.3,0.2,0.7,0.2,1.1,0.3c0-0.1,0-0.1,0.1-0.1c-0.4-0.2-0.9-0.3-1-0.4c-0.1,0,0-0.1,0-0.2
			c0.3,0,0.7-0.2,0.9-0.1c0.4-1.4,1.5-0.8,2.3-0.5c-0.1,0.1-0.1,0.2-0.2,0.2c0.1,0.4-0.1,0.6-0.2,0.8c0.1,0,0.1-0.1,0.2-0.1
			c0.3,0.4,0.9,0.4,1.4,0.5c-0.3-0.3-1-0.3-1.4-0.7C68,82,68.2,82,68.3,81.8h0.1c0.3-0.1,0.4,0.1,0.6,0.2c0.4,0.1,0.5,0,0.9-0.1
			c0.1,0.2-0.1,0.4-0.2,0.4c0.1,0.3,0.4,0,0.4-0.2h0.1c0.1,0.2,0.2,0.4,0.3,0.2c0.1,0,0.1,0,0.2-0.1c0.2,0.1,0.2,0.4,0.4,0.4
			c0.1,0.4,0.5,0.3,0.6,0.4c0.1,0,0.1,0.1,0.2,0.1c0.1,0.1,0,0.3,0.2,0.3c0.1-0.1,0.1-0.2,0.2-0.4c0.1,0,0.2,0.2,0.2,0
			c0.1-0.1,0.2-0.1,0.2-0.2c0.1,0,0.1,0.2,0.2,0.2c0.1,0.2,0.7,0.1,0.5,0.4c0.2,0,0.2-0.1,0.3-0.1c0-0.2-0.3-0.1-0.3-0.2
			c0.2-0.1,0.2-0.3-0.1-0.3c0-0.1,0.2-0.1,0.3-0.1c-0.1-0.3-0.4-0.1-0.7-0.3c0-0.1,0.1-0.2,0.2-0.2c0.2,0,0.4-0.1,0.5-0.4
			c0,0.3,0.2,0.3,0.1,0l0.2-0.1c0.8,1.1,1.3,0.4,2.4,0.3c0.3,0.1-0.1,0.4,0.2,0.4c0.1-0.4,1.1,0.1,1.2-0.4c-0.5,0.3-0.3-0.1-0.5-0.2
			c-0.3,0-0.4,0.2-0.5,0.3c-0.1-0.2-0.1-0.4,0-0.5c0.3,0,0.7,0.1,1,0.1c0-0.1,0-0.2,0-0.3c0.4,0,0.4-0.3,0.6-0.4
			c0.3,0.2,0.5-0.1,1-0.2c0.3,0.2,0.7,0,1,0.3c0,0,0.1,0,0.1,0c0,0,0,0.1,0,0.1h-0.2c-0.4-0.3-1.2-0.1-1.7,0c0,0.1-0.1,0.2-0.1,0.3
			c-0.2,0-0.2-0.3-0.1-0.4c-0.1,0.2-0.3,0.4-0.4,0.6c0.8,0.1,1.6,0.2,2.4,0.4c0-0.1-0.1-0.1,0-0.2c-0.1-0.5,0.4-0.4,0.5-0.1
			c0,0.1-0.1,0.1-0.1,0.2v0.2c0.2,0,0.3,0.1,0.5,0.1c0-0.1,0.1-0.1,0.2-0.1c0.2-0.1,0.2,0.2,0.3,0.2c0,0,0,0.1,0,0.1
			c0.2,0.1,0.4,0.1,0.6,0.2c-0.1,0-0.1-0.1-0.2-0.1c0-0.1,0-0.1-0.1-0.1c-0.2-0.1-0.2-0.5-0.6-0.5c-0.4,0.1-0.1-0.4,0.2-0.2
			c0.2,0.1,0.3,0,0.5-0.1c0,0,0,0,0,0.1c0.1,0,0.1,0,0.2,0.1c0,0,0,0,0,0c0-0.2,0.1-0.3,0.2-0.4c0,0.1,0.2,0.2,0.3,0.2
			c0,0.1,0.1,0.1,0.1,0.2c0,0,0,0,0,0c-0.1,0.3-0.7-0.1-0.8,0.2c0.2,0.1,0.3,0.4,0.4,0.7c0,0-0.1,0-0.1,0c0.7,0.3,1.4,0.8,2.1,1.3
			c0,0,0,0,0,0c0.1-0.1,0.2-0.1,0.2-0.2c0.1,0,0.1,0.2,0.2,0.2c0.1,0.2,0.7,0.1,0.5,0.4c0.2,0,0.2-0.1,0.3-0.1
			c0-0.2-0.3-0.1-0.3-0.2c0.1-0.1,0.2-0.3-0.1-0.3c0-0.1,0.2-0.1,0.3-0.1c-0.1-0.3-0.4-0.1-0.7-0.3c0-0.1,0.1-0.2,0.2-0.2
			c0.2,0,0.4-0.1,0.5-0.4c0,0.3,0.2,0.3,0.1,0l0.2-0.1c0.8,1.1,1.3,0.4,2.4,0.3c0.3,0.1-0.1,0.4,0.2,0.4c0.1-0.4,1.1,0.1,1.2-0.4
			C89.1,83.6,89.2,83.3,89.1,83.2z M84.4,72C84.4,72,84.4,72,84.4,72C84.4,72,84.4,72,84.4,72C84.5,72,84.5,72,84.4,72z M86.9,72.3
			c-0.3,0.3-1,0.2-1.3-0.2C86.1,72,86.9,71.3,86.9,72.3z M85.2,71.2l0.2-0.1c0.4,0.2-0.2,0.6,0.1,0.6c0.1-0.6,0.9-0.6,1-0.2
			c-0.4,0.2-1.1,0.2-1.2,0.7l-0.3,0.1C84.9,71.9,85.3,71.8,85.2,71.2z M84.8,71.4c0,0.1-0.1,0.1-0.1,0.2c0-0.1,0-0.2,0-0.3
			C84.7,71.3,84.7,71.3,84.8,71.4z M84.7,71.8c0-0.1,0.1-0.1,0.2-0.1c0,0,0,0.1,0,0.1c-0.1,0-0.3,0.1-0.3,0.2
			C84.7,71.9,84.7,71.8,84.7,71.8z M84.5,72.2c0.2-0.1,0.3-0.2,0.5-0.3c0,0.4-0.3,0.7-0.5,0.4C84.5,72.3,84.5,72.2,84.5,72.2z
			 M84.5,71.2C84.5,71.3,84.5,71.3,84.5,71.2C84.4,71.3,84.4,71.3,84.5,71.2C84.4,71.3,84.5,71.2,84.5,71.2z M83.9,71.5
			c0.1,0,0.2-0.1,0.3-0.1c0.1,0,0.2,0.2,0.2,0.4c0,0,0,0,0,0c-0.2-0.1-0.4-0.1-0.5-0.2C83.8,71.6,83.9,71.6,83.9,71.5z M83.7,71.9
			c0.2,0,0.3,0.1,0.5,0.1c-0.1,0.1-0.1,0.1-0.1,0.2c-0.1,0-0.3-0.1-0.4,0c0.1,0.1,0.3,0.1,0.4,0.1c0,0,0,0,0.1,0.1
			c-0.3,0.3-0.4-0.1-0.6-0.1c0,0,0-0.1,0.1-0.1c0-0.1-0.1-0.1-0.1-0.1C83.7,72,83.7,71.9,83.7,71.9z M35,72.5
			c-0.1-0.7,0.5-0.4,0.9-0.4C35.7,72.4,35.2,72.7,35,72.5z M36.2,72.2H36c-0.1-0.3-0.5-0.2-0.9-0.2c0.1-0.3,0.6-0.5,0.7-0.1
			c0.2-0.1-0.2-0.2,0-0.4H36C36,71.8,36.3,71.8,36.2,72.2z M36.6,72c-0.1,0.3-0.5,0-0.4-0.3c0.2-0.1,0.2,0.2,0.4,0.1
			C36.6,71.8,36.5,71.9,36.6,72z M36.8,72c0.2-0.5-0.3-0.2-0.5-0.5c0.1-0.4,0.3,0,0.6-0.1c0.1,0.2,0.2,0.3,0.3,0.4
			C37,71.7,37.1,72.1,36.8,72z M38,72.3c0-0.2,0-0.4,0.2-0.4c0,0.2,0.1,0.2,0.2,0.3C38.2,72,38.1,72.6,38,72.3z M35.9,77
			c0-0.2,0.3,0,0.4-0.1h0.1c0,0.2-0.2,0.1-0.2,0.3C36.1,77.2,36,77.1,35.9,77z M36.3,79.1L36.3,79.1c-0.1-0.5-0.4,0.1-0.5-0.2
			c0.2,0,0.2-0.2,0.3-0.3c0.1,0,0.2,0,0.3,0.1c0.2,0,0.4,0,0.5,0.2C36.8,79,36.4,78.9,36.3,79.1z M37.7,75.2c-0.2-0.1-0.3,0.2-0.5,0
			c0-0.2,0-0.2,0.1-0.3h0.2C37.6,75.1,37.8,75,37.7,75.2z M79.6,65.8c0.5,0,0.6-0.6,0.9-0.1c-0.2,0.5-1,0.5-0.5,1
			c-0.4,0.4-0.4-0.2-0.7-0.1C79.4,66.3,79.5,66.1,79.6,65.8z M75.1,81.6c0-0.1,0-0.1,0-0.2c-0.1,0-0.1-0.3-0.3-0.2h-0.1v0
			c0.3-0.1,0.7,0.1,1.1,0.1c0,0,0,0,0,0l-0.1,0C75.6,81.5,75.4,81.6,75.1,81.6z M66.4,79.9c-0.2,0,0-0.3-0.2-0.3
			c0,0.2-0.8,0.2-0.6,0c0.6,0.1,0.4-0.3,1-0.5c0,0,0.1,0,0.1,0c0,0,0,0,0.1,0c0.1,0.1,0.1,0.2,0.2,0.3c-0.1,0.1-0.1,0.2-0.1,0.3
			c-0.1-0.2-0.2-0.3-0.4-0.2C66.5,79.7,66.6,79.8,66.4,79.9z M63.2,80.2c-0.1,0-0.1-0.3-0.3-0.2h-0.1v-0.1c0-0.2,0-0.3,0-0.4
			c0.1-0.2,0.4-0.3,0.7-0.3c0.2,0.2,0.4,0.3,0.6,0.6c0,0.2,0,0.3-0.2,0.4l-0.1,0c-0.1,0.2-0.3,0.3-0.5,0.3
			C63.2,80.3,63.2,80.3,63.2,80.2z M62.1,81.7c-0.2,0-0.2-0.3-0.3-0.3v-0.2h0.4c0,0.1-0.1,0.1-0.2,0.1C62,81.4,62.2,81.4,62.1,81.7z
			 M61.7,80.4c-0.3,0.1-0.5,0-0.8-0.1c0,0,0,0,0-0.1c0,0,0,0,0-0.1c0.2,0.1,0.3-0.2,0.6-0.1c0.1,0,0.2,0,0.2,0.1
			C61.8,80.3,61.7,80.4,61.7,80.4z M56.8,81.5c0-0.2,0.1-0.2,0.2-0.3h0.2c0.2,0.5,0.8-0.2,1.2-0.1c-0.1,0.5,0.4,0.1,0.3,0.5
			c-0.1,0.3-0.2,0.2-0.4,0.1c-0.1,0.3-0.8,0.6-1.3,0.7v-0.4C56.9,81.7,57,81.5,56.8,81.5z M50.7,77.6C50.6,77.7,50.6,77.7,50.7,77.6
			c-0.1,0-0.1-0.1-0.2-0.1c0,0,0,0,0,0C50.6,77.5,50.6,77.6,50.7,77.6C50.7,77.6,50.7,77.6,50.7,77.6C50.7,77.6,50.7,77.6,50.7,77.6
			z M50.3,77.7C50.3,77.7,50.3,77.7,50.3,77.7c0.1,0,0.1,0,0.2,0.1c-0.1,0-0.1,0.1-0.2,0.1C50.3,77.8,50.3,77.7,50.3,77.7z
			 M46.8,76.6C46.7,76.6,46.7,76.6,46.8,76.6C46.7,76.6,46.7,76.7,46.8,76.6c-0.1,0.1-0.2,0.1-0.3,0.1l0,0c0.1-0.1,0.2-0.2,0.2-0.4
			l0.1-0.1C46.7,76.3,46.8,76.5,46.8,76.6z M53.9,63.1c0-0.1,0-0.3,0.1-0.4c0.1,0.1,0.2,0.2,0.2,0.3C54.1,63.1,54.1,63.2,53.9,63.1
			C54,63.2,54,63.2,53.9,63.1z M70.1,59.1c0.1,0,0.2-0.1,0.3,0c0,0,0,0,0,0c-0.1,0.1-0.2,0.2-0.3,0.3c0,0-0.1-0.1-0.1-0.1
			C70.1,59.2,70.1,59.1,70.1,59.1z M70.6,58.9c0-0.1-0.1-0.1-0.1-0.1c0-0.1,0-0.1,0-0.2c0,0,0.1,0,0.1,0
			C70.5,58.7,70.5,58.9,70.6,58.9z M70.6,59.1C70.5,59.1,70.5,59.1,70.6,59.1C70.5,59.1,70.5,59.1,70.6,59.1
			C70.5,59.1,70.6,59.1,70.6,59.1z M70.4,59.2c0,0.1,0.1,0.1,0.1,0.1c-0.1,0.1-0.2,0.2-0.1,0.3c0.1-0.1,0.2-0.2,0.2-0.3
			c0,0,0,0,0.1,0c0.1,0.3-0.2,0.2-0.2,0.4c0,0,0,0,0-0.1c-0.1,0-0.1,0-0.1,0c0,0-0.1-0.1-0.1-0.1C70.3,59.4,70.4,59.3,70.4,59.2z
			 M75.5,80.7c0.1-0.2,0.3-0.1,0.4,0c0,0,0.1,0.1,0.1,0.2c0,0,0,0.1,0,0.1C75.8,80.9,75.6,80.9,75.5,80.7z M75.4,80.3
			C75.4,80.3,75.4,80.3,75.4,80.3c0.1,0.1,0.2,0.1,0.3,0.2C75.6,80.4,75.5,80.4,75.4,80.3z M75.2,80.3c0,0.4-0.3,0.2-0.4,0.2
			c0.1-0.1,0.2-0.1,0.3-0.2C75.1,80.4,75.2,80.4,75.2,80.3z M71.5,80.5C71.5,80.5,71.5,80.5,71.5,80.5
			C71.5,80.5,71.5,80.5,71.5,80.5z M71.4,80.4C71.4,80.4,71.5,80.4,71.4,80.4C71.5,80.4,71.5,80.4,71.4,80.4l0.1,0.1
			C71.4,80.4,71.4,80.4,71.4,80.4z M71.5,80.6C71.5,80.6,71.5,80.6,71.5,80.6C71.5,80.6,71.5,80.5,71.5,80.6
			C71.5,80.5,71.5,80.5,71.5,80.6z M76.3,67.1c-0.3-0.2,0-0.5,0.1-1l0.1,0c0,0.1,0.1,0.1,0.2,0.3C76.6,66.7,76.2,66.7,76.3,67.1z
			 M77.6,62C77.6,62,77.6,62,77.6,62C77.6,62,77.6,62,77.6,62C77.6,62,77.6,62,77.6,62z M75.2,65.6c0,0-0.1-0.1-0.1-0.2
			c0-0.1,0-0.1,0-0.2c0.1-0.1,0.2-0.2,0.3-0.4c0,0,0.1,0,0.1,0C75.4,65,75.3,65.3,75.2,65.6z M70.6,60.7c0,0,0.1,0,0.2,0
			C70.7,60.7,70.6,60.7,70.6,60.7z M66.2,60.4C66.2,60.3,66.2,60.3,66.2,60.4C66.2,60.3,66.2,60.3,66.2,60.4
			C66.2,60.3,66.2,60.3,66.2,60.4C66.2,60.4,66.2,60.4,66.2,60.4z M66,60.2C66,60.2,66,60.2,66,60.2C66,60.2,66,60.2,66,60.2z
			 M65.6,60.5C65.6,60.5,65.6,60.5,65.6,60.5c0.1,0.1,0.1,0.2,0.1,0.2C65.6,60.7,65.6,60.6,65.6,60.5z M65.6,60.3
			c0-0.1-0.1-0.1-0.2-0.1c0.1-0.2-0.2-0.2-0.1-0.5C65.7,59.8,66,60.3,65.6,60.3z M58.4,78.1c-0.1-0.3-0.4,0.1-0.6,0
			c0-0.2,0.1-0.5-0.2-0.4c-0.1-0.2-0.1-0.3,0-0.4c0,0,0,0,0,0c0,0,0.1,0,0.1,0c0-0.1-0.1-0.2-0.2-0.2c0.1,0,0.2-0.1,0.2-0.2
			c0.3,0.2,0.6,0.3,0.8,0.5c0,0,0,0,0.1,0v0.4C58.7,78.1,58.4,77.7,58.4,78.1z M57.2,77C57.2,77,57.2,77,57.2,77
			c-0.1-0.1-0.1-0.1,0-0.1C57.2,76.9,57.2,77,57.2,77z M56.8,77.2c0-0.1,0.1-0.2,0.1-0.3c0,0.1,0.1,0.1,0.1,0.2
			c-0.1,0-0.1,0.1-0.1,0.1L56.8,77.2L56.8,77.2z M53.8,77.8c0.1-0.1,0.3-0.2,0.4,0l0,0C54.1,78,54,77.9,53.8,77.8z M52.7,77.3
			L52.7,77.3c-0.1,0-0.1,0-0.2-0.1c0.1,0,0.1,0,0.2-0.1C52.7,77.2,52.7,77.2,52.7,77.3z M53.6,63.5C53.6,63.6,53.7,63.6,53.6,63.5
			L53.6,63.5C53.7,63.6,53.6,63.6,53.6,63.5L53.6,63.5z M54.6,63C54.6,63.1,54.6,63.1,54.6,63C54.6,63.1,54.6,63.1,54.6,63
			C54.6,63.1,54.6,63.1,54.6,63z M53.2,77.4C53.2,77.4,53.2,77.4,53.2,77.4c0-0.1,0.2,0,0.1-0.2c0.1,0,0.2,0.1,0.2,0.1
			c0,0.3-0.1,0.3-0.3,0.3C53.1,77.6,53.2,77.5,53.2,77.4C53.2,77.5,53.2,77.5,53.2,77.4z M54.7,62.8c0,0,0.1-0.1,0.1,0
			C54.8,62.8,54.8,62.8,54.7,62.8z M48.8,63.1C48.9,63.1,48.9,63.1,48.8,63.1C48.9,63.1,48.9,63.1,48.8,63.1
			C48.8,63.1,48.8,63.1,48.8,63.1z M49.1,63.1c-0.1,0-0.1-0.1-0.1-0.1c0,0,0,0-0.1-0.1c0,0,0,0,0,0c0.1,0,0.1,0,0.2,0c0,0,0,0,0,0
			C49.1,63,49.1,63,49.1,63.1C49.1,63.1,49.1,63.1,49.1,63.1z M46.9,64.8c0-0.1,0-0.2-0.1-0.3c-0.1,0-0.1,0.1-0.1,0.2
			c0-0.1-0.1-0.2-0.2-0.3l0-0.1c0.1,0,0.1,0,0.2,0.1C47,64.4,46.9,64.6,46.9,64.8C46.9,64.8,46.9,64.8,46.9,64.8z M46.6,76
			C46.6,76,46.6,76,46.6,76C46.6,76,46.6,76,46.6,76C46.6,76,46.6,76,46.6,76C46.6,76,46.6,76,46.6,76z M45.6,75.7
			C45.6,75.7,45.6,75.7,45.6,75.7c0,0.1-0.1,0.1-0.1,0.1C45.5,75.7,45.5,75.7,45.6,75.7z M46.3,76.4c0.1,0,0.2,0,0.2,0.1
			c-0.1,0-0.1,0.1-0.2,0.2L46.3,76.4L46.3,76.4z M54.4,78.8c0-0.1,0-0.1,0.1-0.1c0,0,0,0,0.1,0.1C54.5,78.7,54.4,78.7,54.4,78.8z
			 M55.7,79L55.7,79c0.2,0.1,0.3,0.2,0.3,0.4v0.1c0.1,0,0.1,0.2,0,0.2c-0.1-0.2-0.1-0.3-0.3-0.3C55.6,79.2,55.6,79.1,55.7,79z
			 M58.4,80.5v-0.2c0.1,0,0-0.4,0.2-0.4c0.1,0,0.1,0.1,0.2,0.1c0.3,0,0.4,0.5,0.2,0.8C58.7,80.7,58.7,80.3,58.4,80.5z M58.8,79.1
			c0-0.4,0.4-0.2,0.5-0.3c-0.1,0.3,0.2,0.2,0.2,0.4v0.1c0,0,0.1,0.1,0,0.1C59.4,79.1,59,79.3,58.8,79.1z M59.6,82.1
			c0,0.1,0.1,0.2,0.1,0.3c-0.2-0.1-0.4,0.3-0.5,0C59.2,82.2,59.5,82,59.6,82.1z M77.4,60.3c0.1-0.1,0.4,0,0.4-0.3
			c0.3,0.2-0.3,0.3,0.2,0.5l0,0.1c-0.2,0.1-0.1,0.5-0.3,0.6c-0.2-0.1-0.2-0.3-0.2-0.6C77.4,60.5,77.4,60.4,77.4,60.3z M75.8,60
			c0.1-0.1-0.1-0.5,0.1-0.4c0,0.1,0.1,0.3,0.2,0.4C75.9,59.9,75.9,60.1,75.8,60L75.8,60z M73.7,60.6c0.1,0,0.1,0,0.2,0c0,0,0,0,0,0
			c0.1,0.1,0.1,0.2,0.1,0.3c0,0-0.1,0.1,0,0.2c-0.3,0-0.1-0.2-0.3-0.3L73.7,60.6z M72.6,60.9c0,0,0,0.1,0,0.1c0,0-0.1,0-0.1,0
			C72.5,61,72.6,60.9,72.6,60.9z M72.3,60.7C72.3,60.8,72.3,60.8,72.3,60.7c0.1,0.1,0.1,0.1,0,0.1C72.3,60.9,72.3,60.8,72.3,60.7
			C72.3,60.8,72.3,60.8,72.3,60.7z M72.2,60.9c0,0,0,0.1-0.1,0.1c0,0,0,0,0,0c-0.1-0.1-0.1-0.1-0.1-0.1
			C72.1,60.9,72.2,60.9,72.2,60.9z M71.9,60.7c0,0.1,0,0.1-0.1,0.2c0,0,0,0-0.1,0c0.1-0.1,0-0.1-0.1-0.2
			C71.7,60.7,71.8,60.7,71.9,60.7z M70.9,60.7c0.1,0.1,0.1,0.1,0,0.1C71,60.8,71,60.8,70.9,60.7C70.9,60.7,70.9,60.7,70.9,60.7z
			 M70.8,60.8C70.8,60.9,70.8,60.9,70.8,60.8c0,0.1,0,0.1,0,0.1C70.8,60.9,70.8,60.9,70.8,60.8z M70.8,60.8c-0.1,0-0.1,0.1-0.1,0.1
			c0,0,0,0,0,0C70.7,60.9,70.7,60.8,70.8,60.8z M70.7,59.1C70.7,59.1,70.7,59.1,70.7,59.1c-0.1-0.2-0.1-0.4-0.1-0.5
			C70.9,58.8,71,59.1,70.7,59.1z M71.5,57.5c0.1,0.3-0.2,0.8-0.5,0.8C71,58,70.8,57.2,71.5,57.5z M70.3,58.2
			c0.2-0.2,0.3,0.3,0.4,0.1c-0.4-0.2-0.2-0.8,0.2-0.7c0,0.4-0.2,0.8,0.1,1l0,0.3c-0.4-0.1-0.4-0.4-0.8-0.4L70.3,58.2z M70.2,58.7
			c0,0,0.1,0.1,0.1,0.1c-0.1,0-0.1,0-0.2-0.1C70.1,58.7,70.2,58.7,70.2,58.7z M70.1,58.9C70.1,58.9,70,58.9,70.1,58.9
			C70,58.9,70,58.8,70.1,58.9C70,58.8,70.1,58.8,70.1,58.9z M66.5,59.6c-0.1,0.1-0.2,0.2-0.3,0.2c0,0-0.1,0-0.1-0.1l0-0.1
			C66.1,59.5,66.3,59.5,66.5,59.6z M66.4,58.7c0.1,0.3-0.2,0.8-0.5,0.8C65.9,59.2,65.7,58.4,66.4,58.7z M65.2,59.4
			c0.2-0.2,0.3,0.3,0.4,0.1c-0.4-0.2-0.2-0.8,0.2-0.7c0,0.4-0.2,0.8,0.1,1l0,0.3c-0.4-0.1-0.4-0.4-0.8-0.4L65.2,59.4z M65.1,59.9
			c0.1,0.1,0.2,0.3,0.2,0.4c-0.1-0.1-0.2-0.1-0.3-0.1C64.9,60,64.9,59.9,65.1,59.9z M56.1,61.4c0.1,0.7,0.4,1.6-0.2,1.8
			c0.2-0.7-0.5-0.8-0.5-0.3c0-0.5-0.2-0.4-0.4-0.4C55.4,62.2,55.8,61.8,56.1,61.4z M55.2,62c0,0.2-0.1,0.4-0.3,0.5
			c-0.1,0-0.1-0.1-0.1-0.2l0,0.2c-0.1,0-0.2,0.1-0.2,0.1c0,0,0-0.1,0-0.1C54.7,62.1,54.8,61.5,55.2,62z M53.9,62.2
			c0.3-0.1,0.2,0.4,0.4,0.3c-0.3-0.3,0.1-0.8,0.4-0.6c-0.1,0.2-0.2,0.3-0.2,0.5c0,0-0.1,0-0.2,0c0,0.1,0,0.2,0.1,0.3
			c0,0.1,0,0.2,0.1,0.2L54.4,63c-0.3-0.2-0.2-0.5-0.5-0.7L53.9,62.2z M53.9,62.7C53.9,62.7,53.9,62.7,53.9,62.7c0,0.1,0,0.3,0,0.3
			c0-0.1,0-0.1-0.1-0.1C53.8,62.8,53.8,62.7,53.9,62.7z M53.8,63.1C53.8,63.1,53.8,63.1,53.8,63.1C53.8,63.1,53.8,63.1,53.8,63.1
			C53.8,63.1,53.8,63.1,53.8,63.1z M53.6,63.5C53.6,63.5,53.5,63.5,53.6,63.5c-0.1,0-0.1,0-0.1,0c0,0,0-0.1,0-0.1
			c0.1-0.1,0.2-0.1,0.3-0.2c0,0.1,0,0.1,0.1,0.2C53.7,63.4,53.6,63.4,53.6,63.5z M53.7,62.6c0,0,0,0.1,0,0.1c-0.1,0-0.1-0.1-0.2-0.1
			C53.6,62.6,53.6,62.6,53.7,62.6z M53.5,62.7C53.5,62.7,53.5,62.7,53.5,62.7C53.5,62.7,53.4,62.7,53.5,62.7
			C53.4,62.7,53.4,62.7,53.5,62.7z M53.4,62.9c0.1,0,0.2,0,0.3,0.1c0,0,0,0,0,0c-0.2,0-0.3,0.1-0.4,0.2c0,0,0-0.1,0-0.1
			C53.3,63.1,53.4,63,53.4,62.9z M49.8,62c0,0,0-0.1,0-0.1c0,0,0,0,0-0.1c0,0,0.1,0,0.1-0.1C49.9,61.8,49.9,61.9,49.8,62z
			 M50.1,61.3c0,0.1-0.1,0.3-0.2,0.4c0,0,0,0,0,0c-0.1-0.1-0.2,0.1-0.3,0c0.1-0.1,0.1-0.2,0.1-0.3c0,0-0.1,0.1-0.1,0.2
			c0-0.1,0.1-0.2,0-0.3C49.7,61.1,49.8,61,50.1,61.3z M49.5,61.1c0,0.1-0.1,0.1-0.1,0.2c0,0,0,0,0,0c-0.1-0.1,0-0.1,0-0.2
			C49.4,61.1,49.5,61.1,49.5,61.1z M49.3,61.1C49.3,61.1,49.3,61.1,49.3,61.1C49.3,61.1,49.3,61.1,49.3,61.1z M47.1,61.1
			C47.1,61.1,47.1,61.1,47.1,61.1C47.1,61.1,47.1,61.1,47.1,61.1C47.1,61.1,47.1,61.1,47.1,61.1z M45.7,64c0.2,0.1,0.1,0.2,0.1,0.3
			c0,0,0,0,0,0.1c0,0,0,0,0,0c0.1,0.2-0.2,0.1,0,0.2c-0.1,0-0.2,0-0.4,0C45.3,64.3,45.4,64.1,45.7,64z M44.4,64.3
			c0.1-0.2,0.3-0.1,0.4-0.1C44.7,64.4,44.6,64.6,44.4,64.3L44.4,64.3z M39.4,71.4c0-0.3-0.3-0.2-0.3-0.4c0-0.1,0.1-0.1,0.1-0.2h0.1
			C39.3,71.1,39.6,71.2,39.4,71.4z M39.9,70.2c0-0.2-0.1,0.1-0.2-0.1l0,0c0,0,0,0,0,0c-0.1,0-0.2,0-0.2-0.2c0.2-0.2,0.4-0.3,0.6,0
			C40,70,39.9,70.1,39.9,70.2z M40,69.2c0.1-0.2,0.1-0.3,0.3-0.3h0.1C40.4,69.2,40.2,69.2,40,69.2z M40.2,77c0-0.1,0-0.2,0.1-0.2
			c0.1,0,0.1-0.1,0.2-0.1h0.2C40.7,76.9,40.5,77,40.2,77z M41.9,76.3c-0.1,0,0.1,0.2-0.1,0.2c-0.2,0-0.1-0.1-0.1-0.2
			c-0.1,0-0.2,0.1-0.2,0.2c0-0.2-0.2-0.2-0.3-0.3c0-0.2,0.3,0,0.4-0.1c0.4,0,0.3,0.3,0.7,0.1C42.5,76.3,41.9,76.5,41.9,76.3z
			 M44.3,76c-0.2,0.2-0.5,0.4-0.7,0.1h-0.1c-0.1,0-0.1-0.1-0.2-0.2c0-0.2,0.1-0.3,0.2-0.5C43.9,75.6,44.1,75.8,44.3,76
			C44.3,76,44.3,76,44.3,76z M45.8,76.5C45.8,76.4,45.8,76.4,45.8,76.5C45.8,76.4,45.8,76.4,45.8,76.5
			C45.8,76.4,45.8,76.5,45.8,76.5z M45.9,76.6c0-0.1,0.1-0.1,0.1-0.2c0,0,0.1,0,0.2,0.1c0.1,0,0.1,0,0.2,0.1
			C46.2,76.8,46,76.9,45.9,76.6z M46.2,76.9c0.1-0.1,0.1-0.1,0.2-0.2c0,0,0,0,0,0c0.1,0,0.2,0,0.3,0C46.6,77,46.3,77,46.2,76.9z
			 M46.9,76.9c-0.1,0-0.1,0-0.1-0.1C46.8,76.8,46.9,76.8,46.9,76.9L46.9,76.9z M47.2,76.6C47.2,76.6,47.2,76.5,47.2,76.6
			c0-0.1,0-0.1,0-0.1c0,0,0.1,0.1,0.1,0.1C47.2,76.6,47.2,76.6,47.2,76.6z M47.3,76.6C47.3,76.6,47.3,76.6,47.3,76.6
			C47.3,76.6,47.4,76.6,47.3,76.6C47.4,76.6,47.3,76.6,47.3,76.6z M47.4,76.4c0,0-0.1,0-0.2-0.1c0,0,0,0,0-0.1c0.1,0.1,0.2,0,0.2,0
			c0,0,0,0,0,0c0,0,0,0,0,0.1C47.5,76.3,47.5,76.4,47.4,76.4z M49.7,77.9c0.1,0,0.2,0,0.3,0c0,0,0,0.1,0,0.1l0,0
			C49.9,78.2,49.8,78.1,49.7,77.9z M49.4,78.5c0.1-0.2,0.5-0.3,0.7-0.2C49.8,78.5,49.6,79,49.4,78.5z M50.4,78.7
			c-0.2,0,0-0.3-0.2-0.3c0.1,0.3-0.3,0.5-0.5,0.3c0.2-0.2,0.5-0.4,0.4-0.6l0.1-0.1C50.5,78.3,50.3,78.4,50.4,78.7L50.4,78.7z
			 M50.5,78.4c-0.2-0.2-0.1-0.6,0.1-0.4c0,0.1,0,0.1,0.1,0.1C50.6,78.2,50.7,78.3,50.5,78.4z M50.7,78.5c0-0.3,0.4-0.5,0-0.6
			c0-0.1,0.1-0.1,0.1-0.1c0,0,0,0,0.1,0c0.1,0.2,0,0.2,0,0.2c0.1,0.1,0.1,0.2,0.2,0.3C50.8,78.4,50.9,78.6,50.7,78.5z M54.6,80.4
			c-0.4,0.1-0.5-0.3-0.7-0.4c-0.1-0.1-0.2-0.3-0.2-0.4c0,0,0,0,0,0c0.1,0.1,0.2,0.1,0.2,0.1c0.1-0.1-0.1-0.3,0-0.3
			c0.1,0.1,0.1,0.2,0.2,0.2c0-0.1,0-0.2-0.1-0.3c0,0,0,0,0.1,0c0.2,0,0.5,0,0.5,0.3V80.4z M55.7,81v0.2c-0.4-0.2-0.7-0.4-0.9-0.9
			v-0.4c0.1,0,0.1,0,0.1-0.1h0.9c0.3,0,0,0.2,0,0.3c0.1,0,0.2,0.1,0.2,0.1c0.4,0.1,0-0.4,0.3-0.4c0.2,0.1,0.2,0.3,0.2,0.5
			C56.2,80.6,56.2,81.1,55.7,81z M58,89.9c-0.2-0.2-0.1-0.9-0.5-0.9c0-0.1-0.1-0.2-0.1-0.3c-0.1-0.3-0.1-0.7-0.3-0.9
			c-0.1-0.2,0.1-0.3-0.1-0.5v-0.2c-0.1-0.5-0.5-1.8-0.2-2.8c0.2,0,0-0.5,0.1-0.7c0.1,0,0.1-0.1,0.2-0.2c0.5-0.3,1.1-0.6,1.7-0.9h0.2
			c0.1,0.4,0.8,0,0.9,0.4h-0.1c0,0,0,0,0,0.1c-0.1,0.2-0.6-0.1-0.5,0.2c0.4,0-0.1,0.3,0,0.5c-0.1,0.2-0.1,0.2,0.1,0.1
			c-0.1,0.3-0.1,0.5-0.3,0.2c-0.1,0.5-0.1,0.6-0.2,0.9c-0.2,0.2-0.3,0.5-0.4,0.8c0,0.2-0.2,0.4-0.3,0.4c-0.3,1.7,0.7,3,0.3,4.5
			c0,0.1,0.1,0.1,0.1,0.2h-0.2C58.2,90.4,58.1,90.2,58,89.9z M58.3,91.3c0.2,0.2,0.4,0.7,0.2,1C58.5,92,58.3,91.8,58.3,91.3z
			 M58.8,86.2C58.8,85.8,59,86,59,85.6h0.1c0-0.1,0.1-0.3,0.2-0.1C59.2,85.9,58.9,86,58.8,86.2z M59.1,85.3c-0.2,0-0.2,0.3-0.3,0.3
			h-0.1c0.2-0.4,0.4-0.8,0.5-1.2c0.1-0.5,0.1-0.5,0.2-0.8c0.3,0.1,0.1-0.4,0.3-0.3c0,0.1,0,0.1,0.1,0.1c-0.2,0.3-0.1,1,0.1,1.2
			C59.8,84.8,59.4,84.8,59.1,85.3z M60.1,82.4c0-0.2-0.1-0.2-0.2-0.3c0-0.1,0.1-0.1,0.1-0.2c-0.1-0.4,0.3-0.2,0.3-0.3h0.1
			c0-0.1,0.1-0.2,0.2-0.3c0.2,0,0.3,0.1,0.5,0.2v0.1C60.8,82,60.4,82.1,60.1,82.4z M60.9,83.9c-0.1,0.2-0.1,0-0.2,0
			c-0.2,0-0.3,0-0.4-0.1v-0.7c0.5,0,0.6,0.2,1.1,0.1C61.3,83.6,61,83.6,60.9,83.9z M60.5,82.8c0.1,0,0-0.1,0-0.3
			c0.1,0,0.2,0.1,0.2,0.1c0.1,0.3,0.2-0.1,0.4,0c0.2,0,0.2,0.1,0.2,0.2C61.2,83,60.6,83.1,60.5,82.8z M61.1,80.7
			c0.2-0.1,0.4-0.1,0.6-0.1c0,0.1-0.1,0.3-0.2,0.3C61.3,80.9,61.2,80.8,61.1,80.7z M62.2,82.5c-0.2,0-0.3,0.2-0.5,0.3
			c-0.1,0-0.1-0.1-0.2-0.1c0-0.1-0.1-0.1-0.1-0.2c0.1-0.3,0.3-0.1,0.3-0.2c0.2,0.1,0.2-0.2,0.4-0.1C62.2,82.3,62.3,82.3,62.2,82.5z
			 M63.7,81.7h-0.2c-0.2,0.1-0.2-0.2-0.3-0.2c0.1-0.3,0.3,0.1,0.5,0.1V81.7z M66.4,80.3c0,0.1-0.1,0.2-0.1,0.3
			c-0.2,0-0.2-0.3-0.1-0.4c-0.3,0.4-0.7,1-0.9,1.1c0.2-0.2,0.8-0.3,0.7,0.1c-0.2,0.1-0.3,0.3-0.4,0.4c-0.4,0.1-0.7-0.1-1-0.1
			c0-0.1,0.2-0.1,0.2-0.2c-0.8-0.3-1.1,0.1-1.8-0.3c-0.1,0.4,0.3,0.4,0.1,0.7c-0.3-0.1-0.3-0.4-0.7-0.3c0-0.2,0-0.3-0.1-0.3
			c-0.1-0.5,0.2-0.3,0.4-0.2c0.1,0.1,0.2,0.2,0.3,0.2c0-0.7,0.6-0.2,0.8-0.4c0,0,0,0,0.1,0c0.1-0.1,0.1-0.1,0.2,0c0,0,0,0,0,0
			c0.1,0,0.2,0,0.3,0c0,0,0.1,0,0.1,0c0.1,0,0.1,0,0.2,0c0,0,0.1,0,0.1,0.1c0.1-0.1,0.1-0.1,0.2-0.1c0,0.4,0.5-0.3,0.5,0.2
			c0.1-0.1,0-0.3,0-0.5c0.4,0,0.4-0.3,0.6-0.4c0.2,0.1,0.3,0,0.5-0.1c0.1,0,0.2,0.1,0.2,0.1C66.8,80.2,66.6,80.2,66.4,80.3z
			 M68.6,81v0.2c-0.2,0-0.2-0.2-0.3,0c0-0.1-0.1-0.2-0.1-0.3c0-0.1,0-0.2,0.1-0.3c0.1,0,0.3,0.1,0.4,0.1c0,0,0,0,0,0
			C68.7,80.9,68.6,81,68.6,81z M69,81.9v-0.2c0.1,0-0.1-0.5,0.2-0.4c0.2-0.1,0.2,0.2,0.3,0.2c0,0.1,0.1,0.2,0.2,0.2
			C69.7,82,69.3,81.9,69,81.9z M70,81.7c0-0.1,0-0.1-0.1-0.1c-0.2-0.1-0.2-0.5-0.5-0.5c-0.2,0-0.2,0-0.2-0.1
			c0.3,0.1,0.6,0.1,0.8,0.2c0.2,0.1,0.3,0.4,0.4,0.6C70.2,81.9,70.2,81.7,70,81.7z M70.5,81C70.5,81,70.5,81,70.5,81
			C70.5,81,70.6,81,70.5,81C70.6,81,70.5,81,70.5,81z M71.3,81.5C71.3,81.4,71.3,81.4,71.3,81.5c0.2-0.1,0.5,0,0.7,0c0,0,0,0,0.1,0
			c-0.1,0-0.2,0.1-0.3,0.1C71.7,81.5,71.5,81.4,71.3,81.5z M71.7,82c0-0.1-0.1-0.2-0.2-0.3c0-0.1,0.1-0.1,0.1-0.1c0,0,0,0,0,0
			c0.1,0.1,0.2,0.1,0.2,0.2C72,81.9,72,82,72,82H71.7z M72.3,81.9L72.3,81.9c-0.1,0-0.1,0-0.1,0C72.2,81.9,72.2,81.9,72.3,81.9
			C72.3,81.9,72.3,81.9,72.3,81.9z M72.7,82.1c0-0.1,0.1-0.1,0.1-0.1c0,0,0.1,0.1,0.1,0.1C72.8,82.1,72.7,82.2,72.7,82.1z
			 M74.4,81.7c0.3,0,0.6,0,0.9,0.1C75,81.9,74.5,81.8,74.4,81.7z M75.2,81.8c0,0,0.1,0,0.1-0.1c0.3,0,0.6,0,1,0.1
			C76,82.1,75.6,81.7,75.2,81.8z M78.8,80.9c-0.1-0.2-0.2-0.3-0.4-0.2c0.1,0.2,0.2,0.3-0.1,0.3c-0.2,0,0-0.3-0.2-0.3
			c0,0.2-0.8,0.2-0.6,0c0.6,0.1,0.4-0.3,1-0.5c0,0,0.1,0,0.1,0c0.1,0,0.1,0,0.2-0.1c0,0,0,0,0,0c0.2-0.1,0.3-0.2,0.3,0.1
			C79,80.6,78.8,80.6,78.8,80.9z M79.8,67.1c0,0,0,0.1,0,0.1c-0.2-0.1-0.4-0.1-0.5-0.1l0.2-0.1C79.5,67,79.7,67,79.8,67.1
			C79.8,67.1,79.8,67.1,79.8,67.1C79.8,67.1,79.8,67.1,79.8,67.1z M79.9,67c0.1,0,0.1,0,0.2,0c0,0.1,0,0.2,0,0.3c0,0-0.1,0-0.1,0.1
			c0-0.1,0-0.2-0.1-0.2C79.9,67.1,79.9,67.1,79.9,67z M79.9,80.7l0.3-0.1c0.1,0,0.2,0.1,0.4,0c0,0,0.1,0,0.1,0c0,0.1,0,0.1,0.1,0.2
			c0,0,0,0,0,0C80.3,81.1,80,81.1,79.9,80.7z M80.3,67c0.1,0,0.3-0.1,0.3,0c0,0-0.1,0.1-0.1,0.2c0,0-0.1,0-0.1,0
			C80.4,67.2,80.4,67.1,80.3,67z M80.2,66.6c0.1-0.1,0-0.2-0.1-0.3c0.3,0,0.2-0.4,0.5-0.3C80.8,66.4,80.5,67,80.2,66.6z M81.2,66.6
			l-0.3,0.1c-0.1-0.5,0.2-0.7,0.1-1.2l0.2-0.1c0.4,0.2-0.2,0.6,0.1,0.6c0.1-0.6,0.9-0.6,1-0.2C81.9,66.1,81.2,66.1,81.2,66.6z
			 M81.2,67.1c0,0,0-0.1,0-0.2l0.1,0c0.2-0.1,0.3,0.1,0.3,0.4C81.5,67.1,81.3,67.1,81.2,67.1z M81.3,66.4c0.5-0.1,1.3-0.8,1.3,0.2
			C82.4,66.9,81.6,66.8,81.3,66.4z M82.2,73.2C82.2,73.2,82.2,73.2,82.2,73.2c0.1-0.1,0.2-0.1,0.2,0C82.3,73.2,82.2,73.2,82.2,73.2z
			 M82.3,73.4C82.3,73.3,82.3,73.3,82.3,73.4C82.3,73.3,82.3,73.3,82.3,73.4C82.4,73.3,82.3,73.3,82.3,73.4z M82.5,73.1
			c-0.1-0.1-0.1-0.1-0.1-0.2C82.5,73,82.5,73,82.5,73.1z M82.5,73.5c0,0,0.1-0.1,0.1-0.1c0,0,0,0,0,0C82.6,73.6,82.5,73.6,82.5,73.5
			z M83.8,76.8l0.3-0.1c0.1,0.1,0.1,0.2,0.2,0.3c0,0,0,0,0,0c-0.1,0.2-0.2,0.3-0.3,0.3c-0.1,0-0.2,0-0.3,0
			C83.6,77.1,83.9,77.1,83.8,76.8z M84.2,81.3c-0.1,0-0.2,0-0.3,0c0-0.1-0.1-0.2-0.1-0.3C83.9,81,84,81.1,84.2,81.3z M83.3,75.1
			c0,0,0,0.1,0,0.1c0,0-0.1,0-0.1,0c0-0.1,0-0.1,0.1-0.2C83.2,75.1,83.3,75.1,83.3,75.1z M83,74.2c0.1,0.1,0.1,0.2,0.2,0.3
			c-0.1,0-0.2,0-0.4,0c0,0,0-0.1,0-0.1C83,74.6,83,74.4,83,74.2z M82.9,75.1C82.9,75.1,82.8,75.1,82.9,75.1c0-0.2,0-0.2,0.1-0.2
			c0.1,0,0.1,0.1,0.1,0.2C83,75.1,82.9,75.1,82.9,75.1z M83.1,75.5c0.1,0,0.1,0,0.2,0c0,0-0.1,0.1-0.1,0.1
			C83.1,75.6,83.1,75.5,83.1,75.5z M83.7,83.2c0-0.1-0.1-0.2-0.2-0.3c0-0.1,0.1-0.1,0.1-0.1c0,0,0,0,0,0c0.1,0.1,0.2,0.1,0.2,0.2
			c0.1,0.1,0.1,0.2,0.1,0.3H83.7z M84.2,83.1L84.2,83.1c-0.1,0-0.1,0-0.1,0C84.2,83.1,84.2,83.1,84.2,83.1
			C84.2,83.1,84.2,83.1,84.2,83.1z M84.6,83.3c0-0.1,0.1-0.1,0.1-0.1c0,0,0.1,0.1,0.1,0.1C84.7,83.3,84.7,83.4,84.6,83.3z
			 M84.8,82.2c-0.1,0.2-0.3,0.4-0.5,0.5c0,0,0,0-0.1-0.1c0,0,0,0.1,0,0.1c-0.1,0-0.2,0.1-0.4,0.1c-0.1-0.1-0.3-0.1-0.5-0.1
			c-0.1-0.4,0.3-0.1,0.2-0.3h0.1c0.2,0,0.4,0.4,0.5,0.1c-0.1-0.4-0.5-0.4-0.7-0.7c-0.1,0-0.2-0.1-0.3-0.1c0.1,0,0.1,0,0.3,0.1
			c-0.1-0.1-0.2-0.2-0.1-0.2c0,0,0.1,0,0.1,0c0,0.3,0.6,0.3,0.7,0.1c-0.1-0.1-0.2-0.1-0.2-0.2h0.1c0.1-0.1,0.1-0.1,0.2-0.1
			c0.1,0.2,0.4,0,0.5,0.1c0.1,0.4-0.1,0.4,0.1,0.6L84.8,82.2z M86.1,79c0.2,0,0.5-0.4,0.6,0c-0.1,0.1-0.2,0.3-0.4,0.4
			c0-0.4-0.2-0.1-0.3-0.4L86.1,79z M85.7,82c0.1-0.3,0.3-0.4,0.6-0.5c0.1-0.2,0.2-0.2,0.4-0.3c0.2,0.1,0.2,0.4,0.5,0.3
			c-0.1,0.5-0.6-0.2-0.5,0.5l-0.1,0C86.4,81.8,85.9,82.2,85.7,82z"/>
	</g>
	<path class="st1" d="M123.1,81.1c0,0-2.3-0.6-3.4-0.4c-1.1,0.2-2.4,0.6-2.8,0.8c-0.4,0.2-1.8,1-2.1,3c-0.1,0.4-0.8,1.4-0.8,1.7
		c0,0.3-0.9,1.6-0.9,1.8c-0.2,0.2-0.4,0.6-0.3,0.8c-0.1,0.2-0.6,0.8-0.6,1c-0.1,0.1-0.6,0.9-0.6,1.4c-0.3,0.3-0.3,0.6-0.3,0.8
		c0,0.2-0.4,0.8-0.3,0.9c0,0.2-0.2,0.9-0.2,1.1c-0.1,0.1,0.1,0.5,0,0.6c-0.3,0.1-2.5,1.6-3.8,1.7c-1.3,0.2-1.3,0.2-1.3,0.2
		s-0.2,0.4,1.3,0.2c1.5-0.2,3.7-1.2,3.7-1.2s-0.2,0.7,0.1,1.1c-0.2,0.1-2.6,0.6-3.2,0.6c-0.7,0-0.2,0.6,1.6,0.4
		c1.8-0.2,2.1-0.2,2.1-0.2s0,0.5,0.1,0.7c0.1,0.2,0.2,0.2,0.3,0.5c0,0.2,0.2,0.4,0.2,0.4c0,0.1,0.2,0.5,0.2,0.5
		c0,0.1,0.3,0.7,0.3,0.8c0.1,0.1,0.4,0.9,0.5,1.1c0.1,0.2,0.5,1.2,0.7,1.6c0.2,0.4,0.5,1.9-0.6,2.5c-1.1,0.6-2.8-0.1-2.8-0.1
		s-0.2-0.2-0.3-0.1c-0.1,0,0,0.7-0.1,0.8c-0.1,0.1-0.2,0.4-0.2,0.4s0.2,0.3,0.4,0c0.3,0.1,2.7,0.6,3.5,0.1c0.8-0.5,2.1-1.2,1.9-3.1
		c-0.3-1.9-0.2-1.5-0.3-1.9c-0.1-0.4-0.3-1.7-0.3-1.9c0-0.2-0.3-2.4-0.3-2.6c0.1-0.2,0.1-1.2,0.1-1.2s1.8-1.7,2-2.6
		c0.4-0.1,0.6-0.3,1.1-0.3c0.4,0,1.2-0.8,1.2-0.8s0.6,0.5,0.9,0.3c0.1-0.2,0-0.4,0.2-0.4c0.2,0,0.7,0,0.8,0.1
		c0.1,0.1,0.3,0.1,0.3,0.1s0.1,0.8,0.4,1.2c0,0.5-0.2,2.2-0.1,2.5c-0.1,0.4-0.2,1.6,0,2.1c0.2,0.5,0.5,2.7,0.5,3.3
		c0,0.6,0.2,2.2,0.1,2.5c-0.1,0.3-0.3,0.9-0.1,1.1c0.1,0.2-0.1,0.4,0,0.5c0.1,0.1,0.4,0.3,0.4,0.4c0,0.1-0.6,1.2-0.9,1.5
		c-0.3,0.2-0.4,0.8-0.3,1.1c0.3,0.3,1.2,0.1,1.4,0.1c0.2,0.1,1.2,0.2,1.4,0.1c0.4,0,2-0.1,2-0.5c0.1-0.4,0.4-0.6-0.4-1.6
		c-0.2-0.5-0.1-1.5,0-1.6c0.1,0,0.1-1.5,0.2-2c0.1-0.5,0.4-2.2,0.7-2.4c0.2-0.3,0.7-1.2,0.6-1.7c0.1-0.5,0.3-1,0.4-1.1
		c0.4,0.3,1.4,0.7,2.1,0.5c0.2,0.5,0.4,1.3,0.5,1.6c0.1,0.3,0.1,0.8,0.3,1c0.2,0.2,0.3,1.1,0.3,1.4c0.1,0.3,0.1,1.2,0.2,1.5
		c0.1,0.3,0.2,0.8,0.3,1.1c0.1,0.3,0.3,0.5,0.3,0.5c0,0.2,0.3,0.5,0.3,0.6c0,0.2-0.1,0.5-0.1,0.6c0,0.1,0,0.4-0.1,0.5
		c-0.1,0.1-0.6,0.5-0.6,0.7c-0.1,0.3-0.2,0.6,0,0.7c0.1,0.1,1,0,1,0c0.1,0.1,1.6,0.1,1.8,0c0.4,0,1.4-0.1,1.5-0.1
		c0.3,0.1,0.6-0.4,0.3-1.1c-0.4-0.5-0.4-0.5-0.4-0.5s-0.2-0.8-0.3-0.9c-0.1-0.3-0.4-2.8-0.4-3.2c0-0.4,0.1-2.3,0.1-2.5
		c0-0.2,0.3-0.5,0.3-0.5s1.6,1,3,0.6c0.6-0.1,1,0,1.2,0.1c0.2,0.1,1.3,0.1,1.7-0.2c0.5-0.1,0.8,0.1,0.8,0.1s0.5,2.3,0.1,3.3
		c-0.4,1-0.9,2-1.2,2.3c-0.3,0.3-0.9,1-0.8,1.2c0.1,0.2,0.9,0.7,1,0.8c0.2,0.1,0.6,0.4,0.8,0.4c0.1,0.1,1.5,0.2,1.8,0.1
		c0.3-0.1,0.6-0.6,0.6-0.6s0.7,0.3,1.7,0.3c1,0,1.9,0.2,1.9,0c0.1-0.2,0.3-0.6,0.2-0.8c-0.1-0.1,0.1-1,0-1.2
		c-0.1-0.3-0.3-1.5-0.4-1.6c0-0.1-0.1-0.5-0.2-0.7c0-0.1-0.1-0.7,0-1.1c0.1-0.4,0.3-1.5,0.2-2c0-0.6,0.2-0.5,0.4-0.7
		c0.2-0.2,0.5-1.7,0.4-2.2c0.3-0.7,1.1-3,1.5-3.4c0,0.5-0.1,5.4,0.4,6.4c0.5,1,1.1,1.4,1.1,1.4s-0.1,0.7,0.1,1
		c0.2,0.3,0.3,0.3,0.3,0.7c0,0.3,0,0.5,0.2,0.7c0.1,0.2-0.1-0.4,0-0.7c0-0.3-0.1-0.5-0.1-0.6c-0.1-0.1-0.1-0.4-0.1-0.5
		c0-0.1,0.3,0.3,0.3,0.4c0,0.1,0.1,0.5,0.1,0.7c0.1,0.2,0.2,0.4,0.3,0.4c0.1,0,0-0.3-0.1-0.4c0-0.1-0.1-0.3-0.1-0.5
		c0-0.3,0-0.5-0.2-0.6c-0.2-0.1-0.2-0.4-0.1-0.3c0.1,0.1,0.5,0.3,0.5,0.5c0,0.2,0.2,0.4,0.2,0.4s0-0.3,0-0.5c0-0.1-0.1-0.3-0.2-0.4
		c-0.1-0.1-0.4-0.2-0.4-0.2s0.2-0.1,0.3,0c0.1,0,0.5,0.6,0.5,0.7c0,0.1,0.2,0.5,0.5,0.6c0,0-0.3-0.4-0.4-0.7
		c-0.1-0.3-0.3-0.6-0.5-0.7c-0.1-0.1-0.5-0.1-0.6-0.1c-0.1,0-1.4-0.9-1.4-1.7c0.1-0.8,0.3-6.2,0.3-6.9c0-0.6,0-1.4,0-1.5
		c0-0.1,0.5-3.4-2-5.7c-2.5-2.3-5.1-3.6-7.4-3.8c-2.2-0.1-5,0.7-6.1,0.8c-1.1,0.1-4.1-0.4-5.2-1c-1.2-0.6-3.5-0.6-3.7-0.6
		C125.4,81.3,124.1,80.9,123.1,81.1z"/>
	<path class="st1" d="M90.5,89.1c0,0,0.3-1.2,0.2-1.1c-0.2,0.1-0.6,1-0.7,1.2c-0.2,0.2-0.5,0.4-0.4-0.1c0.1-0.6,0.2-0.6,0.4-0.9
		c0.1-0.2,0.4-1.1,0.3-1.3c-0.1-0.3-0.5-0.5-0.7-0.4c-0.1,0-0.4-0.2-0.5-0.3c0-0.1-0.4,0-0.3,0.3c0.1,0.3,0,0.8,0.1,1
		c0,0.3,0.1,0.5,0,0.9c0,0.4-0.1,0.5,0,0.8c0.1,0.4,0.1,0.6-0.1,0.9c-0.2,0.4-0.7,1.1-0.8,0.8c-0.1-0.3-0.5-0.7-0.6-0.7
		c-0.1,0,0.1,0.3,0.2,0.5c0.1,0.2,0.2,0.8-0.2,0.9c-0.4,0.1-0.7,0.1-0.8,0.2c-0.1,0.1-0.4,0.2-0.5,0.1c-0.1-0.1-0.1-0.5-0.1-0.6
		c0.1-0.1,0.3-0.5,0.4-0.8c0.1-0.2,0.8-1.3,1.3-1.1c0.4,0.2,0.1-0.2,0-0.2c-0.1,0,0-0.1-0.1-0.2c-0.1,0-0.3,0-0.4,0
		c-0.1,0.1-0.5,0-0.4-0.4c0.2-0.4,0-0.5,0-0.5c-0.1,0,0,0.2-0.1,0.2c-0.1,0-0.2-0.4-0.1-0.7c0.1-0.3-0.2-0.5-0.2-0.8
		c0-0.3-0.1-0.4-0.2-0.4c-0.1,0-0.3,0-0.3-0.1c0-0.1-0.2-0.1-0.2,0.2c0.1,0.3,0.1,0.7,0.1,1.1c0,0.3,0.1,0.9,0,1.1
		c0,0.2,0.1,0.6,0.1,0.9c0,0.3,0,1.1-0.2,1.2c-0.2,0-0.4,0.1-0.4,0c-0.1-0.1-0.1-0.4-0.1-0.6c0-0.2-0.1-0.3-0.1,0
		c-0.1,0.3-0.1,0.5-0.1,0.5s-0.3-0.3-0.3-0.3c0-0.1-0.2,0,0,0.1c0.1,0.1,0.4,0.5,0.4,0.5s0.1,0.5,0.4,0.7c-0.1,0-0.2,0.1-0.3,0
		c-0.1-0.1-0.1,0-0.2-0.1c-0.1,0-0.8,0-0.9-0.9c0-0.1-0.1-0.1-0.1,0c0,0.1,0,0.7,0.6,1c0.6,0.3,0.6,0.3,0.5,0.4
		c-0.1,0.1-0.1,0.2-0.2,0.4c-0.1,0.1-0.2,0.1-0.2,0.3c-0.1,0.1-0.3,0.4-0.4,0.6c-0.1,0.2-0.2,0.4-0.3,0.5c-0.1,0.1-0.6,0.5-0.7,0.6
		c-0.2,0.1-0.2,0.2-0.2,0.2c0,0-0.2,0.3-0.2,0.5c0.1,0.2,0.2,0.3,0.3,0.2c0,0.1,0.1,0.4,0.8,0.2c0.3,0.1,0.9,0.1,1,0.1
		c0.2,0,0.5,0,0.6-0.1c0.1,0.2,0.2,0.3,0.1,0.5c0,0.1-0.2,0.5,0.1,0.8c0.1,0.1,0.1,0.3,0.2,0.3c0,0,0.1,0.2,0.3,0.4
		c0.2,0.2,0.6,1,0.9,1.3c0.3,0.3,1,0.9,1.2,1.1c0.1,0.2,0.7,0.8,0.8,0.9c0.1,0.1,0.4,0.6,0.5,0.8c0.1,0.2,0.6,0.4,0.8,0.4
		c-0.2,0.3-0.6,1-0.8,1.2c-0.2,0.3-0.3,0.7-0.2,0.9c0.1,0.2,0.2,0.5,0.4,0.6c0.1,0.1,1.2,1.8,1.3,2.1c0.1,0.3,0.3,0.3,0.4,0.3
		c0.1,0,0.3,0,0.4,0.1c0.1,0.1,0.4,0.1,0.5,0.1c0.1,0,0.4,0.1,0.5,0.2c0.1,0,0-0.6-0.2-0.7c-0.2-0.1-0.4-0.2-0.6-0.3
		c-0.1-0.1-0.3-0.2-0.4-0.2c-0.1-0.2-1.4-1.8-1.4-2.2c0.1-0.4,0.1-0.3,0.2-0.4c0-0.1,0.9-0.6,1.1-0.9c0,0.6,0,1.5,0.2,1.8
		c0.2,0.4,0.2,2.4,0.1,2.9c-0.1,0.2-0.1,0.3-0.1,0.4c0,0.1-0.1,0.2-0.2,0.3c0,0.1-0.1,0.3-0.1,0.3s0.4,0.1,0.6,0
		c0.2-0.2,0.2-0.2,0.2-0.2c0,0,0.2-0.2,0.1-0.3c0-0.1,0.1-1.3,0.1-1.4c0-0.1-0.1-1.5,0-1.8c0-0.3,0.1-0.7,0.1-1.1
		c-0.1-0.3,0.1-1.5,0.1-1.7c0.4,0,0.8,0,1.1,0c0.3,0,1.3-0.1,1.5-0.2c0.3-0.2,0.5-0.2,0.6-0.2c0,0,0.7-0.1,0.9-0.3
		c-0.1,0.3-0.3,0.9-0.3,1.1c0,0,0.2-0.6,0.4-0.7c0.2-0.1,0.3-0.1,0.3-0.2c0-0.2,0-0.1,0-0.1s0.2,0.2,0.6,0.2c0.4,0,0.6,0,0.8,0
		c0.2,0.1,0.1,0.3,0.3,0.3c0.2,0.1,0.6,0.3,0.8,0.5c0.2,0.1,0.7,0.4,1.1,0.6c0.1,0.1,0.1,1.1-0.1,1.6c-0.1,0.5-0.1,0.8,0,1
		c0.1,0.2,0.3,0.3,0.3,0.3c0,0.1,0.1,0.2,0.1,0.2s-0.2,1-0.3,1.1c-0.1,0.2-0.3,0.5-0.5,0.6c-0.2,0.1,0,0.2,0.2,0.2
		c0.2,0,0.5,0.1,0.6,0c0.1-0.1,0.1-0.3,0.2-0.4c0.1-0.1,0.2-0.1,0.2-0.3c0-0.2,0.1-0.7,0.1-0.7c0.1,0.1,0.3,0.3,0.3,0.3
		c0,0,0.3-0.6-0.2-1.1c0-0.2,0-0.7,0.1-0.8c0.1-0.1,0.2-0.3,0.2-0.5c0-0.2,0-1.1,0-1.3c0.1-0.1,0.1-0.2,0.1-0.3
		c0-0.1,0.1-0.4,0.1-0.5c0-0.1-0.5-0.3-0.5-0.4c0-0.1,0.1-1.3,0-1.4c0-0.2-0.3-0.4-0.9-0.3c0.1-0.2,0.4-0.6,0.4-0.9
		c0-0.2,0.2-0.9,0.2-1.2c0.1,0,0.3,2,1.3,1.6c0.9-0.3,1-1.2,1-1.2s-0.2,0.7-0.5,0.8c0.1-0.1,0.2-0.3,0.2-0.6
		c-0.2,0.4-0.9,0.7-1.1,0.3c-0.2-0.3-0.7-1.2-0.7-1.7c0-0.5-0.3-1.2-0.7-1.5c-0.4-0.3-1.3-0.7-2-0.7c-0.7,0-0.6-0.1-0.9,0
		c-0.3,0.1-0.5,0.1-0.8,0.1c-0.3,0-0.9,0.1-1.1,0c-0.2,0-0.4-0.1-0.7,0c-0.4,0.1-0.6,0-0.9,0c-0.3,0-1.2-0.1-1.7-0.1
		c-0.5,0-0.7,0-1,0.1c-0.3,0.1-1,0.3-1.3,0.4c-0.2,0.1-0.2,0.1-0.4,0.1c-0.2,0-0.1,0-0.3,0c-0.2,0.1-0.1,0-0.4,0
		c-0.3,0-0.2,0-0.4-0.1c-0.2-0.1-0.5-0.4-0.6-0.6c-0.1-0.2-0.3-0.4-0.4-0.6c-0.1-0.2-0.2-0.5-0.3-0.6c0-0.2-0.2-0.5-0.2-0.5
		c0.1,0,0.8-0.5,0.8-1.4c0-0.2-0.2-0.3-0.5-0.1c-0.2,0.1-0.4,0.2-0.5,0.3c-0.1,0.1-0.3,0.2-0.3,0.3c-0.1,0-0.3-0.1-0.3-0.1
		c0.2-0.1,0.7,0,1.4-0.7c0.2-0.2,0.5-0.5,0.7-0.6c0.2-0.1,0.2-0.2,0.4-0.4c0.3-0.1,0.4-0.3,0.6-0.4c0.2-0.1,0.3-0.4,0.6-0.6
		c0.3-0.2,0.4,0.1,0.5,0C90.8,89.5,90.6,89.5,90.5,89.1z"/>
	<path class="st1" d="M19.3,98c0,0-0.6,1.3-0.2,2c-0.1,0.2-0.1,0.4-0.1,0.5c0.1,0.1-0.1,0.3-0.2,0.3c-0.1,0-0.2,0.5-0.1,0.5
		c0.1,0.1,0.1,0.4,0.2,0.5c0,0.1,0.3,0.5,0.3,0.5s0.4-0.2,0.4-0.3c-0.1-0.1,0.1-0.2,0.3-0.2c0.2,0.1,0.4,0,0.5,0.1
		c0.1,0.1-0.6,0.2-0.6,0.2l-0.4,0.2c0,0,0.2,0.4,0.3,0.4c0.2,0,0.3-0.1,0.4,0c0.1,0.1,0.8,0.3,1.5,0c0.5-0.1,0.7-0.1,0.8-0.1
		c0.1,0,1.3,0.2,2.1-0.3c0.4-0.2,0.6-0.4,0.8-0.3c0.2,0.1,0.7,0.3,1.1,0.1c0.3,0,0.2,0.1,0.5,0.3c0.3,0.2,0.8,0.5,0.9,0.5
		c0.1-0.1,0.3-0.5,0.4-0.4c0.1,0.1,0.7,0.6,0.8,0.3c0.1-0.3,0.5-0.2,0.8,0.1c-0.3,0.4-1.2,2.4-0.2,3.2c0.5,0.5,0.5,0.4,0.7,0.6
		c0.2,0.2,0.5,0.4,0.8,0.5c-0.1,0.2-0.4,0.6,0.1,0.7c0.5,0.1,2.1,0.1,2.2,0c0.2-0.1,0.2-0.7-0.2-1.2c0.1-0.5,0.5-2.2,0.1-2.9
		c0.3-0.2,0.6-0.1,0.7-0.1c0.1,0,0.1-0.5,0.5-0.5c0.3,0,0.7,0.3,1.2,0.5c0.5,0.2,3.8,1,5.7-0.2c0.2,0.1,0.3,0.3,0.9,0.1
		c0.3,0.1,0.2,0.3,0.2,0.3s-0.5,1.2-0.5,1.6c-0.3,0.5-1,1.3-1.1,1.5c-0.1,0.2-0.7,0.7-0.3,0.8c0.4,0.1,1.5,0.2,1.8,0.1
		c0.3-0.1,0.3-0.4,0.3-0.4s0.5-0.9,0.7-1c0.2-0.1,0.7-0.7,0.9-1.5c0.2-0.8,0.5-1,0.9-0.4c0.3,0.7,1,1.2,1,1.4c0,0.3-0.4,1.1-0.5,1.2
		c-0.1,0.1-0.3,0.5,0.8,0.4c1.1-0.1,1.5,0,1.4-0.3c-0.1-0.3-0.5-1.1-0.3-1.6c0.2-0.5,0-1.6-0.1-1.7c-0.2-0.1-1.3-1.4-0.9-2.2
		c0.4-0.5,0.5-1,0.5-1s0.4,2.1,1.2,2.2c0.8,0.1-0.2-0.7-0.4-1.6c-0.2-0.9-0.4-1.8-0.3-2.3c0-0.4-0.2-2.3-2.1-3.3
		c-1.9-1-2.3-1.1-2.3-1.1c-0.1-0.1-1.9-0.6-2.1-0.5c-0.3,0-3.4,0.2-5.8-0.2c-0.3-0.1-0.4,0.2-0.4,0.2c-0.2-0.2-2.7-0.5-3.4-0.2
		c-0.7,0.3-1.7,0.5-1.7,0.7c0.1,0.2-3.3,1.2-4,1.8c-0.3,0-0.3-0.4-0.3-0.4s-1,0.8-1.2,1c-0.2,0.2-1.7-0.1-2.2-0.5
		c-0.5-0.4-0.4,0.9,0.2,1.2c0,0.6-0.2,1.4-0.6,1.5c-0.4,0-1.9,0.7-1.7-2.1c0.1-0.9,0.1-0.9,0.1-0.9L19.3,98z"/>
</g>
</svg>
