<?xml version="1.0" encoding="utf-8"?>
<!-- Generator: Adobe Illustrator 25.4.1, SVG Export Plug-In . SVG Version: 6.00 Build 0)  -->
<svg version="1.1" id="圖層_1" xmlns="http://www.w3.org/2000/svg" xmlns:xlink="http://www.w3.org/1999/xlink" x="0px" y="0px"
	 viewBox="0 0 170 120" style="enable-background:new 0 0 170 120;" xml:space="preserve">
<style type="text/css">
	.st0{fill:#FEB614;}
	.st1{fill:#FFFFFF;}
</style>
<g>
	<rect class="st0" width="170" height="120"/>
</g>
<g>
	<path class="st1" d="M19.9,16.1H8.5v-2.1h14.6v2c-3.2,6.8-6.7,14.6-10,21.4H9.7c3.4-6.7,6.9-14.4,10.2-21.2V16.1z"/>
</g>
<g>
	<path class="st1" d="M40,27c2.8,0.3,3.1,0.1,3.1-1.2V15.8h-9.9v-1.1h14.2v1.1h-2.1v10.9c0,2.3-2.4,2.7-5.5,1.2L40,27z M35,17.8h6.3
		v7.1h-2v-1.3H37v1.7h-2V17.8z M39.2,22.6v-3.8H37v3.8H39.2z"/>
	<path class="st1" d="M61.6,25.6h-7l1.3,1c-1.6,1.2-3.8,2.1-6.3,2.4l-0.3-0.8c1.9-0.8,3.3-1.6,4.5-2.6h-2.4v-6.3
		c-0.5,0.3-1,0.6-1.6,0.9l-0.4-0.7c2.3-1.9,3.6-3.7,4.5-5.8l2.3,0.8c-0.2,0.3-0.4,0.6-0.6,0.9H58l0.5-0.3l2,1.1
		c-0.5,0.6-1.3,1.2-2,1.6h3.1V25.6z M53.5,17.9H57c0.3-0.5,0.6-0.9,0.8-1.5H55C54.5,16.9,54,17.4,53.5,17.9z M59.5,18.9h-5.8v1.3
		h5.8V18.9z M59.5,21.1h-5.8v1.3h5.8V21.1z M59.5,23.3h-5.8v1.3h5.8V23.3z M63.4,27.1l-1,1.9c-1.6-0.9-3.5-1.8-5.3-2.6l0.3-0.8
		C59.6,25.9,61.8,26.4,63.4,27.1z"/>
	<path class="st1" d="M75.8,20.8h3.2v0.9H72c-0.1,3.8-1.2,5.7-2.3,6.8L69.1,28c0.6-1.2,1.1-2.9,1.1-6.9c-0.5,0.4-0.9,0.8-1.4,1.1V27
		c0,1.8-1.9,2-3.7,1l0.2-0.8c1.5,0.2,1.7,0,1.7-0.6v-3.3c-0.4,0.2-0.9,0.4-1.3,0.6l-0.7-1.9c0.7-0.1,1.4-0.3,2-0.5v-2.9h-1.7v-1h1.7
		V14h1.9v3.8h1.2v1h-1.2v2.2c0.4-0.2,0.7-0.3,1.1-0.5l0.3,0.6v-0.2v-3.3c-0.1,0-0.2,0.1-0.3,0.1L69.5,17c1.1-0.7,2.1-1.7,3.1-3.4
		l1.8,0.8c-0.1,0.2-0.3,0.3-0.4,0.5h1.4l0.5-0.3l1.7,0.9c-0.5,0.5-0.9,0.9-1.4,1.2h3v0.9h-2v0.4c0,0.4,0.1,0.6,0.5,0.6
		c0.3,0,0.7,0,1.1-0.3l0.5,1c-0.5,0.4-1.3,0.5-2.4,0.5c-0.9,0-1.2-0.3-1.2-1.4v-0.8h-0.7c-0.1,0.4-0.3,0.8-0.5,1.2
		c0.5,0.3,1.4,0.8,2,1.4L75.8,20.8z M71.8,16.8h3c0.3-0.4,0.4-0.6,0.6-0.9h-2.3C72.7,16.2,72.3,16.5,71.8,16.8z M72,25.2h6.9v3.5
		h-1.7v-0.8h-3.5v0.8H72V25.2z M72,19.7c0.9-0.6,1.2-1.1,1.3-2H72v3.1h2.9c-0.3-0.5-0.6-0.9-1-1.3c-0.4,0.4-0.9,0.7-1.6,0.9L72,19.7
		z M78.5,23.1h-6.2v-0.8h6.2V23.1z M72.3,23.7h6.2v0.8h-6.2V23.7z M73.6,27h3.5V26h-3.5V27z"/>
	<path class="st1" d="M95.1,16.9c0,4.5-0.1,7.4-0.3,9.7c-0.2,2.5-2.4,2.8-5.4,1l0.2-0.8c2.8,0.6,3.1,0.4,3.2-0.8
		c0.2-1.9,0.2-4.3,0.2-8.1h-2.7c-0.5,1.3-1.2,2.6-2.2,3.6l-0.5-0.4v7.1h-1.9v-1.4h-1.9v1.6h-1.9V16.9h1.8c0.2-1,0.3-2.2,0.4-3.1
		l2.3,0.4c-0.4,0.9-0.9,2-1.5,2.7h2.8v3.9c0.9-2,1.4-4.9,1.6-7l2.2,0.4c-0.1,0.7-0.4,1.7-0.8,2.7H95.1z M85.7,17.9h-1.9v3.2h1.9
		V17.9z M85.7,25.9v-3.8h-1.9v3.8H85.7z M90.8,24.4c-0.4-1.4-1.1-2.9-1.7-4.1l0.7-0.5c1,0.9,2.2,2.4,2.8,3.6L90.8,24.4z"/>
	<path class="st1" d="M99.1,20.9c-0.6-1-1.5-2.1-2.1-2.8l0.5-0.6c1,0.5,2.1,1.3,3,2.1L99.1,20.9z M100.4,21.7
		c-0.3,2.2-0.6,5-1.1,6.6l-2-0.8c0.8-1.6,1.7-3.9,2.4-6L100.4,21.7z M99.4,17.1c-0.6-1-1.3-2-1.9-2.8l0.5-0.6c1,0.5,2.1,1.2,2.9,2
		L99.4,17.1z M107.1,24.8v2.5c0,1.7-1.6,2-3.8,0.8l0.2-0.7c1.5,0.2,1.7,0.2,1.7-0.5v-1.8c-0.6,0.1-1.1,0.1-1.7,0.2l1.3,0.7
		c-1,1.2-2.5,2.1-4.1,2.6l-0.4-0.7c1.2-0.7,2.1-1.6,2.8-2.5c-0.6,0-1.2,0.1-1.7,0.1l-0.3-1.7c0.8,0,1.6,0.1,2.5,0.1
		c0.6-0.3,1.1-0.6,1.6-1c-1,0.2-1.8,0.3-2.9,0.3l-0.3-1.6c0.6,0,1.1,0.1,1.6,0.1c0.3-0.3,0.6-0.6,0.8-0.9h-1.6V20
		c-0.5,0.1-1,0.3-1.5,0.4l-0.4-1.6c0.6,0,1.2-0.1,1.9-0.2v-0.9h-1.5v-0.9h1.5V16h-1.6v-0.9h1.6v-1.2h1.8v1.2h1.6V16h-1.6v0.7h1.5
		v0.9h-1.5v0.7c0.5-0.1,1-0.2,1.5-0.3l0.2,0.7c-0.5,0.3-1.1,0.6-1.8,0.8v1.1c0.2-0.2,0.3-0.4,0.5-0.7l1.6,0.8
		c-0.5,0.4-1.1,0.8-1.6,1.1c0.5,0,0.9,0,1.5,0c0.4-0.4,0.8-0.8,1.2-1.2l1.8,0.9c-1.1,0.9-2.3,1.7-3.7,2.3c1,0,2.1-0.1,3-0.2
		l-0.5-0.7l0.5-0.5c1,0.6,2,1.3,2.8,2.2l-1.3,1.1c-0.3-0.4-0.6-0.9-0.9-1.4C108.5,24.5,107.8,24.7,107.1,24.8z M107.1,15.7h-0.8
		v-0.9h4.7c0,1.9-0.1,3.3-0.3,4.3c-0.2,1.6-1.7,1.6-3.2,0.6l0.2-0.7c1.2,0.3,1.3,0.1,1.4-0.6c0.1-0.6,0.2-1.7,0.2-2.7h-0.7
		c-0.2,2.3-1.1,3.8-2.6,4.6l-0.5-0.6C106.7,18.6,107,17.4,107.1,15.7z M111.5,27l-1.2,1.5c-0.8-0.9-1.9-2-2.9-2.8l0.4-0.7
		C109.1,25.6,110.5,26.3,111.5,27z"/>
	<path class="st1" d="M113.5,17.6c0.9,0.5,2.2,1.4,3,2.2l-1.5,1.4c-0.6-1-1.4-2.2-2-3L113.5,17.6z M115.5,21.5l0.8,0.2
		c-0.2,2.2-0.7,5.1-1.2,6.8l-2.2-0.9C113.9,25.9,114.8,23.7,115.5,21.5z M115.3,17.3c-0.6-0.9-1.5-2.1-2-2.8l0.5-0.6
		c1,0.4,2,1.2,3,2L115.3,17.3z M127.4,21.3v1H126v3.1h-2v-0.8h-1.6v2.3c0,1.6-1.4,2.7-4.5,1l0.2-0.8c2,0.3,2.2,0.2,2.2-0.6v-1.9
		h-2.9v-1h2.9v-1.4h-3.6v-1h3.6v-1.3h-2.8V19h1.1c-0.3-0.9-0.7-1.9-1.1-2.7l0.6-0.4c-0.3,0-0.6,0-0.9,0l-0.1-0.8
		c2.9-0.2,6.1-0.7,8.1-1.4l1.6,1.7c-0.6,0.1-1.3,0.2-2,0.3l1.6,0.7c-0.7,1-1.5,2-2.3,2.6h2v2.2H127.4z M123.9,19l-0.5-0.4
		c0.4-0.8,0.9-1.8,1.2-2.9c-1,0.1-2.1,0.2-3.1,0.2c0.5,0.7,1.1,1.6,1.5,2.4l-1.7,0.5c-0.2-1-0.4-2.1-0.7-3c-0.8,0-1.6,0-2.3,0
		c0.7,0.6,1.5,1.5,2,2.3l-1.5,0.8H123.9z M124,19.9h-1.6v1.3h1.6V19.9z M124,23.6v-1.4h-1.6v1.4H124z"/>
	<path class="st1" d="M134.7,15.7c0.9,0.9,1.7,2.2,2.2,3.2l-1.7,0.8c-0.1-0.4-0.3-0.9-0.4-1.4c-1.8,0.7-3.9,1.2-5.3,1.3l-0.4-1.9
		c0.5,0,1.1,0,1.6,0c0.5-1.3,1-2.9,1.2-4l2.1,0.7c-0.4,0.8-1.3,2.2-2.1,3.2c0.8-0.1,1.7-0.1,2.5-0.3c-0.2-0.4-0.3-0.9-0.5-1.3
		L134.7,15.7z M130,20h6.1v7.1c0,1.5-1.4,2.1-3.6,1l0.1-0.8c1.4,0.2,1.6,0.1,1.6-0.8v-1.3h-2.4v3.5H130V20z M131.9,20.9v1.2h2.4
		v-1.2H131.9z M134.2,24.4v-1.3h-2.4v1.3H134.2z M136.9,18.8V14h1.9v2.7c0.9-0.5,1.9-1.2,2.8-2.1l1.3,1.4c-0.9,0.6-2.7,1.3-4.1,1.7
		v0.8c0,0.6,0.2,0.7,0.9,0.8c0.5,0,1.1,0,1.6,0c0.8-0.1,0.8-0.3,0.8-1.8h0.8c0.7,2.5,0.4,3.5-1.1,3.6c-0.9,0-1.8,0-2.6,0
		C137.4,20.8,136.9,20.5,136.9,18.8z M142,28.5c-0.9,0-2,0-2.8,0c-1.7-0.1-2.2-0.5-2.2-2.2v-5h1.9V24c1-0.5,2-1.3,2.8-2.1l1.3,1.5
		c-1,0.6-2.7,1.3-4.1,1.6v0.9c0,0.6,0.2,0.7,0.9,0.8c0.6,0,1.3,0,1.8,0c0.7-0.1,0.8-0.3,0.8-2h0.8C143.8,27.1,143.8,28.4,142,28.5z"
		/>
	<path class="st1" d="M148.5,21.7c-0.4,2.2-0.9,4.9-1.5,6.6l-2-0.9c0.9-1.6,1.9-3.8,2.8-5.9L148.5,21.7z M147.4,20.8
		c-0.8-1-1.5-1.8-2.2-2.7l0.4-0.6c1,0.4,2.2,1.1,3.1,1.8L147.4,20.8z M147.3,17.2c-0.6-1-1.3-2-1.9-2.7l0.5-0.6
		c0.9,0.4,1.9,1.1,2.8,2L147.3,17.2z M156,22.7V27c0,1.6-1.6,2.3-4,0.9l0.2-0.7c1.6,0.3,1.9,0.2,1.9-0.7v-3.8h-2.4v-5.4h2.3
		c0-0.5,0.1-1,0.1-1.6h-3v4.1c0,4.3-0.9,7-2.6,8.9l-0.6-0.5c1.2-2.2,1.3-4.8,1.3-8.3v-5.2h10.2v1h-3.1c-0.3,0.5-0.7,1.1-1.1,1.6h3.4
		v5.4H156z M153.7,24.1c-0.7,1.5-2,3.1-3.2,4.1l-0.6-0.5c0.8-1.1,1.5-2.6,2-4.2L153.7,24.1z M153.5,19.5h3.1v-1.3h-3.1V19.5z
		 M153.5,21.8h3.1v-1.3h-3.1V21.8z M159.6,27l-1.8,1c-0.4-1.2-1-2.9-1.5-4.1l0.7-0.4C158,24.5,159.1,26.1,159.6,27z"/>
</g>
<g>
	<path class="st1" d="M114.1,107.5H97.4l-2.1-40.3c-0.4,0.1-0.9,0.2-1.3,0.2c-0.5,0-0.9-0.1-1.3-0.2l-2.1,40.3h-7.6v2H125v-2H118
		H114.1z"/>
	<path class="st1" d="M94.8,59.7c0.6-2.4,3-2.9,3-2.9L99,40.6l-0.9-0.2l-4.5,19.3C94,59.6,94.4,59.6,94.8,59.7z"/>
	<path class="st1" d="M93.6,66.3c1.6,0.3,3.1-0.7,3.4-2.3c0.3-1.6-0.7-3.1-2.3-3.4c-1.6-0.3-3.1,0.7-3.4,2.3
		C91,64.4,92,66,93.6,66.3z"/>
	<path class="st1" d="M97,65.9c1.7,1.7,1,4,1,4l13.5,9.1l0.6-0.7L97.6,64.8C97.5,65.2,97.2,65.6,97,65.9z"/>
	<path class="st1" d="M90.6,64.6c-2.4,0.6-4-1.1-4-1.1l-14.7,7.1l0.3,0.8l18.9-5.8C90.9,65.4,90.7,65.1,90.6,64.6z"/>
</g>
<g>
	<path class="st1" d="M73.1,84.9c0-1.1-1.1-2.1-2.4-2.1H46.3c-1.3,0-2.4,0.9-2.4,2.1l-6.1,18.2c0,1.1,1.1,2.1,2.4,2.1h12.9v2.8H53
		c-1.8,0-3.3,0.8-3.5,1.7h16.8c-0.1-1-1.6-1.7-3.5-1.7h-0.2v-2.8h11.6c1.3,0,2.4-0.9,2.4-2.1L73.1,84.9z M74.3,103.5H40.2
		c-0.3,0-0.6-0.1-0.7-0.2l6-18.1v-0.3c0-0.1,0.3-0.4,0.7-0.4h24.3c0.5,0,0.7,0.3,0.7,0.4v0.2l3.6,18.1
		C75,103.4,74.7,103.5,74.3,103.5z"/>
	<polygon class="st1" points="51.7,92.8 57.4,92.8 57.4,86.3 53.1,86.3 	"/>
	<polygon class="st1" points="58.8,94.2 58.8,101.8 65.1,101.8 64.4,94.2 	"/>
	<polygon class="st1" points="49.7,101.8 57.4,101.8 57.4,94.2 51.4,94.2 	"/>
	<polygon class="st1" points="69.9,86.3 64.8,86.3 65.7,92.8 71.2,92.8 	"/>
	<polygon class="st1" points="44.4,94.2 41.9,101.8 47.7,101.8 49.8,94.2 	"/>
	<polygon class="st1" points="67,101.8 73,101.8 71.5,94.2 65.9,94.2 	"/>
	<polygon class="st1" points="52,86.3 47.1,86.3 44.9,92.8 50.2,92.8 	"/>
	<polygon class="st1" points="63.7,86.3 58.8,86.3 58.8,92.8 64.3,92.8 	"/>
</g>
<g>
	<path class="st1" d="M40.9,65.9c0,3.8-3.1,6.9-6.9,6.9c-3.8,0-6.9-3.1-6.9-6.9c0-3.8,3.1-6.9,6.9-6.9C37.8,59,40.9,62.1,40.9,65.9z
		"/>
	<g>
		<polygon class="st1" points="34,51.8 35.3,54 36.6,56.2 34,56.2 31.5,56.2 32.8,54 		"/>
		<polygon class="st1" points="34,80.1 32.8,77.8 31.5,75.6 34,75.6 36.6,75.6 35.3,77.8 		"/>
		<polygon class="st1" points="24,55.9 26.5,56.6 29,57.3 27.2,59.1 25.4,60.9 24.7,58.4 		"/>
		<polygon class="st1" points="44,75.9 41.6,75.3 39.1,74.6 40.9,72.8 42.7,71 43.4,73.4 		"/>
		<polygon class="st1" points="19.9,65.9 22.1,64.6 24.3,63.4 24.3,65.9 24.3,68.5 22.1,67.2 		"/>
		<polygon class="st1" points="48.2,65.9 46,67.2 43.7,68.5 43.7,65.9 43.7,63.4 46,64.6 		"/>
		<polygon class="st1" points="24,75.9 24.7,73.4 25.4,71 27.2,72.8 29,74.6 26.5,75.3 		"/>
		<polygon class="st1" points="44,55.9 43.4,58.4 42.7,60.9 40.9,59.1 39.1,57.3 41.6,56.6 		"/>
	</g>
</g>
<g id="XMLID_257_">
	<g id="XMLID_261_">
		<path class="st1" d="M115.2,62.6h27.1v-1.1h-27.1c-1.9,0-3.4-1.5-3.4-3.4c0-1.9,1.5-3.4,3.4-3.4v-1.1c-2.5,0-4.5,2-4.5,4.5
			C110.7,60.6,112.7,62.6,115.2,62.6z"/>
	</g>
	<g id="XMLID_260_">
		<path class="st1" d="M119.8,73.9v-1.1c-2,0-3.7-1.6-3.7-3.7s1.6-3.7,3.7-3.7h28.7v-1.1h-28.7c-2.6,0-4.8,2.1-4.8,4.8
			C115,71.8,117.2,73.9,119.8,73.9z"/>
	</g>
	<g id="XMLID_259_">
		<path class="st1" d="M124.9,71.7h1.1c0-2,1.6-3.7,3.7-3.7h13.1v-1.1h-13.1C127,66.9,124.9,69.1,124.9,71.7z"/>
	</g>
	<g id="XMLID_10_">
		<path class="st1" d="M109.9,70.6v-1.1c-1,0-1.8-0.8-1.8-1.8c0-1,0.8-1.8,1.8-1.8h5.3v-1.1h-5.3c-1.6,0-2.9,1.3-2.9,2.9
			C106.9,69.3,108.2,70.6,109.9,70.6z"/>
	</g>
</g>
</svg>
