<?xml version="1.0" encoding="utf-8"?>
<!-- Generator: Adobe Illustrator 25.4.1, SVG Export Plug-In . SVG Version: 6.00 Build 0)  -->
<svg version="1.1" id="圖層_1" xmlns="http://www.w3.org/2000/svg" xmlns:xlink="http://www.w3.org/1999/xlink" x="0px" y="0px"
	 viewBox="0 0 170 120" style="enable-background:new 0 0 170 120;" xml:space="preserve">
<style type="text/css">
	.st06{fill:#05AED9;}
	.st1{fill:#FFFFFF;}
</style>
<g>
	<rect class="st06" width="170" height="120"/>
</g>
<g>
	<path class="st1" d="M16.3,38.9c-5.6,0-7.8-4.8-7.8-10.9c0-8.3,4.8-13.5,13.2-13.5l0.3,1.4c-6.9,0-10.5,5.5-10.5,10.8l0.2,0
		c0.8-1.8,2.6-3.7,5.5-3.6c4.3,0,6.8,3.8,6.8,7.6C23.9,34.8,21.7,38.9,16.3,38.9z M16.4,25c-2.4,0-4.5,2.2-4.5,5.5
		c0,3.7,1.9,6.5,4.5,6.6c2.8,0,4.2-2.4,4.2-6.2C20.6,26.9,18.8,25,16.4,25z"/>
</g>
<g>
	<path class="st1" d="M33.5,18.6c0.9,0.5,2.2,1.4,3,2.2l-1.5,1.4c-0.6-1-1.4-2.2-2-3L33.5,18.6z M35.5,22.5l0.8,0.2
		c-0.2,2.2-0.7,5.1-1.2,6.8l-2.2-0.9C33.9,26.9,34.7,24.7,35.5,22.5z M35.3,18.3c-0.6-0.9-1.5-2.1-2-2.8l0.5-0.6c1,0.4,2,1.2,3,2
		L35.3,18.3z M47.4,22.3v1H46v3.1h-2v-0.8h-1.6v2.3c0,1.6-1.4,2.7-4.5,1l0.2-0.8c2,0.3,2.2,0.2,2.2-0.6v-1.9h-2.9v-1h2.9v-1.4h-3.6
		v-1h3.6v-1.3h-2.8V20h1.1c-0.3-0.9-0.7-1.9-1.1-2.7l0.6-0.4c-0.3,0-0.6,0-0.9,0l-0.1-0.8c2.9-0.2,6.1-0.7,8.1-1.4l1.6,1.7
		c-0.6,0.1-1.3,0.2-2,0.3l1.6,0.7c-0.7,1-1.5,2-2.3,2.6h2v2.2H47.4z M43.9,20l-0.5-0.4c0.4-0.8,0.9-1.8,1.2-2.9
		c-1,0.1-2.1,0.2-3.1,0.2c0.5,0.7,1.1,1.6,1.5,2.4l-1.7,0.5c-0.2-1-0.4-2.1-0.7-3c-0.8,0-1.6,0-2.3,0c0.7,0.6,1.5,1.5,2,2.3L38.7,20
		H43.9z M44,20.9h-1.6v1.3H44V20.9z M44,24.6v-1.4h-1.6v1.4H44z"/>
	<path class="st1" d="M55.4,19.1c-0.7,3.9-2.6,7.7-5.9,9.5L49,27.9c2.6-2.4,3.7-5.2,4.1-8.1h-3.6v-1H53l0.6-0.4L55.4,19.1z
		 M63.8,26.7l-1.6,2.1c-1.7-1.3-3.5-3.7-4.6-7.7v6.4c0,2.3-2,2.7-4.9,1.1l0.2-0.8c2.3,0.4,2.6,0.1,2.6-0.8V15h2.1v2.5
		c0.3,1.1,0.6,2.2,1,3.2c0.9-0.9,1.8-2,2.6-3.3l1.9,1.5c-1.3,1.2-2.8,2.1-4,2.7C60.1,23.7,61.7,25.4,63.8,26.7z"/>
	<path class="st1" d="M78.3,29.9c-1.6-0.5-3.2-1.3-4.6-2.5c-1.6,1.3-3.7,2.2-6.2,2.6l-0.3-0.8c2.3-0.8,4-1.8,5.3-3
		c-1.1-1.3-1.9-2.9-2.4-4.9c-0.7,3.6-2.1,6.6-4.6,8.5L65,29.2c2.6-3.1,3.3-6.9,3.4-12.4h-2.5v-1.1h9.9c-0.3,1.7-0.8,3.3-1.1,4.4h0.8
		l0.5-0.5l2,0.9c-0.7,2.2-1.6,4-2.9,5.5c1.3,0.7,2.7,1.2,4.3,1.6L78.3,29.9z M70.6,16.8c0,1.1-0.1,2.2-0.3,3.3h2.3
		c0.3-1,0.6-2.2,0.8-3.3H70.6z M75.5,21.1H71c0.6,1.7,1.5,2.9,2.6,3.9C74.5,23.8,75.1,22.5,75.5,21.1z"/>
	<path class="st1" d="M84.4,21.1v8.6h-1.9v-6.2c-0.4,0.4-0.8,0.7-1.1,1l-0.5-0.6c1.2-1.6,2.1-3.3,3-5.8l1.3,0.5v-0.1h1.3
		c0.1-0.5,0.1-0.9,0.2-1.4h-1.2v-0.9h1.3c0.1-0.5,0.1-1,0.2-1.4l1.7,0.1l-0.2,1.3h2.4v2.3H92v0.9h-6.6C85,20.1,84.7,20.7,84.4,21.1z
		 M81.5,20.2L81,19.6c1-1.2,1.9-3,2.5-4.8l1.8,0.8C84.4,17.4,82.8,19.2,81.5,20.2z M91.9,27.4h-2.3v2.3h-1.9v-2.3h-1.2
		c-0.1,0.3-0.1,0.6-0.2,0.9l-1.5-0.3c0.2-0.8,0.4-1.9,0.6-3l1.5,0.2c-0.1,0.4-0.1,0.8-0.2,1.2h1.1v-1.6h-2.8V24h2.8v-0.8h-2.3v-2.9
		h5.7v2.9h-1.6V24h2.2v0.9h-2.2v1.6h2.3V27.4z M89.3,21.1H87v1.2h2.4V21.1z M88.1,18.7h1.1v-1.4h-0.9C88.2,17.7,88.2,18.2,88.1,18.7
		z M95.4,20v1h-1v7c0,1.9-1.8,2.3-4.1,1l0.2-0.8c1.7,0.3,2,0.2,2-0.7v-6.5h-1.2v-1H95.4z M95.1,17h-3.7v-1h3.7V17z"/>
	<path class="st1" d="M111.3,27.9V29H97.5v-1.1h6v-3.8h-4.4V23h4.4v-3.2h-2.8c-0.7,1.3-1.6,2.5-2.6,3.4l-0.6-0.5
		c1.3-2,2.1-4.4,2.5-7.2l2.2,0.5c-0.2,0.9-0.5,1.9-0.9,2.8h2.3V15h2.2v3.8h4.6v1.1h-4.6V23h4.3v1.1h-4.3v3.8H111.3z"/>
</g>
<g>
	<path id="water_drop_00000106858922662067955760000018309509751742580637_" class="st1" d="M84.2,58C84.2,58,84.2,58,84.2,58
		C84.2,58,84.2,58,84.2,58c-3.3,11.2-16.9,20.5-16.9,31.5c0,1,0.1,2,0.3,2.9c1.4,7.6,8.1,13.5,16.2,13.7c0.1,0,0.3,0,0.4,0
		c0.1,0,0.3,0,0.4,0c8.1-0.2,14.8-6,16.2-13.7c0.2-1,0.3-1.9,0.3-2.9C101.1,78.5,87.5,69.2,84.2,58z M83.9,102.7
		C83.9,102.7,83.9,102.7,83.9,102.7c-6.4-0.2-11.8-4.7-12.9-10.8c-0.1-0.8-0.2-1.5-0.2-2.3c0-0.8,0.7-1.5,1.5-1.5
		c0.8,0,1.5,0.7,1.5,1.5c0,0.6,0.1,1.2,0.2,1.8c0.9,4.7,5.1,8.2,10,8.3c0.8,0,1.5,0.7,1.5,1.5C85.4,102,84.7,102.7,83.9,102.7z"/>
	<path id="water_drop_00000032644444529200289190000007916334085251335332_" class="st1" d="M43.8,58C43.8,58,43.8,58,43.8,58
		C43.8,58,43.8,58,43.8,58C40.5,69.2,27,78.5,27,89.5c0,1,0.1,2,0.3,2.9c1.4,7.6,8.1,13.5,16.2,13.7c0.1,0,0.3,0,0.4,0
		c0.1,0,0.3,0,0.4,0c8.1-0.2,14.8-6,16.2-13.7c0.2-1,0.3-1.9,0.3-2.9C60.7,78.5,47.2,69.2,43.8,58z M43.5,102.7
		C43.5,102.7,43.5,102.7,43.5,102.7c-6.4-0.2-11.8-4.7-12.9-10.8c-0.1-0.8-0.2-1.5-0.2-2.3c0-0.8,0.7-1.5,1.5-1.5
		c0.8,0,1.5,0.7,1.5,1.5c0,0.6,0.1,1.2,0.2,1.8c0.9,4.7,5.1,8.2,10,8.3c0.8,0,1.5,0.7,1.5,1.5C45,102,44.3,102.7,43.5,102.7z"/>
	<path id="water_drop_00000174582339215950135950000010666082850465958037_" class="st1" d="M124.5,58C124.5,58,124.5,58,124.5,58
		C124.5,58,124.5,58,124.5,58c-3.3,11.2-16.9,20.5-16.9,31.5c0,1,0.1,2,0.3,2.9c1.4,7.6,8.1,13.5,16.2,13.7c0.1,0,0.3,0,0.4,0
		c0.1,0,0.3,0,0.4,0c8.1-0.2,14.8-6,16.2-13.7c0.2-1,0.3-1.9,0.3-2.9C141.4,78.5,127.9,69.2,124.5,58z M124.2,102.7
		C124.2,102.7,124.2,102.7,124.2,102.7c-6.4-0.2-11.8-4.7-12.9-10.8c-0.1-0.8-0.2-1.5-0.2-2.3c0-0.8,0.7-1.5,1.5-1.5
		c0.8,0,1.5,0.7,1.5,1.5c0,0.6,0.1,1.2,0.2,1.8c0.9,4.7,5.1,8.2,10,8.3c0.8,0,1.5,0.7,1.5,1.5C125.7,102,125,102.7,124.2,102.7z"/>
</g>
</svg>
