<?xml version="1.0" encoding="utf-8"?>
<!-- Generator: Adobe Illustrator 25.4.1, SVG Export Plug-In . SVG Version: 6.00 Build 0)  -->
<svg version="1.1" id="圖層_1" xmlns="http://www.w3.org/2000/svg" xmlns:xlink="http://www.w3.org/1999/xlink" x="0px" y="0px"
	 viewBox="0 0 170 120" style="enable-background:new 0 0 170 120;" xml:space="preserve">
<style type="text/css">
	.st10{fill:#E11984;}
	.st1{fill:#FFFFFF;}
</style>
<g>
	<rect class="st10" width="170" height="120"/>
</g>
<g>
	<path class="st1" d="M10.7,17.3l-4.9,2.1V17l5.8-2H14v23.5h-3.1V17.3H10.7z"/>
	<path class="st1" d="M16.3,26.9c0-7.6,3.6-12.5,8.3-12.5c4.8,0,7.9,5,7.9,12.2c0,7.6-3.1,12.2-8.2,12.2
		C19.7,38.7,16.3,34.3,16.3,26.9z M29.1,26.7c0-5.5-1.5-10.5-4.7-10.5c-2.7,0-4.7,4.5-4.7,10.7c0,5.9,1.9,10,4.7,10
		C27.5,36.9,29.1,32.4,29.1,26.7z"/>
</g>
<g>
	<path class="st1" d="M42,20.9c-0.6-0.9-1.5-2-2.1-2.8l0.5-0.7c1,0.4,2.1,1.2,3,1.9L42,20.9z M43.4,21.7c-0.3,2.3-0.8,5-1.3,6.6
		l-2.1-1c0.9-1.5,1.9-3.8,2.7-5.9L43.4,21.7z M42.8,17.2c-0.6-0.9-1.5-2-2.1-2.8l0.5-0.6c0.9,0.4,2.2,1.3,3,2L42.8,17.2z M52.8,28.6
		c-0.9-0.3-1.5-1.1-2-2.3c-0.9,1-2.1,1.9-3.5,2.5l-0.4-0.7c1.5-1,2.6-2.1,3.4-3.4c-0.5-2.2-0.7-4.9-0.7-7.3h-3.7v2.7
		c0,4-0.4,6.8-2.2,8.7l-0.7-0.4c1-2.2,1.1-4.7,1.1-8.2v-3.8h5.6V14h1.9v2.4h1.2c-0.4-0.7-0.8-1.4-1.2-1.9L52,14
		c0.6,0.4,1.5,1.2,2,1.9l-0.8,0.5h1.1v1h-3c0,1.7,0.1,3.2,0.2,4.4c0.4-1,0.6-2.1,0.9-3.3l1.7,0.5c-0.5,2.1-1.1,3.9-2.1,5.5
		c0.2,0.9,0.5,1.5,0.9,1.8c0.4,0.4,0.5,0.1,0.5-2h0.8C54.9,27.8,54.4,29.2,52.8,28.6z M46.1,20.8h3.4v4.4h-2v1.2h-1.3V20.8z
		 M49.4,18.7v0.9h-3.3v-0.9H49.4z M47.5,24.3h0.7v-2.5h-0.7V24.3z"/>
	<path class="st1" d="M56.2,28.1c5.6-1.1,8.8-3.8,10.5-7.7l2.1,1.1c-2.2,4.2-6.4,7-12.4,7.4L56.2,28.1z M56.3,22.5
		c1.2-1.5,2.4-3.7,3.1-6.4l2.1,0.8c-1.1,2.5-2.9,4.9-4.7,6.2L56.3,22.5z M60.1,21.6c2,0.4,2.4,0.3,2.4-0.7V14h2.1v7.3
		c0,2-1.6,3-4.7,1.1L60.1,21.6z M65.5,16.7l0.5-0.7c1.7,0.9,3.6,2.4,4.8,3.6l-1.6,1.6C67.9,19.5,66.6,17.9,65.5,16.7z"/>
	<path class="st1" d="M80.3,17.9v10.8h-2.2v-7.8c-1.6,1.8-3.6,3.2-5.8,4.2L72,24.3c3.7-2.5,5.6-5.3,6.8-8.3h-6.2v-1.1h13.8V16h-5.2
		C81,16.6,80.7,17.3,80.3,17.9z M86.8,23.4L84.9,25c-1.1-1.6-2.8-4-4.4-5.7l0.6-0.7C83.2,19.8,85.7,22.1,86.8,23.4z"/>
	<path class="st1" d="M94.2,23h-5.9v-1.1h5.9v-6.1H89v-1.1h12.5v1.1h-5.2v6.1h6V23h-6v5.9h-2.2V23z M89.8,16.7l0.8-0.4
		c1.2,1.2,2.3,2.8,3,4.2l-2.1,0.9C91,19.7,90.5,18.2,89.8,16.7z M97,21c0.7-1.4,1.2-2.8,1.6-4.8l2.3,0.8c-1,1.9-1.9,3.2-3.2,4.4
		L97,21z"/>
	<path class="st1" d="M104.6,19.1l-0.5-0.6c1.2-1.4,1.8-2.9,2.3-4.7l2.1,0.5c-0.1,0.4-0.3,0.7-0.5,1.1h3.5v1h-2.6
		c0.4,0.5,0.9,1.2,1.1,1.8l-1.7,0.5c-0.1-0.7-0.3-1.5-0.4-2.3h-0.5C106.6,17.5,105.6,18.5,104.6,19.1z M115.2,22.1v1.2h2.7v1h-2.7
		v2.5c0,2-1.8,2.6-4.8,1l0.2-0.8c2.3,0.4,2.5,0.3,2.5-0.6v-2h-5.9c1,0.3,2.3,0.9,3.4,1.6l-1.2,1.6c-0.9-0.9-2.1-2-2.7-2.5l0.3-0.6
		h-2.2v-1h8.3v-1.2h-8.8v-1h6V20h-4.3v-1h4.3v-1.3h0.9l-0.3-0.3c0.8-1.1,1.3-2.3,1.7-3.7l2,0.5c-0.2,0.4-0.4,0.7-0.6,1.1h4.4v1h-3.1
		c0.4,0.4,0.8,1,1.2,1.6l-1.7,0.5c-0.1-0.7-0.3-1.5-0.5-2.1h-0.9c-0.4,0.5-0.9,1-1.5,1.4h0.6V19h4.3v1h-4.3v1.1h6v1H115.2z"/>
</g>
<path class="st1" d="M33.8,84.9c0-0.8-0.7-1.5-1.5-1.5h-8v-3.8c0-0.5-0.2-0.8-0.6-1c-0.5-0.2-1.1-0.1-1.4,0.2l-8.3,8.2
	c-0.6,0.6-0.6,1.5,0,2.1l8.3,8.3c0.3,0.3,0.9,0.4,1.4,0.2c0.2-0.1,0.6-0.3,0.6-0.8v-3.7l9.4,0L33.8,84.9z"/>
<path class="st1" d="M131.5,91.3c0,0.8,0.7,1.5,1.5,1.5l8,0v3.8c0,0.5,0.2,0.8,0.6,1c0.5,0.2,1.1,0.1,1.4-0.2l8.3-8.2
	c0.6-0.6,0.6-1.5,0-2.1l-8.3-8.3c-0.3-0.3-0.9-0.4-1.4-0.2c-0.2,0.1-0.6,0.3-0.6,0.8v3.7l-9.4,0L131.5,91.3z"/>
<g>
	<g>
		<g>
			<g>
				<path class="st1" d="M93.1,62c0.2-0.1,0.6,0.7,0.3,1.9c-0.4,1.4-2.2,3.2-2.3,4.4c-0.1,1.5,1.7,4,2.1,5.5
					c0.1,0.2-1.4,0.7-1.5,0.6c-0.8-0.6-3.7-3.4-3.8-6.1C87.8,65.9,91.6,62.8,93.1,62z"/>
			</g>
		</g>
		<g>
			<g>
				<g>
					<g>
						<path class="st1" d="M95,92.5c0.3-0.1,0.3-0.4,0.4-0.6c0,0,0.1-0.3,0.1-0.4c0-0.1,0.4-0.4,0.5-0.2c0.3,0.5,0.7-0.3,0.7-0.1
							c-0.1,0.6,0.2,1.5,0,1.5c-0.5,0.1-2.8,0.3-2.8,0.1C93.8,92.8,94.5,92.7,95,92.5z"/>
					</g>
				</g>
			</g>
		</g>
		<g>
			<g>
				<g>
					<g>
						<path class="st1" d="M100.9,92.5c0.3-0.1,0.3-0.4,0.4-0.6c0,0,0.1-0.3,0.1-0.4c0-0.1,0.4-0.4,0.5-0.2c0.3,0.5,0.7-0.3,0.7-0.1
							c-0.1,0.6,0.2,1.5,0,1.5c-0.5,0.1-2.8,0.3-2.8,0.1C99.7,92.8,100.4,92.7,100.9,92.5z"/>
					</g>
				</g>
			</g>
		</g>
		<g>
			<g>
				<g>
					<g>
						<g>
							<path class="st1" d="M99.4,72.1c-0.6-1.2-5-2.7-6.1-2.9c-0.1,1.2-0.7,1.9-1.4,3.2c-0.6,1-0.1,7.4,0.9,12.5
								c0.7,3.8,1.9,6.8,1.9,6.8s0,0.2,1.2,0.2c1.1,0,1.2-0.2,1.2-0.2s-1.1-6-1.2-8c-0.2-1.9-0.3-7.5-0.3-7.5l5.2,15.8
								c0,0,0.6,0.3,1.4,0.1c0.7-0.2,1-0.2,1-0.2S100.1,73.4,99.4,72.1z"/>
						</g>
					</g>
				</g>
			</g>
		</g>
		<g>
			<path class="st1" d="M99.8,73.5c-0.6,0.1-2.1,0.3-3.7,0.4C94,73.9,92,74,92,74s1.1,0.7,3.8,0.8c1.6,0,3.3,0,4.3-0.1
				C100,74.3,99.9,73.8,99.8,73.5z"/>
		</g>
		<g>
			<g>
				<g>
					<g>
						<g>
							<g>
								<path class="st1" d="M99.6,62.8c-0.3-0.6-2.4-1.2-3.4-1.2c-0.6,0-2.7,0.1-3.2,0.5c-0.6,0.5-0.6,2.1-0.9,4.1
									c-0.7,4.7-0.5,6.6-0.4,7.8c0.3,0.1,0.9,0.4,3.5,0.6c3,0.2,5.1-0.4,5.4-0.6C100,72.5,99.8,63.2,99.6,62.8z"/>
							</g>
						</g>
					</g>
				</g>
			</g>
		</g>
		<g>
			<g>
				<path class="st1" d="M96.6,61.6c0,0,0.3,0,0.4,0.3s-1.5,4.7-1.6,4.5c-0.1-0.2-0.3-4.6-0.1-4.7C95.5,61.6,96.6,61.6,96.6,61.6z"
					/>
			</g>
		</g>
		<g>
			<g>
				<g>
					<g>
						<path class="st1" d="M95.7,76.3C95.7,76.3,95.7,76.3,95.7,76.3c-0.4-0.6-0.7-0.5-1-0.7c0,0,0-0.1,0-0.1c0,0,0.1,0,0.1,0
							C95.2,75.8,95.5,75.7,95.7,76.3C95.8,76.3,95.8,76.3,95.7,76.3C95.7,76.3,95.7,76.3,95.7,76.3z"/>
					</g>
				</g>
			</g>
		</g>
		<g>
			<g>
				<path class="st1" d="M98,57.4c0,0,0.1-0.1,0.1-0.2c-0.1-0.2-0.2-0.1-0.3-0.1c-0.1,0-0.3-0.2-0.6-0.4c0,0,0,0,0,0c0,0,0,0,0,0
					c-0.3-0.2-0.5-0.4-0.8-0.5c-0.1-0.1-0.1-0.1-0.2-0.1c-0.2-0.1-0.7-0.1-0.9,0.1c-0.1,0.1,0.1,0.2,0.2,0.1
					c0.1-0.1,0.4-0.1,0.5-0.1c0,0,0,0,0.1,0c-0.4,0.1-0.9,0.2-1,0.7c-0.1,0.6,0,0.9,0,0.9c-0.1,1,2.2,2.6,2.2,2.4
					c0-0.3,1.2-0.9,1-1.6c-0.1-0.4,0.1-0.4,0.1-0.4s0.3,0,0.2-0.3C98.3,57.5,98,57.4,98,57.4z"/>
			</g>
		</g>
		<g>
			<g>
				<g>
					<g>
						<path class="st1" d="M97.2,59.2l0.3,3.2c0,0.3-0.6,1-1.9,0.7c-0.1,0-1-0.1-0.6-1l1.3-3.3L97.2,59.2z"/>
					</g>
				</g>
			</g>
		</g>
		<g>
			<g>
				<g>
					<g>
						<path class="st1" d="M96.6,58l0.5,1.6c0.1,0.5-0.3,1.1-0.8,1.2c-0.5,0.1-0.8,0.1-1.4,0c-0.5-0.1-0.7-0.5-0.7-1.1
							c0-0.8,0.3-1.5,0.5-1.8C95.1,57.1,96.2,57,96.6,58z"/>
					</g>
				</g>
			</g>
		</g>
		<g>
			<g>
				<path class="st1" d="M95.5,60.7l1,0.1c0,0-0.7,0.7-1.4,0.8L95.5,60.7z"/>
			</g>
		</g>
		<g>
			<g>
				<g>
					<g>
						<path class="st1" d="M96.8,59.7l0.2-1.6c0-0.1-0.2-0.4-0.4-0.3c0,0.3-0.2,1.1-0.3,1.2c-0.1,0.1-0.4-0.1-0.9-0.2
							c-0.4,0-0.9-0.1-1.2,0.1c-0.2,0.2,0,0.5-0.3,1c-0.3,0.5,0.2,1,0.8,1.1c0.6,0.1,1,0,1.5-0.1C96.9,60.7,96.9,60.2,96.8,59.7z"/>
					</g>
				</g>
			</g>
		</g>
		<g>
			<g>
				<g>
					<g>
						<path class="st1" d="M95.5,58.9c-0.2,0-0.5,0-1,0c-0.1,0-0.1,0.1-0.1,0.1c0.1,0.1,0.1,0.3,0.2,0.4c0.2,0.2,0.7,0.1,0.9-0.3
							C95.6,59,95.6,58.9,95.5,58.9z"/>
					</g>
				</g>
			</g>
		</g>
		<g>
			<g>
				<g>
					<g>
						<path class="st1" d="M97,58.4c0.1-0.2,0.2-0.4,0.4-0.2c0.3,0.3,0,1.1-0.5,1C96.6,59.2,97,58.5,97,58.4z"/>
					</g>
				</g>
			</g>
		</g>
		<g>
			<g>
				<g>
					<g>
						<g>
							<path class="st1" d="M95.1,58.6c-0.1,0-0.2-0.1-0.3-0.2c-0.1-0.1-0.1,0-0.1,0.1c0.1,0.1,0.2,0.1,0.3,0.2
								C95.2,58.7,95.2,58.6,95.1,58.6z"/>
						</g>
					</g>
				</g>
			</g>
		</g>
		<g>
			<g>
				<g>
					<path class="st1" d="M96.6,91.5C96.6,91.5,96.5,91.5,96.6,91.5c0-0.1-0.8-4-0.9-4.7c-0.1-0.4-0.1-1.3-0.2-2.1
						c-0.1-1-0.1-1.9-0.2-2.2c-0.2-0.5-0.2-2.9-0.2-3.4c0-0.5-0.1-2.9-0.1-3c0,0,0,0,0,0c0,0,0,0,0,0c0,0,0.1,2.5,0.1,3
						c0,0.5,0,2.9,0.2,3.4c0.1,0.3,0.1,1.3,0.2,2.2c0.1,0.9,0.1,1.8,0.2,2.1C95.9,87.5,96.6,91.4,96.6,91.5
						C96.6,91.5,96.6,91.5,96.6,91.5C96.6,91.5,96.6,91.5,96.6,91.5z"/>
				</g>
			</g>
		</g>
		<g>
			<g>
				<g>
					<path class="st1" d="M102.8,91.1C102.7,91.1,102.7,91.1,102.8,91.1c-0.1-0.1-1.2-4-1.4-4.8c-0.1-0.4-0.3-1.3-0.4-2.2
						c-0.2-1-0.3-2-0.4-2.3c-0.2-0.6-0.5-3-0.5-3.5c0-0.5-0.4-3-0.4-3c0,0,0,0,0,0c0,0,0,0,0,0c0,0,0.4,2.5,0.4,3
						c0,0.5,0.3,2.9,0.5,3.5c0.1,0.3,0.3,1.3,0.4,2.3c0.1,0.9,0.3,1.8,0.4,2.1C101.7,87.1,102.8,91,102.8,91.1
						C102.8,91.1,102.8,91.1,102.8,91.1C102.8,91.1,102.8,91.1,102.8,91.1z"/>
				</g>
			</g>
		</g>
		<g>
			<g>
				<path class="st1" d="M95.1,74.3C95.1,74.3,95.1,74.3,95.1,74.3c0.1,0,0.2-0.1,0.1-0.1c0,0-0.1-1.2-0.1-2.2c0-1,0.2-5.1,0.2-5.1
					c0-0.1-0.1-0.1-0.1-0.1c-0.1,0-0.2,0.1-0.2,0.1c0,0-0.2,4.2-0.2,5.2c0,1,0.1,2.2,0.1,2.2C95,74.2,95,74.3,95.1,74.3z"/>
			</g>
		</g>
		<g>
			<g>
				<path class="st1" d="M93.9,60.1c0.3,0.2,0.7,0.5,1.2,0.5c0.6,0.1,0.6,0,1.2,0c0.3,0,0.5-0.1,0.5-0.2c-0.1,0.2-0.2,0.4-0.5,0.4
					c-0.5,0.1-0.9,0.2-1.5,0.1C94.3,60.8,93.8,60.5,93.9,60.1z"/>
			</g>
		</g>
		<g>
			<path class="st1" d="M96,62.4C96.1,62.4,96.1,62.4,96,62.4c0.2,0,0.2-0.3,0.2-0.3c0-0.1-0.1-0.1-0.2-0.1c-0.1,0-0.3,0-0.3,0
				s-0.1,0.3-0.1,0.4c0,0,0,0,0.1,0c-0.1,0.4-0.3,1.6-0.5,2.5c0,0.9,0.1,1.7,0.1,1.7c0.1,0.1,0.3-0.6,0.6-1.3
				C96,63.9,96,62.8,96,62.4z"/>
		</g>
		<g>
			<g>
				<path class="st1" d="M96,61.9c0,0-0.3-0.4-0.3-0.6c-0.3,0.1-0.3,0.9-0.3,0.9L96,62l0.4,0.3c0,0,0.7-0.3,0.7-0.5
					c0-0.2-0.3-0.6-0.3-0.5C96.6,61.7,96,61.9,96,61.9z"/>
			</g>
		</g>
		<g>
			<g>
				<g>
					<g>
						<path class="st1" d="M95.8,58.1C95.7,58.1,95.7,58,95.8,58.1c-0.1,0.1-0.1,0.1-0.1,0.2c0,0.1,0.1,0.1,0.1,0.1
							C95.8,58.3,95.9,58.1,95.8,58.1z"/>
					</g>
				</g>
				<g>
					<g>
						<path class="st1" d="M94.8,58C94.8,58,94.7,58,94.8,58c-0.1,0.1-0.1,0.1-0.1,0.2c0,0.1,0.1,0.1,0.1,0.1
							C94.8,58.2,94.9,58,94.8,58z"/>
					</g>
				</g>
			</g>
			<g>
				<g>
					<path class="st1" d="M95.7,57.7c0.1,0,0.2,0,0.2,0c0.1,0,0.1,0.1,0.2,0.2c0,0,0,0,0,0l0,0c0,0,0,0,0,0c0,0,0,0-0.1,0
						C95.9,57.9,95.8,57.8,95.7,57.7C95.6,57.8,95.6,57.7,95.7,57.7z"/>
				</g>
			</g>
			<g>
				<g>
					<path class="st1" d="M94.7,57.7C94.7,57.7,94.7,57.7,94.7,57.7c0,0,0.1,0,0.1,0c0,0,0,0,0,0c0,0,0,0,0,0c0.1,0,0.1,0,0.2,0
						c0,0,0,0,0,0c0,0,0,0.1,0,0.1C94.9,57.7,94.8,57.7,94.7,57.7C94.7,57.8,94.7,57.7,94.7,57.7z"/>
				</g>
			</g>
		</g>
		<g>
			<g>
				<g>
					<path class="st1" d="M99.3,62.5c1.9,1.1,4,5.8,4.2,7.6c0.2,1.9-0.9,5.8-1.5,5.8c-0.1,0-1.5,0.1-1.6-0.3c-0.1-0.5,0.4-4,0.3-5
						c-0.2-1.7-1.2-4-1.7-4.4C98.2,65.6,98.6,62.1,99.3,62.5z"/>
				</g>
			</g>
			<g>
				<g>
					<g>
						<path class="st1" d="M100.8,75.7c0,0,0,0.3-0.1,0.4c-0.1,0.1-0.4,0.1-0.4,0.2c0,0.1,0.3,0.1,0.4,0.1c0.1,0,0.4-0.1,0.4-0.2
							C101.2,76.2,100.8,75.7,100.8,75.7z"/>
					</g>
				</g>
				<g>
					<g>
						<g>
							<path class="st1" d="M100.3,77.1l-0.1-0.7c0,0,0-0.1,0.1-0.1c0,0,0.1,0,0.1,0c1.7,0.2,1.7,0.2,1.7,0.2
								c0.1,0.1,0.1,0.1,0.1,0.5c0,0.2,0,0.3,0,0.3c0,0.1-0.1,0.2-0.2,0.2c-0.1,0-0.2-0.1-0.2-0.2c0-0.2,0-0.4,0-0.5
								c-0.2,0-0.9-0.1-1.3-0.2l0,0.5c0,0.1-0.1,0.2-0.2,0.2c0,0-0.1,0-0.1,0C100.4,77.2,100.3,77.1,100.3,77.1z M102.1,76.8
								L102.1,76.8L102.1,76.8z"/>
						</g>
					</g>
				</g>
				<g>
					<g>
						<path class="st1" d="M101.4,75.7c0,0,0.5,0.8,0.3,1.1c-0.1,0.1-0.8,0-0.9-0.1c-0.1,0,0.1-0.2,0.2-0.2c0-0.1,0.1-0.1-0.1-0.3
							c-0.1-0.2-0.3-0.5-0.2-0.6C100.9,75.6,101.3,75.4,101.4,75.7z"/>
					</g>
				</g>
				<g>
					<g>
						<polygon class="st1" points="104.5,77.1 98.3,76.8 98.7,81.5 105,82 						"/>
					</g>
					<g>
						<g>
							<polygon class="st1" points="97.8,81.3 98.3,76.8 98.7,81.5 98.2,81.2 							"/>
						</g>
					</g>
					<g>
						<g>
							<polygon class="st1" points="104.8,80.5 98.5,79.9 98.5,79.7 104.8,80.4 							"/>
						</g>
					</g>
				</g>
			</g>
		</g>
		<g>
			<path class="st1" d="M99.9,68.2c-0.1,0-0.1,0-0.1-0.1c0,0-0.4-0.8-0.9-1.7c-0.6-0.9-0.7-2.1-0.7-2.1c0-0.1,0-0.1,0.1-0.1
				c0.1,0,0.1,0,0.2,0.1c0,0,0.2,1.1,0.7,2c0.6,0.9,0.9,1.7,0.9,1.7C100.1,68.1,100.1,68.1,99.9,68.2C100,68.2,99.9,68.2,99.9,68.2z
				"/>
		</g>
	</g>
	<g>
		<g>
			<g>
				<g>
					<path class="st1" d="M51.2,92.1c0.3,0,0.5,0.3,0.5,0.4c0,0.1,0.4,0,0.6-0.1c0.2-0.1,0.3-0.3,0.5-0.6c0.1-0.2,0.3-0.2,0.4-0.2
						c0,0.1,0.1,0.2,0.1,0.3c0.1,0.2,0.1,0.7-0.1,0.7c-0.2,0.1-2.3,0.4-2.7,0.2C50.2,92.7,50.7,92.4,51.2,92.1z"/>
				</g>
			</g>
			<g>
				<g>
					<path class="st1" d="M52.8,91.8c-0.2,0.3-0.3,0.4-0.5,0.6c-0.2,0.1-0.6,0.2-0.6,0.1c0-0.1-0.2-0.3-0.5-0.4
						c0.3-0.2,0.6-0.4,0.7-0.5c0.1-0.3,0.1-0.8,0.2-0.9c0.1-0.1,0.9-0.1,0.9,0.1c0,0,0.1,0.4,0.2,0.7C53.1,91.6,52.9,91.7,52.8,91.8
						z"/>
				</g>
			</g>
		</g>
		<g>
			<g>
				<g>
					<path class="st1" d="M61.8,91.9c-0.3,0.1-0.4,0.3-0.5,0.4c0,0.1-0.4,0.1-0.6,0s-0.3-0.3-0.6-0.5c-0.1-0.1-0.3-0.2-0.4-0.2
						c0,0.1,0,0.2-0.1,0.3c-0.1,0.3,0,0.7,0.2,0.7c0.2,0.1,2.3,0.2,2.7,0C62.9,92.4,62.4,92.2,61.8,91.9z"/>
				</g>
			</g>
			<g>
				<g>
					<path class="st1" d="M60.2,91.8c0.2,0.2,0.3,0.4,0.6,0.5s0.6,0.2,0.6,0c0-0.1,0.2-0.4,0.5-0.4c-0.3-0.2-0.7-0.3-0.7-0.4
						c-0.1-0.3-0.2-0.8-0.3-0.9c-0.1-0.1-0.9,0-0.9,0.2c0,0,0,0.4-0.1,0.8C59.9,91.6,60,91.6,60.2,91.8z"/>
				</g>
			</g>
		</g>
		<g>
			<g>
				<g>
					<path class="st1" d="M50.3,80.5c0,0.3,0.3,2.1,0.4,2.8c0.3,2,0.8,7.6,0.8,7.6s0.5,0.3,1.4,0.3c1.5,0,2.2-0.3,2.2-0.3
						s-0.8-8.8-0.9-9.5c-0.3-3.1-0.6-6.2-0.6-6.6l5.2,16c0,0,0.5,0.2,1.5,0.2c1,0,1.5-0.2,1.5-0.2s-0.3-1.4-0.4-1.8l-0.7-2.7
						L60.5,85l-0.4-1.8c-1.5-7.2-3.2-11.6-3.9-13.5c-0.3,0-0.7,0.1-1.2,0.1c-0.1,0-0.1,0-0.2,0c-1.4,0-3.5-0.1-4.9-0.4
						c0,0.3-0.2,0.9-0.2,1.1c-0.2,0.9-0.1,3.5,0,4.7C49.8,76.6,50,78.4,50.3,80.5z"/>
				</g>
			</g>
		</g>
		<g>
			<path class="st1" d="M51.7,62.5c0,0-4.5,3.5-4.1,5.2c0.3,1.7,2.6,0.1,3.3-0.8C51.6,65.8,52.8,61.9,51.7,62.5z"/>
		</g>
		<g>
			<g>
				<path class="st1" d="M55.5,65.7c-0.1-1.8,0.1-2.5-0.9-3.2c-1.1-0.8-2.7-0.3-3.1,0.3c-1.4,1.7-1,1.7-1.2,4.2c0,0.3-0.1,0.6-0.1,1
					l0,0h0c-0.1,0.5-0.1,1-0.2,1.5c2,0.4,5.4,0.9,6.5,0.8C56.3,70,55.5,65.9,55.5,65.7z"/>
			</g>
		</g>
		<g>
			<g>
				<path class="st1" d="M52.8,72.3c0.3,0.5,0.4,1.1,0.6,1.6c0.1,0.3,0.2,0.5,0.3,0.8c0.1,0.2,0.3,0.5,0.3,0.7c0,0.1-0.2,0.1-0.2,0
					c0-0.3-0.2-0.5-0.3-0.7c-0.1-0.2-0.2-0.5-0.3-0.8c-0.2-0.5-0.3-1.1-0.6-1.6C52.6,72.3,52.8,72.1,52.8,72.3z"/>
			</g>
		</g>
		<g>
			<g>
				<path class="st1" d="M52.2,72.7c0.3,0.2,0.6,0.6,0.9,0.7c0.1,0,0.1,0.2-0.1,0.2c-0.4-0.1-0.8-0.4-1-0.7
					C51.9,72.7,52.1,72.6,52.2,72.7z"/>
			</g>
		</g>
		<g>
			<g>
				<path class="st1" d="M50.7,59.7c0-0.2,0.1-0.6,0.5-0.9s1.2-0.2,1.7,0.1c0.5,0.2,1.1,2.1,0.2,2.4C52.2,61.6,50.6,60.4,50.7,59.7z
					"/>
			</g>
		</g>
		<g>
			<g>
				<g>
					<g>
						<path class="st1" d="M52.8,60.8l1.1,1.6c0.2,0.3-0.1,1.4-0.9,1.3c-0.2,0-0.3-0.5-0.3-0.9l-0.4-1.4L52.8,60.8z"/>
					</g>
				</g>
			</g>
			<g>
				<g>
					<g>
						<path class="st1" d="M52.4,60c0,0,0.2,0.3,0.3,0.6c0.2,0.5,0,0.9-0.5,1.2c-0.5,0.3-0.7,0.2-1,0c-0.1-0.1-0.2-0.2-0.2-0.3
							c-0.1-0.2-0.2-0.5-0.1-0.8c0-0.1,0-0.3,0-0.4c0-0.5,0.3-0.7,0.8-0.5C51.8,59.8,51.8,59.9,52.4,60z"/>
					</g>
				</g>
			</g>
			<g>
				<g>
					<g>
						<path class="st1" d="M52.6,60.4c0-0.1,0-0.1,0-0.2c0-0.1,0-0.3,0.2-0.2c0.3,0.1,0.2,0.8-0.1,0.8
							C52.6,60.9,52.6,60.5,52.6,60.4z"/>
					</g>
				</g>
			</g>
			<g>
				<g>
					<g>
						<path class="st1" d="M52.7,61.2c0.1,0.1,0.2,0.8-0.2,1.1l-0.2-0.5c0-0.1-0.1-0.1-0.2-0.1c0,0,0,0,0,0
							c-0.4,0.2-0.6,0.2-0.9,0.1c0.1,0,0.4,0,0.6-0.1C52.3,61.5,52.6,61.1,52.7,61.2z"/>
					</g>
				</g>
			</g>
		</g>
		<g>
			<g>
				<path class="st1" d="M51.8,60c-0.1,0-0.2-0.1-0.3,0c0,0,0,0.1,0,0.1C51.6,60.1,51.7,60.1,51.8,60C51.9,60.1,51.9,60,51.8,60z"/>
			</g>
		</g>
		<g>
			<g>
				<path class="st1" d="M50.8,60.3c0-0.1,0.1-0.1,0.2-0.1c0,0,0.1,0,0,0.1C50.9,60.3,50.9,60.3,50.8,60.3
					C50.8,60.4,50.8,60.3,50.8,60.3z"/>
			</g>
		</g>
		<g>
			<g>
				<path class="st1" d="M53.8,60.1c0,0,0.5-0.1,0.6,0.2c0.2,0.3,0.2,0.8-0.2,0.9c-0.4,0.1-0.8-0.3-0.9-0.5
					C53.3,60.6,53.4,60.1,53.8,60.1z"/>
			</g>
		</g>
		<g>
			<path class="st1" d="M51.8,61.1c0,0-0.4-0.1-0.6,0C51,61.2,51,61.3,51,61.3C51.1,61.3,51.8,61.1,51.8,61.1z"/>
		</g>
		<g>
			<g>
				<path class="st1" d="M51.3,60.9C51.3,60.9,51.4,60.9,51.3,60.9C51.3,60.8,51.3,60.8,51.3,60.9c-0.1,0-0.2-0.1-0.2-0.1
					c0,0,0,0,0,0c0,0,0,0,0,0C51.1,60.8,51.2,60.9,51.3,60.9C51.3,60.9,51.3,60.9,51.3,60.9z"/>
			</g>
		</g>
		<g>
			<g>
				<path class="st1" d="M51.6,60.4C51.6,60.4,51.6,60.4,51.6,60.4c0.1,0,0.1,0,0.1,0C51.7,60.3,51.6,60.3,51.6,60.4
					C51.6,60.3,51.6,60.3,51.6,60.4z"/>
			</g>
		</g>
		<g>
			<g>
				<path class="st1" d="M50.9,60.5C50.9,60.5,51,60.6,50.9,60.5c0.1,0,0.1,0,0.1,0C51,60.4,51,60.4,50.9,60.5
					C50.9,60.4,50.9,60.4,50.9,60.5z"/>
			</g>
		</g>
		<g>
			<g>
				<path class="st1" d="M54.4,62.5c1-0.5,4.2,4.5,3.7,6.2c-0.7-0.8-2.3-1.3-2.3-1.3S53.2,63.2,54.4,62.5z"/>
			</g>
		</g>
		<g>
			<g>
				<path class="st1" d="M54.9,65.8C54.9,65.8,54.9,65.8,54.9,65.8C55,65.8,55,65.7,54.9,65.8c-0.8-1.3-0.8-2.5-0.8-2.5
					c0,0,0-0.1-0.1-0.1h0c0,0-0.1,0-0.1,0.1C54,63.3,54,64.5,54.9,65.8C54.9,65.8,54.9,65.8,54.9,65.8z"/>
			</g>
		</g>
		<g>
			<g>
				<g>
					<path class="st1" d="M50,69.2c0,0,0.7-2.2,0.9-2.9c0.3-0.7,1.2-2.3,1.2-2.3l3.6,1.4c0,0-1.5,2.7-1.7,4.7
						C54,70.1,51.5,70.3,50,69.2z"/>
				</g>
			</g>
			<g>
				<g>
					<path class="st1" d="M49.9,68.8c0,0,0.9-2.1,1.2-2.8c0.3-0.6,1.2-1.8,1.2-1.8l3.7,1.3c0,0-1.7,2.6-2.2,4.5
						C53.8,70.1,51.4,70,49.9,68.8z"/>
				</g>
			</g>
			<g>
				<g>
					<path class="st1" d="M50.1,69.6c0,0,1.4-2.8,1.7-3.4c0.3-0.6,0.7-1.4,0.7-1.4l3.7,1.3c0,0-1.4,2.6-1.6,4.6
						C54.6,70.6,51.5,70.8,50.1,69.6z"/>
				</g>
			</g>
		</g>
		<g>
			<path class="st1" d="M54.7,69.8c-0.3-0.1-0.6-0.2-1.1-0.4c-1-0.4-2.1-1.1-2.1-1.1L55,69C54.9,69.2,54.8,69.5,54.7,69.8z"/>
		</g>
		<g>
			<g>
				<path class="st1" d="M56.2,67.2c0,0,1.7,0.4,1.9,1.5c0,0,0,0,0,0.1c-0.6,1.6-6.9-0.3-7.4-0.9C50.3,67.3,56.2,67.2,56.2,67.2z"/>
			</g>
		</g>
		<g>
			<g>
				<path class="st1" d="M55.8,67.2C55.8,67.2,55.8,67.2,55.8,67.2c0.4-0.3,0.8-0.1,0.8-0.1c0,0,0,0,0,0c0,0,0,0,0,0
					C56.6,67.1,56.1,66.9,55.8,67.2C55.7,67.2,55.7,67.2,55.8,67.2C55.7,67.2,55.7,67.2,55.8,67.2z"/>
			</g>
		</g>
		<g>
			<g>
				<path class="st1" d="M48.4,66.6c-1.2,0.3-0.7,1.5-0.6,1.5c0.7,1.6,5.6-0.8,5.8-1.4C53.8,66.2,49.3,66.4,48.4,66.6z"/>
			</g>
		</g>
		<g>
			<g>
				<path class="st1" d="M57.2,67.7C57.2,67.7,57.2,67.7,57.2,67.7C57.3,67.6,57.3,67.6,57.2,67.7c-0.5-0.5-1.6-0.5-1.6-0.5
					c0,0,0,0,0,0c0,0,0,0,0,0C55.6,67.2,56.7,67.2,57.2,67.7C57.2,67.7,57.2,67.7,57.2,67.7z"/>
			</g>
		</g>
		<g>
			<path class="st1" d="M53.1,66.2c0.1-0.2,0.2-0.5,0.3-0.4c0.1,0.2-0.1,0.4,0,0.5c0.1,0.1,0.9-0.2,1,0c0,0.1-0.5,0.2-0.5,0.2
				c0,0,0.5-0.1,0.5,0c0,0.2-0.1,0.3-0.3,0.4c0.1,0,0.1,0,0.1,0.1c0,0.1-1.6,0.4-1.5-0.3C52.8,66.5,52.9,66.5,53.1,66.2z"/>
		</g>
		<g>
			<path class="st1" d="M51.1,68.2C51.1,68.2,51.1,68.1,51.1,68.2C51.1,68.1,51.1,68.1,51.1,68.2c0.5-0.2,1.6-0.8,1.6-0.8
				c0,0,0,0,0.1,0c0,0,0,0,0,0.1C52.7,67.4,51.6,68,51.1,68.2C51.1,68.1,51.1,68.2,51.1,68.2z"/>
		</g>
	</g>
	<g>
		<g>
			<g>
				<g>
					<g>
						<path class="st1" d="M71,91.1c0.2,0.2,0.7,1,1,1.1c0.2,0,0.5,0,0.6,0c-0.2-0.1-0.9-1.2-0.6-2.8l-1.3,0.1c0,0,0.1,1.3,0.1,1.4
							C70.9,90.8,70.9,91,71,91.1z"/>
					</g>
				</g>
			</g>
			<g>
				<g>
					<g>
						<path class="st1" d="M73.3,92.5c-0.1-0.1-0.3-0.2-0.6-0.3c0,0-0.1,0-0.1-0.1c-0.1,0-0.4,0-0.6,0c-0.3,0-0.8-0.9-1-1.1
							c-0.1-0.1-0.1-0.3-0.3-0.3c-0.1,0.2-0.3,0.5-0.3,0.7c0,0.3,0,1,0.1,1.3h0.4l0-0.7c0,0,0.3,0,0.4,0.1c0,0.1,0.1,0.2,0.1,0.3
							c0,0.2,0.2,0.3,0.5,0.3h1.2C73.3,92.8,73.4,92.6,73.3,92.5z"/>
					</g>
				</g>
			</g>
		</g>
		<g>
			<g>
				<g>
					<g>
						<path class="st1" d="M63.7,91.1c0.1,0.2,0.5,1,0.8,1.1c0.2,0,0.5,0,0.6,0c-0.1-0.1-0.7-1.2-0.2-2.8l-1.3,0.1
							c0,0-0.1,1.3-0.2,1.4C63.6,90.8,63.6,91,63.7,91.1z"/>
					</g>
				</g>
			</g>
			<g>
				<g>
					<g>
						<path class="st1" d="M65.7,92.5c-0.1-0.1-0.2-0.2-0.5-0.3c0,0-0.1,0-0.1-0.1c-0.1,0-0.4,0-0.6,0c-0.3,0-0.7-0.9-0.8-1.1
							c-0.1-0.1-0.1-0.3-0.2-0.3c-0.1,0.2-0.4,0.5-0.4,0.7c0,0.3-0.1,1-0.2,1.3h0.4l0.1-0.7c0,0,0.3,0,0.4,0.1c0,0.1,0,0.2,0.1,0.3
							c0,0.2,0.2,0.3,0.4,0.3h1.2C65.6,92.8,65.8,92.6,65.7,92.5z"/>
					</g>
				</g>
			</g>
		</g>
		<g>
			<g>
				<g>
					<path class="st1" d="M70.4,59.2c0,0,0.1-0.2,0.7-0.1c0.4,0,0.9,0.5,0.8,0.8c0,0.2-0.1,0.3-0.1,0.5c0,0.2,0.1,0.2,0.2,0.4
						c0.1,0.2-0.1,0.9-0.1,1c0.4,2.9-3.2,2.1-3.3,0.9c-0.2-1.8,0.5-2.6,0.7-2.8C69.7,59.2,70.4,59.2,70.4,59.2z"/>
				</g>
			</g>
		</g>
		<g>
			<path class="st1" d="M70.7,63.2c0,0-0.1,1.1,0.1,2.1c0.5,3.1,1.2,8.6,1.6,10c0.3,1,0.8-0.2,0.8-1.2c0.1-1-0.6-9.6-1.1-10.4
				C71.6,62.8,70.7,62.9,70.7,63.2z"/>
		</g>
		<g>
			<g>
				<g>
					<path class="st1" d="M67,70.2c0.8-2.4,4.9-2.7,5.6-0.6c0.2,0.7,0.5,1.5,0.8,3.7c0.4,4-0.8,17.2-1.2,17.4
						c-0.4,0.2-1.8,0.5-1.9,0.1c-0.1-0.5-0.3-13.7-0.2-15.4c-0.1,0.5-4.8,15-5.1,15.4c-0.3,0.3-1.3,0-1.8-0.3c-0.1-0.1,3-14,3-14
						S66.5,71.7,67,70.2z"/>
				</g>
			</g>
		</g>
		<g>
			<g>
				<g>
					<path class="st1" d="M67.3,69.5c0.4-3.4-0.3-4.5,0.2-5.6c0.4-0.8,1.3-1.3,2.6-1.2c1.4,0.1,1.7,0.8,2.1,1.5
						c0.6,0.9,0.3,2.2,0.3,4.4c0,0.6,0.1,0.5,0.1,1.2c0,0.5-1.4,0.7-2.7,0.6C68.7,70.2,67.3,70,67.3,69.5z"/>
				</g>
			</g>
		</g>
		<g>
			<g>
				<g>
					<path class="st1" d="M69.6,60.9l-0.4,1L69,62.2c-0.1,0.2,0.4,1,0.9,0.8c0.1,0,0.2-0.4,0.2-0.6l0-1.2L69.6,60.9z"/>
				</g>
			</g>
		</g>
		<g>
			<g>
				<g>
					<path class="st1" d="M70,61.9l0-0.5l-0.4-0.2C69.6,61.1,69.6,61.7,70,61.9z"/>
				</g>
			</g>
		</g>
		<g>
			<g>
				<g>
					<path class="st1" d="M70,60.2l-0.4,0.3c-0.2,0.4-0.1,0.9,0.3,1c0.5,0.2,0.8,0.2,1-0.2c0.1-0.3,0.1-0.8,0-1.1
						c0-0.3-0.2-0.4-0.4-0.5C70.4,59.7,70.5,60,70,60.2z"/>
				</g>
			</g>
		</g>
		<g>
			<g>
				<g>
					<path class="st1" d="M70.3,61.5c-0.2-0.1-0.2-0.1-0.4-0.2c-0.2-0.1-0.3-0.1-0.3-0.1c0.1,0.1,0.2,0.2,0.3,0.3
						c0.4,0.2,0.7,0.2,0.9,0C70.7,61.5,70.4,61.6,70.3,61.5z"/>
				</g>
			</g>
		</g>
		<g>
			<g>
				<g>
					<path class="st1" d="M70.6,60.8c0.1,0,0.1,0,0.2-0.1c0,0,0.1,0,0,0.1C70.8,60.9,70.7,60.9,70.6,60.8
						C70.6,60.9,70.5,60.8,70.6,60.8z"/>
				</g>
			</g>
		</g>
		<g>
			<g>
				<g>
					<path class="st1" d="M69.7,60.5c0,0,0-0.1,0-0.1c0-0.1,0-0.2-0.2-0.1c-0.2,0.1-0.1,0.6,0.1,0.6C69.8,60.8,69.7,60.6,69.7,60.5z
						"/>
				</g>
			</g>
		</g>
		<g>
			<g>
				<g>
					<path class="st1" d="M70.4,60.2c-0.1,0-0.2,0-0.2,0c0,0,0,0.1,0,0C70.3,60.3,70.4,60.3,70.4,60.2
						C70.5,60.3,70.5,60.2,70.4,60.2z"/>
				</g>
			</g>
		</g>
		<g>
			<g>
				<g>
					<path class="st1" d="M71,60.4c0,0-0.1-0.1-0.1-0.1c0,0-0.1,0,0,0C70.9,60.3,71,60.4,71,60.4C71,60.4,71.1,60.4,71,60.4z"/>
				</g>
			</g>
		</g>
		<g>
			<g>
				<path class="st1" d="M70,75.6C70,75.6,70,75.6,70,75.6C70,75.6,69.9,75.6,70,75.6c-0.1-0.2,0.3-1.9,1-2.7c0,0,0.1,0,0.1,0
					c0,0,0,0.1,0,0.1C70.4,73.8,70.1,75.5,70,75.6C70.1,75.6,70,75.6,70,75.6z"/>
			</g>
		</g>
		<g>
			<g>
				<path class="st1" d="M67.2,73.3C67.1,73.3,67.1,73.2,67.2,73.3c-0.1-0.1-0.1-0.1,0-0.1c0.7-0.5,0.8-1.2,0.8-1.2
					c0,0,0-0.1,0.1-0.1c0,0,0.1,0,0.1,0.1C68.1,71.9,68,72.7,67.2,73.3C67.2,73.2,67.2,73.3,67.2,73.3z"/>
			</g>
		</g>
		<g>
			<g>
				<path class="st1" d="M63.4,90.2C63.4,90.2,63.4,90.2,63.4,90.2C63.3,90.2,63.3,90.2,63.4,90.2c0,0,0-0.3,0.1-0.5
					c0-0.1,0.5-2.2,0.8-3.5c0.1-0.4,0.2-0.8,0.2-0.9c0.1-0.5,1.1-4.6,1.3-5.3c0.2-0.5,0.5-2.2,0.7-3.3c0.1-0.4,0.1-0.7,0.2-0.9
					c0.1-0.8,0.6-2.7,0.6-2.7c0,0,0,0,0,0c0,0,0,0,0,0c0,0-0.5,2-0.6,2.7c0,0.2-0.1,0.5-0.2,0.9c-0.2,1.1-0.5,2.8-0.7,3.3
					c-0.2,0.6-1.2,4.7-1.3,5.2c0,0.2-0.1,0.5-0.2,0.9c-0.3,1.3-0.7,3.4-0.8,3.5C63.5,89.9,63.4,90.2,63.4,90.2
					C63.4,90.2,63.4,90.2,63.4,90.2z"/>
			</g>
		</g>
		<g>
			<g>
				<path class="st1" d="M70.6,90.7C70.6,90.7,70.6,90.7,70.6,90.7C70.5,90.7,70.5,90.7,70.6,90.7c0-0.1,0-0.4,0.1-0.6
					c0-0.1,0-1.2-0.1-3l0,0c0-0.3,0.1-2.2,0.1-2.8c0-0.4,0-2,0-4.9l0-0.2c0-0.5,0-5.1,0-5.1c0,0,0,0,0,0h0c0,0,0,0,0,0
					c0,0,0,4.6,0,5.1l0,0.2c0,2.9,0,4.5,0,4.9c0,0.6-0.2,2.5-0.1,2.8l0,0c0.1,1.3,0.1,2.9,0.1,3C70.7,90.3,70.6,90.6,70.6,90.7
					C70.6,90.7,70.6,90.7,70.6,90.7z"/>
			</g>
		</g>
		<g>
			<g>
				<path class="st1" d="M70.5,61.2C70.4,61.2,70.4,61.2,70.5,61.2C70.4,61.1,70.4,61.1,70.5,61.2c0-0.1,0.2-0.2,0.4-0.2
					c0,0,0,0,0,0.1c0,0,0,0-0.1,0C70.7,61.1,70.5,61.2,70.5,61.2C70.5,61.2,70.5,61.2,70.5,61.2z"/>
			</g>
		</g>
		<g>
			<g>
				<g>
					<path class="st1" d="M70.3,60.5C70.3,60.5,70.3,60.5,70.3,60.5C70.3,60.5,70.2,60.5,70.3,60.5C70.2,60.5,70.3,60.5,70.3,60.5
						c-0.1,0,0.1,0,0.1-0.1c0,0,0,0,0,0c0,0,0,0,0,0C70.4,60.5,70.4,60.5,70.3,60.5z"/>
				</g>
			</g>
			<g>
				<g>
					<path class="st1" d="M70.5,60.5C70.5,60.5,70.5,60.5,70.5,60.5c-0.1,0.1-0.1,0-0.1,0C70.4,60.5,70.5,60.5,70.5,60.5z"/>
				</g>
			</g>
		</g>
		<g>
			<g>
				<g>
					<path class="st1" d="M71,60.6c-0.1,0-0.1,0-0.2,0c0,0,0,0,0,0c0,0,0,0,0,0C70.8,60.5,70.9,60.5,71,60.6
						C71,60.5,71,60.5,71,60.6C71,60.5,71,60.5,71,60.6C71,60.6,71,60.6,71,60.6z"/>
				</g>
			</g>
			<g>
				<g>
					<path class="st1" d="M71,60.5C71,60.5,71,60.6,71,60.5c-0.1,0.1-0.1,0-0.1,0C70.9,60.5,71,60.5,71,60.5z"/>
				</g>
			</g>
		</g>
		<g>
			<g>
				<path class="st1" d="M66.6,75.1c0.2,0.1,0,0.3,0.1,0.5c0,0.1,0.2,0.2,0.2,0.3c0,0.1-0.3,0.1-0.4,0c-0.1,0-0.2-0.4-0.2-0.4
					C66.2,75.5,66.4,75,66.6,75.1z"/>
			</g>
		</g>
		<g>
			<path class="st1" d="M67.7,63.7c0,0-0.5,0.8-0.6,1.9c-0.3,3.1-1.2,8.6-1.1,10c0,1,0.8,0,1.1-1c0.4-1,2-9.4,1.7-10.3
				C68.5,63.3,67.9,63.5,67.7,63.7z"/>
		</g>
		<g>
			<g>
				<g>
					<path class="st1" d="M66.8,76.7C66.8,76.7,66.8,76.7,66.8,76.7c-0.2,0-0.2-0.1-0.2-0.1l0.1-0.4c-0.4,0-1,0.1-1.2,0.1
						c0,0.1,0,0.3,0,0.4c0,0.1-0.1,0.1-0.2,0.1c-0.1,0-0.1-0.1-0.1-0.1c0,0,0-0.1,0-0.3c0-0.3,0-0.4,0.1-0.4c0,0,0.1,0,1.5-0.2
						c0,0,0.1,0,0.1,0c0,0,0,0.1,0,0.1l-0.1,0.6C66.9,76.6,66.9,76.7,66.8,76.7z M65.4,76.2L65.4,76.2L65.4,76.2z"/>
				</g>
			</g>
		</g>
		<g>
			<g>
				<path class="st1" d="M66,75.1c0,0-0.4,0.8-0.3,1.1c0.1,0.2,0.6,0.1,0.7,0.1c0.1,0-0.2-0.3-0.1-0.4c0.1-0.2,0.3-0.4,0.2-0.5
					C66.5,75.2,66.1,74.9,66,75.1z"/>
			</g>
		</g>
		<g>
			<g>
				<polygon class="st1" points="62.7,80.4 68.2,80.4 68.6,76.4 63.2,76.7 				"/>
			</g>
		</g>
		<g>
			<g>
				<polygon class="st1" points="69,80.4 68.6,76.4 68.2,80.4 				"/>
			</g>
		</g>
		<g>
			<g>
				<polygon class="st1" points="62.8,79.3 68.3,79.3 68.3,79.1 62.9,79.2 				"/>
			</g>
		</g>
	</g>
	<g>
		<g>
			<g>
				<g>
					<rect x="61.6" y="95.1" class="st1" width="22.8" height="1.4"/>
				</g>
			</g>
			<g>
				<g>
					<g>
						<path class="st1" d="M62.3,92.9v3.9c0,0.6-0.5,1.1-1.2,1.1l0,0c-0.6,0-1.2-0.5-1.2-1.1v-3.9C59.9,92.3,62.3,92.3,62.3,92.9z"
							/>
					</g>
				</g>
				<g>
					<g>
						<g>
							<path class="st1" d="M41.5,90.8L41.5,90.8c0,1.4,1.2,2.5,2.7,2.5H78c1.5,0,2.7-1.1,2.7-2.5l0,0H41.5z"/>
						</g>
					</g>
				</g>
				<g>
					<g>
						<polygon class="st1" points="62.3,93.7 59.9,93.9 59.9,93.2 62.3,93.2 						"/>
					</g>
				</g>
			</g>
		</g>
		<g>
			<g>
				<g>
					
						<rect x="80.9" y="95.1" transform="matrix(-1 -1.224647e-16 1.224647e-16 -1 184.9747 191.5719)" class="st1" width="23.2" height="1.3"/>
				</g>
			</g>
			<g>
				<g>
					<g>
						<path class="st1" d="M103.5,92.9v3.9c0,0.6,0.5,1.1,1.2,1.1l0,0c0.6,0,1.2-0.5,1.2-1.1v-3.9C105.8,92.3,103.5,92.3,103.5,92.9
							z"/>
					</g>
				</g>
				<g>
					<g>
						<g>
							<path class="st1" d="M124.2,90.8L124.2,90.8c0,1.4-1.2,2.5-2.7,2.5H87.8c-1.5,0-2.7-1.1-2.7-2.5l0,0H124.2z"/>
						</g>
					</g>
				</g>
				<g>
					<g>
						<polygon class="st1" points="103.5,93.7 105.8,93.9 105.8,93.2 103.5,93.2 						"/>
					</g>
				</g>
			</g>
		</g>
		<g>
			<g>
				<g>
					<rect x="61.6" y="95.1" class="st1" width="23.2" height="1.3"/>
				</g>
			</g>
			<g>
				<g>
					<g>
						<path class="st1" d="M62.3,92.9v3.9c0,0.6-0.5,1.1-1.2,1.1l0,0c-0.6,0-1.2-0.5-1.2-1.1v-3.9C59.9,92.3,62.3,92.3,62.3,92.9z"
							/>
					</g>
				</g>
				<g>
					<g>
						<g>
							<path class="st1" d="M41.6,90.8L41.6,90.8c0,1.4,1.2,2.5,2.7,2.5H78c1.5,0,2.7-1.1,2.7-2.5l0,0H41.6z"/>
						</g>
					</g>
				</g>
				<g>
					<g>
						<polygon class="st1" points="62.3,93.7 59.9,93.9 59.9,93.2 62.3,93.2 						"/>
					</g>
				</g>
			</g>
		</g>
		<g>
			<g>
				<g>
					<path class="st1" d="M85,98.6c0,0-0.2-0.1-0.5-0.1h-1.7h-1.7c-0.2,0-0.4,0-0.5,0.1l-1.8,6c-0.1,0.2,7.9,0.2,7.8,0L85,98.6z"/>
				</g>
			</g>
			<g>
				<g>
					<path class="st1" d="M91.7,104.3H74.1c-0.8,0-1.4,0.6-1.4,1.3l0,0h20.5l0,0C93.1,104.9,92.5,104.3,91.7,104.3z"/>
				</g>
			</g>
			<g>
				<g>
					<path class="st1" d="M94.1,105.3H71.6c-1,0-1.8,0.7-1.8,1.6l0,0v1.5c0,0.5,0.4,0.9,1,0.9h0.9c0.5,0,1-0.4,1-0.9v-0.9
						c0-0.4,0.3-0.6,0.7-0.6h19c0.4,0,0.7,0.3,0.7,0.6v0.9c0,0.5,0.4,0.9,1,0.9H95c0.5,0,1-0.4,1-0.9v-1.5l0,0
						C96,106,95.1,105.3,94.1,105.3z"/>
				</g>
			</g>
			<g>
				<g>
					<ellipse class="st1" cx="82.9" cy="95.8" rx="3.3" ry="3"/>
				</g>
			</g>
			<g>
				<g>
					<ellipse class="st1" cx="82.9" cy="95.8" rx="1.5" ry="1.4"/>
				</g>
			</g>
			<g>
				<g>
					<path class="st1" d="M80.8,94.6c0,0-0.1,0-0.1,0c-0.1-0.1-0.1-0.2-0.1-0.3c0.3-0.4,0.7-0.8,1.2-0.9c0.1,0,0.2,0,0.3,0.1
						c0,0.1,0,0.2-0.1,0.3c-0.4,0.2-0.8,0.4-1,0.8C81,94.6,80.9,94.6,80.8,94.6z"/>
				</g>
			</g>
			<g>
				<g>
					<path class="st1" d="M80.4,95.5C80.4,95.5,80.4,95.5,80.4,95.5c-0.2,0-0.2-0.1-0.2-0.2c0,0,0-0.2,0.1-0.4
						c0-0.1,0.2-0.2,0.3-0.1c0.1,0,0.2,0.2,0.1,0.3c-0.1,0.2-0.1,0.3-0.1,0.3C80.6,95.4,80.5,95.5,80.4,95.5z"/>
				</g>
			</g>
			<g>
				<g>
					<path class="st1" d="M80.4,103.4C80.4,103.4,80.4,103.4,80.4,103.4c-0.2,0-0.2-0.1-0.2-0.3l0.9-3.6c0-0.1,0.1-0.2,0.3-0.2
						c0.1,0,0.2,0.1,0.2,0.2l-0.9,3.6C80.6,103.3,80.5,103.4,80.4,103.4z"/>
				</g>
			</g>
		</g>
	</g>
	<g>
		<g>
			<g>
				<g>
					<path class="st1" d="M119.6,92.3c-0.3-0.1-0.3-0.3-0.4-0.6c0,0-0.1-0.3-0.1-0.4c0-0.1-0.3-0.4-0.5-0.2
						c-0.3,0.4-0.7-0.3-0.6-0.1c0.1,0.6-0.2,1.4,0,1.5c0.5,0.1,2.7,0.3,2.8,0.1C120.7,92.5,120.1,92.5,119.6,92.3z"/>
				</g>
			</g>
		</g>
		<g>
			<g>
				<g>
					<path class="st1" d="M113.3,92.3c-0.3-0.1-0.3-0.3-0.4-0.6c0,0-0.1-0.3-0.1-0.4c0-0.1-0.3-0.4-0.5-0.2
						c-0.3,0.4-0.7-0.3-0.6-0.1c0.1,0.6-0.2,1.4,0,1.5c0.5,0.1,2.7,0.3,2.8,0.1C114.5,92.5,113.8,92.5,113.3,92.3z"/>
				</g>
			</g>
		</g>
		<g>
			<g>
				<path class="st1" d="M115.8,64.5c0.1-1.2,0.5-1.3,0.8-1.1c1.8,1.1,5.6,7.2,3.1,8c-1.9,0.6-2.3-2-2.3-2S115.7,65.3,115.8,64.5z"
					/>
			</g>
			<g>
				<path class="st1" d="M112.2,58.7c0,0-0.4,0-0.5,0.4c-0.1,0.5,0.8,2.3,1.2,2.1C113.3,61,112.2,58.7,112.2,58.7z"/>
			</g>
			<g>
				<path class="st1" d="M114.9,58.5c0,0,0.5-0.8-0.1-1.2c-0.6-0.5-1.1-0.2-1.4,0.1c-0.3,0.3-1.1,1-1.3,1.3
					c-0.1,0.4,0.3,1.6,0.5,1.7C112.9,60.4,114.9,58.5,114.9,58.5z"/>
			</g>
			<g>
				<g>
					<g>
						<g>
							<path class="st1" d="M110.5,72c0.6-1.1,4.9-2.6,6-2.9c0.1,1.2,0.7,1.9,1.4,3.1c1,1.7-1.7,19.2-1.7,19.2h-2.4l0.6-16.2
								L110,91.4h-2.3C107.7,91.4,109.8,73.3,110.5,72z"/>
						</g>
					</g>
				</g>
			</g>
			<g>
				<g>
					<g>
						<path class="st1" d="M110.2,73.3l2.5-0.1l2.5-1.2h0.7c0,0,1.4,0.1,2.1,0.2c0.1,0.2,0.1,0.4,0.1,0.8c0,0.2-0.1,0.4-0.1,0.4
							s-1.1,0.6-2.4,0.8c-1.3,0.2-3.5,0.8-5.7,0.6C110,74.3,110.1,73.8,110.2,73.3z"/>
					</g>
				</g>
			</g>
			<g>
				<g>
					<g>
						<path class="st1" d="M110,69.5c-0.2-2.5-0.7-3.9-0.4-4.8c0.3-1.1,2.1-1.9,3.1-2c0.8-0.1,2.9,0,3.6,0.4
							c1.2,0.8,1.9,10.2,1.9,10.2s-0.7,0.4-2.7,0.8c-0.1,0-0.2-1.7-0.3-1.7c-0.2,0-0.5,1.8-0.8,1.8c-3.6,0.4-4.8,0-4.8,0
							S110.3,72.5,110,69.5z"/>
					</g>
				</g>
			</g>
			<g>
				<g>
					<path class="st1" d="M112.8,69.8c0,0-1,1.8-2.8,2.3c0-0.4,0-0.9,0-1.5L112.8,69.8z"/>
				</g>
			</g>
			<g>
				<g>
					<path class="st1" d="M110.8,65.4c0,0,0.4,3-0.7,4.3c0-0.1,0-0.1,0-0.2c-0.1-1.3-0.3-2.2-0.4-3L110.8,65.4z"/>
				</g>
			</g>
			<g>
				<g>
					<g>
						<path class="st1" d="M115.3,72.3C115.3,72.3,115.4,72.3,115.3,72.3c0,0,0.1-1.1,0-1.6c0-0.4-0.1-1.3-0.1-1.3c0,0,0,0,0,0
							c0,0,0,0,0,0c0,0,0.1,0.9,0.1,1.3C115.3,71.2,115.3,72.3,115.3,72.3C115.3,72.3,115.3,72.3,115.3,72.3
							C115.3,72.3,115.3,72.3,115.3,72.3z"/>
					</g>
				</g>
			</g>
			<g>
				<g>
					<g>
						<path class="st1" d="M113.3,62.6c-0.6,0.1-1,0.6-1.2,0.8c0,0.1,0,0.1,0,0.2l0.9,0.6c0,0-0.9-0.4-0.9-0.3
							c-0.1,0.1,2.4,3.7,2.7,3.8c0.3,0.1,0.7-4.1,0.5-4.1c-0.2,0-0.4,0.3-0.4,0.3l0.2-0.7c0,0,0-0.1,0-0.1
							C114.9,62.9,114.4,62.4,113.3,62.6z"/>
					</g>
				</g>
			</g>
			<g>
				<g>
					<g>
						<path class="st1" d="M112.8,63c0,0,0.5,1.1,0.8,1.7c0.3,0.6,1.2,3.3,1.2,3.3s-0.2-4.7-0.4-4.9C114.2,62.9,113.4,62.3,112.8,63
							z"/>
					</g>
				</g>
			</g>
			<g>
				<g>
					<g>
						<path class="st1" d="M113,70.8c0,0-0.1-2.4-0.1-3.1c0-0.7,0.4-2.6,0.4-2.6l4,0.4c0,0-0.5,3.1-0.1,5.1
							C117.2,70.7,114.9,71.5,113,70.8z"/>
					</g>
				</g>
				<g>
					<g>
						<path class="st1" d="M112.8,70.5c0,0,0.1-2.4,0.2-3.1c0.1-0.7,0.5-2.1,0.5-2.1l4.1,0.3c0,0-0.8,3-0.6,5
							C117,70.7,114.6,71.3,112.8,70.5z"/>
					</g>
				</g>
				<g>
					<g>
						<path class="st1" d="M113.2,71.2c0,0,0.4-3.1,0.5-3.8c0.1-0.7,0.2-1.5,0.2-1.5L118,66c0,0-0.5,2.9,0,5
							C118,71,115,72,113.2,71.2z"/>
					</g>
				</g>
			</g>
			<g>
				<g>
					<g>
						<path class="st1" d="M109.9,68.4C109.9,68.4,110,68.3,109.9,68.4c0.8-1.1,1.1-2.5,1.1-2.5c0,0,0,0,0,0c0,0,0,0,0,0
							C110.9,65.9,110.7,67.2,109.9,68.4C109.9,68.3,109.9,68.3,109.9,68.4C109.9,68.4,109.9,68.4,109.9,68.4z"/>
					</g>
				</g>
			</g>
			<g>
				<g>
					<g>
						<path class="st1" d="M110.7,66.8C110.7,66.8,110.7,66.8,110.7,66.8c0.3-0.1,0.6-0.6,0.6-0.6c0,0,0,0,0,0c0,0,0,0,0,0
							C111.2,66.2,110.9,66.7,110.7,66.8C110.7,66.8,110.7,66.8,110.7,66.8C110.7,66.8,110.7,66.8,110.7,66.8z"/>
					</g>
				</g>
			</g>
			<g>
				<g>
					<g>
						<path class="st1" d="M115.2,63.9c-0.8,0.5-2.6-0.2-2.7-0.5l0.2-2.6l0-0.1l0,0l1.4,0.5l0.2,0.4l0.1,0.1l0.1,0.1l0,0l0.3,0.8
							C114.8,62.7,115.4,63.7,115.2,63.9z"/>
					</g>
				</g>
			</g>
			<g>
				<g>
					<g>
						<path class="st1" d="M115.7,61c0,0.2,0,0.3-0.1,0.4c0,0,0,0,0,0c0,0,0,0.1-0.1,0.1c0,0,0,0-0.1,0.1c-0.2,0.1-0.5,0.2-0.9,0.2
							l0,0c0,0,0,0-0.1,0h0c0,0-0.1,0-0.1,0c-0.1,0-0.1,0-0.2,0c-0.2,0-0.3,0-0.5-0.1c0,0-0.1,0-0.1,0c-0.4-0.2-0.8-0.6-0.9-0.9
							c0-0.1,0-0.1,0-0.2l0-0.4l0-0.1c0.3-0.4,0.3-0.9,0.3-0.9c0-0.6,0.7-0.9,0.9-1c0.9-0.3,0.8,0.1,1.1,0.6
							C115.3,59.3,115.7,60.2,115.7,61z"/>
					</g>
				</g>
			</g>
			<g>
				<g>
					<g>
						<path class="st1" d="M112.9,60c-0.1-0.2-0.3-0.4-0.5-0.2c-0.3,0.4,0.1,1.2,0.6,1C113.4,60.7,112.9,60,112.9,60z"/>
					</g>
				</g>
			</g>
			<g>
				<g>
					<g>
						<g>
							<path class="st1" d="M114.7,60.3C114.7,60.3,114.7,60.3,114.7,60.3c0.1,0,0.2,0,0.3-0.1c0,0,0,0,0,0c0,0,0.1-0.1,0.1-0.1
								c0-0.1,0-0.1,0-0.1c0,0,0,0,0,0c0,0,0,0,0,0c0,0,0,0-0.1,0.1c0,0,0,0.1-0.1,0.1c0,0,0,0,0,0
								C114.8,60.2,114.8,60.2,114.7,60.3C114.7,60.3,114.7,60.3,114.7,60.3z"/>
						</g>
					</g>
				</g>
			</g>
			<g>
				<g>
					<g>
						<path class="st1" d="M113.7,59.3c0.2-0.1,0.3-0.2,0.6-0.2c0.1,0,0.1,0.1,0,0.1C114,59.3,113.9,59.3,113.7,59.3
							C113.6,59.5,113.6,59.4,113.7,59.3z"/>
					</g>
				</g>
			</g>
			<g>
				<g>
					<g>
						<path class="st1" d="M115.3,59.1c-0.1-0.1-0.2-0.1-0.3,0c-0.1,0-0.1,0.1,0,0.1c0.2,0.1,0.2,0,0.4,0.1
							C115.4,59.2,115.4,59.1,115.3,59.1z"/>
					</g>
				</g>
			</g>
			<g>
				<g>
					<g>
						<g>
							<path class="st1" d="M114.2,59.7c0,0.1,0,0.1-0.1,0.1c0,0-0.1,0-0.1-0.1c0-0.1,0-0.1,0.1-0.1
								C114.2,59.6,114.2,59.6,114.2,59.7z"/>
						</g>
					</g>
				</g>
			</g>
			<g>
				<g>
					<g>
						<g>
							<path class="st1" d="M115.3,59.5c0,0.1,0,0.1-0.1,0.1c0,0-0.1,0-0.1-0.1c0-0.1,0-0.1,0.1-0.1
								C115.3,59.4,115.3,59.5,115.3,59.5z"/>
						</g>
					</g>
				</g>
			</g>
			<g>
				<g>
					<g>
						<g>
							<path class="st1" d="M114.6,61.9l0.3,0.8c-0.5-0.2-0.9-0.6-1-0.9c0,0,0,0,0-0.1c-0.1-0.1-0.1-0.2-0.1-0.3
								c0-0.1,0.3,0.2,0.7,0.2c0,0,0.1,0,0.1,0c0.5,0.1,0.8,0,1-0.1C115.3,61.7,115.1,61.8,114.6,61.9L114.6,61.9
								C114.6,61.8,114.6,61.8,114.6,61.9C114.6,61.8,114.6,61.9,114.6,61.9z"/>
						</g>
					</g>
				</g>
			</g>
			<g>
				<g>
					<g>
						<path class="st1" d="M114,63c0,0-0.9-0.4-1.1-0.4l-0.1,0.5l0.9,0.7l0.3-0.5l0.7,0.2l-0.5-0.9L114,63z"/>
					</g>
				</g>
			</g>
			<g>
				<g>
					<path class="st1" d="M108.2,91.1C108.1,91.1,108.1,91.1,108.2,91.1l1-6.3c0-0.1,0.9-6.5,1.2-7.7c0.2-1.1,0.2-1.3,0.2-1.3
						c0,0,0,0,0,0c0,0,0,0,0.1,0c0,0-0.1,0.5-0.2,1.3c-0.2,1.2-1.2,7.7-1.2,7.7L108.2,91.1C108.2,91.1,108.2,91.1,108.2,91.1
						C108.2,91.1,108.2,91.1,108.2,91.1z M110.6,75.7L110.6,75.7L110.6,75.7z M110.6,75.7L110.6,75.7L110.6,75.7z"/>
				</g>
			</g>
			<g>
				<g>
					<path class="st1" d="M114.4,75.2C114.4,75.2,114.5,75.2,114.4,75.2c0.3-0.5,0.5-0.6,0.5-0.6c0,0,0,0,0-0.1s0,0-0.1,0
						C114.9,74.5,114.7,74.7,114.4,75.2C114.4,75.2,114.4,75.2,114.4,75.2C114.4,75.2,114.4,75.2,114.4,75.2z"/>
				</g>
			</g>
			<g>
				<g>
					<path class="st1" d="M114.3,91.1C114.3,91.1,114.4,91.1,114.3,91.1c0,0,0.1-1.2,0.2-1.6c0-0.3,0.1-1.3,0.1-2.1
						c0-0.6,0-1.1,0-1.4c0-0.2,0-0.6,0-1.1c0-1.2,0-3,0.1-3.3c0.1-0.3,0.1-1.1,0.1-2c0-0.9,0-1.7,0.1-2c0.1-0.6-0.1-2-0.1-2.1
						c0,0,0,0-0.1,0c0,0,0,0,0,0c0,0,0.3,1.4,0.1,2c-0.1,0.3-0.1,1.2-0.1,2.1c0,0.9,0,1.8-0.1,2c-0.1,0.4-0.1,2.2-0.1,3.4
						c0,0.5,0,0.9,0,1.1c0,0.2,0,0.8,0,1.4c0,0.9,0,1.9-0.1,2.1C114.3,90,114.3,91.1,114.3,91.1C114.3,91.1,114.3,91.1,114.3,91.1
						C114.3,91.1,114.3,91.1,114.3,91.1z"/>
				</g>
			</g>
			<g>
				<g>
					<path class="st1" d="M110.1,75.9C110.1,75.9,110.1,75.9,110.1,75.9c0.9-0.2,1.5-0.8,1.6-0.9c0,0,0,0,0-0.1c0,0,0,0-0.1,0
						C111.5,75.1,110.9,75.7,110.1,75.9C110,75.9,110,75.9,110.1,75.9C110,75.9,110.1,75.9,110.1,75.9z"/>
				</g>
			</g>
			<g>
				<path class="st1" d="M115.4,60.3c0,0-0.5,0.2-1,0.1c0,0,0.2,0.4,0.6,0.4C115.4,60.8,115.4,60.3,115.4,60.3z"/>
			</g>
			<g>
				<g>
					<g>
						<path class="st1" d="M110.3,63.7c0,0-4.9,5.3-3.7,7.5c1.1,1.9,5.3-0.1,6.6-1.6c0.3-0.4,0-1.1-0.1-1.3
							c-0.3-0.7-4.2,1.1-4.2,1.1s0.6-0.4,1.1-1.2c0.6-1,1-2.5,1-3.3C110.9,63.7,110.3,63.7,110.3,63.7z"/>
					</g>
				</g>
			</g>
			<g>
				<g>
					<g>
						<path class="st1" d="M107.6,70.3C107.6,70.3,107.6,70.3,107.6,70.3c0.3-0.6,1.4-0.9,1.4-0.9c0,0,0,0,0,0c0,0,0,0,0,0
							C108.9,69.4,107.9,69.7,107.6,70.3C107.6,70.3,107.6,70.3,107.6,70.3C107.6,70.3,107.6,70.3,107.6,70.3z"/>
					</g>
				</g>
			</g>
			<g>
				<path class="st1" d="M109.6,68.5c0,0,0.2-0.3,0.3-0.5c0.2-0.2,0.3-0.2,0.4-0.4c0.2-0.2,0.3-0.1,0.2,0c-0.1,0.2-0.3,0.5-0.3,0.6
					c0,0,0.9-0.3,1.1-0.2c0.2,0.1-0.5,0.3-0.6,0.4s0.5-0.2,0.6-0.1s-0.3,0.6-0.5,0.8c-0.3,0.2-1,0.2-1.2,0
					C109.5,69,109.5,68.6,109.6,68.5z"/>
			</g>
			<g>
				<path class="st1" d="M119.5,68.8c0,0-1.5-1-1.8-0.6c-0.3,0.4-0.3,1.7,0.1,2.3c0.6,0.8,1.5,1.3,2.2,0.6
					C120.7,70.3,119.5,68.8,119.5,68.8z"/>
			</g>
			<g>
				<path class="st1" d="M118.2,67.9c0.1,0.2-0.1,1.4-0.1,1.4s-0.6,0.1-0.8-0.2c-0.1-0.2-0.1-0.5-0.1-0.5s-0.1,0,0-0.3
					c0-0.2,0.3-0.2,0.4-0.2c-0.1,0-0.3,0-0.4-0.2C117,67.7,118,67.6,118.2,67.9z"/>
			</g>
		</g>
	</g>
</g>
</svg>
