<?xml version="1.0" encoding="utf-8"?>
<!-- Generator: Adobe Illustrator 25.4.1, SVG Export Plug-In . SVG Version: 6.00 Build 0)  -->
<svg version="1.1" id="圖層_1" xmlns="http://www.w3.org/2000/svg" xmlns:xlink="http://www.w3.org/1999/xlink" x="0px" y="0px"
	 viewBox="0 0 170 120" style="enable-background:new 0 0 170 120;" xml:space="preserve">
<style type="text/css">
	.st09{fill:#F46E27;}
	.st1{fill:#FFFFFF;}
</style>
<g>
	<rect class="st09" width="170" height="120"/>
</g>
<g>
	<path class="st1" d="M20.1,27.3l-0.2-0.1c-0.5,1.2-2.4,2.9-4.9,2.8c-4.1-0.1-6.8-3.2-6.8-7.7c0-5.4,3.1-7.9,7.9-7.9
		c4.7,0,7.3,3.5,7.3,9.2c0,8.9-4,14.5-13.4,15.3l-0.3-1.5C17,36.3,19.5,32.1,20.1,27.3z M19.9,24.8c0.2-0.7,0.3-1.2,0.3-2.1
		c-0.1-3.2-1.1-6.3-4.3-6.3c-2.8,0-4.3,2.8-4.3,5.9c0,2.8,1.6,5.5,4.3,5.5C17.7,27.8,19.2,26.8,19.9,24.8z"/>
</g>
<g>
	<path class="st1" d="M47.2,26.6v1.2H33.4v-1.2h5.9v-9.9h-5v-1.1h12.1v1.1h-4.9v9.9H47.2z"/>
	<path class="st1" d="M63.6,26.2l-0.8,2.1c-1.8-0.4-4-1.5-5.5-3v3.5h-2.1v-3.2c-1.3,1.1-3.5,2.2-6,2.7L49,27.5
		c1.9-0.7,3.6-1.7,5-3.1h-4.6v-0.9h5.8v-0.9H51v-0.9h4.2v-0.8h-5.2v-0.9h3.5c-0.4-0.6-0.7-1.3-1.1-1.8l0,0h-2.7v-0.9h2.1
		c-0.3-0.7-0.8-1.6-1.2-2.4l0.6-0.5c0.8,0.7,1.7,1.5,2.3,2.3l-1,0.6H54V14h1.8v3.1h1.1V14h1.8v3.1h0.3c0.4-0.7,0.9-2,1.2-3L62,15
		c-0.5,0.7-1.2,1.5-1.9,2.1h2.8V18h-3.7l0.9,0.4c-0.5,0.5-1,1-1.5,1.4h3.9v0.9h-5.2v0.8h4.2v0.9h-4.2v0.9h5.8v0.9h-5.3
		C59.6,25.4,61.8,26,63.6,26.2z M55.4,19.4l-0.6,0.5h2.6c0.3-0.5,0.6-1.2,0.8-1.8h-4.4C54.4,18.4,54.9,18.9,55.4,19.4z"/>
	<path class="st1" d="M71,14.2c-0.3,1.2-0.7,2.4-1.4,3.7v10.8h-2v-7.8c-0.6,0.8-1.3,1.5-2.1,2L65,22.3c1.8-2.3,3-4.8,3.8-8.6
		L71,14.2z M77.6,28.3c-1.2,0.1-2.4,0.1-3.6,0c-1.8-0.1-2.2-0.5-2.2-2.5V14.2h2v6c1.1-0.9,2.4-2.1,3.4-3.5l1.7,1.5
		c-1.3,1.2-3.2,2.5-5.1,3.2v4c0,0.7,0.2,0.9,0.8,1c0.8,0.1,1.6,0.1,2.4,0c1-0.1,1.1-0.3,1.1-3.4H79C79.8,26.4,79.7,28.1,77.6,28.3z"
		/>
	<path class="st1" d="M85.4,19.8l0.7-0.9c1.8,1,3.5,2.2,4.9,3.4l-1.8,2C88,22.6,86.8,21.2,85.4,19.8z"/>
	<path class="st1" d="M102.3,15.8c-0.2,0.3-0.5,0.7-0.8,1c0.6,0.4,1.2,0.9,1.7,1.5l-0.9,0.7h2.8v4.5h-5c0,0.3-0.1,0.7-0.2,1h5.3v4.2
		h-1.8v-0.8h-2.5v0.8h-1.8v-2c-0.5,1-1.1,1.8-1.8,2.3L97,28.4c1.2-1.7,1.5-3.4,1.5-7.6v-1.4c-0.4,0.3-0.8,0.5-1.2,0.7l-0.4-0.7
		c1.8-1.5,3.3-3.4,4.1-5.7l2,0.6c-0.1,0.2-0.2,0.4-0.3,0.6c1.2,0.7,2.4,1.6,3.2,2.3l-1.3,1.4C104.1,17.8,103.2,16.7,102.3,15.8z
		 M101.7,19c-0.3-0.5-0.6-1-0.9-1.4c-0.4,0.5-0.9,0.9-1.5,1.3l0.9,0.1H101.7z M103.5,22.5v-0.9h-3.1c0,0.3,0,0.6,0,0.9H103.5z
		 M103.5,19.9h-3.1v0.8h3.1V19.9z M101.1,25.4V27h2.5v-1.6H101.1z M110.7,14v13c0,1.8-1.8,2.4-4.6,0.9l0.2-0.8
		c2.3,0.3,2.6,0.2,2.6-0.7V14H110.7z M107.9,25.1h-1.7v-9.6h1.7V25.1z"/>
	<path class="st1" d="M127.4,20H126v8.7h-2V20h-1.3v0.4c0,4-0.8,6.8-3,8.5l-0.6-0.5c0.7-0.9,1.1-1.9,1.3-3.1l-1.2,1.2
		c-0.4-0.6-0.9-1.2-1.3-1.7v4h-1.9v-3.5c-0.6,0.8-1.5,1.8-2.6,2.5l-0.5-0.6c1-1,2.1-2.5,2.7-4.2h-2.2v-1h2.6v-1.3h1.9v1.3h2.3v1H118
		v0.5c0.8,0.4,1.8,1.1,2.5,1.8c0.2-1.2,0.3-2.5,0.3-4.2v-6l1.7,0.4c1.1-0.4,2.3-0.9,3.3-1.6l1.5,1.6c-1.3,0.6-3.1,0.8-4.5,0.8V19
		h4.6V20z M120.5,20.4h-7.2v-1h1.8c-0.3-0.8-0.6-1.6-0.9-2.3l0.6-0.4h-1.3v-1h3c-0.5-0.5-1-0.9-1.6-1.4l0.4-0.7
		c0.9,0.2,1.9,0.6,2.9,1.2l-0.6,0.8h2.7v1h-2l1.6,0.6c-0.3,0.7-0.8,1.5-1.4,2.1h2.1V20.4z M116.7,19l-0.9,0.5h1.6
		c0.3-0.9,0.6-1.9,0.7-2.7h-3.2C115.5,17.4,116.2,18.2,116.7,19z"/>
	<path class="st1" d="M142.3,28.9c-1.6-0.5-3.2-1.3-4.6-2.5c-1.6,1.3-3.7,2.2-6.2,2.6l-0.3-0.8c2.3-0.8,4-1.8,5.3-3
		c-1.1-1.3-1.9-2.9-2.4-4.9c-0.7,3.6-2.1,6.6-4.6,8.5l-0.5-0.6c2.6-3.1,3.3-6.9,3.4-12.4h-2.5v-1.1h9.9c-0.3,1.7-0.8,3.3-1.1,4.4
		h0.8l0.5-0.5l2,0.9c-0.7,2.2-1.6,4-2.9,5.5c1.3,0.7,2.7,1.2,4.3,1.6L142.3,28.9z M134.6,15.8c0,1.1-0.1,2.2-0.3,3.3h2.3
		c0.3-1,0.6-2.2,0.8-3.3H134.6z M139.5,20.1H135c0.6,1.7,1.5,2.9,2.6,3.9C138.5,22.8,139.1,21.5,139.5,20.1z"/>
	<path class="st1" d="M41.3,46.4h5.4v1H33.9v-1h5.4v-1.7h-2.5v-0.8c-1.2,0.9-2.5,1.5-3.5,1.8L32.9,45c1.4-0.7,3.1-2.1,4.1-3.7h-3.7
		v-1h3.1v-4.6H34v-1h2.5v-1.6h1.9v1.6h3.6v-1.6H44v1.6h2.6v1H44v4.6h3.2v1H43c1.2,1.1,2.7,1.9,4.6,2.5l-0.9,1.9c-1-0.3-2-1-2.8-1.8
		v0.9h-2.6V46.4z M39.3,42h2.1v1.7h2.5c-0.7-0.7-1.4-1.6-1.9-2.4h-2.8c-0.5,0.9-1.3,1.8-2.2,2.4h2.3V42z M38.4,36.6h3.6v-0.9h-3.6
		V36.6z M38.4,38.5h3.6v-0.9h-3.6V38.5z M38.4,40.3h3.6v-0.9h-3.6V40.3z"/>
	<path class="st1" d="M54.1,45.7h-2.3v1.6h-1.7v-5c-0.2,0.4-0.4,0.7-0.6,1l-0.6-0.4c0.9-1.8,1.6-4.9,1.7-7.7h-1.3v-0.9h5.3v0.8h1
		v-1.8h1.6v1.8h1.2v0.9h-1.2v0.2c0.6,0.4,1,0.7,1.5,1.1L57.8,38c-0.2-0.3-0.4-0.6-0.6-0.9v2.4h-1.6v-1.9c-0.4,0.6-1.1,1.1-1.6,1.5
		l-0.4-0.5c0.7-0.7,1.3-1.6,1.8-2.8h-1.3V35h-1.6c-0.1,1.4-0.5,2.8-0.9,4.1h2.6V45.7z M52.6,40.1h-0.8v4.7h0.8V40.1z M60.2,45.9
		c1.5,0,2.4,0,3.4-0.2L63,47.7c-0.9,0-1.4,0-2.2,0c-2-0.1-3.7-0.7-4.7-2.5c-0.4,1.1-1.1,2.2-2.1,3l-0.6-0.5c1.2-1.6,1.6-3.6,1.7-6
		l1.8,0.2c-0.1,0.7-0.2,1.4-0.4,2.2c0.3,0.5,0.7,0.9,1.2,1.2v-4.4h-3.2v-0.9h7.3l0.4-0.3l1.4,1c-0.6,0.8-1.4,1.4-2.2,1.8L60.9,42
		c0.3-0.5,0.5-0.8,0.7-1.2h-2v2.1h3.1v0.9h-3.1v2C59.8,45.9,60,45.9,60.2,45.9z M59.5,35.8h-0.8v-0.9h1.2v-1.8h1.6v1.8h1.7v0.9h-1.6
		c0.5,1,1.4,1.7,2.1,2.2l-1.1,1.2c-0.5-0.5-0.8-1.1-1.1-1.9v2.2h-1.6v-2.1c-0.4,0.7-1,1.3-1.9,2l-0.4-0.5
		C58.3,38.1,59,37.1,59.5,35.8z"/>
	<path class="st1" d="M79.6,45.4L79,47.5c-1.3,0.1-2.9,0.1-4.4,0.1c-2.6-0.1-4.9-0.5-6.5-1.9c-0.7,0.9-1.6,1.7-2.6,2.3L65,47.4
		c0.8-0.7,1.5-1.5,2.1-2.7c-0.6-0.9-1.1-2.1-1.4-3.7l0.8-0.3c0.3,1.1,0.7,1.9,1.2,2.5c0.4-1,0.6-2.2,0.8-3.7h-1.1
		c-0.2,0.4-0.4,0.6-0.5,0.9L65.4,40c0.8-1.4,1.7-3.3,2.3-4.9h-2.4v-1h4.7c-0.5,1.4-1.4,3.2-2.1,4.6h0.6l0.4-0.3l1.5,0.6
		c-0.3,2.2-0.8,4-1.6,5.5c1.4,1.1,3.3,1.3,5.9,1.3C76.6,45.8,78.2,45.6,79.6,45.4z M73.2,35.4h-2.5v-0.9h2.4v-1.3h1.9v1.3h3v2h1.2
		v0.9h-1.2v2.1h-3v1h3v0.9h-3v1.1h3.8v0.9h-3.8v1.8h-1.9v-1.8H70v-0.9h3.2v-1.1h-2.6v-0.9h2.6v-1h-2.4v-0.9h2.4v-1.2h-3.2v-0.9h3.2
		V35.4z M75.1,36.5h1.3v-1.1h-1.3V36.5z M75.1,38.6h1.3v-1.2h-1.3V38.6z"/>
	<path class="st1" d="M87.4,36.9h-6.1v-1h2.7c-0.5-0.9-1-1.8-1.4-2.4l0.6-0.5c0.8,0.5,1.9,1.5,2.6,2.4l-0.8,0.6h2.5V36.9z
		 M86.9,46.7h-3.3v1.2h-1.8v-5.4h5.1V46.7z M86.8,39.1h-5v-1h5V39.1z M81.8,40.3h5v1h-5V40.3z M85.1,43.5h-1.6v2.3h1.6V43.5z
		 M94.7,47.9c-1.4-0.4-2.6-1.1-3.6-2c-1.2,0.9-2.6,1.7-4.4,2.1l-0.3-0.8c1.6-0.6,2.8-1.5,3.7-2.4c-0.8-1.1-1.5-2.3-1.8-3.7h-0.8v-1
		h4.7l0.5-0.4l1.8,0.8c-0.5,1.5-1.2,2.8-2.2,4c1.1,0.6,2.3,0.9,3.3,1.1L94.7,47.9z M88.2,35.5v-1.6h5v3.3c0,0.5,0.1,0.7,0.5,0.7
		c0.4,0,0.7,0,1-0.4l0.7,1.3c-0.5,0.5-1.1,0.7-2.4,0.7c-1.5,0-1.8-0.5-1.8-1.8v-2.8h-1.2v0.8c0,2.5-1.1,3.7-2.9,4.5l-0.4-0.6
		C88,38.4,88.2,37.8,88.2,35.5z M91,43.8c0.6-0.8,1-1.7,1.3-2.6h-3.1C89.6,42.3,90.2,43.1,91,43.8z"/>
</g>
<g>
	<path class="st1" d="M60.2,105.6V92.3H48.6v-9.4h-3l-1.4-15.2H45v-3.1h-8.3v3.1h0.8l-1.4,15.2H25.6v17.4h6.6v5.2h-6.6h-5.8v2.9
		h43.9v-2.9H60.2z M42.2,88h4.1V92h-4.1V88z M36,88h4.1V92H36V88z M29.9,88H34V92h-4.1V88z M29.9,97.5v-2.7h24.6v2.7H29.9z
		 M40.1,104.4H36v-4.1h4.1V104.4z M46.3,104.4h-4.1v-4.1h4.1V104.4z M52.4,104.4h-4.1v-4.1h4.1V104.4z M58.6,104.4h-4.1v-4.1h4.1
		V104.4z"/>
	<path class="st1" d="M99.6,76.7l-6.6,3.9v11.3h-5.8c-0.5,0-1-0.2-1.4-0.6l-2.2-2.2c-0.7-0.7-1.5-1-2.4-1h-5.5v-7.5l-6.6-3.9
		l-6.6,3.9v24.9v2.9h43.9v-2.9V80.6L99.6,76.7z M67.9,105.6h-3.4V100h3.4V105.6z M73.4,105.6H70V100h3.4V105.6z M73.4,97.9h-8.8
		v-3.4h8.8V97.9z M73.4,92.4h-8.8v-3.4h8.8V92.4z M73.4,86.9h-8.8v-3.4h8.8V86.9z M85.3,105.6h-3.7v-9.4h-6v-6.7h5.5
		c0.5,0,1,0.2,1.4,0.6l2.2,2.2c0.2,0.2,0.4,0.3,0.6,0.5V105.6z M92.9,105.6h-6.2V93.4c0.1,0,0.3,0,0.4,0h5.8V105.6z M98.5,105.6
		h-3.4V100h3.4V105.6z M104,105.6h-3.4V100h3.4V105.6z M104,97.9h-8.8v-3.4h8.8V97.9z M104,92.4h-8.8v-3.4h8.8V92.4z M104,86.9h-8.8
		v-3.4h8.8V86.9z"/>
	<path class="st1" d="M147,105.6V87.1h-4.9l-1.9-19.5h1.3v-2.9h-7.8v2.9h1.3L133,87.1h-4.9V70.6h-18.9v34.9h-3v2.9H150v-2.9H147z
		 M125.5,99.3h-13.8v-2.7h13.8V99.3z M125.5,94.7h-13.8V92h13.8V94.7z M125.5,90h-13.8v-2.7h13.8V90z M125.5,85.4h-13.8v-2.7h13.8
		V85.4z M125.5,80.8h-13.8v-2.7h13.8V80.8z M125.5,76.2h-13.8v-2.7h13.8V76.2z M132.3,102.2h-2.7V88.9h2.7V102.2z M134,88.9h2.7v6.6
		H134V88.9z M141.1,105.6H134v-8.3h7.1V105.6z M141.1,95.6h-2.7v-6.6h2.7V95.6z M145.5,102.2h-2.7V88.9h2.7V102.2z"/>
</g>
</svg>
