<?xml version="1.0" encoding="utf-8"?>
<!-- Generator: Adobe Illustrator 25.4.1, SVG Export Plug-In . SVG Version: 6.00 Build 0)  -->
<svg version="1.1" id="圖層_1" xmlns="http://www.w3.org/2000/svg" xmlns:xlink="http://www.w3.org/1999/xlink" x="0px" y="0px"
	 viewBox="0 0 36.7 36.7" style="enable-background:new 0 0 36.7 36.7;" xml:space="preserve">
<style type="text/css">
	.st0{fill:#FFFFFF;}
</style>
<g>
	<g>
		<path class="st0" d="M13.8,31c-1.6,0-2.9,1.3-2.9,2.9s1.3,2.9,2.9,2.9c1.6,0,2.9-1.3,2.9-2.9S15.3,31,13.8,31z M28.2,31
			c-1.6,0-2.9,1.3-2.9,2.9s1.3,2.9,2.9,2.9c1.6,0,2.9-1.3,2.9-2.9S29.8,31,28.2,31z"/>
		<path class="st0" d="M34.7,5.5H9.4L8.6,2.2C8.3,1,7.2,0,5.9,0H1.8C0.8,0,0,0.8,0,1.8c0,1,0.8,1.8,1.8,1.8h3.5L10,21.7l-1.9,4.3
			c-0.2,0.5-0.2,1.2,0.1,1.7c0.3,0.5,0.9,0.8,1.5,0.8h22c1,0,1.8-0.8,1.8-1.8c0-1-0.8-1.8-1.8-1.8H12.4l1.1-2.4c0,0,0-0.1,0-0.1
			h18.2c0.9,0,1.7-0.6,1.9-1.5l3.1-13C37,6.7,36,5.5,34.7,5.5z M17.7,16.5c0,0.7-0.6,1.2-1.2,1.2c-0.7,0-1.3-0.6-1.3-1.2v-5.1
			c0-0.7,0.6-1.2,1.3-1.2c0.7,0,1.2,0.6,1.2,1.2V16.5z M23.7,16.5c0,0.7-0.6,1.2-1.2,1.2c-0.7,0-1.2-0.6-1.2-1.2v-5.1
			c0-0.7,0.6-1.2,1.2-1.2c0.7,0,1.2,0.6,1.2,1.2V16.5z M29.7,16.5c0,0.7-0.6,1.2-1.2,1.2c-0.7,0-1.2-0.6-1.2-1.2v-5.1
			c0-0.7,0.6-1.2,1.2-1.2c0.7,0,1.2,0.6,1.2,1.2V16.5z"/>
	</g>
</g>
</svg>
