<?xml version="1.0" encoding="utf-8"?>
<!-- Generator: Adobe Illustrator 28.0.0, SVG Export Plug-In . SVG Version: 6.00 Build 0)  -->
<svg version="1.1" id="圖層_1" xmlns="http://www.w3.org/2000/svg" xmlns:xlink="http://www.w3.org/1999/xlink" x="0px" y="0px"
	 viewBox="0 0 14.3 14.3" style="enable-background:new 0 0 14.3 14.3;" xml:space="preserve">
<style type="text/css">
	.st0{fill-rule:evenodd;clip-rule:evenodd;fill:#666666;}
</style>
<path class="st0" d="M0.9,0h4.9c0.5,0,0.9,0.4,0.9,0.9v4.9c0,0.5-0.4,0.9-0.9,0.9H0.9C0.4,6.7,0,6.3,0,5.8V0.9C0,0.4,0.4,0,0.9,0
	L0.9,0z M8.5,0h4.9c0.5,0,0.9,0.4,0.9,0.9v4.9c0,0.5-0.4,0.9-0.9,0.9H8.5C8,6.7,7.6,6.3,7.6,5.8V0.9C7.6,0.4,8,0,8.5,0L8.5,0z
	 M8.7,1.1v4.5h4.5V1.1H8.7L8.7,1.1z M8.5,7.6h4.9c0.5,0,0.9,0.4,0.9,0.9v4.9c0,0.5-0.4,0.9-0.9,0.9H8.5c-0.5,0-0.9-0.4-0.9-0.9V8.5
	C7.6,8,8,7.6,8.5,7.6L8.5,7.6z M8.7,8.7v4.5h4.5V8.7H8.7L8.7,8.7z M0.9,7.6h4.9c0.5,0,0.9,0.4,0.9,0.9v4.9c0,0.5-0.4,0.9-0.9,0.9
	H0.9c-0.5,0-0.9-0.4-0.9-0.9V8.5C0,8,0.4,7.6,0.9,7.6L0.9,7.6z M1.1,8.7v4.5h4.5V8.7H1.1L1.1,8.7z M1.1,1.1v4.5h4.5V1.1H1.1z"/>
</svg>
