<?xml version="1.0" encoding="utf-8"?>
<!-- Generator: Adobe Illustrator 28.0.0, SVG Export Plug-In . SVG Version: 6.00 Build 0)  -->
<svg version="1.1" id="圖層_1" xmlns="http://www.w3.org/2000/svg" xmlns:xlink="http://www.w3.org/1999/xlink" x="0px" y="0px"
	 viewBox="0 0 14.3 14.3" style="enable-background:new 0 0 14.3 14.3;" xml:space="preserve">
<style type="text/css">
	.st0{fill-rule:evenodd;clip-rule:evenodd;fill:#666666;}
</style>
<path class="st0" d="M0.9,0.9C0.4,0.9,0,1.3,0,1.8c0,0.5,0.4,0.9,0.9,0.9c0.5,0,0.9-0.4,0.9-0.9C1.8,1.3,1.4,0.9,0.9,0.9L0.9,0.9z
	 M3.6,11.6h9.9c0.5,0,0.9,0.4,0.9,0.9c0,0.5-0.4,0.9-0.9,0.9H3.6c-0.5,0-0.9-0.4-0.9-0.9C2.7,12,3.1,11.6,3.6,11.6L3.6,11.6z
	 M0.9,11.6C0.4,11.6,0,12,0,12.5c0,0.5,0.4,0.9,0.9,0.9c0.5,0,0.9-0.4,0.9-0.9C1.8,12,1.4,11.6,0.9,11.6L0.9,11.6z M3.6,8.1h9.9
	c0.5,0,0.9,0.4,0.9,0.9c0,0.5-0.4,0.9-0.9,0.9H3.6C3.1,9.9,2.7,9.5,2.7,9C2.7,8.5,3.1,8.1,3.6,8.1L3.6,8.1z M0.9,8.1
	C0.4,8.1,0,8.5,0,9c0,0.5,0.4,0.9,0.9,0.9c0.5,0,0.9-0.4,0.9-0.9C1.8,8.5,1.4,8.1,0.9,8.1L0.9,8.1z M3.6,4.5h9.9
	c0.5,0,0.9,0.4,0.9,0.9c0,0.5-0.4,0.9-0.9,0.9H3.6c-0.5,0-0.9-0.4-0.9-0.9S3.1,4.5,3.6,4.5L3.6,4.5z M0.9,4.5C0.4,4.5,0,4.9,0,5.4
	c0,0.5,0.4,0.9,0.9,0.9c0.5,0,0.9-0.4,0.9-0.9C1.8,4.9,1.4,4.5,0.9,4.5L0.9,4.5z M3.6,0.9h9.9c0.5,0,0.9,0.4,0.9,0.9
	c0,0.5-0.4,0.9-0.9,0.9H3.6c-0.5,0-0.9-0.4-0.9-0.9C2.7,1.3,3.1,0.9,3.6,0.9z"/>
</svg>
